<?xml version="1.0" encoding="UTF-8" standalone="no"?>
<!-- Created with Inkscape (http://www.inkscape.org/) -->

<svg
   xmlns:dc="http://purl.org/dc/elements/1.1/"
   xmlns:cc="http://creativecommons.org/ns#"
   xmlns:rdf="http://www.w3.org/1999/02/22-rdf-syntax-ns#"
   xmlns:svg="http://www.w3.org/2000/svg"
   xmlns="http://www.w3.org/2000/svg"
   xmlns:sodipodi="http://sodipodi.sourceforge.net/DTD/sodipodi-0.dtd"
   xmlns:inkscape="http://www.inkscape.org/namespaces/inkscape"
   width="27.695642mm"
   height="16.614241mm"
   viewBox="0 0 27.695642 16.614241"
   version="1.1"
   id="svg8"
   inkscape:version="0.92.1 r15371"
   sodipodi:docname="altar.svg"
   inkscape:export-filename="/home/ziltoid/git/menhyr/png/altar.png"
   inkscape:export-xdpi="56.565937"
   inkscape:export-ydpi="56.565937">
  <defs
     id="defs2">
    <filter
       inkscape:collect="always"
       style="color-interpolation-filters:sRGB"
       id="filter5186"
       x="-0.054790329"
       width="1.1095808"
       y="-0.17991669"
       height="1.3598334">
      <feGaussianBlur
         inkscape:collect="always"
         stdDeviation="0.25903442"
         id="feGaussianBlur5188" />
    </filter>
  </defs>
  <sodipodi:namedview
     id="base"
     pagecolor="#ffffff"
     bordercolor="#666666"
     borderopacity="1.0"
     inkscape:pageopacity="0.0"
     inkscape:pageshadow="2"
     inkscape:zoom="1.4"
     inkscape:cx="-330.81249"
     inkscape:cy="16.719573"
     inkscape:document-units="mm"
     inkscape:current-layer="layer1"
     showgrid="false"
     inkscape:snap-nodes="false"
     inkscape:window-width="2560"
     inkscape:window-height="1016"
     inkscape:window-x="0"
     inkscape:window-y="27"
     inkscape:window-maximized="1"
     fit-margin-top="0"
     fit-margin-left="0"
     fit-margin-right="0"
     fit-margin-bottom="0" />
  <metadata
     id="metadata5">
    <rdf:RDF>
      <cc:Work
         rdf:about="">
        <dc:format>image/svg+xml</dc:format>
        <dc:type
           rdf:resource="http://purl.org/dc/dcmitype/StillImage" />
        <dc:title></dc:title>
      </cc:Work>
    </rdf:RDF>
  </metadata>
  <g
     inkscape:label="Layer 1"
     inkscape:groupmode="layer"
     id="layer1"
     transform="translate(-73.687561,-207.73267)">
    <path
       style="fill:#c87137;fill-rule:evenodd;stroke:#c87137;stroke-width:0.05644445;stroke-linecap:butt;stroke-linejoin:miter;stroke-miterlimit:4;stroke-dasharray:none;stroke-opacity:1"
       d="m 76.991452,216.17661 c -0.46854,-0.25387 -0.96218,-0.45747 -1.45579,-0.64164 -0.27048,-0.13509 -0.93172,-0.48302 -1.32286,-0.7595 -0.39745,-0.14169 -0.31459,-0.4202 0.0689,-0.29112 0.65212,0.0803 1.32461,0.0125 1.96082,0.20003 0.27579,0.17349 0.38116,0.30377 0.12325,-0.0643 -0.33272,-0.49517 -0.73497,-0.94197 -1.10681,-1.38703 -0.22032,-0.1809 -0.29354,-0.40643 -0.003,-0.0827 0.50146,0.35219 0.92264,0.8122 1.38955,1.2133 0.40524,0.17778 -0.10199,-0.66922 -0.12021,-0.95453 -0.15163,-0.52504 -0.37658,-1.02932 -0.41267,-1.58304 -0.0496,-0.26916 -0.4194,-1.27781 -0.0798,-0.61241 0.16498,0.59041 0.37106,0.99054 0.52655,1.54158 0.25462,0.39116 0.54198,1.31039 0.73334,1.38974 0.18985,-0.72983 -0.0466,-1.49001 0.0286,-2.23509 -0.0845,-0.24474 0.14011,-1.26481 0.16745,-0.54604 0.0495,0.26814 -0.0673,0.8375 0.0318,0.71509 0.0435,0.54262 0.051,1.09838 0.17095,1.62798 0.47691,0.2809 0.80041,-0.7239 1.06839,-1.10836 0.43948,-0.36492 -0.0994,0.55822 -0.20741,0.71235 -0.30958,0.45384 -0.75803,0.95697 -0.75853,1.53567 0.6084,0.11849 1.05722,-0.44919 1.5852,-0.66636 0.27252,-0.10753 0.68512,-0.27822 0.2192,0.0193 -0.52509,0.41649 -1.19955,0.40572 -1.76523,0.72706 0.54718,-0.0377 1.07688,0.219 1.62784,0.12523 0.25387,-0.0114 0.80349,-0.0331 0.2699,0.11794 -0.71289,0.2686 -1.44391,0.49959 -2.19868,0.56123 -0.0881,0.0487 -0.64553,0.16756 -0.52058,0.12435"
       id="path4516"
       inkscape:connector-curvature="0" />
    <path
       style="fill:#c87137;fill-rule:evenodd;stroke:#c87137;stroke-width:0.05644445;stroke-linecap:butt;stroke-linejoin:miter;stroke-miterlimit:4;stroke-dasharray:none;stroke-opacity:1"
       d="m 77.120692,215.69736 c 0.86011,-0.42289 1.53271,-1.1711 2.25237,-1.82034 0.3048,-0.40066 0.76559,-0.61375 0.99967,-1.09259 0.24812,-0.19372 0.50754,-0.6191 0.0459,-0.28502 -0.38689,0.3657 -0.69598,0.83096 -1.16861,1.07863 -0.55817,0.41276 -1.1248,0.81276 -1.62418,1.31209 -0.63466,0.5479 -0.11535,-0.48535 0.0494,-0.74911 0.42127,-0.78288 1.09205,-1.49351 1.05849,-2.47507 0.12049,-0.48301 0.10132,-0.39529 -0.10987,-0.0421 -0.61168,1.04988 -1.30593,2.03886 -1.84663,3.13795 -0.14162,0.21581 -0.50836,1.05873 -0.34895,0.31501 0.22634,-1.32264 0.70051,-2.56679 1.08459,-3.83867 -0.17946,-0.27655 -0.16326,0.63055 -0.31295,0.82443 -0.18564,0.60148 -0.23871,1.24211 -0.48511,1.82249 -0.0283,0.62356 -0.37136,0.3129 -0.4174,-0.11782 -0.22278,-0.72274 -0.3061,-1.48173 -0.4118,-2.23054 -0.0933,-0.3609 0.23583,0.39804 0.16977,0.57252 -8.5e-4,0.13692 0.15786,0.33464 0.0486,0.12998 0.0152,0.68822 0.28528,1.31179 0.52476,1.93174 0.34699,0.58541 -0.26593,0.75831 -0.61416,0.40527 -0.52579,-0.4219 -1.12476,-0.7019 -1.60539,-1.18813 -0.40677,-0.21018 -0.34308,-0.55464 0.092,-0.35121 0.55352,0.17636 1.14765,0.38687 1.4994,0.93177 0.23186,0.24631 0.61412,0.75288 0.58978,0.97974 -0.50904,0.0731 -1.05676,0.0726 -1.53663,-0.1408 -0.2362,-0.0982 -0.9366,-0.28053 -0.84961,-0.41237 0.55864,0.093 1.09977,0.27844 1.65777,0.35271 0.34224,0.11612 0.9423,0.10116 1.07041,0.519"
       id="path4518"
       inkscape:connector-curvature="0" />
    <path
       inkscape:connector-curvature="0"
       id="path4200"
       d="m 95.442984,219.46339 c -0.130505,0.23888 0.263833,0.097 0.316534,0.19529 0.04115,0.0768 0.01929,0.17284 0.07479,0.2435 0.02482,0.0316 0.105718,-0.004 0.135832,0.0246 0.04039,0.0382 0.02992,0.0974 0.04487,0.1461 0.01,0.0325 0.01993,0.0649 0.02992,0.0974 0.04986,0.16233 0.09972,0.32467 0.149587,0.487 0.02493,0.0812 0.04986,0.16234 0.07479,0.24351 0.005,0.0163 0.01658,0.032 0.01496,0.0487 -0.0037,0.0373 -0.03263,0.0721 -0.03051,0.10945 0.0028,0.0501 0.06596,0.0989 0.04487,0.1461 -0.01406,0.0315 -0.0858,0.006 -0.120868,0.0241 -0.0248,0.0127 -0.03402,0.039 -0.04547,0.0608 -0.0292,0.0555 -0.02296,0.12767 -0.076,0.1702 -0.04412,0.0354 -0.13931,-7e-4 -0.181304,0.0362 -0.164127,0.14481 0.193553,0.0515 -0.01556,0.15816 -0.03508,0.0179 -0.08058,0.0161 -0.120871,0.0241 -0.08058,0.0161 -0.161159,0.0322 -0.241739,0.0482 -0.04029,0.008 -0.08058,0.016 -0.120868,0.0241 -0.02014,0.004 -0.04644,-3.1e-4 -0.06043,0.012 -0.03958,0.0349 -0.04328,0.0939 -0.09095,0.12151 -0.05055,0.0293 -0.12087,0.0241 -0.181303,0.0362 -0.181306,0.0362 -0.36261,0.0723 -0.543916,0.10848 -0.06043,0.012 -0.126304,0.0127 -0.181304,0.0362 -0.02595,0.011 -0.01852,0.0514 -0.04547,0.0607 -0.09526,0.0332 -0.201449,0.0402 -0.302174,0.0602 -0.06043,0.012 -0.120871,0.0241 -0.181304,0.0362 -0.02014,0.004 -0.04464,0.001 -0.06043,0.012 -0.05693,0.0391 -0.08438,0.10672 -0.15139,0.13356 -0.111506,0.0446 -0.241739,0.0482 -0.362609,0.0723 -0.243109,0.0485 -0.1195,0.0239 -0.362608,0.0723 -0.282032,0.0562 -0.56406,0.1125 -0.846089,0.16875 -0.06043,0.012 -0.120869,0.0242 -0.181305,0.0362 -0.06043,0.012 -0.119238,0.0322 -0.181306,0.0362 -0.06544,0.004 -0.131211,-0.0195 -0.196267,-0.0125 -0.123427,0.0132 -0.241739,0.0482 -0.362611,0.0723 -0.06043,0.012 -0.120869,0.0241 -0.181303,0.0362 -0.06043,0.012 -0.119249,0.0401 -0.181305,0.0362 -0.07459,-0.005 -0.136486,-0.0583 -0.211223,-0.0612 -1.231995,-0.0485 0.273047,0.0873 -0.800619,0.10798 -0.07481,0.001 -0.136396,-0.0611 -0.21122,-0.0612 -0.103762,-1.9e-4 -0.198728,0.0538 -0.302175,0.0602 -0.02936,0.001 -0.04677,-0.0315 -0.0754,-0.0367 -0.109036,-0.0197 -0.220686,-0.03 -0.332093,-0.0372 -1.031646,-0.0659 0.640293,0.062 -0.55888,0.0598 -0.07483,-1.6e-4 -0.138996,-0.0455 -0.21122,-0.0612 -0.173718,-0.0379 -0.710561,-0.12808 -0.875406,-0.1355 -0.126038,-0.006 -0.251328,0.0239 -0.377574,0.0236 -0.131243,-2.2e-4 -0.261309,-0.0226 -0.392524,-0.0251 -0.105795,-0.002 -0.211653,0.0183 -0.317142,0.0115 -0.09252,-0.006 -0.178954,-0.0455 -0.271657,-0.0492 -0.12608,-0.005 -0.251328,0.0239 -0.377574,0.0236 -0.131244,-2.2e-4 -0.261272,-0.0248 -0.392526,-0.0251 -0.126223,-2e-4 -0.252046,0.0344 -0.377572,0.0236 -0.120321,-0.0103 -0.226422,-0.0781 -0.347051,-0.0858 -0.08274,-0.005 -0.158979,0.0535 -0.241741,0.0482 -0.05853,-0.004 -0.09352,-0.0629 -0.150785,-0.0733 -0.08348,-0.0151 -0.171403,0.005 -0.256706,-5.1e-4 -0.111415,-0.007 -0.221388,-0.0247 -0.332093,-0.0372 -0.125863,0.008 -0.251474,0.0286 -0.377574,0.0236 -0.193376,-0.008 -0.438939,-0.10931 -0.618707,-0.13501 -0.08425,-0.012 -0.17245,0.0115 -0.256703,-5e-4 -0.119156,-0.017 -0.232033,-0.0555 -0.347051,-0.0858 -0.209353,-0.0551 -0.426182,-0.13464 -0.633666,-0.18371 -0.13358,-0.0316 -0.27649,-0.0358 -0.407483,-0.0738 -0.288872,-0.0837 -0.443011,-0.19956 -0.724021,-0.26905 -0.133089,-0.0329 -0.27041,-0.0542 -0.407482,-0.0738 -0.06461,-0.009 -0.134513,0.006 -0.19627,-0.0125 -0.08285,-0.024 -0.142492,-0.0879 -0.226179,-0.10993 -0.106224,-0.028 -0.225859,-0.009 -0.332092,-0.0372 -0.08369,-0.022 -0.147521,-0.0781 -0.226181,-0.10994 -0.0927,-0.0376 -0.193914,-0.0603 -0.286616,-0.0979 -0.07866,-0.0319 -0.14333,-0.0859 -0.226178,-0.10993 -0.06176,-0.018 -0.134513,0.006 -0.19627,-0.0125 -0.467139,-0.13544 0.007,-0.0907 -0.437404,-0.17118 -0.06402,-0.0116 -0.140056,0.0148 -0.196267,-0.0125 -0.03554,-0.0172 0.0056,-0.0801 -0.02992,-0.0974 -0.03554,-0.0172 -0.08037,0.0315 -0.120871,0.0241 -0.02024,-0.004 0.0028,-0.0401 -0.01496,-0.0487 -0.01777,-0.009 -0.04696,0.0248 -0.06043,0.012 -0.02694,-0.0254 0.0056,-0.0801 -0.02992,-0.0974 -0.03554,-0.0173 -0.0795,0.0268 -0.120867,0.0241 -0.02925,-0.002 -0.05026,-0.0244 -0.0754,-0.0367 -0.05026,-0.0244 -0.100519,-0.0488 -0.150787,-0.0733 -0.03511,-0.0447 -0.05446,-0.10061 -0.105309,-0.13405 -0.03595,-0.0237 -0.09609,-0.005 -0.135833,-0.0246 -0.03974,-0.0194 -0.05062,-0.066 -0.09035,-0.0853 -0.03974,-0.0194 -0.09609,-0.005 -0.135835,-0.0246 -0.31183,-0.15157 0.16373,-0.0114 -0.135227,-0.23145 -0.03064,-0.0225 -0.08037,0.0315 -0.12087,0.0241 -0.02024,-0.004 0.0028,-0.0401 -0.01496,-0.0487 -0.01776,-0.009 -0.04696,0.0248 -0.06043,0.012 -0.02694,-0.0254 -0.01993,-0.0649 -0.02992,-0.0974 -0.005,-0.0163 3.67e-4,-0.0374 -0.01496,-0.0487 -0.04334,-0.0319 -0.109373,-0.0398 -0.150788,-0.0733 -0.04629,-0.0375 -0.06271,-0.0938 -0.105309,-0.13405 -0.04856,-0.0458 -0.117182,-0.0761 -0.165746,-0.12199 -0.04259,-0.0403 -0.07457,-0.0873 -0.10531,-0.13404 -0.0098,-0.0148 3.67e-4,-0.0375 -0.01496,-0.0487 -0.04334,-0.0319 -0.116541,-0.0349 -0.150786,-0.0733 -0.03634,-0.0408 -0.0157,-0.10178 -0.04487,-0.1461 -0.01379,-0.0209 -0.05026,-0.0244 -0.0754,-0.0367 -0.05026,-0.0244 -0.10744,-0.0414 -0.150789,-0.0733 -0.01533,-0.0113 -0.01,-0.0325 -0.01496,-0.0487 -0.01,-0.0325 -0.003,-0.072 -0.02992,-0.0974 -0.120471,-0.1138 -0.01556,0.15815 -0.0754,-0.0367 -0.01,-0.0325 -0.01994,-0.0649 -0.02992,-0.0974 -0.005,-0.0163 3.67e-4,-0.0375 -0.01496,-0.0487 -0.04334,-0.0319 -0.116541,-0.0349 -0.150784,-0.0733 -0.09332,-0.0397 -0.01544,-0.13829 -0.05984,-0.19481 -0.121012,-0.15402 -0.07152,-0.024 -0.10531,-0.13404 -0.01496,-0.0487 -0.02992,-0.0974 -0.04487,-0.1461 -0.01,-0.0324 0.0056,-0.0801 -0.02992,-0.0974 -0.03554,-0.0172 -0.08038,0.0314 -0.120871,0.0241 -0.02024,-0.004 -0.01,-0.0325 -0.01496,-0.0487 -0.02493,-0.0812 -0.04986,-0.16233 -0.07479,-0.2435 -0.05984,-0.1948 0.04508,0.0771 -0.07539,-0.0367 -0.02694,-0.0255 -0.01993,-0.0649 -0.02992,-0.0974 -0.01496,-0.0487 -0.02992,-0.0974 -0.04487,-0.1461 -0.04487,-0.1461 -0.08975,-0.2922 -0.134628,-0.4383 -0.01496,-0.0487 -0.02992,-0.0974 -0.04487,-0.1461 -0.005,-0.0163 -0.02567,-0.0344 -0.01496,-0.0487 0.01071,-0.0143 0.0559,0.004 0.06043,-0.012 0.0091,-0.0327 -0.01993,-0.0649 -0.02992,-0.0974 -0.005,-0.0163 -0.02567,-0.0344 -0.01496,-0.0487 0.01071,-0.0143 0.05588,0.004 0.06043,-0.012 0.0091,-0.0327 -0.01993,-0.0649 -0.02992,-0.0974 -0.005,-0.0163 -0.03076,-0.0379 -0.01496,-0.0487 0.282431,-0.19416 0.0096,0.17037 0.09095,-0.12151 0.0045,-0.0163 0.043,-0.003 0.06043,-0.012 0.03921,-0.02 0.06669,-0.0528 0.105904,-0.0728 0.01744,-0.009 0.05588,0.004 0.06043,-0.012 0.0091,-0.0327 -0.05136,-0.0688 -0.02992,-0.0974 0.02275,-0.0303 0.139714,-0.015 0.181304,-0.0362 0.03921,-0.02 0.0667,-0.0528 0.105906,-0.0728 0.01765,-0.009 0.04645,3.1e-4 0.06043,-0.012 0.03958,-0.0349 0.06064,-0.081 0.09095,-0.1215 0.01515,-0.0203 0.02069,-0.0481 0.04547,-0.0608 0.03508,-0.0179 0.09943,0.004 0.120872,-0.0241 0.02144,-0.0286 -0.03902,-0.0648 -0.02992,-0.0974 0.0045,-0.0163 0.0403,-0.008 0.06043,-0.012 0.161159,-0.0322 0.32232,-0.0643 0.483479,-0.0964 0.02014,-0.004 0.04029,-0.008 0.06043,-0.012 0.04029,-0.008 0.0893,-0.002 0.120871,-0.0241 0.01579,-0.0109 -0.02567,-0.0344 -0.01496,-0.0487 0.01071,-0.0143 0.04029,-0.008 0.06043,-0.012 0.04029,-0.008 0.08058,-0.0161 0.120871,-0.0242 0.24174,-0.0482 0.48348,-0.0964 0.72522,-0.14465 0.181303,-0.0362 0.362609,-0.0723 0.543913,-0.10848 0.06043,-0.012 0.12087,-0.0241 0.181306,-0.0362 0.02014,-0.004 0.04644,3.1e-4 0.06043,-0.012 0.03958,-0.0349 0.04328,-0.0939 0.09095,-0.12151 0.05055,-0.0293 0.12087,-0.0241 0.181306,-0.0362 0.141012,-0.0282 0.282029,-0.0562 0.423042,-0.0844 0.221596,-0.0442 0.44319,-0.0884 0.664784,-0.1326 0.02014,-0.004 0.04029,-0.008 0.06043,-0.012 0.06043,-0.012 0.119236,-0.0322 0.181304,-0.0362 0.06544,-0.004 0.131086,0.0187 0.196271,0.0125 0.103032,-0.01 0.201449,-0.0402 0.302174,-0.0603 0.06043,-0.012 0.120871,-0.0241 0.181303,-0.0362 0.06043,-0.012 0.120871,-0.0241 0.181306,-0.0362 0.02014,-0.004 0.0409,-0.0177 0.06043,-0.012 0.05523,0.0161 0.09352,0.0629 0.150785,0.0733 0.08348,0.0151 0.171131,3.1e-4 0.256706,5e-4 0.171127,3.2e-4 0.342348,0.006 0.513394,7e-4 0.126177,-0.004 0.251328,-0.0239 0.377574,-0.0236 0.131265,2.9e-4 0.261274,0.0249 0.392529,0.0251 0.365296,6.9e-4 0.400543,-0.0655 0.770093,0.001 0.101236,0.0183 0.187417,0.0734 0.286617,0.0979 0.133089,0.0329 0.271655,0.0492 0.407483,0.0738 0.181097,0.0327 0.361177,0.0695 0.543314,0.0984 0.155082,0.0246 0.317357,0.023 0.467921,0.0617 0.154398,0.0397 0.283993,0.12902 0.437403,0.17118 0.17568,0.0483 0.368654,0.0477 0.54331,0.0984 0.180036,0.0522 0.336634,0.14766 0.512797,0.20782 0.336377,0.11488 0.840261,0.23413 1.191938,0.33077 0.141632,0.0389 0.284657,0.0754 0.422445,0.12249 0.149236,0.051 0.282995,0.13145 0.437402,0.17117 0.150558,0.0387 0.313713,0.0338 0.46792,0.0617 0.118077,0.0214 0.230936,0.0584 0.34705,0.0858 0.132777,0.0314 1.030948,0.23612 1.101586,0.24544 0.104426,0.0137 0.212019,-0.0215 0.317138,-0.0115 0.257438,0.0242 0.139855,0.0477 0.286618,0.0979 0.0689,0.0235 0.138214,0.048 0.211221,0.0612 0.555982,0.0356 -0.129342,-0.032 0.347051,0.0858 0.06273,0.0155 0.130648,0.0125 0.19627,0.0125 0.02082,2e-4 0.04696,-0.0248 0.06043,-0.012 0.02694,0.0254 -0.0056,0.0801 0.02992,0.0974 0.03554,0.0172 0.08058,-0.0161 0.120869,-0.0241 0.02014,-0.004 0.04266,-0.0207 0.06043,-0.012 0.01776,0.009 0.01,0.0325 0.01496,0.0487 0.0403,-0.008 0.08181,-0.0355 0.120868,-0.0241 0.04367,0.0127 0.05762,0.0588 0.09035,0.0854 0.0528,0.0428 0.0978,0.0967 0.165746,0.12199 0.529017,0.19659 -0.226739,-0.28867 0.48288,0.11042 0.09923,0.0558 0.152479,0.15697 0.256096,0.20734 0.103624,0.0504 0.235633,0.0478 0.34705,0.0858 0.01185,0.004 0.443612,0.21733 0.452362,0.21987 0.06176,0.018 0.135842,-0.008 0.196268,0.0125 0.04273,0.0146 0.06023,0.0569 0.09035,0.0854 0.0754,0.0367 0.143335,0.0859 0.226182,0.10994 0.707535,0.20513 -0.586782,-0.34389 0.543314,0.0984 0.04174,0.0163 0.05062,0.066 0.09035,0.0853 0.03974,0.0194 0.08958,0.0217 0.135836,0.0246 0.0208,0.001 0.04695,-0.0249 0.06043,-0.012 0.240941,0.22759 -0.211418,0.008 0.150787,0.0733 0.02024,0.004 0.01,0.0325 0.01496,0.0487 0.08477,0.27597 -0.0353,0.0243 0.09035,0.0854 0.01776,0.009 -0.0053,0.045 0.01496,0.0487 0.04049,0.007 0.08058,-0.016 0.120871,-0.0241 0.02014,-0.004 0.04696,-0.0248 0.06043,-0.012 0.02694,0.0254 0.01994,0.0649 0.02992,0.0974 0.005,0.0163 -0.0053,0.045 0.01496,0.0487 0.04051,0.007 0.08533,-0.0414 0.12087,-0.0241 0.03554,0.0172 0.0078,0.0692 0.02992,0.0974 0.01569,0.02 0.05026,0.0244 0.0754,0.0367 0.05026,0.0244 0.107438,0.0414 0.150786,0.0733 0.01531,0.0113 0.01,0.0324 0.01496,0.0487 0.01,0.0324 0.003,0.072 0.02992,0.0974 0.01347,0.0127 0.04267,-0.0207 0.06043,-0.012 0.01777,0.009 0.01,0.0325 0.01496,0.0487 0.01,0.0325 -0.0056,0.0801 0.02992,0.0974 0.03554,0.0173 0.08038,-0.0314 0.120871,-0.0241 0.02024,0.004 3.21e-4,0.0368 0.01496,0.0487 0.07319,0.0593 0.160758,0.10576 0.241139,0.15863 z"
       style="fill:#777d5f;fill-opacity:0.46610173;fill-rule:evenodd;stroke:none;stroke-width:0.22130591px;stroke-linecap:butt;stroke-linejoin:miter;stroke-opacity:1" />
    <path
       style="fill:#bab6a6;fill-opacity:1;stroke:none;stroke-width:0.26458332px;stroke-linecap:butt;stroke-linejoin:miter;stroke-opacity:1"
       d="m 91.848214,210.82143 c -0.791213,-0.23577 -1.561173,-0.27167 -2.362353,-0.378 -0.402904,0.0527 -0.890499,-0.1188 -1.22842,0.0945 -1.511181,2.7e-4 -3.026805,-2.3e-4 -4.535712,0 -0.331386,0.18554 -0.905137,0.14381 -1.22842,0.33075 -0.187126,0.11306 -0.58468,0.0133 -0.850435,0.0472 -0.38879,0.14037 -0.845654,0.18446 -1.228419,0.33075 -0.15688,0.13821 -0.435324,0.16532 -0.762862,0.14175 -0.339484,0.0773 -0.728694,0.14933 -0.983075,0.38108 -0.411148,0.0333 -0.367861,0.35046 -0.52193,0.5639 -0.2838,0.14019 -0.249902,0.53001 -0.47246,0.66148 -0.08536,0.44401 -0.35243,0.6037 -0.28348,1.13396 -0.17339,0.31952 -0.242587,0.73683 -0.28348,1.18463 3.92e-4,0.51811 -5.34e-4,1.04005 0,1.55571 0.207706,0.0884 0.04858,0.56215 0.08613,0.80666 0.150936,0.20031 0.236703,0.57853 0.386335,0.79975 0.129446,0.17037 0.212052,0.3807 0.37797,0.51975 0.09422,0.2457 0.235317,0.41221 0.47246,0.51973 0.165231,0.21758 0.637378,0.25964 1.042195,0.2835 0.516042,-0.0449 0.797226,0.14972 1.322916,0.0945 0.389403,-0.0382 0.605716,0.0819 0.847689,0.189 0.361089,0.13947 0.850306,0.27293 1.18636,0.36544 0.302249,0.19323 0.591653,0.27276 1.041048,0.39034 0.312363,0.16705 0.887081,0.24924 1.222296,0.37822 0.640605,-0.0131 1.183904,0.16571 1.652944,0.2835 0.474519,0.0117 0.912836,0.0677 1.276366,0.189 0.244008,0.0574 0.71484,-0.11826 0.802511,0.0945 0.644148,0.0274 1.031731,0.31114 1.726024,0.28181 0.240096,0.15121 0.622089,0.15329 0.97051,0.19069 0.32917,-9.2e-4 0.662005,0.001 0.988739,0 0.275148,-0.18062 0.695498,-0.18312 0.944939,-0.378 0.251729,-0.10025 0.441246,-0.34631 0.661454,-0.42525 0.166941,-0.1251 0.477517,-0.16366 0.566965,-0.33075 0.248754,-0.0643 0.440011,-0.19699 0.609014,-0.39052 0.322795,0.0739 0.268086,-0.46125 0.577333,-0.44746 0.123739,-0.1992 0.330375,-0.26953 0.420029,-0.48502 0.189306,-0.10685 0.303699,-0.31722 0.365439,-0.52491 0.171331,-0.15268 0.212096,-0.38799 0.390501,-0.51453 0.06827,-0.32976 0.242057,-0.53168 0.37798,-0.94496 -0.07826,-0.48084 0.162048,-0.62372 0.09449,-1.09153 0.02198,-0.39893 -0.0085,-0.86466 -0.18899,-1.08183 -0.06722,-0.22525 -0.249593,-0.35371 -0.330729,-0.56699 -0.103908,-0.24473 -0.250169,-0.40297 -0.330721,-0.75597 -0.29317,-0.0653 -0.144139,-0.43663 -0.464332,-0.54807 -0.05199,-0.38805 -0.324925,-0.41449 -0.379965,-0.68482 -0.18219,-0.12008 -0.248848,-0.36681 -0.531045,-0.36102 -0.182453,-0.16584 -0.428791,-0.23876 -0.609021,-0.39052 -0.206877,-0.11281 -0.348568,-0.35891 -0.661454,-0.42525 -0.127296,-0.1763 -0.413422,-0.17616 -0.472459,-0.42525 -0.216904,-0.15174 -0.527258,-0.18437 -0.755948,-0.33075 -0.257304,-0.14958 -0.498258,-0.2372 -0.944932,-0.33075 z"
       id="path4595"
       inkscape:connector-curvature="0" />
    <path
       style="opacity:1;fill:#646d54;fill-opacity:0.23921569;stroke:none;stroke-width:0.26458332px;stroke-linecap:butt;stroke-linejoin:miter;stroke-opacity:1;filter:url(#filter5186)"
       d="m 91.857195,212.69317 c 0.459775,0.62717 -0.334817,0.98574 -0.829056,0.64283 -0.499477,-0.0553 -1.496052,-0.77645 -1.582618,0.0747 0.08709,0.77788 1.354259,0.49202 1.506727,1.28925 -0.366574,0.20386 -0.949408,-0.17041 -1.382928,-0.25274 -0.603012,-0.29502 -1.272661,-0.20318 -1.921637,-0.21741 -0.465871,-0.16167 -0.955124,0.002 -1.436579,-0.0334 -0.626573,0.14665 -1.341123,-0.0172 -1.901932,-0.21371 -0.06046,-0.28253 0.351102,-0.54391 -0.176517,-0.54929 -0.54095,-0.0318 -1.058375,-0.26239 -1.608205,-0.20565 -0.513125,0.10795 -1.049173,-0.0856 -1.472227,-0.37023 -0.294691,-0.16899 -0.719507,-0.87795 -0.03597,-0.69863 0.641393,-0.0429 1.228469,0.23167 1.874828,0.1337 0.461156,-0.20885 1.472652,0.10453 1.282005,-0.6515 0.250561,-0.609 1.196726,-0.19393 1.737299,-0.25054 0.654081,0.0529 1.296696,0.2416 1.947372,0.30344 0.642522,0.0295 1.248669,0.23331 1.865725,0.38568 0.608131,0.094 1.175819,0.34859 1.774193,0.48007 0.123535,-0.003 0.250665,0.0733 0.359521,0.13339 z"
       id="path5156"
       inkscape:connector-curvature="0" />
    <path
       style="fill:#c8c4b7;fill-opacity:1;stroke:none;stroke-width:0.26458332px;stroke-linecap:butt;stroke-linejoin:miter;stroke-opacity:1"
       d="m 94.683108,212.33329 c 2.27e-4,0.21386 0.01882,0.44762 -0.09457,0.54338 -0.06509,0.11968 -0.141597,0.23832 -0.236161,0.33046 -0.02323,0.13023 -0.149027,0.16752 -0.212649,0.25994 -0.06858,0.0822 -0.164898,0.13209 -0.212648,0.23616 -0.103449,0.0461 -0.152844,0.14619 -0.236162,0.21239 -0.115615,0.12773 -0.303244,0.10265 -0.400055,0.21656 -0.51149,-0.01 -1.026446,-0.001 -1.537293,-0.004 -0.103692,-0.0997 -0.383177,-0.0225 -0.561916,-0.047 -0.23372,0.041 -0.470239,0.086 -0.71346,0.11782 -0.108037,0.0578 -0.324892,0.006 -0.472839,0.0238 -0.05726,0.10946 -0.314884,0.0162 -0.451316,0.047 -0.305967,1.6e-4 -0.61387,-2.3e-4 -0.918625,0 -0.100865,0.15938 -3.267893,-0.14445 -3.454395,-0.005 -0.01891,0.12679 0.107317,0.43533 0.983305,0.66737 0.188174,0.0499 0.76338,-0.10201 1.146691,-0.0602 0.513682,0.0561 0.828983,0.30048 0.804535,0.31909 -0.144934,0.0582 -1.010895,0.0956 -1.092421,0.20222 -0.221573,0.004 0.668981,0.34028 0.619801,0.53174 -0.01892,0.24022 0.161295,0.27488 0.14189,0.51842 0.150715,0.0137 0.0781,0.24614 0.09457,0.39378 -0.03141,0.24683 0.06155,0.36836 0.04702,0.5984 0.07826,0.10561 0.118219,0.24463 0.142111,0.40578 2.93e-4,0.22656 -3.87e-4,0.45512 0,0.68046 0.09697,0.10602 0.02684,0.3885 0.04703,0.56741 -0.124479,0.0264 -0.125979,0.18078 -0.214376,0.232 -0.07875,0.13977 -0.183931,0.32716 0.02524,0.38192 0.200602,-0.0215 0.122375,0.21912 0.330729,0.23616 0.06002,0.0944 0.134097,0.16035 0.193316,0.25795 -0.0084,0.17825 -0.0021,0.36507 -0.0042,0.5451 -0.109162,0.0598 -0.0162,0.3196 -0.04703,0.45833 0.01696,0.15725 -0.215858,0.60347 0.178829,0.47391 0.463561,0.15467 0.997217,0.23238 1.500452,0.36281 0.432406,-0.009 0.80912,0.19651 1.244124,0.20002 0.394187,0.0369 0.791387,0.0109 1.186939,0.0185 0.390398,-0.20748 0.863166,-0.23218 1.207011,-0.53608 0.442124,-0.36491 0.995841,-0.5133 1.443812,-0.85481 0.438177,-0.29496 0.804995,-0.70669 1.19633,-1.11104 0.280657,-0.3833 0.560028,-0.79672 0.75728,-1.22318 0.217829,-0.38171 0.322863,-0.77698 0.337055,-1.20898 0.126357,-0.43593 0.08201,-0.90431 0.02265,-1.34837 -0.158138,-0.5141 -0.551198,-0.91446 -0.735203,-1.42292 -0.191103,-0.41637 -0.502057,-0.7509 -0.724386,-1.16716 -0.255691,-0.53075 -0.783942,-0.70901 -1.260618,-0.99629 z m -6.236827,7.93647 c 0.0077,-0.0583 -0.01354,-0.0681 0,0 z m -0.330729,-1.27538 c 0.0077,-0.0583 -0.01354,-0.0681 0,0 z m -3.196977,-4.87617 c -0.05128,-0.0401 -0.07071,0.0373 0,0 z"
       id="path4648"
       inkscape:connector-curvature="0"
       sodipodi:nodetypes="ccccccccccccccssccccccccccccccccccccccccccccccccccc" />
    <path
       style="fill:#afaa97;fill-opacity:1;stroke:none;stroke-width:0.26458332px;stroke-linecap:butt;stroke-linejoin:miter;stroke-opacity:1"
       d="m 79.651467,211.38813 c -0.427725,0.0438 -0.793355,0.27482 -1.170524,0.42747 -0.278784,0.34282 -0.52832,0.71133 -0.73406,1.11873 -0.242427,0.38182 -0.364427,0.87523 -0.416555,1.31898 -0.336957,0.83083 -0.192069,1.74363 -0.223409,2.61562 0.22252,0.35331 -0.03303,0.84217 0.280059,1.1988 0.143079,0.44212 0.481706,0.77628 0.69886,1.1718 0.302263,0.36222 0.759873,0.55164 1.232077,0.54884 0.521719,-0.0447 1.027118,0.16628 1.548191,0.0993 0.494736,-0.0313 0.90673,0.30368 1.379347,0.39477 0.445669,0.075 0.817663,0.32448 1.245113,0.45155 0.489355,0.14282 0.965973,0.32374 1.465969,0.43551 0.333108,0.16906 0.157668,-0.0666 0.0884,-0.16932 -0.04306,-0.10902 -0.143362,-0.18241 -0.236678,-0.25993 -0.02557,-0.12569 -0.196855,-0.0999 -0.259675,-0.18888 -0.116105,-0.065 -0.227412,-0.16153 -0.354243,-0.18862 -0.10509,-0.12343 -0.310256,-0.11877 -0.425297,-0.21294 -0.105245,-0.0424 -0.194656,-0.10391 -0.283445,-0.16533 -0.101997,-0.0789 -0.283522,-0.0791 -0.354499,-0.18862 -0.09987,-0.0485 -0.164127,-0.13189 -0.259676,-0.18862 0.0053,-0.14847 -0.134175,-0.16634 -0.189134,-0.26022 -0.05185,-0.0991 -0.117777,-0.1825 -0.236416,-0.21261 -0.144542,-0.0292 -0.242726,-0.18767 -0.396272,-0.18199 -0.07233,-0.0927 -0.168849,-0.13651 -0.217905,-0.2428 -0.135734,-0.0576 -0.118058,-0.25035 -0.189334,-0.37224 -0.05877,-0.28736 0.374865,-0.0884 0.496549,-0.19465 0.198377,-0.0441 0.398047,-0.10813 0.590402,-0.14159 0.227782,-0.076 -0.02937,-0.17766 -0.117822,-0.23616 -0.114617,-0.11586 -0.352459,-0.13195 -0.401526,-0.28319 -0.258114,-0.007 -0.282191,-0.20357 -0.497459,-0.23462 -0.111395,-0.0605 -0.219215,-0.11249 -0.353134,-0.14313 -0.07959,-0.10285 -0.211399,-0.0889 -0.236162,-0.18914 -0.108199,-0.0491 0.117875,-0.19186 0.0883,-0.30968 0.104185,-0.16273 0.09807,-0.41523 0.188619,-0.56689 0.141645,-0.0171 0.109164,-0.18616 0.242946,-0.20967 0.03958,-0.13709 0.139848,-0.25518 0.05329,-0.40424 -0.144002,-0.0421 -0.150595,-0.11816 -0.242427,-0.2337 -0.116604,-0.10247 1.351909,-0.4238 1.26723,-0.56036 -0.115002,-0.0474 0.246862,-0.26877 0.125498,-0.33357 0.02239,-0.0562 -0.768602,0.0281 -0.791721,-0.0861 -0.05019,-0.16502 -1.327885,-0.18864 -1.451597,-0.27187 -0.134578,-0.1045 -0.387847,-0.0916 -0.540906,-0.19489 -0.100973,-0.0466 -0.306131,-0.0232 -0.356717,-0.13533 -0.124595,-0.0295 -0.12415,-0.17286 -0.212648,-0.23616 -0.111541,-0.19277 -0.23023,-0.29783 -0.212648,-0.54918 -0.01474,-0.17745 0.02542,-0.30101 0.141591,-0.34895 0.101084,-0.10048 0.09819,-0.36836 0.192212,-0.46985 0.08209,-0.15845 0.10962,-0.27314 0.192326,-0.40128 -0.0061,-0.18302 0.254616,-0.22665 -0.155094,-0.21511 z"
       id="path4653"
       inkscape:connector-curvature="0"
       sodipodi:nodetypes="cccccccccccccccccccccccccccccccccccccccccccccccccc" />
    <path
       style="fill:#646d54;fill-opacity:0.23921569;stroke:none;stroke-width:0.26458332px;stroke-linecap:butt;stroke-linejoin:miter;stroke-opacity:1"
       d="m 77.574076,213.30636 c -0.218933,0.54751 -0.281501,1.14409 -0.433152,1.70979 -0.0754,0.6152 -0.01405,1.23539 -0.03401,1.85278 0.180229,0.52763 0.0497,1.14285 0.479652,1.58352 0.323669,0.66229 0.885803,1.36363 1.69797,1.3337 0.67812,0.0244 1.350433,0.10504 2.026317,0.16049 0.551643,0.23256 1.139186,0.3719 1.698287,0.59201 0.685066,0.28208 1.410623,0.52027 2.138058,0.65632 0.743949,0.0403 1.451744,0.3224 2.197132,0.34448 0.607808,0.19056 1.2355,0.087 1.831931,0.2931 0.300847,0.026 1.090386,0.34494 0.49888,-0.0538 -0.442259,-0.18163 -0.881888,-0.40548 -1.275892,-0.66094 -0.523095,-0.13796 -1.031248,-0.30646 -1.543645,-0.48547 -0.461863,-0.17593 -0.930773,-0.39695 -1.308982,-0.71582 -0.449162,-0.26294 -0.845728,-0.6235 -1.266761,-0.91209 -0.433905,-0.4557 -1.05823,-0.54059 -1.571072,-0.86791 -0.602496,-0.187 -1.096753,-0.60216 -1.669426,-0.85093 -0.435565,-0.19845 -0.926669,-0.31061 -1.291406,-0.63744 -0.47419,-0.27936 -0.600048,-0.87881 -1.010651,-1.24421 -0.346096,-0.46557 -0.708654,-0.94697 -0.898201,-1.50646 -0.09756,-0.1656 -0.118739,-0.49822 -0.265033,-0.59108 z m 12.409061,8.70696 0.0039,0.005 z"
       id="path4660"
       inkscape:connector-curvature="0" />
    <path
       style="fill:#859a2d;fill-opacity:1;fill-rule:evenodd;stroke:none;stroke-width:0.22005434px;stroke-linecap:butt;stroke-linejoin:miter;stroke-opacity:1"
       d="m 98.994479,221.93797 c 0.304586,-0.0302 0.373735,-0.17985 0.491717,-0.28555 0.233626,-0.22792 0.622264,-0.41384 0.948754,-0.6157 0.12372,-0.12157 -0.27912,-0.0936 -0.39453,-0.0391 -0.263288,0.0491 -0.55585,0.0573 -0.821919,0.10283 -0.300959,-0.0459 -0.09269,-0.20937 -0.217384,-0.30234 -0.08831,-0.17489 -0.165867,-0.35948 -0.418877,-0.50673 -0.303341,-0.0515 -0.170687,0.17226 -0.200152,0.24923 0.01595,0.14491 0.0066,0.29097 -0.07024,0.43194 -0.05126,0.15158 -0.13959,0.31185 2.79e-4,0.46097 0.04757,0.0786 0.243325,0.21739 0.115041,0.26539 -0.158739,-0.0918 -0.294048,-0.19245 -0.435626,-0.28985 -0.137633,-0.10669 -0.195376,-0.22957 -0.383491,-0.32381 -0.167632,-0.1055 -0.391228,-0.19451 -0.658009,-0.24902 -0.387309,-0.11472 -0.723716,-0.26057 -1.129927,-0.36332 -0.3,0.049 0.0071,0.19223 0.04478,0.27876 0.148463,0.17224 0.373049,0.33022 0.520216,0.50267 0.246602,0.20119 0.843,0.23752 1.130487,0.4223 0.113764,0.0162 0.280487,0.0923 0.05704,0.0456 -0.178633,-0.0507 -0.592282,-0.10047 -0.57573,0.046 0.01372,0.14384 0.390295,0.21346 0.670743,0.16993 0.486834,-0.0218 0.97493,-0.0912 1.467364,-0.0558 0.02376,0.005 0.04605,0.0111 0.0639,0.0196"
       id="path4484"
       inkscape:connector-curvature="0" />
    <path
       style="fill:#859a2d;fill-opacity:1;fill-rule:evenodd;stroke:none;stroke-width:0.22005434px;stroke-linecap:butt;stroke-linejoin:miter;stroke-opacity:1"
       d="m 98.700832,221.46493 c 0.04194,-0.46278 0.18041,-0.92146 0.316389,-1.37861 0.07328,-0.31902 0.317523,-0.64291 0.422349,-0.93207 0.132285,-0.21911 0.262342,-0.43745 0.412452,-0.65164 0.048,-0.17929 0.391978,-0.44453 0.330148,-0.56314 -0.569135,0.0678 -0.547428,0.4417 -0.786422,0.67545 -0.177852,0.24944 -0.28443,0.51409 -0.493666,0.75626 -0.217541,0.33945 -0.412915,0.6866 -0.526041,1.03948 -0.142512,0.22925 -0.271593,0.49412 -0.115852,0.73029 0.08635,0.10472 0.18646,0.23496 0.305412,0.30377"
       id="path4486"
       inkscape:connector-curvature="0" />
    <path
       style="fill:#9dc8e2;fill-opacity:1;fill-rule:evenodd;stroke:none;stroke-width:0.22005436px;stroke-linecap:butt;stroke-linejoin:miter;stroke-opacity:1"
       d="m 99.750882,216.47252 c -0.329833,-0.0531 -0.179106,-0.0435 -0.450891,-0.0435 -0.03002,0 -0.06167,-0.009 -0.09018,0 -0.0202,0.006 -0.02783,0.0316 -0.04511,0.0435 -0.367554,0.25333 -0.209854,0.057 -0.405802,0.43508 -0.07424,0.14321 -0.201043,0.3572 -0.225457,0.52209 -0.01696,0.11485 -0.01087,0.23252 0,0.34806 0.0098,0.10455 0.103734,0.21326 0.135272,0.30456 0.02426,0.0702 -0.0091,0.16524 0.04511,0.21754 0.0542,0.0522 0.151103,0.0256 0.225449,0.0435 0.106153,0.0256 0.207056,0.10011 0.315634,0.087 0.236581,-0.0286 0.547335,-0.24145 0.676355,-0.43509 0.0694,-0.10423 0.0821,-0.23526 0.135268,-0.34805 0.0224,-0.0476 0.066,-0.0838 0.0902,-0.13053 0.007,-0.013 0,-0.0291 0,-0.0435 0,-0.029 0,-0.058 0,-0.087 0,-0.0145 0,0.0291 0,0.0435 0,0.029 0.0135,0.0611 0,0.087 -0.0336,0.0648 -0.10736,0.10671 -0.13527,0.17403 -0.0574,0.13858 -0.0451,0.3323 -0.0451,0.47859 0,0.0435 0,0.087 0,0.13052 0,0.0435 -0.0109,0.0883 0,0.13053 0.005,0.0199 0.03,0.029 0.0451,0.0435 0.0451,0.0435 0.0767,0.10628 0.13527,0.13053 0.0553,0.0229 0.12024,0 0.18037,0 0.0451,0 0.0902,0 0.13526,0 0.03,0 0.0652,0.0161 0.0902,0 0.028,-0.018 0.0249,-0.0611 0.0451,-0.087 0.0704,-0.0906 0.17921,-0.15694 0.22545,-0.26105 0.0477,-0.10747 0.0157,-0.23463 0.0451,-0.34806 0.0163,-0.063 0.0717,-0.11167 0.0902,-0.17404 0.0124,-0.0419 0,-0.087 0,-0.13052 0,-0.029 0.0135,-0.0611 0,-0.087 -0.006,-0.013 -0.0345,0.0102 -0.0451,0 -0.0325,-0.0314 0.0802,-0.12569 -0.0902,-0.0435 -0.0135,0.006 -0.0106,0.0333 0,0.0435 0.0106,0.0102 0.0308,-0.005 0.0451,0 0.0319,0.0102 0.0572,0.0372 0.0902,0.0435 0.0442,0.009 0.0902,0 0.13527,0 0.0451,0 0.0925,0.0138 0.13527,0 0.0143,-0.005 -0.006,-0.0305 0,-0.0435 0.009,-0.0183 0.0356,-0.0252 0.0451,-0.0435 0.0362,-0.0699 0.0726,-0.14131 0.0902,-0.21754 0.0225,-0.0981 8.1e-4,-0.21531 -0.0451,-0.30456 -0.0392,-0.0756 -0.0733,-0.15774 -0.13528,-0.21754 -0.0336,-0.0324 -0.0908,-0.0274 -0.13527,-0.0435 -0.0758,-0.0274 -0.14644,-0.0701 -0.22545,-0.087 -0.0587,-0.0126 -0.1206,-0.006 -0.18036,0 -0.0762,0.008 -0.15342,0.0183 -0.22545,0.0435 -0.17756,0.0623 -0.30927,0.14718 -0.450902,0.26105 -0.0327,0.0263 -0.0601,0.058 -0.0902,0.087 -0.015,0.0145 -0.0451,0.023 -0.0451,0.0435 0,0.13322 0.14672,0.0925 0.225442,0.13051 0.0381,0.0183 0.0601,0.058 0.0902,0.087"
       id="path4488"
       inkscape:connector-curvature="0" />
    <path
       sodipodi:nodetypes="ccccccccccccccccccc"
       inkscape:connector-curvature="0"
       id="path4490"
       d="m 99.929039,223.98205 c -1.33398,0.42419 -2.799,0.2117 -4.04527,-0.38177 -2.84143,-0.0894 -0.46988,-0.73043 -0.0638,-2.09287 0,0 -0.99381,0.7233 -1.51624,0.90623 -0.51159,0.32041 -0.99167,0.53994 -1.2614,1.09721 0.41505,-0.46821 0.62617,-1.73877 0.62617,-1.73877 -0.80322,0.90105 -1.44193,1.82287 -1.22213,0.97563 0.23583,-1.12144 1.18057,-3.25391 1.18057,-3.25391 0,0 -0.84746,1.52008 -1.21424,2.30399 -0.11253,0.50788 -0.28189,1.12716 -0.78402,1.37649 -0.62318,0.01 -1.03691,-1.12731 -1.03691,-1.12731 -0.29491,1.1138 0.95133,2.01405 -0.1884,1.60988 -0.34899,-0.38112 -1.08481,-0.91539 -1.44267,-0.24214 -1.88655,0.19906 -2.69895,0.0237 -4.33798,0.66287 1.53705,-0.13055 2.90272,0.20402 4.33648,0.15923 1.28162,-0.004 2.5706,-0.10006 3.84494,0.081 1.88766,0.0765 3.78962,0.0149 5.64932,-0.33829 0.49157,-0.0507 0.98482,0.0698 1.47557,0.003 z"
       style="fill:#859a2d;fill-opacity:1;fill-rule:evenodd;stroke:none;stroke-width:0.28222221px;stroke-linecap:butt;stroke-linejoin:miter;stroke-opacity:1" />
    <path
       style="fill:#859a2d;fill-opacity:1;fill-rule:evenodd;stroke:#859a2d;stroke-width:0.28222221px;stroke-linecap:butt;stroke-linejoin:miter;stroke-opacity:1"
       d="m 96.206981,221.62989 c 0.27916,0.23867 0.58575,0.11912 0.84655,-0.2148 0.59462,-0.0503 0.0983,-0.41097 0.0134,-1.17752 0,0 0.20797,0.40695 0.3173,0.50988 0.10706,0.18027 0.20752,0.30378 0.26397,0.61733 -0.0869,-0.26343 -0.13104,-0.97831 -0.13104,-0.97831 0.16809,0.50698 0.30175,1.02562 0.25575,0.54894 -0.0494,-0.63097 -0.24705,-1.83078 -0.24705,-1.83078 0,0 0.17734,0.85525 0.2541,1.29631 0.0236,0.28575 0.059,0.63419 0.16407,0.77447 0.13041,0.006 0.21699,-0.63427 0.21699,-0.63427 0.0617,0.62667 -0.19908,1.13318 0.0394,0.90578 0.073,-0.21443 0.22702,-0.51503 0.30191,-0.13623 0.39479,0.11199 0.5648,0.0133 0.9078,0.37295 -0.32166,-0.0735 -0.60745,0.1148 -0.90749,0.0896 -0.2682,-0.002 -0.53795,-0.0563 -0.80463,0.0456 -0.39502,0.043 -0.79304,0.008 -1.18222,-0.19034 -0.10287,-0.0285 -0.2061,0.0393 -0.30879,0.002 z"
       id="path4502"
       inkscape:connector-curvature="0"
       sodipodi:nodetypes="ccccccccccccccccccc" />
    <path
       style="fill:#859a2d;fill-opacity:1;stroke:none;stroke-width:0.40587595px;stroke-linecap:butt;stroke-linejoin:miter;stroke-opacity:1"
       d="m 90.768716,213.89746 c -0.330597,-0.17055 -0.725146,-0.17865 -1.029358,-0.39349 -0.363394,-0.11687 -0.762822,-0.21684 -1.112332,-0.39228 -0.370881,-0.0957 -0.753849,-0.15379 -1.110616,-0.29479 -0.336394,-0.009 -0.680858,-0.0643 -0.993215,-0.1803 -0.338268,-0.11011 -0.779435,-0.12808 -0.982171,-0.43598 -0.176137,-0.33121 -0.455298,-0.54782 -0.802201,-0.6734 -0.25256,-0.20696 -0.572741,-0.30533 -0.830456,-0.50219 -0.215622,-0.0683 -0.462078,-0.36187 -0.668772,-0.30109 -0.03022,0.3688 0.102933,0.71689 0.270126,1.01646 -0.352441,-0.0881 -0.695202,-0.2552 -1.013986,-0.44148 -0.381849,-0.0604 -0.699084,-0.3183 -1.10994,-0.31994 -0.19456,-0.008 -0.70206,-0.0525 -0.333972,0.17059 0.358685,0.13055 0.709132,0.34347 1.100859,0.42136 0.174064,0.0525 0.741437,0.33277 0.291785,0.16807 -0.387355,-0.0966 -0.766902,-0.36472 -1.173295,-0.28198 -0.164078,0.16835 -0.402849,0.48816 -0.374116,0.67429 0.424095,0.1419 0.872151,0.13562 1.314072,0.12687 0.317787,-0.23937 0.683282,-0.3337 1.073997,-0.34769 0.332085,-0.0542 0.66308,-0.12763 0.999766,-0.11336 -0.154644,-0.0472 -0.617596,0.0266 -0.25345,0.13069 0.162989,0.10724 0.745825,0.21249 0.273393,0.34985 -0.186598,0.0477 -0.331793,0.16156 -0.521566,0.14266 0.284346,0.28567 0.670412,0.45003 1.073997,0.45283 0.203089,-0.044 0.368967,0.0835 0.436202,0.0651 -0.356581,0.0358 -0.464903,0.24394 -0.807848,0.31858 -0.342516,0.17462 -0.417143,-0.39023 -0.788284,-0.38378 -0.408909,-0.064 -0.670661,-0.0138 -0.453537,-0.26944 -0.08068,-0.002 -0.522425,0.23589 -0.753801,0.0856 0.302248,0.11863 0.604757,0.26295 0.888689,0.39832 0.351167,0.12656 0.658063,0.37572 1.031643,0.44803 0.270964,0.0571 0.61107,-0.18916 0.994795,-0.22029 0.06612,-0.3003 -0.06673,-0.83823 0.438684,-0.70027 0.391068,0.11199 0.789069,0.22645 1.13904,0.41871 0.355846,0.13055 0.683697,0.25168 1.033346,0.38877 0.377384,0.16114 0.760614,0.25549 1.136064,0.40374 0.44798,0.0923 0.863791,0.28922 1.321297,0.33334 0.15371,0.079 0.626171,0.17847 0.382877,-0.0928 -0.07179,-0.0255 -0.04203,-0.14266 -0.08774,-0.169 z"
       id="path4684"
       inkscape:connector-curvature="0"
       sodipodi:nodetypes="cccccccccccccccccccccccccccccccccccccccc" />
    <path
       style="fill:#c87137;fill-opacity:1;stroke:none;stroke-width:0.40587595px;stroke-linecap:butt;stroke-linejoin:miter;stroke-opacity:1"
       d="m 82.850647,211.66809 c -0.144352,-0.0203 -0.262931,0.0407 -0.405993,0.025 -0.110303,0.0288 -0.241808,0.007 -0.335154,0.0674 -0.01226,0.0803 -0.01076,0.20165 0.04939,0.20489 0.103395,0.0855 0.190018,0.0787 0.288625,0.1442 0.09127,-0.0169 0.132847,0.0666 0.225347,0.0526 0.0031,0.0367 0.181705,0.0235 0.07762,0.0673 -0.03298,0.0563 -0.0991,0.12794 -0.104772,0.21087 0.01811,0.11124 -0.05936,0.31844 0.111529,0.27879 0.07808,0.0678 0.160289,-0.0583 0.202996,-0.10036 0.09526,-0.0225 0.153939,-0.0895 0.208719,-0.16826 0.04095,-0.0637 0.136835,-0.17683 0.202276,-0.0895 0.08544,0.0238 0.182733,0.0782 0.249323,0.12163 0.05384,0.0174 0.133768,0.0507 0.178652,0.0603 -0.0031,-0.0966 0.04879,-0.1814 0.108451,-0.22892 0.03544,-0.0823 0.09266,-0.1442 0.120877,-0.22989 -0.02041,-0.0607 0.157942,-0.0616 0.04034,-0.10862 -0.125637,-0.0183 -0.209025,0.0994 -0.341825,0.0443 -0.09848,-0.0499 -0.211956,-0.0656 -0.30619,-0.0962 -0.0224,-0.0992 0.156009,-0.10661 0.164753,-0.1703 0.120877,-0.0603 0.121953,-0.17307 0.188148,-0.251 0.04878,-0.10436 0.05615,-0.22248 0.05154,-0.34547 -0.0046,-0.13393 -0.119813,-0.13884 -0.237329,-0.12687 -0.07808,0.0744 -0.08468,0.16423 -0.121952,0.25402 -0.07977,0.0698 -0.07854,0.21452 -0.107388,0.32051 -0.06198,0.0494 -0.145424,-0.0482 -0.180124,-0.0888 0.02608,-0.0451 -0.08683,-0.0125 -0.04771,-0.0767 -0.06857,0.0158 -0.06673,-0.0857 -0.145732,-0.0531 -0.02745,-0.0442 -0.06642,-0.0179 -0.06458,-0.0786 -0.07793,-0.0113 -0.123642,-0.0687 -0.202169,-0.0843 0.0031,-0.008 0.0061,0.12313 0.02961,0.15156 0.04617,0.0895 0.06213,0.19125 0.10262,0.29348 z"
       id="path5092"
       inkscape:connector-curvature="0" />
    <g
       id="g5151"
       transform="translate(-20.011806,-4.0758603)">
      <path
         inkscape:connector-curvature="0"
         id="path5100"
         d="m 106.87277,212.04985 c -0.66078,0.18151 -1.0985,0.75372 -1.30167,1.38502 -0.22325,0.5385 -0.27901,1.13927 -0.10204,1.69947 0.0797,0.52892 0.2251,1.11732 0.76583,1.34836 0.40259,0.21273 0.86729,0.26553 1.30574,0.3712 0.53939,0.0395 1.08132,0.0656 1.62111,0.12701 0.76936,0.29101 1.14507,-0.58039 1.2185,-1.19103 0.18687,-0.80046 0.28107,-1.62429 0.26534,-2.44595 -0.0497,-0.76522 -0.86373,-0.97644 -1.44242,-1.25221 -0.68903,-0.31831 -1.49359,-0.32116 -2.23592,-0.23525 -0.18422,-0.0315 -0.0962,0.11043 -0.0945,0.19338 z"
         style="fill:#c98d65;fill-opacity:1;stroke:none;stroke-width:0.26458332px;stroke-linecap:butt;stroke-linejoin:miter;stroke-opacity:1" />
      <g
         style="fill:#a97655;fill-opacity:1;stroke:#b47f59;stroke-width:0.95564151;stroke-opacity:1"
         transform="matrix(1,0,0,1.0949896,0,-20.614619)"
         id="g5137">
        <path
           style="fill:#a97655;fill-opacity:1;stroke:#b47f59;stroke-width:0.15768085;stroke-linecap:butt;stroke-linejoin:miter;stroke-miterlimit:4;stroke-dasharray:none;stroke-opacity:1"
           d="m 106.54141,212.95909 c 0.10698,0.20165 0.15474,0.5154 0.27938,0.7495 0.10965,0.3789 0.39699,0.66621 0.65805,0.94565 0.33329,0.3325 0.7178,0.60325 1.09654,0.87823 0.32717,0.27912 0.67829,0.5282 1.01991,0.78862 0.0466,0.0412 0.0929,0.0829 0.13424,0.12957"
           id="path5107"
           inkscape:connector-curvature="0" />
        <path
           inkscape:connector-curvature="0"
           id="path5112"
           d="m 105.90554,213.42815 c 0.1003,0.1871 0.14508,0.47821 0.26194,0.69541 0.10281,0.35156 0.37221,0.61813 0.61698,0.8774 0.31248,0.30851 0.67299,0.55972 1.02809,0.81485 0.30675,0.25898 0.63595,0.49008 0.95625,0.73171 0.0437,0.0382 0.0871,0.0769 0.12586,0.12021"
           style="fill:#a97655;fill-opacity:1;stroke:#b47f59;stroke-width:0.15768085;stroke-linecap:butt;stroke-linejoin:miter;stroke-miterlimit:4;stroke-dasharray:none;stroke-opacity:1" />
        <path
           style="fill:#a97655;fill-opacity:1;stroke:#b47f59;stroke-width:0.15768085;stroke-linecap:butt;stroke-linejoin:miter;stroke-miterlimit:4;stroke-dasharray:none;stroke-opacity:1"
           d="m 107.58856,213.33086 c 0.0753,0.15508 0.10886,0.39638 0.19654,0.57641 0.0772,0.2914 0.27929,0.51235 0.46295,0.72725 0.23447,0.25572 0.50498,0.46394 0.77143,0.67541 0.23017,0.21466 0.47719,0.40621 0.71752,0.60649 0.0328,0.0317 0.0654,0.0637 0.0944,0.0996"
           id="path5114"
           inkscape:connector-curvature="0" />
        <path
           inkscape:connector-curvature="0"
           id="path5116"
           d="m 108.58723,213.43527 c 0.0536,0.10949 0.0775,0.27983 0.13988,0.40692 0.0549,0.20572 0.19875,0.3617 0.32946,0.51341 0.16686,0.18053 0.35936,0.32752 0.54898,0.47681 0.1638,0.15154 0.33959,0.28677 0.51063,0.42816 0.0233,0.0223 0.0465,0.045 0.0672,0.0703"
           style="fill:#a97655;fill-opacity:1;stroke:#b47f59;stroke-width:0.15768085;stroke-linecap:butt;stroke-linejoin:miter;stroke-miterlimit:4;stroke-dasharray:none;stroke-opacity:1" />
        <path
           style="fill:#a97655;fill-opacity:1;stroke:#b47f59;stroke-width:0.15768085;stroke-linecap:butt;stroke-linejoin:miter;stroke-miterlimit:4;stroke-dasharray:none;stroke-opacity:1"
           d="m 105.81467,214.57073 c 0.0558,0.11433 0.0807,0.29222 0.14569,0.42495 0.0572,0.21483 0.20701,0.37773 0.34315,0.53616 0.17379,0.18852 0.3743,0.34203 0.5718,0.49794 0.17061,0.15825 0.3537,0.29947 0.53184,0.44713 0.0243,0.0233 0.0485,0.047 0.07,0.0735"
           id="path5118"
           inkscape:connector-curvature="0" />
        <path
           style="fill:#a97655;fill-opacity:1;stroke:#b47f59;stroke-width:0.15768085;stroke-linecap:butt;stroke-linejoin:miter;stroke-miterlimit:4;stroke-dasharray:none;stroke-opacity:1"
           d="m 110.08222,213.42815 c -0.1003,0.1871 -0.14508,0.47821 -0.26194,0.69541 -0.10281,0.35156 -0.37221,0.61813 -0.61698,0.8774 -0.31248,0.30851 -0.67299,0.55972 -1.02809,0.81485 -0.30675,0.25898 -0.63595,0.49008 -0.95625,0.73171 -0.0437,0.0382 -0.0871,0.0769 -0.12586,0.12021"
           id="path5120"
           inkscape:connector-curvature="0" />
        <path
           inkscape:connector-curvature="0"
           id="path5122"
           d="m 108.3992,213.33086 c -0.0753,0.15508 -0.10886,0.39638 -0.19654,0.57641 -0.0772,0.2914 -0.27929,0.51235 -0.46295,0.72725 -0.23447,0.25572 -0.50498,0.46394 -0.77143,0.67541 -0.23017,0.21466 -0.47719,0.40621 -0.71752,0.60649 -0.0328,0.0317 -0.0654,0.0637 -0.0944,0.0996"
           style="fill:#a97655;fill-opacity:1;stroke:#b47f59;stroke-width:0.15768085;stroke-linecap:butt;stroke-linejoin:miter;stroke-miterlimit:4;stroke-dasharray:none;stroke-opacity:1" />
        <path
           style="fill:#a97655;fill-opacity:1;stroke:#b47f59;stroke-width:0.15768085;stroke-linecap:butt;stroke-linejoin:miter;stroke-miterlimit:4;stroke-dasharray:none;stroke-opacity:1"
           d="m 107.40053,213.43527 c -0.0536,0.10949 -0.0775,0.27983 -0.13988,0.40692 -0.0549,0.20572 -0.19875,0.3617 -0.32946,0.51341 -0.16686,0.18053 -0.35936,0.32752 -0.54898,0.47681 -0.1638,0.15154 -0.33959,0.28677 -0.51063,0.42816 -0.0233,0.0223 -0.0465,0.045 -0.0672,0.0703"
           id="path5124"
           inkscape:connector-curvature="0" />
        <path
           inkscape:connector-curvature="0"
           id="path5126"
           d="m 110.17309,214.57073 c -0.0558,0.11433 -0.0807,0.29222 -0.14569,0.42495 -0.0572,0.21483 -0.20701,0.37773 -0.34315,0.53616 -0.17379,0.18852 -0.3743,0.34203 -0.5718,0.49794 -0.17061,0.15825 -0.3537,0.29947 -0.53184,0.44713 -0.0243,0.0233 -0.0485,0.047 -0.07,0.0735"
           style="fill:#a97655;fill-opacity:1;stroke:#b47f59;stroke-width:0.15768085;stroke-linecap:butt;stroke-linejoin:miter;stroke-miterlimit:4;stroke-dasharray:none;stroke-opacity:1" />
      </g>
      <path
         inkscape:connector-curvature="0"
         id="path5105"
         d="m 106.84719,212.13994 c 0.10667,0 0.21339,0 0.32008,0 0.01,0 0.0194,0 0.029,0 0.01,0 0.0222,0.007 0.029,0 0.007,-0.007 -0.007,-0.0242 0,-0.0316 0.007,-0.007 0.0194,0 0.029,0 0.01,0 0.0194,0 0.029,0 0.097,0 0.19399,0 0.291,0 0.0137,0 0.14418,-0.002 0.1455,0 0.0388,0.0423 -0.0485,0.0316 0.029,0.0316 0.01,0 0.0194,0 0.029,0 0.01,0 0.0205,-0.005 0.029,0 0.0124,0.006 0.0168,0.0251 0.0291,0.0316 0.0111,0.006 0.12526,0 0.14549,0 0.01,0 0.0222,-0.007 0.029,0 0.007,0.007 -0.007,0.0242 0,0.0316 0.009,0.01 0.13648,-0.01 0.14549,0 0.007,0.007 -0.007,0.0242 0,0.0316 0.007,0.007 0.0194,0 0.029,0 0.0485,0 0.097,0 0.14549,0 0.01,0 0.0222,-0.007 0.029,0 0.007,0.007 -0.007,0.0242 0,0.0316 0.009,0.01 0.13648,-0.01 0.14549,0 0.007,0.007 -0.007,0.0242 0,0.0317 0.007,0.007 0.10939,-0.007 0.11644,0 0.007,0.007 -0.007,0.0242 0,0.0316 0.009,0.01 0.13647,-0.01 0.14549,0 0.007,0.007 -0.007,0.0242 0,0.0316 0.0146,0.0158 0.0727,-0.0158 0.0873,0 0.007,0.007 -0.007,0.0242 0,0.0316 0.007,0.007 0.10939,-0.007 0.11644,0 0.007,0.007 -0.007,0.0242 0,0.0317 0.009,0.01 0.13649,-0.01 0.1455,0 0.007,0.007 -0.007,0.0242 0,0.0316 0.0146,0.0158 0.0727,-0.0158 0.0873,0 0.007,0.007 -0.007,0.0242 0,0.0316 0.006,0.006 0.0758,-0.006 0.0873,0 0.0124,0.006 0.0168,0.0251 0.029,0.0316 0.0173,0.01 0.0445,-0.0148 0.0582,0 0.007,0.007 -0.007,0.0242 0,0.0316 0.0137,0.0148 0.0445,-0.0148 0.0582,0 0.007,0.007 -0.007,0.0242 0,0.0316 0.007,0.007 0.0222,-0.007 0.029,0 0.0137,0.0148 -0.0137,0.0485 0,0.0633 0.007,0.007 0.0222,-0.007 0.0291,0 0.007,0.007 -0.007,0.0242 0,0.0317 0.007,0.007 0.0222,-0.007 0.029,0 0.007,0.007 -0.007,0.11903 0,0.12665 0.007,0.007 0.0222,-0.007 0.029,0 0.007,0.007 -0.007,0.11903 0,0.12666 0.007,0.007 0.0222,-0.007 0.029,0 0.007,0.007 0,0.0211 0,0.0316 0,0.0111 8.7e-4,0.12537 0,0.12664 -0.007,0.007 -0.0222,-0.007 -0.029,0 -0.01,0.0111 0.01,0.0528 0,0.0633 -0.007,0.007 -0.0222,-0.007 -0.029,0 -0.01,0.0111 0.01,0.0528 0,0.0633 -0.007,0.007 -0.0222,-0.007 -0.029,0 -0.007,0.007 0.007,0.0241 0,0.0316 -0.007,0.007 -0.0222,-0.007 -0.0291,0 -0.007,0.007 0.007,0.0241 0,0.0316 -0.007,0.007 -0.0222,-0.007 -0.029,0 -0.007,0.007 0.007,0.0241 0,0.0316 -0.007,0.007 -0.0194,0 -0.029,0 -0.01,0 -0.0194,0 -0.029,0 -0.11644,0 -0.23281,0 -0.34919,0 -0.0137,0 -0.14419,0.002 -0.14551,0 -0.007,-0.007 0.007,-0.0242 0,-0.0316 -0.007,-0.007 -0.0194,0 -0.029,0 -0.01,0 -0.0194,0 -0.029,0 -0.0206,0 -0.16709,0.004 -0.1746,0 -0.0124,-0.006 -0.0168,-0.025 -0.029,-0.0316 -0.007,-0.004 -0.10123,0 -0.11644,0 -0.01,0 -0.0194,0 -0.029,0 -0.01,0 -0.0222,0.007 -0.029,0 -0.007,-0.007 0.007,-0.0242 0,-0.0316 -0.009,-0.01 -0.13648,0.01 -0.14549,0 -0.007,-0.007 0.007,-0.0242 0,-0.0316 -0.007,-0.007 -0.0194,0 -0.0291,0 -0.0484,0 -0.097,0 -0.14549,0 -0.01,0 -0.0222,0.007 -0.029,0 -0.007,-0.007 0.007,-0.0242 0,-0.0316 -0.007,-0.007 -0.0194,0 -0.029,0 -0.01,0 -0.0194,0 -0.029,0 -0.0776,0 -0.1552,0 -0.2328,0 -0.01,0 -0.0222,0.007 -0.029,0 -0.007,-0.007 0.007,-0.0242 0,-0.0316 -0.009,-0.01 -0.1365,0.01 -0.1455,0 -0.007,-0.007 0.007,-0.0242 0,-0.0317 -0.0146,-0.0158 -0.0728,0.0158 -0.0873,0 -0.007,-0.007 0.007,-0.0242 0,-0.0316 -0.007,-0.007 -0.10939,0.007 -0.11643,0 -0.007,-0.007 0.007,-0.0242 0,-0.0316 -0.007,-0.007 -0.10939,0.007 -0.11644,0 -0.007,-0.007 0.007,-0.0242 0,-0.0316 -0.01,-0.0111 -0.0486,0.0111 -0.0582,0 -0.007,-0.007 0.007,-0.0242 0,-0.0316 -0.0146,-0.0158 -0.0727,0.0158 -0.0873,0 -0.007,-0.007 0.007,-0.0242 0,-0.0316 -0.0137,-0.0148 -0.0445,0.0148 -0.0582,0 -0.007,-0.007 0.007,-0.0242 0,-0.0316 -0.01,-0.0111 -0.0485,0.0111 -0.0582,0 -0.007,-0.007 0.007,-0.0242 0,-0.0316 -0.0137,-0.0148 -0.0445,0.0148 -0.0582,0 -0.007,-0.007 0.007,-0.0242 0,-0.0317 -0.0137,-0.0148 -0.0445,0.0148 -0.0582,0 -0.007,-0.007 0.007,-0.0242 0,-0.0316 -0.0137,-0.0148 -0.0445,0.0148 -0.0582,0 -0.007,-0.007 0.007,-0.0242 0,-0.0316 -0.007,-0.007 -0.0222,0.007 -0.029,0 -0.01,-0.0111 0.01,-0.0528 0,-0.0633 -0.007,-0.007 -0.0222,0.007 -0.029,0 -0.0137,-0.0148 0.0137,-0.0485 0,-0.0633 -0.007,-0.007 -0.0222,0.007 -0.029,0 -0.007,-0.007 0,-0.0211 0,-0.0316 0,-0.0738 0,-0.14777 0,-0.22165 0,-0.0111 0,-0.0211 0,-0.0316 0,-0.0111 -0.007,-0.0242 0,-0.0316 0.007,-0.007 0.0222,0.007 0.029,0 0.0137,-0.0148 -0.0137,-0.0485 0,-0.0633 0.007,-0.007 0.0194,0 0.029,0 0,-0.0423 0,-0.0844 0,-0.12665 z"
         style="opacity:1;fill:#a37252;fill-opacity:1;stroke:none;stroke-width:0.19448765px;stroke-linecap:butt;stroke-linejoin:miter;stroke-opacity:1" />
    </g>
    <path
       style="fill:#ece6d2;fill-opacity:1;stroke:none;stroke-width:0.31625992px;stroke-linecap:butt;stroke-linejoin:miter;stroke-opacity:1"
       d="m 86.630091,212.84779 c 0.276154,-0.0453 0.550693,-0.068 0.826571,-0.11582 0.299008,-0.0617 0.612395,-0.0937 0.904709,-0.18182 0.270714,-0.0383 0.542433,-0.11415 0.808773,-0.18164 0.267391,-0.10244 0.544883,-0.13187 0.821347,-0.20379 0.257841,-0.0509 0.503084,-0.12425 0.74523,-0.23055 0.223046,-0.13182 0.466053,-0.23151 0.664726,-0.39615 0.208235,-0.1419 0.447489,-0.28523 0.680707,-0.38555 0.205498,-0.13256 0.667403,-0.11248 0.601182,0.21621 -0.245266,0.29177 -0.55172,0.52284 -0.802091,0.81045 0.0422,0.13652 -0.176727,0.2511 -0.164869,0.3782 -0.168826,0.12926 -0.0863,0.28336 -0.05463,0.42846 -0.224647,0.15805 -0.439947,0.25014 -0.682488,0.0839 -0.31818,-0.0635 -0.638058,-0.099 -0.954708,-0.0902 -0.333636,-0.0472 -0.631245,0.03 -0.959275,0.0888 -0.305701,0.0436 -0.588261,0.16605 -0.882356,0.22325 -0.261607,0.0842 -0.515085,0.13158 -0.778269,0.21557 -0.31206,0.0341 -0.609275,0.12064 -0.920582,0.17302 -0.114392,0.01 -0.47399,0.088 -0.198745,-0.0745 0.09323,-0.15024 0.500322,-0.2466 0.418563,-0.41655 -0.142481,0.0356 -0.482835,-0.0613 -0.254924,-0.23263 0.07244,-0.007 0.112479,-0.0839 0.181054,-0.10865 z"
       id="path5096"
       inkscape:connector-curvature="0" />
  </g>
</svg>
