<?xml version="1.0" encoding="UTF-8" standalone="no"?>
<!-- Created with Inkscape (http://www.inkscape.org/) -->

<svg
   xmlns:dc="http://purl.org/dc/elements/1.1/"
   xmlns:cc="http://creativecommons.org/ns#"
   xmlns:rdf="http://www.w3.org/1999/02/22-rdf-syntax-ns#"
   xmlns:svg="http://www.w3.org/2000/svg"
   xmlns="http://www.w3.org/2000/svg"
   xmlns:sodipodi="http://sodipodi.sourceforge.net/DTD/sodipodi-0.dtd"
   xmlns:inkscape="http://www.inkscape.org/namespaces/inkscape"
   width="123.50506mm"
   height="92.693512mm"
   viewBox="0 0 437.61638 328.44158"
   id="svg2"
   version="1.1"
   inkscape:version="0.91 r13725"
   sodipodi:docname="grass5.svg"
   inkscape:export-filename="C:\Users\ziltoid\SharedWithVMs\tile5.png"
   inkscape:export-xdpi="53.890129"
   inkscape:export-ydpi="53.890129">
  <defs
     id="defs4">
    <filter
       inkscape:collect="always"
       style="color-interpolation-filters:sRGB"
       id="filter4566"
       x="-0.035072465"
       width="1.0701449"
       y="-0.20742857"
       height="1.4148571">
      <feGaussianBlur
         inkscape:collect="always"
         stdDeviation="2.1607143"
         id="feGaussianBlur4568" />
    </filter>
    <filter
       inkscape:collect="always"
       style="color-interpolation-filters:sRGB"
       id="filter4618"
       x="-0.089523034"
       width="1.1790461"
       y="-0.4606468"
       height="1.9212936">
      <feGaussianBlur
         inkscape:collect="always"
         stdDeviation="4.4630492"
         id="feGaussianBlur4620" />
    </filter>
    <filter
       inkscape:collect="always"
       style="color-interpolation-filters:sRGB"
       id="filter4622"
       x="-0.28029622"
       width="1.5605924"
       y="-0.87898459"
       height="2.7579692">
      <feGaussianBlur
         inkscape:collect="always"
         stdDeviation="4.4630492"
         id="feGaussianBlur4624" />
    </filter>
    <filter
       inkscape:collect="always"
       style="color-interpolation-filters:sRGB"
       id="filter4630"
       x="-0.20213553"
       width="1.4042711"
       y="-0.74777714"
       height="2.4955543">
      <feGaussianBlur
         inkscape:collect="always"
         stdDeviation="4.4630492"
         id="feGaussianBlur4632" />
    </filter>
    <filter
       inkscape:collect="always"
       style="color-interpolation-filters:sRGB"
       id="filter4634"
       x="-0.10027152"
       width="1.200543"
       y="-0.58589079"
       height="2.1717816">
      <feGaussianBlur
         inkscape:collect="always"
         stdDeviation="4.4630492"
         id="feGaussianBlur4636" />
    </filter>
    <filter
       inkscape:collect="always"
       style="color-interpolation-filters:sRGB"
       id="filter4638"
       x="-0.1090607"
       width="1.2181214"
       y="-0.78527017"
       height="2.5705403">
      <feGaussianBlur
         inkscape:collect="always"
         stdDeviation="4.4630492"
         id="feGaussianBlur4640" />
    </filter>
    <filter
       inkscape:collect="always"
       style="color-interpolation-filters:sRGB"
       id="filter4642"
       x="-0.11946887"
       width="1.2389377"
       y="-0.51591933"
       height="2.0318387">
      <feGaussianBlur
         inkscape:collect="always"
         stdDeviation="4.4630492"
         id="feGaussianBlur4644" />
    </filter>
    <filter
       inkscape:collect="always"
       style="color-interpolation-filters:sRGB"
       id="filter4646"
       x="-0.2418685"
       width="1.483737"
       y="-0.63670177"
       height="2.2734035">
      <feGaussianBlur
         inkscape:collect="always"
         stdDeviation="4.4630492"
         id="feGaussianBlur4648" />
    </filter>
    <filter
       inkscape:collect="always"
       style="color-interpolation-filters:sRGB"
       id="filter4664"
       x="-0.010485844"
       width="1.0209717"
       y="-0.014025245"
       height="1.0280505">
      <feGaussianBlur
         inkscape:collect="always"
         stdDeviation="1.8901471"
         id="feGaussianBlur4666" />
    </filter>
  </defs>
  <sodipodi:namedview
     id="base"
     pagecolor="#ffffff"
     bordercolor="#666666"
     borderopacity="1.0"
     inkscape:pageopacity="0.0"
     inkscape:pageshadow="2"
     inkscape:zoom="1.979899"
     inkscape:cx="57.025634"
     inkscape:cy="159.72074"
     inkscape:document-units="px"
     inkscape:current-layer="layer4"
     showgrid="false"
     inkscape:window-width="2560"
     inkscape:window-height="1012"
     inkscape:window-x="-8"
     inkscape:window-y="-8"
     inkscape:window-maximized="1"
     fit-margin-top="0"
     fit-margin-left="0"
     fit-margin-right="0"
     fit-margin-bottom="0" />
  <metadata
     id="metadata7">
    <rdf:RDF>
      <cc:Work
         rdf:about="">
        <dc:format>image/svg+xml</dc:format>
        <dc:type
           rdf:resource="http://purl.org/dc/dcmitype/StillImage" />
        <dc:title></dc:title>
      </cc:Work>
    </rdf:RDF>
  </metadata>
  <g
     inkscape:groupmode="layer"
     id="layer2"
     inkscape:label="Repère"
     style="display:none"
     transform="translate(4.1592743,-198.92088)"
     sodipodi:insensitive="true">
    <path
       sodipodi:type="star"
       style="opacity:1;fill:#003880;fill-opacity:0.11440681;stroke:none;stroke-width:1;stroke-linecap:round;stroke-linejoin:round;stroke-miterlimit:4;stroke-dasharray:none;stroke-dashoffset:0;stroke-opacity:1"
       id="path4136"
       sodipodi:sides="6"
       sodipodi:cx="166.67517"
       sodipodi:cy="350.30618"
       sodipodi:r1="144.63184"
       sodipodi:r2="125.25484"
       sodipodi:arg1="1.0471976"
       sodipodi:arg2="1.5707964"
       inkscape:flatsided="true"
       inkscape:rounded="0"
       inkscape:randomized="0"
       d="m 238.99108,475.56103 -144.631833,-1e-5 -72.315912,-125.25484 72.315924,-125.25484 144.631831,0 72.31592,125.25485 z"
       transform="matrix(0.8660254,0.50000003,-0.49999997,0.8660254,215.66608,-41.456222)" />
  </g>
  <g
     inkscape:label="Calque 1"
     inkscape:groupmode="layer"
     id="layer1"
     transform="translate(4.1592743,-198.92088)"
     sodipodi:insensitive="true">
    <path
       style="opacity:1;fill:#9bad59;fill-opacity:1;stroke:#9eb05e;stroke-width:5;stroke-linecap:round;stroke-linejoin:round;stroke-miterlimit:4;stroke-dasharray:none;stroke-dashoffset:0;stroke-opacity:1;filter:url(#filter4664)"
       d="m 307.95058,273.46261 -2.6e-4,71.2778 61.27868,-35.37998 9e-5,71.19907 61.72825,-35.63913 -61.66034,-35.59961 0.38157,-0.21948 -61.72799,-35.63867 z m -0.25032,0.42156 -61.36659,35.43069 -0.39918,-0.23047 -2.7e-4,71.2778 61.36661,-35.4307 0.32644,0.18848 -0.77405,0.44619 61.72967,35.63965 -0.001,-71.27878 -60.88156,35.14917 3.5e-4,-71.19203 z m -125.35417,-70.16537 -7.8e-4,68.23965 -60.25981,-34.79102 -7.6e-4,71.2279 -0.0989,0.0579 -2.6e-4,-71.05032 -61.728252,35.63912 61.531782,35.52539 -0.12509,0.0721 60.92963,35.17774 -6e-4,2.47369 1.91075,-1.10249 61.3305,35.40918 2.6e-4,-71.27779 -1.91075,1.10248 -0.002,-10e-4 5.7e-4,-70.86038 -60.53253,34.94699 7.8e-4,-0.11456 60.68482,-35.03498 -61.72968,-35.63965 z m -121.996094,-2.29812 -2.58e-4,71.27779 61.728252,-35.63912 -61.727994,-35.63867 z m 248.841254,215.79901 -61.72825,35.63913 61.72799,35.63867 2.6e-4,-71.2778 z m -63.59621,-36.09032 1.2e-4,0.1444 -61.53347,-35.52637 -2.7e-4,71.27781 61.53321,-35.52396 2.1e-4,0.11283 -61.68646,35.61363 61.72967,35.63965 2.3e-4,-0.48475 61.68478,-35.61461 -61.72799,-35.63868 z m -61.81433,-34.03992 -61.3666,35.43069 -0.39918,-0.23046 -7.7e-4,71.22789 -0.0988,0.058 7e-4,-71.05201 -61.728248,35.63912 61.533478,35.52637 -0.12774,0.0729 0.92691,0.53515 4.9e-4,70.56556 61.72826,-35.63912 -0.92693,-0.53516 -0.002,-70.51663 0.0607,-0.0348 0.39918,0.23046 2.5e-4,-71.27779 z m -123.863917,-0.93406 -3.5e-4,2.3092 -61.5759672,35.55115 61.7279902,35.63867 3.5e-4,-2.3092 61.575974,-35.55114 -61.727997,-35.63868 z"
       id="path4140"
       inkscape:connector-curvature="0" />
  </g>
  <g
     inkscape:groupmode="layer"
     id="layer4"
     inkscape:label="Décor">
    <g
       id="g4668"
       transform="translate(-196.47468,36.365496)">
      <path
         inkscape:connector-curvature="0"
         id="path4458"
         d="m 76.771608,199.7482 c -2.34294,-1.03498 -2.35824,-3.81914 -2.92576,-5.89797 -1.05654,-4.44839 -3.51293,-8.39997 -5.4112,-12.53496 -0.55633,-2.3712 2.58525,-1.21417 3.31722,-0.053 1.94217,1.30498 4.26754,1.92946 6.24478,3.17585 2.58863,-0.32746 1.5033,-3.58498 2.84333,-5.04063 1.34335,-2.97677 2.63522,-6.14448 5.20452,-8.35938 2.628342,-0.42513 0.751076,3.35252 0.709939,4.77405 -0.652129,2.55993 -1.105049,5.1817 -0.996549,7.82276 -0.13539,2.78851 -0.004,5.79259 -1.66882,8.22557 -0.66724,1.32431 -2.74493,3.4825 -1.88581,4.54817 1.60998,-1.37989 3.06312,-2.95456 4.555057,-4.46176 1.493784,-1.67925 2.402963,-3.77781 4.258174,-5.15279 1.730953,-1.60926 3.852807,-2.8328 6.197542,-3.3703 3.532769,-1.41532 6.768329,-3.46918 10.409969,-4.6401 2.23782,1.36401 -0.75261,3.41868 -1.36865,4.90142 -1.81798,2.83149 -4.19724,5.28429 -6.00559,8.12143 -2.712736,3.18796 -7.645183,2.86334 -10.62778,5.69191 -0.974151,0.10242 -2.591574,1.18857 -0.623662,0.71985 1.621461,-0.61383 5.131286,-0.82666 4.468375,1.76004 -0.630377,2.54438 -3.913846,3.17242 -6.014061,1.938 -3.840344,-1.18289 -7.518424,-3.21849 -11.610984,-3.38851 -0.20848,0.0456 -0.41128,0.12431 -0.58532,0.24568"
         style="fill:#859a2d;fill-opacity:1;fill-rule:evenodd;stroke:none;stroke-width:1px;stroke-linecap:butt;stroke-linejoin:miter;stroke-opacity:1" />
      <path
         inkscape:connector-curvature="0"
         id="path4467"
         d="m 78.034298,195.84937 c 0.0842,-0.32491 0.218,-0.64146 0.25254,-0.97471 0.0503,-0.48493 0,-0.9747 0,-1.46206 0,-0.24368 0,-0.48736 0,-0.73103 0,-0.24368 -0.0415,-0.49068 0,-0.73104 0.0438,-0.25336 0.22844,-0.47522 0.25254,-0.73102 0.061,-0.64714 0,-1.29961 0,-1.94943 0,-0.24367 0,-0.48735 0,-0.73102 0,-1.46207 0,-2.92413 0,-4.3862 0,-0.81225 0,-1.62451 0,-2.43677 0,-0.24368 0.0415,-0.49066 0,-0.73103 -0.0438,-0.25336 -0.21952,-0.47616 -0.25254,-0.73103 -0.0522,-0.403 0,-0.81226 0,-1.21839 0,-0.24368 0.0357,-0.4898 0,-0.73102 -0.0491,-0.33155 -0.22372,-0.64098 -0.25254,-0.97472 -0.0559,-0.64756 0.12047,-1.31009 0,-1.94941 -0.0543,-0.28815 -0.41786,-0.45052 -0.50507,-0.73104 -1.43768,-4.62411 0.69247,0.93556 -0.25254,-3.1678 -0.0658,-0.28589 -0.43147,-0.44692 -0.50508,-0.73104 -0.10208,-0.394 0,-0.81225 0,-1.21838 0,-0.0813 0,-0.16245 0,-0.24368 0,-0.24367 0.0495,-0.49209 0,-0.73103 -0.0369,-0.1781 -0.16836,-0.3249 -0.25254,-0.48736 -0.16836,-0.32489 -0.3969,-0.62676 -0.50507,-0.9747 -0.14714,-0.47324 -0.20618,-0.97002 -0.25254,-1.46207 0,-0.40612 0,-0.81225 0,-1.21838 -0.16836,-0.0813 -0.4209,-0.0813 -0.50508,-0.24368 -0.11294,-0.21795 0,-0.48735 0,-0.73103 0,-0.24368 0.0495,-0.49208 0,-0.73104 -0.0369,-0.17809 -0.16836,-0.32489 -0.25254,-0.48734 -0.16835,-0.32491 -0.40165,-0.62544 -0.50507,-0.97471 -0.0694,-0.23431 0.0799,-0.49986 0,-0.73104 -0.0266,-0.0771 -0.21489,0.0727 -0.25254,0 -0.0753,-0.14529 0,-0.3249 0,-0.48735 0,-0.0813 0,-0.16245 0,-0.24367 0,-0.16246 0.11905,-0.37249 0,-0.48736 -0.11905,-0.11488 -0.35449,0.0727 -0.50508,0 -0.0753,-0.0364 -0.0595,-0.18624 0,-0.24368 0.0595,-0.0574 0.19302,-0.0574 0.25254,0 0.0595,0.0574 -0.0753,0.20735 0,0.24368 0.15059,0.0727 0.33672,0 0.50508,0 0.0842,0 0.19301,-0.0574 0.25254,0 0.0595,0.0574 -0.0753,0.20735 0,0.24368 1.34687,0.6498 -0.16836,-0.81227 0.50507,0.48735 0.0376,0.0727 0.16836,0 0.25254,0 0.16836,0 0.35449,-0.0727 0.50508,0 0.0753,0.0363 -0.0595,0.18624 0,0.24367 0.0595,0.0574 0.18249,-0.0451 0.25253,0 0.19811,0.12744 0.33672,0.32491 0.50508,0.48736 0.0842,0.0813 0.21489,0.1347 0.25254,0.24368 0.0532,0.15412 0,0.3249 0,0.48735 0,0.0812 -0.0467,0.1761 0,0.24368 0.13207,0.19116 0.42978,0.2694 0.50508,0.48736 0.10647,0.30823 -0.0476,0.65307 0,0.9747 0.0376,0.25428 0.16835,0.48736 0.25253,0.73103 1.5263,4.41823 -0.31323,-1.10822 0.75762,2.68045 0.12492,0.44197 0.69533,1.83583 0.75761,2.43678 0.0503,0.48494 -0.1225,0.98926 0,1.46206 0.0577,0.22288 0.44733,0.26447 0.50508,0.48735 0.1225,0.47281 -0.0558,0.97769 0,1.46207 0.082,0.71195 0.54305,1.01563 0.75761,1.70574 0.14714,0.47324 0.14525,0.97895 0.25254,1.46207 0.14545,0.65493 0.33672,1.29961 0.50508,1.94941 0.0842,0.3249 0.21421,0.64186 0.25254,0.97471 0.0465,0.40365 -0.10209,0.82438 0,1.21838 0.0736,0.28412 0.40909,0.4532 0.50507,0.73104 0.0799,0.23117 0,0.48735 0,0.73102 0,0.24368 0,0.48736 0,0.73104 0,0.24368 0,0.48735 0,0.73103 0,0.0813 -0.0266,0.16662 0,0.24368 0.0595,0.1723 0.21562,0.30925 0.25254,0.48736 0.0495,0.23894 0,0.48734 0,0.73102 0,0.48736 0,0.97471 0,1.46207 0,0.24368 -0.0799,0.49985 0,0.73103 0.096,0.27783 0.42169,0.44943 0.50507,0.73103 0.0925,0.3124 0,0.6498 0,0.97471 0,0.16245 0,0.3249 0,0.48736 0,0.81225 0,1.6245 0,2.43677 0,0.16245 0,0.3249 0,0.48735 0,0.0812 0.0595,0.18624 0,0.24368 -0.0595,0.0574 -0.21489,-0.0727 -0.25253,0 -0.0753,0.1453 0,0.3249 0,0.48735 0,0.0812 0.0753,0.20735 0,0.24368 -0.15059,0.0727 -0.38603,-0.11487 -0.50508,0 -0.11905,0.11487 0,0.3249 0,0.48735 0,0.0813 0,0.16245 0,0.24368 0,0.16245 0.0753,0.34205 0,0.48736 -0.0376,0.0727 -0.16836,0 -0.25254,0 -0.16836,0 -0.35449,-0.0727 -0.50507,0 -0.0753,0.0363 0.0595,0.18624 0,0.24368 -0.0595,0.0574 -0.21489,-0.0727 -0.25254,0 -0.0753,0.14529 0.11905,0.37247 0,0.48735 -0.11905,0.11487 -0.35449,-0.0727 -0.50508,0 -0.0753,0.0363 0.0595,0.18624 0,0.24367 -0.0595,0.0574 -0.21489,-0.0727 -0.25254,0 -0.0753,0.1453 0.11905,0.37249 0,0.48736 -0.11904,0.11487 -0.35449,-0.0727 -0.50507,0 -0.0753,0.0363 0.0595,0.18624 0,0.24367 -0.0595,0.0574 -0.21489,-0.0727 -0.25254,0 -0.33672,0.64981 0.50508,0.48736 -0.50508,0.48736"
         style="fill:#859a2d;fill-opacity:1;fill-rule:evenodd;stroke:none;stroke-width:1px;stroke-linecap:butt;stroke-linejoin:miter;stroke-opacity:1" />
      <path
         inkscape:connector-curvature="0"
         id="path4469"
         d="m 72.225918,154.18057 c -1.84736,-0.29709 -1.00318,-0.24368 -2.52538,-0.24368 -0.16836,0 -0.34535,-0.0513 -0.50507,0 -0.11294,0.0364 -0.15567,0.17691 -0.25254,0.24368 -2.0586,1.41883 -1.17537,0.31882 -2.27284,2.43677 -0.41562,0.80206 -1.12597,2.0006 -1.2627,2.92413 -0.0952,0.64327 -0.061,1.30227 0,1.94941 0.0552,0.58553 0.58098,1.19443 0.75762,1.70574 0.13573,0.39293 -0.051,0.92553 0.25254,1.21839 0.30351,0.29286 0.84627,0.14323 1.26269,0.24368 0.59454,0.14341 1.15966,0.5607 1.76776,0.48736 1.32504,-0.15982 3.06555,-1.35228 3.78808,-2.43679 0.38893,-0.58377 0.45999,-1.31762 0.75761,-1.94941 0.1256,-0.26661 0.36934,-0.46908 0.50508,-0.73103 0.0376,-0.0727 0,-0.16245 0,-0.24367 0,-0.16246 0,-0.32491 0,-0.48736 0,-0.0813 0,0.16245 0,0.24368 0,0.16245 0.0753,0.34205 0,0.48735 -0.18823,0.36326 -0.6013,0.59762 -0.75762,0.97471 -0.32173,0.77611 -0.25254,1.86112 -0.25254,2.68045 0,0.24367 0,0.48735 0,0.73103 0,0.24368 -0.0612,0.49463 0,0.73104 0.0289,0.11143 0.16836,0.16244 0.25254,0.24366 0.25254,0.24368 0.42935,0.59529 0.75762,0.73104 0.30949,0.12799 0.67343,0 1.01015,0 0.25254,0 0.50508,0 0.75761,0 0.16836,0 0.365,0.0901 0.50508,0 0.15662,-0.10074 0.1396,-0.34205 0.25254,-0.48736 0.39448,-0.50751 1.0037,-0.87895 1.26269,-1.46206 0.26734,-0.60191 0.0879,-1.31411 0.25254,-1.94941 0.0913,-0.35241 0.40165,-0.62544 0.50507,-0.97471 0.0694,-0.23431 0,-0.48736 0,-0.73104 0,-0.16245 0.0753,-0.34205 0,-0.48735 -0.0376,-0.0727 -0.19301,0.0574 -0.25253,0 -0.18239,-0.17599 0.44895,-0.70396 -0.50508,-0.24367 -0.0753,0.0363 -0.0595,0.18623 0,0.24367 0.0595,0.0574 0.17268,-0.0257 0.25254,0 0.17857,0.0574 0.3205,0.20806 0.50507,0.24367 0.24764,0.0478 0.50508,0 0.75762,0 0.25254,0 0.51803,0.0771 0.75761,0 0.0799,-0.0257 -0.0376,-0.17102 0,-0.24367 0.0532,-0.10274 0.1993,-0.14093 0.25254,-0.24367 0.20273,-0.39124 0.40674,-0.7914 0.50508,-1.21839 0.12649,-0.54927 0.006,-1.20589 -0.25254,-1.70574 -0.21951,-0.42363 -0.41053,-0.88349 -0.75762,-1.21839 -0.18823,-0.18162 -0.50836,-0.15349 -0.75761,-0.24368 -0.42446,-0.15358 -0.82017,-0.39247 -1.26269,-0.48736 -0.3287,-0.0704 -0.67549,-0.0359 -1.01015,0 -0.42661,0.0457 -0.8593,0.10214 -1.26269,0.24368 -0.99451,0.34895 -1.7322,0.82427 -2.52539,1.46207 -0.1829,0.14708 -0.33671,0.3249 -0.50507,0.48736 -0.0842,0.0812 -0.25254,0.1288 -0.25254,0.24367 0,0.74622 0.8218,0.51832 1.26269,0.73103 0.21296,0.10275 0.33672,0.32491 0.50508,0.48736"
         style="fill:#ffe680;fill-rule:evenodd;stroke:none;stroke-width:1px;stroke-linecap:butt;stroke-linejoin:miter;stroke-opacity:1" />
    </g>
    <g
       id="g4203"
       transform="matrix(0.77972019,0,0,0.77972019,-13.076212,143.98611)">
      <path
         style="fill:#859a2d;fill-opacity:1;fill-rule:evenodd;stroke:none;stroke-width:1px;stroke-linecap:butt;stroke-linejoin:miter;stroke-opacity:1"
         d="m 233.30416,164.95644 c 2.1792,-0.54903 2.67392,-3.27469 3.51804,-5.19939 1.67152,-4.14993 4.45214,-7.53493 6.78802,-11.21053 0.88515,-2.21347 -1.99695,-1.70344 -2.82271,-0.71078 -1.88378,0.89325 -3.97696,1.04345 -5.88055,1.87231 -2.15324,-0.83506 -0.66316,-3.81213 -1.55531,-5.50492 -0.63183,-3.18427 -1.18669,-6.54546 -2.99691,-9.22652 -2.17026,-0.93868 -1.22117,3.13656 -1.43197,4.53794 0.11386,2.63846 0.0469,5.29795 -0.50257,7.86485 -0.36683,2.75985 -0.9987,5.67799 0.002,8.39315 0.34051,1.43045 1.74086,3.95829 0.82308,4.8321 -1.13572,-1.67216 -2.10384,-3.50406 -3.11675,-5.27755 -0.98473,-1.94248 -1.39784,-4.1798 -2.74375,-5.89586 -1.19931,-1.92098 -2.79906,-3.54157 -4.70775,-4.53405 -2.77106,-2.08876 -5.17792,-4.74432 -8.0842,-6.61518 -2.14638,0.89239 0.051,3.50005 0.32047,5.07561 1.06216,3.13615 2.66899,6.01263 3.72195,9.1524 1.76433,3.66323 6.03129,4.32471 8.08817,7.6893 0.81392,0.29386 2.00679,1.67961 0.40789,0.82938 -1.27804,-0.92364 -4.23754,-1.82932 -4.1191,0.83751 0.098,2.6189 2.79239,3.88655 4.79888,3.09384 3.48312,-0.39659 6.97523,-1.66114 10.49844,-1.01495 0.17009,0.0861 0.32959,0.20352 0.45718,0.35704"
         id="path4484"
         inkscape:connector-curvature="0" />
      <path
         style="fill:#859a2d;fill-opacity:1;fill-rule:evenodd;stroke:none;stroke-width:1px;stroke-linecap:butt;stroke-linejoin:miter;stroke-opacity:1"
         d="m 233.93404,160.8845 c -0.0139,-0.33516 -0.0665,-0.67198 -0.0416,-1.00545 0.0362,-0.48526 0.14924,-0.95528 0.22387,-1.43294 0.0373,-0.23882 0.0746,-0.47765 0.11193,-0.71646 0.0373,-0.23883 0.1065,-0.47266 0.11195,-0.71648 0.005,-0.25701 -0.0999,-0.51112 -0.0789,-0.76661 0.053,-0.64637 0.19901,-1.27372 0.29851,-1.9106 0.0373,-0.23881 0.0746,-0.47764 0.11193,-0.71645 0.22388,-1.43295 0.44775,-2.86588 0.67162,-4.29883 0.12437,-0.79606 0.24875,-1.59214 0.37312,-2.38822 0.0373,-0.23883 0.0438,-0.48913 0.11194,-0.71647 0.0719,-0.23961 0.23878,-0.42307 0.30275,-0.66631 0.10116,-0.3846 0.12438,-0.79608 0.18656,-1.19412 0.0373,-0.23882 0.048,-0.48713 0.11194,-0.71645 0.0879,-0.3152 0.26719,-0.58378 0.34007,-0.90515 0.1414,-0.62356 0.10958,-1.30792 0.2985,-1.91058 0.0851,-0.27162 0.38472,-0.35855 0.49357,-0.61616 1.79437,-4.24646 -0.66649,0.77939 0.67588,-3.05454 0.0935,-0.26712 0.39445,-0.35232 0.49358,-0.61616 0.13746,-0.36588 0.12438,-0.79607 0.18656,-1.19411 0.0124,-0.0797 0.0249,-0.15921 0.0373,-0.23882 0.0373,-0.23882 0.0379,-0.49212 0.11193,-0.71647 0.0551,-0.16722 0.17697,-0.28499 0.26546,-0.4275 0.17696,-0.28498 0.39586,-0.53544 0.53088,-0.85497 0.18364,-0.43459 0.30432,-0.90974 0.41469,-1.38278 0.0622,-0.39803 0.12437,-0.79607 0.18656,-1.19411 0.13966,-0.0462 0.33048,0.004 0.41896,-0.13851 0.1187,-0.19118 0.0746,-0.47764 0.11193,-0.71647 0.0373,-0.23883 0.0379,-0.49211 0.11194,-0.71648 0.0551,-0.16721 0.17696,-0.28498 0.26544,-0.42747 0.17696,-0.285 0.39926,-0.53321 0.53088,-0.85498 0.0883,-0.21586 0.0162,-0.50577 0.11194,-0.71648 0.0319,-0.0703 0.15124,0.11393 0.19082,0.0502 0.0791,-0.12744 0.0497,-0.31843 0.0746,-0.47764 0.0125,-0.0797 0.0249,-0.15922 0.0373,-0.23882 0.0249,-0.15922 -0.0329,-0.38871 0.0746,-0.47765 0.10755,-0.0889 0.25672,0.14166 0.38164,0.10031 0.0625,-0.0207 0.0735,-0.17071 0.0373,-0.23882 -0.0362,-0.0681 -0.13706,-0.0946 -0.19082,-0.0502 -0.0537,0.0444 0.0251,0.21817 -0.0373,0.23883 -0.12492,0.0413 -0.25443,-0.0669 -0.38165,-0.10032 -0.0636,-0.0167 -0.13704,-0.0946 -0.19081,-0.0502 -0.0537,0.0444 0.0251,0.21817 -0.0373,0.23882 -1.11721,0.36936 0.25158,-0.76265 -0.45626,0.37733 -0.0396,0.0638 -0.12722,-0.0334 -0.19082,-0.0502 -0.12722,-0.0334 -0.25673,-0.14165 -0.38165,-0.10031 -0.0624,0.0206 0.0164,0.19435 -0.0373,0.23882 -0.0537,0.0444 -0.13099,-0.0805 -0.19082,-0.0502 -0.16921,0.0856 -0.30418,0.25156 -0.45627,0.37734 -0.0761,0.063 -0.183,0.0893 -0.22813,0.18867 -0.0638,0.14048 -0.0497,0.31842 -0.0746,0.47764 -0.0124,0.0796 0.008,0.18187 -0.0373,0.23882 -0.12907,0.16113 -0.366,0.17868 -0.45627,0.37734 -0.12765,0.28095 -0.0641,0.64952 -0.14925,0.95528 -0.0674,0.24175 -0.20183,0.44422 -0.30275,0.66632 -1.82981,4.02707 0.40637,-1.02394 -0.9829,2.47658 -0.16206,0.40835 -0.8065,1.66116 -0.94557,2.23777 -0.11226,0.46529 -0.0589,0.99388 -0.22388,1.43293 -0.0777,0.20698 -0.3785,0.17036 -0.45626,0.37733 -0.16497,0.43906 -0.10754,0.96929 -0.22388,1.43294 -0.17097,0.68148 -0.56585,0.88754 -0.83364,1.52129 -0.18364,0.43459 -0.25965,0.9306 -0.4147,1.38279 -0.21018,0.61299 -0.45342,1.20684 -0.68014,1.81026 -0.11337,0.30171 -0.26013,0.58653 -0.34006,0.90514 -0.0969,0.38637 -0.0491,0.82823 -0.18656,1.1941 -0.0991,0.26385 -0.37851,0.36293 -0.49357,0.61617 -0.0958,0.2107 -0.0746,0.47764 -0.11194,0.71646 -0.0373,0.23882 -0.0746,0.47765 -0.11194,0.71647 -0.0373,0.23883 -0.0746,0.47764 -0.11193,0.71647 -0.0125,0.0797 -0.005,0.16858 -0.0373,0.23883 -0.0713,0.15705 -0.21027,0.26026 -0.26544,0.42749 -0.074,0.22435 -0.0746,0.47763 -0.11194,0.71646 -0.0746,0.47765 -0.14925,0.95529 -0.22387,1.43294 -0.0373,0.23883 -0.0162,0.50576 -0.11194,0.71647 -0.11508,0.25323 -0.38745,0.35672 -0.49357,0.61615 -0.11773,0.28781 -0.0995,0.63686 -0.14924,0.9553 -0.0249,0.15921 -0.0497,0.31842 -0.0746,0.47765 -0.12438,0.79607 -0.24875,1.59213 -0.37312,2.38822 -0.0249,0.15922 -0.0497,0.31843 -0.0746,0.47764 -0.0124,0.0796 -0.0735,0.17072 -0.0373,0.23883 0.0362,0.0681 0.17349,-0.0286 0.19081,0.0502 0.0346,0.15736 -0.0497,0.31842 -0.0746,0.47764 -0.0124,0.0796 -0.0887,0.18826 -0.0373,0.23882 0.10265,0.10116 0.30927,-0.0359 0.38163,0.10032 0.0724,0.13622 -0.0497,0.31842 -0.0746,0.47764 -0.0124,0.0797 -0.0249,0.15921 -0.0373,0.23882 -0.0249,0.15922 -0.10928,0.32028 -0.0746,0.47765 0.0173,0.0787 0.12722,0.0334 0.19082,0.0502 0.12722,0.0334 0.27899,-8.5e-4 0.38164,0.10031 0.0513,0.0505 -0.0735,0.17072 -0.0373,0.23883 0.0362,0.0681 0.17351,-0.0286 0.19082,0.0502 0.0346,0.15736 -0.14698,0.34141 -0.0746,0.47765 0.0724,0.13622 0.27899,-8.5e-4 0.38165,0.10031 0.0513,0.0505 -0.0735,0.17071 -0.0373,0.23882 0.0362,0.0681 0.17351,-0.0286 0.19082,0.0502 0.0346,0.15736 -0.14699,0.34143 -0.0746,0.47765 0.0724,0.13623 0.27899,-8.4e-4 0.38163,0.10032 0.0514,0.0505 -0.0735,0.17071 -0.0373,0.23881 0.0362,0.0681 0.1735,-0.0286 0.19082,0.0502 0.15493,0.70374 -0.45627,0.37734 0.30701,0.57796"
         id="path4486"
         inkscape:connector-curvature="0" />
      <path
         style="fill:#9dc8e2;fill-opacity:1;fill-rule:evenodd;stroke:none;stroke-width:1px;stroke-linecap:butt;stroke-linejoin:miter;stroke-opacity:1"
         d="m 239.15363,117.31 c -1.84736,-0.29709 -1.00318,-0.24368 -2.52538,-0.24368 -0.16836,0 -0.34535,-0.0513 -0.50507,0 -0.11294,0.0364 -0.15567,0.17691 -0.25254,0.24368 -2.0586,1.41883 -1.17537,0.31882 -2.27284,2.43677 -0.41562,0.80206 -1.12597,2.0006 -1.2627,2.92413 -0.0952,0.64327 -0.061,1.30227 0,1.94941 0.0552,0.58553 0.58098,1.19443 0.75762,1.70574 0.13573,0.39293 -0.051,0.92553 0.25254,1.21839 0.30351,0.29286 0.84627,0.14323 1.26269,0.24368 0.59454,0.14341 1.15966,0.5607 1.76776,0.48736 1.32504,-0.15982 3.06555,-1.35228 3.78808,-2.43679 0.38893,-0.58377 0.45999,-1.31762 0.75761,-1.94941 0.1256,-0.26661 0.36934,-0.46908 0.50508,-0.73103 0.0376,-0.0727 0,-0.16245 0,-0.24367 0,-0.16246 0,-0.32491 0,-0.48736 0,-0.0813 0,0.16245 0,0.24368 0,0.16245 0.0753,0.34205 0,0.48735 -0.18823,0.36326 -0.6013,0.59762 -0.75762,0.97471 -0.32173,0.77611 -0.25254,1.86112 -0.25254,2.68045 0,0.24367 0,0.48735 0,0.73103 0,0.24368 -0.0612,0.49463 0,0.73104 0.0289,0.11143 0.16836,0.16244 0.25254,0.24366 0.25254,0.24368 0.42935,0.59529 0.75762,0.73104 0.30949,0.12799 0.67343,0 1.01015,0 0.25254,0 0.50508,0 0.75761,0 0.16836,0 0.365,0.0901 0.50508,0 0.15662,-0.10074 0.1396,-0.34205 0.25254,-0.48736 0.39448,-0.50751 1.0037,-0.87895 1.26269,-1.46206 0.26734,-0.60191 0.0879,-1.31411 0.25254,-1.94941 0.0913,-0.35241 0.40165,-0.62544 0.50507,-0.97471 0.0694,-0.23431 0,-0.48736 0,-0.73104 0,-0.16245 0.0753,-0.34205 0,-0.48735 -0.0376,-0.0727 -0.19301,0.0574 -0.25253,0 -0.18239,-0.17599 0.44895,-0.70396 -0.50508,-0.24367 -0.0753,0.0363 -0.0595,0.18623 0,0.24367 0.0595,0.0574 0.17268,-0.0257 0.25254,0 0.17857,0.0574 0.3205,0.20806 0.50507,0.24367 0.24764,0.0478 0.50508,0 0.75762,0 0.25254,0 0.51803,0.0771 0.75761,0 0.0799,-0.0257 -0.0376,-0.17102 0,-0.24367 0.0532,-0.10274 0.1993,-0.14093 0.25254,-0.24367 0.20273,-0.39124 0.40674,-0.7914 0.50508,-1.21839 0.12649,-0.54927 0.006,-1.20589 -0.25254,-1.70574 -0.21951,-0.42363 -0.41053,-0.88349 -0.75762,-1.21839 -0.18823,-0.18162 -0.50836,-0.15349 -0.75761,-0.24368 -0.42446,-0.15358 -0.82017,-0.39247 -1.26269,-0.48736 -0.3287,-0.0704 -0.67549,-0.0359 -1.01015,0 -0.42661,0.0457 -0.8593,0.10214 -1.26269,0.24368 -0.99451,0.34895 -1.7322,0.82427 -2.52539,1.46207 -0.1829,0.14708 -0.33671,0.3249 -0.50507,0.48736 -0.0842,0.0812 -0.25254,0.1288 -0.25254,0.24367 0,0.74622 0.8218,0.51832 1.26269,0.73103 0.21296,0.10275 0.33672,0.32491 0.50508,0.48736"
         id="path4488"
         inkscape:connector-curvature="0" />
    </g>
    <path
       style="fill:#859a2d;fill-opacity:1;fill-rule:evenodd;stroke:none;stroke-width:1px;stroke-linecap:butt;stroke-linejoin:miter;stroke-opacity:1"
       d="m 275.84955,209.96206 c -4.72671,1.50305 -9.91772,0.75013 -14.33363,-1.35273 -10.06805,-0.31685 -1.66491,-2.58813 -0.22602,-7.41566 0,0 -3.52139,2.56285 -5.37251,3.21106 -1.81273,1.13528 -3.5138,1.91314 -4.46952,3.88775 1.47063,-1.65902 2.2187,-6.16102 2.2187,-6.16102 -2.84606,3.19272 -5.10921,6.45899 -4.33039,3.45697 0.83564,-3.97362 4.18313,-11.5296 4.18313,-11.5296 0,0 -3.00282,5.38609 -4.30242,8.16375 -0.39871,1.79955 -0.99883,3.99386 -2.77801,4.8773 -2.20813,0.0356 -3.6741,-3.99438 -3.6741,-3.99438 -1.04497,3.94652 3.37084,7.13638 -0.66755,5.70428 -1.23659,-1.35043 -3.84383,-3.24349 -5.11185,-0.85797 -6.68461,0.70533 -9.5632,0.0841 -15.37079,2.34875 5.44624,-0.46258 10.28525,0.72292 15.36549,0.56421 4.54117,-0.0155 9.10844,-0.35454 13.6238,0.28683 6.68857,0.27111 13.42779,0.0528 20.01727,-1.19867 1.74179,-0.17956 3.48954,0.24734 5.2284,0.009 z"
       id="path4490"
       inkscape:connector-curvature="0"
       sodipodi:nodetypes="ccccccccccccccccccc" />
    <path
       sodipodi:nodetypes="ccccccccccccccccccc"
       inkscape:connector-curvature="0"
       id="path4496"
       d="m 242.11966,217.70191 c 4.72671,1.50305 9.91772,0.75013 14.33363,-1.35273 10.06805,-0.31685 1.66491,-2.58813 0.22602,-7.41566 0,0 3.52139,2.56285 5.37251,3.21106 1.81273,1.13528 3.5138,1.91314 4.46952,3.88775 -1.47063,-1.65902 -2.2187,-6.16102 -2.2187,-6.16102 2.84606,3.19272 5.10921,6.45899 4.33039,3.45697 -0.83564,-3.97362 -4.18313,-11.5296 -4.18313,-11.5296 0,0 3.00282,5.38609 4.30242,8.16375 0.39871,1.79955 0.99883,3.99386 2.77801,4.8773 2.20813,0.0356 3.6741,-3.99438 3.6741,-3.99438 1.04497,3.94652 -3.37084,7.13638 0.66755,5.70428 1.23659,-1.35043 3.84383,-3.24349 5.11185,-0.85797 6.68461,0.70533 9.5632,0.0841 15.37079,2.34875 -5.44624,-0.46258 -10.28525,0.72292 -15.36549,0.56421 -4.54117,-0.0155 -9.10844,-0.35454 -13.6238,0.28683 -6.68857,0.27111 -13.42779,0.0528 -20.01727,-1.19867 -1.74179,-0.17956 -3.48954,0.24734 -5.2284,0.009 z"
       style="fill:#959a2d;fill-opacity:1;fill-rule:evenodd;stroke:none;stroke-width:1px;stroke-linecap:butt;stroke-linejoin:miter;stroke-opacity:1" />
    <path
       style="fill:#47976d;fill-opacity:1;fill-rule:evenodd;stroke:none;stroke-width:1px;stroke-linecap:butt;stroke-linejoin:miter;stroke-opacity:1"
       d="m 312.21557,138.64027 c -3.87075,1.50305 -8.12172,0.75013 -11.73795,-1.35273 -8.24482,-0.31685 -1.36341,-2.58813 -0.18509,-7.41566 0,0 -2.8837,2.56285 -4.3996,3.21106 -1.48446,1.13528 -2.87748,1.91314 -3.66013,3.88775 1.20431,-1.65902 1.81691,-6.16102 1.81691,-6.16102 -2.33066,3.19272 -4.18398,6.45899 -3.54619,3.45697 0.68431,-3.97362 3.4256,-11.5296 3.4256,-11.5296 0,0 -2.45904,5.38609 -3.52329,8.16375 -0.32651,1.79955 -0.81795,3.99386 -2.27494,4.8773 -1.80826,0.0356 -3.00876,-3.99438 -3.00876,-3.99438 -0.85573,3.94652 2.76042,7.13638 -0.54666,5.70428 -1.01265,-1.35043 -3.14775,-3.24349 -4.18614,-0.85797 -5.47409,0.70533 -7.8314,0.0841 -12.58729,2.34875 4.45998,-0.46258 8.42269,0.72292 12.58295,0.56421 3.71881,-0.0155 7.45899,-0.35454 11.15666,0.28683 5.47733,0.27111 10.99615,0.0528 16.39233,-1.19867 1.42637,-0.17956 2.85762,0.24734 4.28159,0.009 z"
       id="path4498"
       inkscape:connector-curvature="0"
       sodipodi:nodetypes="ccccccccccccccccccc" />
    <path
       style="fill:#959a2d;fill-opacity:1;fill-rule:evenodd;stroke:none;stroke-width:1px;stroke-linecap:butt;stroke-linejoin:miter;stroke-opacity:1"
       d="m 240.06677,114.51968 c -4.72671,1.50305 -9.91772,0.75013 -14.33363,-1.35273 -10.06805,-0.31685 -1.66491,-2.58813 -0.22602,-7.41566 0,0 -3.52139,2.56285 -5.37251,3.21106 -1.81273,1.13528 -3.5138,1.91314 -4.46952,3.88775 1.47063,-1.65902 2.2187,-6.16102 2.2187,-6.16102 -2.84606,3.19272 -5.10921,6.45899 -4.33039,3.45697 0.83564,-3.97362 4.18313,-11.529603 4.18313,-11.529603 0,0 -3.00282,5.386093 -4.30242,8.163753 -0.39871,1.79955 -0.99883,3.99386 -2.77801,4.8773 -2.20813,0.0356 -3.6741,-3.99438 -3.6741,-3.99438 -1.04497,3.94652 3.37084,7.13638 -0.66755,5.70428 -1.23659,-1.35043 -3.84383,-3.24349 -5.11185,-0.85797 -6.68461,0.70533 -9.5632,0.0841 -15.37079,2.34875 5.44624,-0.46258 10.28525,0.72292 15.36549,0.56421 4.54117,-0.0155 9.10844,-0.35454 13.6238,0.28683 6.68857,0.27111 13.42779,0.0528 20.01727,-1.19867 1.74179,-0.17956 3.48954,0.24734 5.2284,0.009 z"
       id="path4500"
       inkscape:connector-curvature="0"
       sodipodi:nodetypes="ccccccccccccccccccc" />
    <path
       sodipodi:nodetypes="ccccccccccccccccccc"
       inkscape:connector-curvature="0"
       id="path4502"
       d="m 107.92368,184.64802 c -5.58507,1.50305 -11.718757,0.75013 -16.936598,-1.35273 -11.89639,-0.31685 -1.96725,-2.58813 -0.26706,-7.41566 0,0 -4.16087,2.56285 -6.34815,3.21106 -2.14192,1.13528 -4.1519,1.91314 -5.28118,3.88775 1.7377,-1.65902 2.62161,-6.16102 2.62161,-6.16102 -3.3629,3.19272 -6.03703,6.45899 -5.11678,3.45697 0.98739,-3.97362 4.94278,-11.5296 4.94278,-11.5296 0,0 -3.54813,5.38609 -5.08373,8.16375 -0.47112,1.79955 -1.18022,3.99386 -3.28249,4.8773 -2.609129,0.0356 -4.341309,-3.99438 -4.341309,-3.99438 -1.23474,3.94652 3.982969,7.13638 -0.78878,5.70428 -1.46115,-1.35043 -4.54186,-3.24349 -6.04016,-0.85797 -7.89852,0.70533 -11.29986,0.0841 -18.1621,2.34875 6.43527,-0.46258 12.15304,0.72292 18.15584,0.56421 5.36584,-0.0155 10.762519,-0.35454 16.097859,0.28683 7.90321,0.27111 15.866261,0.0528 23.652378,-1.19867 2.0581,-0.17956 4.12324,0.24734 6.17787,0.009 z"
       style="fill:#859a2d;fill-opacity:1;fill-rule:evenodd;stroke:none;stroke-width:1px;stroke-linecap:butt;stroke-linejoin:miter;stroke-opacity:1" />
    <path
       sodipodi:nodetypes="ccccccccccccccccccc"
       inkscape:connector-curvature="0"
       id="path4504"
       d="m 34.780277,198.01678 c 3.870756,1.50305 8.121726,0.75013 11.737956,-1.35273 8.24481,-0.31685 1.36341,-2.58813 0.18509,-7.41566 0,0 2.8837,2.56285 4.3996,3.21106 1.48445,1.13528 2.87747,1.91314 3.66012,3.88775 -1.20431,-1.65902 -1.81691,-6.16102 -1.81691,-6.16102 2.33066,3.19272 4.18398,6.45899 3.54619,3.45697 -0.68431,-3.97362 -3.4256,-11.5296 -3.4256,-11.5296 0,0 2.45904,5.38609 3.52329,8.16375 0.32651,1.79955 0.81795,3.99386 2.27494,4.8773 1.80826,0.0356 3.00876,-3.99438 3.00876,-3.99438 0.85573,3.94652 -2.76042,7.13638 0.54666,5.70428 1.01265,-1.35043 3.14775,-3.24349 4.18614,-0.85797 5.4741,0.70533 7.831409,0.0841 12.587299,2.34875 -4.45998,-0.46258 -8.422699,0.72292 -12.582959,0.56421 -3.71881,-0.0155 -7.45899,-0.35454 -11.15666,0.28683 -5.47732,0.27111 -10.99614,0.0528 -16.39232,-1.19867 -1.42637,-0.17956 -2.85763,0.24734 -4.281596,0.009 z"
       style="fill:#47976d;fill-opacity:1;fill-rule:evenodd;stroke:none;stroke-width:1px;stroke-linecap:butt;stroke-linejoin:miter;stroke-opacity:1" />
    <path
       style="fill:#c87137;fill-rule:evenodd;stroke:#c87137;stroke-width:0.20000002;stroke-linecap:butt;stroke-linejoin:miter;stroke-miterlimit:4;stroke-dasharray:none;stroke-opacity:1"
       d="m 135.74854,71.310787 c -1.6602,-0.89954 -3.40931,-1.62096 -5.15832,-2.27354 -0.95838,-0.47868 -3.30137,-1.7115 -4.68731,-2.69115 -1.40827,-0.50204 -1.11466,-1.4889 0.24413,-1.03153 2.31068,0.28449 4.69352,0.0444 6.9478,0.70876 0.97719,0.61473 1.35055,1.07637 0.43672,-0.22775 -1.17893,-1.75453 -2.60423,-3.33769 -3.92178,-4.91468 -0.78065,-0.64098 -1.04009,-1.44009 -0.01,-0.29285 1.77683,1.24793 3.26922,2.87789 4.92361,4.29911 1.43588,0.62993 -0.36139,-2.37126 -0.42592,-3.38222 -0.53729,-1.86036 -1.33435,-3.6472 -1.46225,-5.60919 -0.17556,-0.9537 -1.48603,-4.52768 -0.28267,-2.16994 0.58459,2.092 1.31477,3.50979 1.86574,5.46227 0.90219,1.38602 1.92039,4.64313 2.59845,4.92429 0.67268,-2.58601 -0.16504,-5.27956 0.10135,-7.91961 -0.29952,-0.86721 0.49645,-4.4816 0.59334,-1.93479 0.17545,0.95009 -0.23856,2.96751 0.11268,2.5338 0.15425,1.92266 0.18064,3.89189 0.60573,5.76843 1.68985,0.9953 2.83608,-2.565 3.78562,-3.92729 1.55723,-1.29301 -0.35224,1.97797 -0.73492,2.52409 -1.09692,1.60809 -2.68591,3.39083 -2.68769,5.44136 2.15575,0.41985 3.74606,-1.59161 5.61685,-2.36114 0.96561,-0.38101 2.4276,-0.98581 0.7767,0.0683 -1.86057,1.47573 -4.2504,1.43757 -6.25476,2.57618 1.93882,-0.13359 3.8157,0.77599 5.76794,0.44374 0.89954,-0.0404 2.84699,-0.11711 0.95632,0.4179 -2.52599,0.95172 -5.11619,1.77018 -7.79058,1.98861 -0.312,0.17261 -2.28731,0.59371 -1.84458,0.44059"
       id="path4506"
       inkscape:connector-curvature="0" />
    <path
       style="fill:#c87137;fill-rule:evenodd;stroke:#c87137;stroke-width:0.20000002;stroke-linecap:butt;stroke-linejoin:miter;stroke-miterlimit:4;stroke-dasharray:none;stroke-opacity:1"
       d="m 135.0084,70.326927 c -3.04763,-1.49844 -5.43083,-4.14957 -7.98082,-6.45002 -1.08001,-1.41967 -2.71271,-2.17472 -3.54214,-3.87141 -0.87917,-0.6864 -1.79837,-2.19365 -0.16274,-1.0099 1.37088,1.2958 2.46607,2.94436 4.14075,3.82191 1.97775,1.46255 3.98551,2.87986 5.75496,4.64916 2.24878,1.94138 0.40872,-1.71974 -0.17493,-2.65433 -1.4927,-2.77399 -3.86948,-5.29199 -3.75056,-8.76993 -0.42693,-1.71146 -0.35902,-1.40065 0.38929,-0.14909 2.16738,3.72001 4.62731,7.22427 6.5432,11.11871 0.5018,0.76468 1.80127,3.7514 1.23642,1.11618 -0.80198,-4.68655 -2.48212,-9.09494 -3.84304,-13.60159 0.63589,-0.97992 0.5785,2.23423 1.1089,2.92122 0.65776,2.13122 0.84582,4.40115 1.7189,6.45762 0.10043,2.20947 1.31581,1.10869 1.47895,-0.41747 0.7894,-2.5609 1.08461,-5.25024 1.45915,-7.90348 0.33044,-1.27877 -0.83563,1.41039 -0.60156,2.0286 0.003,0.48515 -0.55935,1.18573 -0.17215,0.46057 -0.0539,2.43858 -1.01085,4.64808 -1.8594,6.84474 -1.22949,2.07427 0.94227,2.68694 2.17615,1.43601 1.86304,-1.49492 3.98539,-2.48708 5.68841,-4.20991 1.44131,-0.74473 1.21563,-1.96528 -0.32597,-1.24445 -1.96127,0.6249 -4.06645,1.3708 -5.31283,3.30155 -0.82155,0.87275 -2.17601,2.66768 -2.08975,3.47149 1.80365,0.25891 3.7444,0.25739 5.44475,-0.49888 0.83692,-0.34788 3.31865,-0.994 3.01043,-1.46117 -1.97945,0.32966 -3.89685,0.98662 -5.87402,1.24976 -1.21264,0.41145 -3.33883,0.35844 -3.79276,1.83901"
       id="path4508"
       inkscape:connector-curvature="0" />
    <path
       inkscape:connector-curvature="0"
       id="path4516"
       d="m 200.25676,201.48214 c -1.6602,-0.89954 -3.40931,-1.62096 -5.15832,-2.27354 -0.95838,-0.47868 -3.30137,-1.7115 -4.68731,-2.69115 -1.40828,-0.50204 -1.11467,-1.4889 0.24413,-1.03153 2.31068,0.28449 4.69352,0.0444 6.9478,0.70876 0.97719,0.61473 1.35055,1.07637 0.43672,-0.22775 -1.17893,-1.75453 -2.60423,-3.33769 -3.92178,-4.91468 -0.78065,-0.64098 -1.04009,-1.44009 -0.01,-0.29285 1.77683,1.24793 3.26922,2.87789 4.92361,4.29911 1.43588,0.62993 -0.36139,-2.37126 -0.42592,-3.38222 -0.53729,-1.86036 -1.33435,-3.6472 -1.46225,-5.60919 -0.17556,-0.9537 -1.48603,-4.52768 -0.28267,-2.16994 0.58459,2.092 1.31477,3.50979 1.86574,5.46227 0.90219,1.38602 1.92039,4.64313 2.59845,4.92429 0.67268,-2.58601 -0.16504,-5.27956 0.10135,-7.91961 -0.29952,-0.86721 0.49645,-4.4816 0.59334,-1.93479 0.17545,0.95009 -0.23856,2.96751 0.11268,2.5338 0.15425,1.92266 0.18064,3.89189 0.60573,5.76843 1.68985,0.9953 2.83608,-2.565 3.78562,-3.92729 1.55723,-1.29301 -0.35224,1.97797 -0.73492,2.52409 -1.09692,1.60809 -2.68591,3.39083 -2.68769,5.44136 2.15575,0.41985 3.74606,-1.59161 5.61685,-2.36114 0.96561,-0.38101 2.4276,-0.98581 0.7767,0.0683 -1.86057,1.47573 -4.2504,1.43757 -6.25476,2.57618 1.93882,-0.13359 3.8157,0.77599 5.76794,0.44374 0.89954,-0.0404 2.84699,-0.11711 0.95632,0.4179 -2.52599,0.95172 -5.11619,1.77018 -7.79058,1.98861 -0.312,0.17261 -2.28731,0.59371 -1.84458,0.44059"
       style="fill:#c87137;fill-rule:evenodd;stroke:#c87137;stroke-width:0.20000002;stroke-linecap:butt;stroke-linejoin:miter;stroke-miterlimit:4;stroke-dasharray:none;stroke-opacity:1" />
    <path
       inkscape:connector-curvature="0"
       id="path4518"
       d="m 200.7147,199.784 c 3.04763,-1.49844 5.43083,-4.14957 7.98082,-6.45002 1.08001,-1.41967 2.71272,-2.17472 3.54215,-3.87141 0.87917,-0.6864 1.79837,-2.19366 0.16274,-1.0099 -1.37088,1.2958 -2.46608,2.94436 -4.14076,3.82191 -1.97775,1.46255 -3.98551,2.87986 -5.75496,4.64916 -2.24878,1.94138 -0.40872,-1.71974 0.17493,-2.65433 1.4927,-2.77399 3.86948,-5.29199 3.75056,-8.76994 0.42693,-1.71146 0.35902,-1.40065 -0.38929,-0.14909 -2.16738,3.72002 -4.62731,7.22428 -6.5432,11.11872 -0.5018,0.76468 -1.80127,3.7514 -1.23642,1.11618 0.80198,-4.68655 2.48212,-9.09494 3.84304,-13.6016 -0.63589,-0.97992 -0.5785,2.23423 -1.1089,2.92122 -0.65776,2.13123 -0.84582,4.40116 -1.7189,6.45763 -0.10043,2.20947 -1.31581,1.10869 -1.47895,-0.41747 -0.7894,-2.5609 -1.08461,-5.25024 -1.45915,-7.90349 -0.33044,-1.27877 0.83563,1.41039 0.60156,2.0286 -0.003,0.48516 0.55935,1.18574 0.17215,0.46058 0.0539,2.43858 1.01085,4.64808 1.8594,6.84474 1.22949,2.07427 -0.94227,2.68694 -2.17615,1.43601 -1.86304,-1.49492 -3.98539,-2.48708 -5.68841,-4.20991 -1.44131,-0.74473 -1.21563,-1.96528 0.32597,-1.24445 1.96127,0.6249 4.06645,1.3708 5.31283,3.30155 0.82155,0.87275 2.17601,2.66768 2.08975,3.47149 -1.80365,0.25891 -3.7444,0.25739 -5.44475,-0.49888 -0.83692,-0.34788 -3.31865,-0.994 -3.01043,-1.46117 1.97945,0.32966 3.89685,0.98662 5.87402,1.24976 1.21264,0.41145 3.33883,0.35844 3.79276,1.83901"
       style="fill:#c87137;fill-rule:evenodd;stroke:#c87137;stroke-width:0.20000002;stroke-linecap:butt;stroke-linejoin:miter;stroke-miterlimit:4;stroke-dasharray:none;stroke-opacity:1" />
    <path
       style="fill:#c89337;fill-opacity:1;fill-rule:evenodd;stroke:#c89337;stroke-width:0.20000002;stroke-linecap:butt;stroke-linejoin:miter;stroke-miterlimit:4;stroke-dasharray:none;stroke-opacity:1"
       d="m 141.50418,90.407617 c 1.6602,-0.89954 3.40931,-1.62096 5.15832,-2.27354 0.95838,-0.47868 3.30137,-1.7115 4.68731,-2.69115 1.40828,-0.50204 1.11467,-1.4889 -0.24413,-1.03153 -2.31068,0.28449 -4.69352,0.0444 -6.9478,0.70876 -0.97719,0.61473 -1.35055,1.07637 -0.43672,-0.22775 1.17893,-1.75453 2.60423,-3.33769 3.92178,-4.91468 0.78065,-0.64098 1.04009,-1.44009 0.01,-0.29285 -1.77683,1.24793 -3.26922,2.87789 -4.92361,4.29911 -1.43588,0.62993 0.36139,-2.37126 0.42592,-3.38222 0.53729,-1.86036 1.33435,-3.6472 1.46225,-5.60919 0.17556,-0.9537 1.48603,-4.52768 0.28267,-2.16994 -0.58459,2.092 -1.31477,3.50979 -1.86574,5.46227 -0.90219,1.38602 -1.92039,4.64313 -2.59845,4.92429 -0.67268,-2.58601 0.16504,-5.27956 -0.10135,-7.91961 0.29952,-0.86721 -0.49645,-4.4816 -0.59334,-1.93479 -0.17545,0.95009 0.23856,2.96751 -0.11268,2.5338 -0.15425,1.92266 -0.18064,3.89189 -0.60573,5.76843 -1.68985,0.9953 -2.83608,-2.565 -3.78562,-3.92729 -1.55723,-1.29301 0.35224,1.97797 0.73492,2.52409 1.09692,1.60809 2.68591,3.39083 2.68769,5.44136 -2.15575,0.41985 -3.74606,-1.59161 -5.61685,-2.36114 -0.96561,-0.38101 -2.4276,-0.98581 -0.7767,0.0683 1.86057,1.47573 4.2504,1.43757 6.25476,2.57618 -1.93882,-0.13359 -3.8157,0.77599 -5.76794,0.44374 -0.89954,-0.0404 -2.84699,-0.11711 -0.95632,0.4179 2.52599,0.95172 5.11619,1.77018 7.79058,1.98861 0.312,0.17261 2.28731,0.59371 1.84458,0.44059"
       id="path4520"
       inkscape:connector-curvature="0" />
    <path
       style="fill:#c89337;fill-opacity:1;fill-rule:evenodd;stroke:#c89337;stroke-width:0.20000002;stroke-linecap:butt;stroke-linejoin:miter;stroke-miterlimit:4;stroke-dasharray:none;stroke-opacity:1"
       d="m 142.24432,89.423757 c 3.04763,-1.49844 5.43083,-4.14957 7.98082,-6.45002 1.08001,-1.41967 2.71272,-2.17472 3.54215,-3.87141 0.87917,-0.6864 1.79837,-2.19365 0.16274,-1.0099 -1.37088,1.2958 -2.46608,2.94436 -4.14076,3.82191 -1.97775,1.46255 -3.98551,2.87986 -5.75496,4.64916 -2.24878,1.94138 -0.40872,-1.71974 0.17493,-2.65433 1.4927,-2.77399 3.86948,-5.29199 3.75056,-8.76993 0.42693,-1.71146 0.35902,-1.40065 -0.38929,-0.14909 -2.16738,3.72001 -4.62731,7.22427 -6.5432,11.11871 -0.5018,0.76468 -1.80127,3.7514 -1.23642,1.11618 0.80198,-4.68655 2.48212,-9.09494 3.84304,-13.60159 -0.63589,-0.97992 -0.5785,2.23423 -1.1089,2.92122 -0.65776,2.13122 -0.84582,4.40115 -1.7189,6.45762 -0.10043,2.20947 -1.31581,1.10869 -1.47895,-0.41747 -0.7894,-2.5609 -1.08461,-5.25024 -1.45915,-7.90348 -0.33044,-1.27877 0.83563,1.41039 0.60156,2.0286 -0.003,0.48515 0.55935,1.18573 0.17215,0.46057 0.0539,2.43858 1.01085,4.64808 1.8594,6.84474 1.22949,2.07427 -0.94227,2.68694 -2.17615,1.43601 -1.86304,-1.49492 -3.98539,-2.48708 -5.68841,-4.20991 -1.44131,-0.74473 -1.21563,-1.96528 0.32597,-1.24445 1.96127,0.6249 4.06645,1.3708 5.31283,3.30155 0.82155,0.87275 2.17601,2.66768 2.08975,3.47149 -1.80365,0.25891 -3.7444,0.25739 -5.44475,-0.49888 -0.83692,-0.34788 -3.31865,-0.994 -3.01043,-1.46117 1.97945,0.32966 3.89685,0.98662 5.87402,1.24976 1.21264,0.41145 3.33883,0.35844 3.79276,1.83901"
       id="path4522"
       inkscape:connector-curvature="0" />
    <path
       inkscape:connector-curvature="0"
       id="path4524"
       d="m 295.07562,109.33619 c 1.6602,-0.89954 3.40931,-1.62096 5.15832,-2.27354 0.95838,-0.47868 3.30137,-1.7115 4.68731,-2.69115 1.40828,-0.50204 1.11467,-1.4889 -0.24413,-1.03153 -2.31068,0.28449 -4.69352,0.0444 -6.9478,0.70876 -0.97719,0.61473 -1.35055,1.07637 -0.43672,-0.22775 1.17893,-1.75453 2.60423,-3.33769 3.92178,-4.914681 0.78065,-0.64098 1.04009,-1.44009 0.01,-0.29285 -1.77683,1.24793 -3.26922,2.877891 -4.92361,4.299111 -1.43588,0.62993 0.36139,-2.37126 0.42592,-3.382221 0.53729,-1.86036 1.33435,-3.6472 1.46225,-5.60919 0.17556,-0.9537 1.48603,-4.52768 0.28267,-2.16994 -0.58459,2.092 -1.31477,3.50979 -1.86574,5.46227 -0.90219,1.38602 -1.92039,4.643131 -2.59845,4.924291 -0.67268,-2.586011 0.16504,-5.279561 -0.10135,-7.919611 0.29952,-0.86721 -0.49645,-4.4816 -0.59334,-1.93479 -0.17545,0.95009 0.23856,2.96751 -0.11268,2.5338 -0.15425,1.92266 -0.18064,3.89189 -0.60573,5.768431 -1.68985,0.9953 -2.83608,-2.565001 -3.78562,-3.927291 -1.55723,-1.29301 0.35224,1.97797 0.73492,2.52409 1.09692,1.608091 2.68591,3.390831 2.68769,5.441361 -2.15575,0.41985 -3.74606,-1.59161 -5.61685,-2.36114 -0.96561,-0.38101 -2.4276,-0.98581 -0.7767,0.0683 1.86057,1.47573 4.2504,1.43757 6.25476,2.57618 -1.93882,-0.13359 -3.8157,0.77599 -5.76794,0.44374 -0.89954,-0.0404 -2.84699,-0.11711 -0.95632,0.4179 2.52599,0.95172 5.11619,1.77018 7.79058,1.98861 0.312,0.17261 2.28731,0.59371 1.84458,0.44059"
       style="fill:#c89337;fill-opacity:1;fill-rule:evenodd;stroke:#c89337;stroke-width:0.20000002;stroke-linecap:butt;stroke-linejoin:miter;stroke-miterlimit:4;stroke-dasharray:none;stroke-opacity:1" />
    <path
       inkscape:connector-curvature="0"
       id="path4526"
       d="m 297.83197,108.35233 c -3.04763,-1.49844 -5.43083,-4.14957 -7.98082,-6.45002 -1.08001,-1.41967 -2.71272,-2.174721 -3.54215,-3.871411 -0.87917,-0.6864 -1.79837,-2.19365 -0.16274,-1.0099 1.37088,1.2958 2.46608,2.94436 4.14076,3.821911 1.97775,1.46255 3.98551,2.87986 5.75496,4.64916 2.24878,1.94138 0.40872,-1.71974 -0.17493,-2.65433 -1.4927,-2.77399 -3.86948,-5.291991 -3.75056,-8.769931 -0.42693,-1.71146 -0.35902,-1.40065 0.38929,-0.14909 2.16738,3.72001 4.62731,7.224271 6.5432,11.118711 0.5018,0.76468 1.80127,3.7514 1.23642,1.11618 -0.80198,-4.68655 -2.48212,-9.094941 -3.84304,-13.601591 0.63589,-0.97992 0.5785,2.23423 1.1089,2.92122 0.65776,2.13122 0.84582,4.40115 1.7189,6.457621 0.10043,2.20947 1.31581,1.10869 1.47895,-0.41747 0.7894,-2.560901 1.08461,-5.250241 1.45915,-7.903481 0.33044,-1.27877 -0.83563,1.41039 -0.60156,2.0286 0.003,0.48515 -0.55935,1.18573 -0.17215,0.46057 -0.0539,2.43858 -1.01085,4.648081 -1.8594,6.844741 -1.22949,2.07427 0.94227,2.68694 2.17615,1.43601 1.86304,-1.49492 3.98539,-2.48708 5.68841,-4.20991 1.44131,-0.744731 1.21563,-1.965281 -0.32597,-1.244451 -1.96127,0.6249 -4.06645,1.370801 -5.31283,3.301551 -0.82155,0.87275 -2.17601,2.66768 -2.08975,3.47149 1.80365,0.25891 3.7444,0.25739 5.44475,-0.49888 0.83692,-0.34788 3.31865,-0.994 3.01043,-1.46117 -1.97945,0.32966 -3.89685,0.98662 -5.87402,1.24976 -1.21264,0.41145 -3.33883,0.35844 -3.79276,1.83901"
       style="fill:#c89337;fill-opacity:1;fill-rule:evenodd;stroke:#c89337;stroke-width:0.20000002;stroke-linecap:butt;stroke-linejoin:miter;stroke-miterlimit:4;stroke-dasharray:none;stroke-opacity:1" />
    <path
       style="fill:#c89337;fill-opacity:1;fill-rule:evenodd;stroke:#c89337;stroke-width:0.20000002;stroke-linecap:butt;stroke-linejoin:miter;stroke-miterlimit:4;stroke-dasharray:none;stroke-opacity:1"
       d="m 337.67619,111.12191 c -1.6602,-0.89954 -3.40931,-1.62096 -5.15832,-2.27354 -0.95838,-0.47868 -3.30137,-1.7115 -4.68731,-2.69115 -1.40828,-0.50204 -1.11467,-1.4889 0.24413,-1.03153 2.31068,0.28449 4.69352,0.0444 6.9478,0.70876 0.97719,0.61473 1.35055,1.07637 0.43672,-0.22775 -1.17893,-1.75453 -2.60423,-3.33769 -3.92178,-4.91468 -0.78065,-0.64098 -1.04009,-1.440094 -0.01,-0.29285 1.77683,1.24793 3.26922,2.87789 4.92361,4.29911 1.43588,0.62993 -0.36139,-2.37126 -0.42592,-3.38222 -0.53729,-1.860364 -1.33435,-3.647204 -1.46225,-5.609194 -0.17556,-0.9537 -1.48603,-4.52768 -0.28267,-2.16994 0.58459,2.092 1.31477,3.50979 1.86574,5.46227 0.90219,1.386024 1.92039,4.643134 2.59845,4.924294 0.67268,-2.58601 -0.16504,-5.279564 0.10135,-7.919614 -0.29952,-0.86721 0.49645,-4.4816 0.59334,-1.93479 0.17545,0.95009 -0.23856,2.96751 0.11268,2.5338 0.15425,1.92266 0.18064,3.891894 0.60573,5.768434 1.68985,0.9953 2.83608,-2.565004 3.78562,-3.927294 1.55723,-1.29301 -0.35224,1.977974 -0.73492,2.524094 -1.09692,1.60809 -2.68591,3.39083 -2.68769,5.44136 2.15575,0.41985 3.74606,-1.59161 5.61685,-2.36114 0.96561,-0.38101 2.4276,-0.98581 0.7767,0.0683 -1.86057,1.47573 -4.2504,1.43757 -6.25476,2.57618 1.93882,-0.13359 3.8157,0.77599 5.76794,0.44374 0.89954,-0.0404 2.84699,-0.11711 0.95632,0.4179 -2.52599,0.95172 -5.11619,1.77018 -7.79058,1.98861 -0.312,0.17261 -2.28731,0.59371 -1.84458,0.44059"
       id="path4528"
       inkscape:connector-curvature="0" />
    <path
       style="fill:#c89337;fill-opacity:1;fill-rule:evenodd;stroke:#c89337;stroke-width:0.20000002;stroke-linecap:butt;stroke-linejoin:miter;stroke-miterlimit:4;stroke-dasharray:none;stroke-opacity:1"
       d="m 334.91984,110.13805 c 3.04763,-1.49844 5.43083,-4.14957 7.98082,-6.45002 1.08001,-1.41967 2.71272,-2.17472 3.54215,-3.871414 0.87917,-0.6864 1.79837,-2.19365 0.16274,-1.0099 -1.37088,1.295804 -2.46608,2.944364 -4.14076,3.821914 -1.97775,1.46255 -3.98551,2.87986 -5.75496,4.64916 -2.24878,1.94138 -0.40872,-1.71974 0.17493,-2.65433 1.4927,-2.77399 3.86948,-5.291994 3.75056,-8.769934 0.42693,-1.71146 0.35902,-1.40065 -0.38929,-0.14909 -2.16738,3.72001 -4.62731,7.224274 -6.5432,11.118714 -0.5018,0.76468 -1.80127,3.7514 -1.23642,1.11618 0.80198,-4.68655 2.48212,-9.094944 3.84304,-13.601594 -0.63589,-0.97992 -0.5785,2.23423 -1.1089,2.92122 -0.65776,2.13122 -0.84582,4.401154 -1.7189,6.457624 -0.10043,2.20947 -1.31581,1.10869 -1.47895,-0.41747 -0.7894,-2.5609 -1.08461,-5.250244 -1.45915,-7.903484 -0.33044,-1.27877 0.83563,1.41039 0.60156,2.0286 -0.003,0.48515 0.55935,1.18573 0.17215,0.46057 0.0539,2.438584 1.01085,4.648084 1.8594,6.844744 1.22949,2.07427 -0.94227,2.68694 -2.17615,1.43601 -1.86304,-1.49492 -3.98539,-2.48708 -5.68841,-4.20991 -1.44131,-0.74473 -1.21563,-1.965284 0.32597,-1.24445 1.96127,0.6249 4.06645,1.3708 5.31283,3.30155 0.82155,0.87275 2.17601,2.66768 2.08975,3.47149 -1.80365,0.25891 -3.7444,0.25739 -5.44475,-0.49888 -0.83692,-0.34788 -3.31865,-0.994 -3.01043,-1.46117 1.97945,0.32966 3.89685,0.98662 5.87402,1.24976 1.21264,0.41145 3.33883,0.35844 3.79276,1.83901"
       id="path4530"
       inkscape:connector-curvature="0" />
    <path
       sodipodi:nodetypes="ccccccccccccccccccc"
       inkscape:connector-curvature="0"
       id="path4532"
       d="m 346.91999,119.16254 c -4.72671,1.50305 -9.91772,0.75013 -14.33363,-1.35273 -10.06805,-0.31685 -1.66491,-2.58813 -0.22602,-7.41566 0,0 -3.52139,2.56285 -5.37251,3.21106 -1.81273,1.13528 -3.5138,1.91314 -4.46952,3.88775 1.47063,-1.65902 2.2187,-6.16102 2.2187,-6.16102 -2.84606,3.19272 -5.10921,6.45899 -4.33039,3.45697 0.83564,-3.97362 4.18313,-11.5296 4.18313,-11.5296 0,0 -3.00282,5.38609 -4.30242,8.16375 -0.39871,1.79955 -0.99883,3.99386 -2.77801,4.8773 -2.20813,0.0356 -3.6741,-3.99438 -3.6741,-3.99438 -1.04497,3.94652 3.37084,7.13638 -0.66755,5.70428 -1.23659,-1.35043 -3.84383,-3.24349 -5.11185,-0.85797 -6.68461,0.70533 -9.5632,0.0841 -15.37079,2.34875 5.44624,-0.46258 10.28525,0.72292 15.36549,0.56421 4.54117,-0.0155 9.10844,-0.35454 13.6238,0.28683 6.68857,0.27111 13.42779,0.0528 20.01727,-1.19867 1.74179,-0.17956 3.48954,0.24734 5.2284,0.009 z"
       style="fill:#959a2d;fill-opacity:1;fill-rule:evenodd;stroke:none;stroke-width:1px;stroke-linecap:butt;stroke-linejoin:miter;stroke-opacity:1" />
    <path
       style="fill:none;fill-rule:evenodd;stroke:#786721;stroke-width:2.00000024;stroke-linecap:butt;stroke-linejoin:miter;stroke-miterlimit:4;stroke-dasharray:none;stroke-opacity:0.16949152;filter:url(#filter4566)"
       d="m 216.42858,139.51299 c 9.26931,-0.57934 14.32393,-11.13905 22.94456,-14.17093 4.63948,-2.48412 9.83312,-1.8429 14.91258,-1.9005 5.86976,-3.53522 12.46586,-4.87274 18.65306,-1.1951 7.58779,3.24669 15.21748,6.9064 23.48229,8.41607 9.38282,1.92209 18.54082,-1.85266 28.03352,-1.13873 6.68934,-2.03992 14.24769,-2.4728 20.74599,-5.8027 5.52477,-4.46213 12.23321,-5.64403 18.01371,-9.20811 0.35714,0 0.71429,0 1.07143,0"
       id="path4536"
       inkscape:connector-curvature="0" />
    <path
       style="fill:none;fill-rule:evenodd;stroke:#aa8800;stroke-width:3.00000024;stroke-linecap:butt;stroke-linejoin:miter;stroke-miterlimit:4;stroke-dasharray:none;stroke-opacity:0.46610173;filter:url(#filter4634)"
       d="m 141.42857,178.08443 c 0.83333,0 1.66666,0 2.5,0 0.11904,0 0.25809,0.066 0.35714,0 0.28017,-0.18677 0.42555,-0.54104 0.71429,-0.71428 0.32281,-0.19369 0.7062,-0.26584 1.07142,-0.35714 0.1155,-0.0289 0.25809,0.066 0.35715,0 0.28016,-0.18678 0.41311,-0.5637 0.71428,-0.71429 0.43903,-0.21951 0.97742,-0.16379 1.42857,-0.35714 0.39453,-0.16909 0.66953,-0.56357 1.07143,-0.71429 0.56838,-0.21314 1.24278,-0.0857 1.78572,-0.35714 0.45175,-0.22588 0.66043,-0.77786 1.07143,-1.07143 0.43323,-0.30945 0.99534,-0.40484 1.42857,-0.71429 0.41099,-0.29356 0.71428,-0.71428 1.07143,-1.07142 0.35714,-0.35715 0.71428,-0.71429 1.07142,-1.07143 0.35715,-0.35715 0.65118,-0.79127 1.07143,-1.07143 0.31324,-0.20882 0.74862,-0.16346 1.07143,-0.35714 0.28873,-0.17324 0.47619,-0.47619 0.71429,-0.71429 0.11905,-0.11904 0.19381,-0.3163 0.35714,-0.35714 0.34648,-0.0866 0.73983,0.13264 1.07143,0 0.31263,-0.12505 0.42555,-0.54104 0.71428,-0.71428 0.32282,-0.19369 0.77026,-0.13127 1.07143,-0.35715 0.21296,-0.15972 0.16892,-0.52605 0.35715,-0.71428 0.18823,-0.18823 0.52605,-0.16891 0.71428,-0.35715 0.66667,-0.66666 -0.0714,-0.88095 1.07143,-1.07142 3.9948,0 -0.48465,0.33671 2.14286,-0.71429 0.40288,-0.45175 0.97681,0.15059 1.42857,0 0.25254,-0.0842 0.45326,-0.30494 0.71428,-0.35714 0.35021,-0.07 0.75199,0.15972 1.07143,0 0.2381,-0.11905 0.10461,-0.63011 0.35715,-0.71429 0.56469,-0.18823 1.19047,0 1.78571,0 0.11905,0 0.2381,0 0.35714,0 0.35715,0 0.72122,0.07 1.07143,0 0.26103,-0.0522 0.45171,-0.31338 0.71429,-0.35714 0.46971,-0.0783 0.95238,0 1.42857,0 0.23809,0 0.51618,0.13207 0.71428,0 0.2215,-0.14766 0.11905,-0.59524 0.35715,-0.71429 0.35714,0 0.71428,0 1.07143,0 0,-0.11904 -0.10648,-0.3039 0,-0.35714 0.21295,-0.10648 0.47619,0 0.71428,0 0.35714,0 0.75199,0.15972 1.07143,0 0.2381,-0.11905 0.14418,-0.55457 0.35714,-0.71429 0.37128,-0.96483 1.28064,-0.0204 1.78572,-0.35714 0.22149,-0.14766 0.11905,-0.59524 0.35714,-0.71428 0.59524,-0.29762 1.19048,0.19841 1.78571,0 0.15972,-0.0532 0.19382,-0.31631 0.35715,-0.35715 0.34648,-0.0866 0.71428,0 1.07143,0 0.59523,0 1.19047,0 1.78571,0 0.47619,0 0.95238,0 1.42857,0 0.2381,0 0.47619,0 0.71429,0 0.11905,0 0.2442,-0.0376 0.35714,0 0.25254,0.0842 0.45326,0.30494 0.71429,0.35715 0.3502,0.07 0.71428,0 1.07142,0 0.11905,0 0.2381,0 0.35715,0 0.23809,0 0.50132,-0.10648 0.71428,0 0.10648,0.0532 -0.11294,0.31949 0,0.35714 0.33882,0.11294 0.71429,0 1.07143,0 0.11905,0 0.25809,-0.066 0.35714,0 0.28017,0.18678 0.4762,0.47619 0.71429,0.71428 0.35714,0.11905 0.73471,0.18879 1.07143,0.35715 0.38392,0.19196 0.65871,0.59636 1.07143,0.71428 0.45787,0.13082 0.95886,-0.0783 1.42857,0 0.26258,0.0438 0.45171,0.31338 0.71428,0.35715 0.46972,0.0783 0.97682,-0.15059 1.42858,0 0.31943,0.10648 0.39484,0.6078 0.71428,0.71428 0.45176,0.15059 0.95886,-0.0783 1.42857,0 0.26258,0.0438 0.45171,0.31338 0.71429,0.35714 0.46971,0.0783 0.9707,-0.13081 1.42857,0 0.41272,0.11792 0.66953,0.56358 1.07143,0.71429 0.56838,0.21314 1.18337,0.28185 1.78571,0.35714 0.35439,0.0443 0.71429,0 1.07143,0 0.11905,0 0.2381,0 0.35714,0 0.2381,0 0.54593,-0.16836 0.71429,0 0.16836,0.16836 -0.10648,0.50133 0,0.71429 0.0532,0.10648 0.2381,0 0.35714,0 0.35715,0 0.71429,0 1.07143,0 0.2381,0 0.48841,-0.0753 0.71429,0 0.15972,0.0532 0.23809,0.23809 0.35714,0.35714 0.2381,0.2381 0.43412,0.52751 0.71429,0.71429 0.0991,0.066 0.23809,0 0.35714,0 0.23809,0 0.47619,0 0.71428,0 0.11905,0 0.27297,-0.0842 0.35715,0 0.0842,0.0842 -0.10648,0.3039 0,0.35714 0.21296,0.10648 0.47619,0 0.71428,0 0.11905,0 0.2381,0 0.35715,0 0.23809,0 0.54592,-0.16836 0.71428,0 0.16836,0.16836 -0.10648,0.50133 0,0.71429 0.0532,0.10648 0.24421,-0.0377 0.35714,0 0.25254,0.0842 0.46175,0.27296 0.71429,0.35714 0.35714,0.11905 0.71429,-0.2381 1.07143,0 0.22149,0.14766 0.13565,0.56662 0.35714,0.71428 0.35714,0.2381 0.71429,-0.11904 1.07143,0 0.25254,0.0842 0.46175,0.27296 0.71429,0.35714 0.11293,0.0376 0.25066,-0.0532 0.35714,0 0.38392,0.19196 0.6729,0.55488 1.07143,0.71429 0.22106,0.0884 0.47619,0 0.71428,0 0.35715,0 0.71429,0 1.07143,0 0.11905,0 0.27297,-0.0842 0.35714,0 0.0842,0.0842 -0.10647,0.3039 0,0.35714 0.21296,0.10648 0.4762,0 0.71429,0 0.71429,0 1.42857,0 2.14286,0 0.83501,0 -0.12627,-0.0842 1.07143,0.71429 0.0991,0.066 0.23809,0 0.35714,0 0.35714,0 0.71428,0 1.07143,0 0.23809,0 0.50132,-0.10648 0.71428,0 0.10648,0.0532 -0.0842,0.27296 0,0.35714 0.0842,0.0842 0.2381,0 0.35715,0 0.95238,0 1.90476,0 2.85714,0 1.90476,0 3.80952,0 5.71428,0 0.2381,0 0.4762,0 0.71429,0 0.11905,0 0.27296,0.0842 0.35714,0 0.0842,-0.0842 -0.10648,-0.3039 0,-0.35714 0.21296,-0.10648 0.47619,0 0.71429,0 0.47619,0 0.95238,0 1.42857,0 0.2381,0 0.48841,0.0753 0.71429,0 0.15972,-0.0532 0.19742,-0.30391 0.35714,-0.35715 0.22588,-0.0753 0.47619,0 0.71428,0 0.35715,0 0.71429,0 1.07143,0 0.11905,0 0.30391,0.10648 0.35715,0 0.10648,-0.21295 -0.16836,-0.54592 0,-0.71428 0.16835,-0.16836 0.47619,0 0.71428,0 0.11905,0 0.27297,0.0842 0.35714,0 0.0842,-0.0842 -0.10647,-0.3039 0,-0.35714 0.21296,-0.10648 0.4762,0 0.71429,0 0.11905,0 0.3039,0.10648 0.35714,0 0.10648,-0.21296 -0.16836,-0.54593 0,-0.71429 0.16836,-0.16835 0.47619,0 0.71429,0 0.11905,0 0.27296,0.0842 0.35714,0 0.0842,-0.0842 0,-0.23809 0,-0.35714"
       id="path4570"
       inkscape:connector-curvature="0" />
    <path
       style="fill:none;fill-rule:evenodd;stroke:#aa8800;stroke-width:3.00000024;stroke-linecap:butt;stroke-linejoin:miter;stroke-miterlimit:4;stroke-dasharray:none;stroke-opacity:0.46610173;filter:url(#filter4618)"
       d="m 126.7857,95.227281 c 0.86573,0.82284 1.92601,0.12436 2.85714,0.35714 0.16334,0.0408 0.22246,0.25613 0.35715,0.35714 0.34338,0.25754 0.66422,0.57856 1.07143,0.71429 0.33881,0.11294 0.72122,-0.07 1.07142,0 0.26103,0.0522 0.45326,0.30494 0.71429,0.35714 0.35021,0.07 0.71429,0 1.07143,0 0.35714,0 0.71428,0 1.07143,0 0.35714,0 0.71428,0 1.07143,0 0.11904,0 0.25066,-0.0532 0.35714,0 0.38392,0.19196 0.65501,0.61018 1.07143,0.71429 0.57746,0.14437 1.19047,0 1.78571,0 0.35714,0 0.71429,0 1.07143,0 1.19048,0 2.38095,0 3.57143,0 0.35714,0 0.71428,0 1.07143,0 0.23809,0 0.48841,0.0753 0.71428,0 0.15972,-0.0532 0.19381,-0.31631 0.35715,-0.35714 0.34648,-0.0866 0.71428,0 1.07142,0 0.2381,0 0.4762,0 0.71429,0 0.11905,0 0.25066,0.0532 0.35714,0 0.38392,-0.19196 0.66423,-0.57855 1.07143,-0.71429 0.33882,-0.11294 0.72122,0.07 1.07143,0 0.26103,-0.0522 0.45326,-0.30494 0.71429,-0.35714 0.3502,-0.07 0.75199,0.15972 1.07142,0 0.2381,-0.11905 0.14419,-0.55457 0.35715,-0.71429 0.30117,-0.22588 0.71893,-0.22496 1.07143,-0.35714 0.60027,-0.2251 1.18544,-0.48918 1.78571,-0.71429 0.35249,-0.13218 0.75819,-0.14832 1.07143,-0.35714 0.42025,-0.28017 0.68342,-0.74809 1.07143,-1.07143 0.32974,-0.27479 0.72215,-0.4648 1.07143,-0.71428 0.48436,-0.34598 0.91176,-0.77611 1.42857,-1.07143 0.32686,-0.18678 0.73471,-0.18879 1.07143,-0.35715 0.38391,-0.19195 0.70336,-0.49344 1.07142,-0.71428 0.22827,-0.13696 0.50642,-0.19085 0.71429,-0.35714 0.3944,-0.31552 0.60719,-0.87247 1.07143,-1.07143 0.43769,-0.18758 1.00265,0.21296 1.42857,0 0.21296,-0.10648 -0.16836,-0.54593 0,-0.71429 0.16836,-0.16836 0.48841,0.0753 0.71429,0 0.15972,-0.0532 0.22245,-0.25613 0.35714,-0.35714 0.34338,-0.25754 0.66422,-0.57855 1.07143,-0.71429 0.33881,-0.11294 0.72122,0.07 1.07143,0 2.8505,-0.5701 -2.6114,-0.35714 2.14285,-0.35714 0.2381,0 0.47619,0 0.71429,0 0.11905,0 0.25066,0.0532 0.35714,0 0.38392,-0.19196 0.66423,-0.57855 1.07143,-0.71429 0.33882,-0.11293 0.71429,0 1.07143,0 0.35714,0 0.71428,0 1.07143,0 0.23809,0 0.48081,0.0467 0.71428,0 0.36915,-0.0738 0.70009,-0.29525 1.07143,-0.35714 0.35229,-0.0587 0.71429,0 1.07143,0 0.71429,0 1.42857,0 2.14286,0 2.2619,0 4.52381,0 6.78571,0 2.7381,0 5.47619,0 8.21429,0 0.71428,0 1.42857,0 2.14285,0 0.35715,0 0.72495,-0.0866 1.07143,0 0.16334,0.0408 0.19381,0.31631 0.35715,0.35714 0.34648,0.0866 0.71428,0 1.07142,0 0.95239,0 1.90477,0 2.85715,0 0.11905,0 0.23809,0 0.35714,0 0.2381,0 0.48841,-0.0753 0.71429,0 0.15972,0.0532 0.19742,0.30391 0.35714,0.35715 0.22588,0.0753 0.47619,0 0.71428,0 0.11905,0 0.25809,-0.066 0.35715,0 0.28016,0.18677 0.40165,0.58923 0.71428,0.71428 0.3316,0.13264 0.71429,0 1.07143,0 0.11905,0 0.27297,-0.0842 0.35714,0 0.0842,0.0842 -0.10647,0.30391 0,0.35715 0.21296,0.10648 0.4762,0 0.71429,0 0.11905,0 0.2381,0 0.35714,0 0.2381,0 0.47619,0 0.71429,0 0.11905,0 0.3039,-0.10648 0.35714,0 0.10648,0.21296 -0.16836,0.54592 0,0.71428 0.16836,0.16836 0.47619,0 0.71429,0 0.11905,0 0.27296,-0.0842 0.35714,0 0.0842,0.0842 -0.10648,0.30391 0,0.35714 0.21296,0.10648 0.47619,0 0.71429,0 0.11904,0 0.3039,-0.10647 0.35714,0 0.10648,0.21296 -0.16836,0.54593 0,0.71429 0.16836,0.16836 0.47619,0 0.71428,0 0.11905,0 0.27297,-0.0842 0.35715,0 0.0842,0.0842 -0.10648,0.3039 0,0.35714 0.21296,0.10648 0.47619,0 0.71428,0 0.11905,0 0.30391,-0.10648 0.35715,0 0.10648,0.21296 -0.16836,0.54593 0,0.71429 0.14793,0.50508 0.81889,-0.25254 1.07142,0 0.0842,0.0842 0,0.23809 0,0.35714 0.2381,0 0.51618,-0.13207 0.71429,0 1.22449,0.81633 -0.62925,0.73129 1.07143,1.07143 0.35021,0.07 0.73261,-0.11294 1.07143,0 1.25291,0.41764 0.75167,0.56376 1.42857,1.07143 0.34339,0.25754 0.6729,0.55487 1.07143,0.71428 1.78571,0.71429 0,-0.35714 1.07143,0 0.80183,0.26728 0.97067,0.66391 1.78571,1.07143 0.10648,0.0532 0.2442,-0.0376 0.35714,0 0.25254,0.0842 0.46175,0.27297 0.71429,0.35715 0.11294,0.0376 0.3039,-0.10648 0.35714,0 0.10648,0.21296 -0.16836,0.54592 0,0.71428 0.16836,0.16836 0.47619,0 0.71429,0 0.11905,0 0.23809,0 0.35714,0 0.2381,0 0.50133,-0.10648 0.71429,0 0.95238,0.47619 -1.07143,0.35714 0.35714,0.35714 0.23809,0 0.54593,-0.16835 0.71428,0 0.16836,0.16836 -0.1981,0.58222 0,0.71429 0.29717,0.19811 0.72495,-0.0866 1.07143,0 0.16334,0.0408 0.22246,0.25613 0.35715,0.35714 0.35714,0.2381 0.71428,0.47619 1.07142,0.71429 0.2381,0.35714 0.37912,0.80329 0.71429,1.07143 0.29397,0.23517 0.73471,0.18878 1.07143,0.35714 0.38392,0.19196 0.72804,0.45675 1.07143,0.71429 0.13468,0.10101 0.21706,0.263749 0.35714,0.357139 0.57758,0.38505 1.23039,0.65493 1.78571,1.07143 1.57972,1.18478 0.47716,0.95286 2.14286,1.78571 0.33672,0.16836 0.73471,0.18879 1.07143,0.35714 0.38392,0.19196 0.68751,0.52233 1.07143,0.71429 0.87962,0.43981 -0.32241,-1.03669 1.07143,0.35714 0.18823,0.18823 0.14418,0.55457 0.35714,0.71429 0.30117,0.22588 0.74862,0.16345 1.07143,0.35714 0.28873,0.17324 0.43412,0.52751 0.71428,0.71429 0.0991,0.066 0.2381,0 0.35715,0 0.23809,0 0.50132,-0.10648 0.71428,0 0.10648,0.0532 -0.0842,0.27296 0,0.35714 0.0842,0.0842 0.30391,-0.10648 0.35715,0 0.10648,0.21296 -0.16836,0.54593 0,0.71429 0.16836,0.16835 0.47619,0 0.71428,0 0.11905,0 0.27297,-0.0842 0.35714,0 0.0842,0.0842 -0.10647,0.3039 0,0.35714 0.21296,0.10648 0.4762,0 0.71429,0 0.11905,0 0.3039,-0.10648 0.35714,0 0.10648,0.21296 -0.16836,0.54593 0,0.71428 0.83334,0.83334 0.71429,-0.65476 0.71429,0.35715"
       id="path4572"
       inkscape:connector-curvature="0" />
    <path
       style="fill:none;fill-rule:evenodd;stroke:#aa8800;stroke-width:3.00000024;stroke-linecap:butt;stroke-linejoin:miter;stroke-miterlimit:4;stroke-dasharray:none;stroke-opacity:0.46610173;filter:url(#filter4638)"
       d="m 212.14286,222.37014 c 1.07143,1.07143 2.14285,2.14286 3.21428,3.21429 0.2381,0.23809 0.45562,0.49872 0.71429,0.71428 0.45727,0.38106 0.97663,0.68405 1.42857,1.07143 1.73515,1.48727 0.40074,0.91466 2.85714,2.14286 0.33672,0.16836 0.70009,0.29525 1.07143,0.35714 0.35229,0.0587 0.75199,-0.15972 1.07143,0 0.2381,0.11905 0.11905,0.59524 0.35714,0.71429 0.31944,0.15972 0.72122,-0.0701 1.07143,0 0.26103,0.0522 0.47619,0.23809 0.71429,0.35714 0.47619,0.23809 0.91862,0.5613 1.42857,0.71428 0.6936,0.20808 1.44423,0.16661 2.14286,0.35715 0.6185,0.16868 1.16721,0.5456 1.78571,0.71428 0.69862,0.19054 1.43726,0.19432 2.14286,0.35715 0.84448,0.19488 1.6434,0.5825 2.5,0.71428 0.70598,0.10861 1.43408,-0.0886 2.14285,0 0.26415,0.033 0.46175,0.27297 0.71429,0.35714 1.31047,0.43683 3.22076,0.96986 4.64286,1.07143 0.94996,0.0679 1.92012,-0.17036 2.85714,0 0.42231,0.0768 0.65242,0.62118 1.07143,0.71429 0.69728,0.15495 1.42857,0 2.14286,0 0.47619,0 0.95238,0 1.42857,0 2.85714,0 5.71428,0 8.57143,0 0.95238,0 1.90476,0 2.85714,0 0.35714,0 0.71914,0.0587 1.07143,0 0.37134,-0.0619 0.69875,-0.3039 1.07143,-0.35714 0.4714,-0.0674 0.95238,0 1.42857,0 0.23809,0 0.49322,0.0884 0.71428,0 1.5718,-0.62872 0.5001,-0.83675 2.14286,-1.07143 0.4714,-0.0674 0.97682,0.15058 1.42857,0 0.31944,-0.10648 0.40165,-0.58923 0.71429,-0.71429 0.3316,-0.13264 0.72495,0.0866 1.07143,0 0.16333,-0.0408 0.19381,-0.31631 0.35714,-0.35714 0.34648,-0.0866 0.73261,0.11294 1.07143,0 0.54092,-0.18031 1.15388,-0.94506 1.78571,-1.07143 0.35021,-0.07 0.71429,0 1.07143,0 0.35714,0 0.75199,0.15972 1.07143,0 0.23809,-0.11905 0.11905,-0.59524 0.35714,-0.71429 0.31944,-0.15971 0.71915,0.0587 1.07143,0 1.99593,-0.33265 0.16839,-0.331 2.14286,-1.07142 1.32593,-0.49723 2.54388,-0.35715 3.92857,-0.35715 0.35714,0 0.75199,0.15972 1.07143,0 0.23809,-0.11904 0.23809,-0.47619 0.35714,-0.71428 0.59524,-0.11905 1.18338,-0.28185 1.78571,-0.35715 0.35439,-0.0443 0.71429,0 1.07143,0 0.35715,0 0.71429,0 1.07143,0 0.35714,0 0.71429,0 1.07143,0 0.11905,0 0.25066,0.0532 0.35714,0 0.38392,-0.19195 0.66423,-0.57855 1.07143,-0.71428 0.33882,-0.11294 0.71429,0 1.07143,0 0.2381,0 0.47619,0 0.71429,0 1.54762,0 3.09523,0 4.64285,0 4.16667,0 8.33334,0 12.5,0"
       id="path4574"
       inkscape:connector-curvature="0" />
    <path
       style="fill:none;fill-rule:evenodd;stroke:#aa8800;stroke-width:3.00000024;stroke-linecap:butt;stroke-linejoin:miter;stroke-miterlimit:4;stroke-dasharray:none;stroke-opacity:0.46610173;filter:url(#filter4642)"
       d="m 308.92858,143.44156 c -0.18252,2.15579 1.35648,-0.0721 1.78571,0.35714 0.0842,0.0842 -0.10648,0.30391 0,0.35715 0.21296,0.10648 0.51618,-0.13208 0.71429,0 0.22149,0.14766 0.11904,0.59523 0.35714,0.71428 0.31944,0.15972 0.72122,-0.07 1.07143,0 0.26103,0.0522 0.46174,0.27297 0.71428,0.35714 0.11294,0.0377 0.2381,0 0.35715,0 0.23809,0 0.47619,0 0.71428,0 0.11905,0 0.3039,-0.10647 0.35714,0 0.10648,0.21296 -0.16835,0.54593 0,0.71429 0.16836,0.16836 0.47619,0 0.71429,0 0.11905,0 0.2381,0 0.35714,0 0.2381,0 0.47619,0 0.71429,0 0.11905,0 0.27296,-0.0842 0.35714,0 0.0842,0.0842 -0.10648,0.3039 0,0.35714 0.21296,0.10648 0.47619,0 0.71429,0 0.11904,0 0.23809,0 0.35714,0 0.2381,0 0.54593,-0.16836 0.71429,0 0.16835,0.16836 -0.10648,0.50133 0,0.71429 0.0532,0.10648 0.23809,0 0.35714,0 0.23809,0 0.48841,-0.0753 0.71428,0 0.15972,0.0532 0.19382,0.31631 0.35715,0.35714 0.34648,0.0866 0.73983,-0.13264 1.07143,0 0.31263,0.12506 0.43412,0.52751 0.71428,0.71429 0.0991,0.066 0.27297,-0.0842 0.35714,0 0.0842,0.0842 -0.10647,0.3039 0,0.35714 0.21296,0.10648 0.51618,-0.13207 0.71429,0 0.22149,0.14766 0.11905,0.59524 0.35714,0.71429 0.54294,0.27147 1.23101,0.1106 1.78572,0.35714 1.43895,0.63953 1.34172,1.27415 2.5,2.14286 0.55533,0.41649 1.20813,0.68637 1.78571,1.07142 0.49527,0.33018 0.88146,0.83696 1.42857,1.07143 0.32827,0.14069 0.73983,-0.13264 1.07143,0 0.31264,0.12506 0.43412,0.52751 0.71429,0.71429 0.099,0.066 0.2442,-0.0376 0.35714,0 0.25254,0.0842 0.4928,0.20948 0.71429,0.35714 0.49526,0.33018 0.90824,0.78236 1.42857,1.07143 2.24373,1.24652 1.39543,0.31149 3.92857,1.07143 3.1065,0.93195 -0.38757,0.67122 3.21428,1.07143 0.47328,0.0526 0.95239,0 1.42858,0 1.07142,0 2.14285,0 3.21428,0 1.07143,0 2.14286,0 3.21429,0 0.35714,0 0.71428,0 1.07143,0 0.23809,0 0.4884,0.0753 0.71428,0 0.15972,-0.0532 0.19743,-0.30391 0.35714,-0.35715 0.22588,-0.0753 0.4762,0 0.71429,0 0.35714,0 0.71429,0 1.07143,0 1.07143,0 2.14286,0 3.21428,0 0.11905,0 0.2381,0 0.35715,0 0.23809,0 0.50132,0.10648 0.71428,0 0.10648,-0.0532 -0.0842,-0.27296 0,-0.35714 0.0842,-0.0842 0.2381,0 0.35715,0 0.35714,0 0.71428,0 1.07142,0 2.02381,0 4.04762,0 6.07143,0 0.47619,0 0.95238,0 1.42857,0 0.2381,0 0.4762,0 0.71429,0 0.11905,0 0.24165,-0.0289 0.35714,0 0.36522,0.0913 0.70009,0.29525 1.07143,0.35714 0.35229,0.0587 0.71429,0 1.07143,0 1.07143,0 2.14286,0 3.21429,0 0.23809,0 0.47619,0 0.71428,0 0.11905,0 0.27297,-0.0842 0.35714,0 0.0842,0.0842 -0.10647,0.30391 0,0.35715 0.21296,0.10648 0.4762,0 0.71429,0 0.47619,0 0.95238,0 1.42857,0 0.2381,0 0.51618,-0.13207 0.71429,0 0.22149,0.14766 0.11905,0.59524 0.35714,0.71428 0.31944,0.15972 0.71429,0 1.07143,0 0.35714,0 0.71428,0 1.07143,0 0.95238,0 1.90476,0 2.85714,0 0.35714,0 0.71429,0 1.07143,0 0.11905,0 0.2442,-0.0376 0.35714,0 0.25254,0.0842 0.45326,0.30494 0.71429,0.35715 0.3502,0.07 0.71428,0 1.07143,0 0.35714,0 0.71428,0 1.07142,0 0.11905,0 0.25809,-0.066 0.35715,0 0.28016,0.18677 0.39484,0.6078 0.71428,0.71428 0.45176,0.15059 0.95238,0 1.42857,0 0.2381,0 0.48841,-0.0753 0.71429,0 0.15972,0.0532 0.19108,0.32947 0.35714,0.35714 0.58714,0.0979 1.19048,0 1.78572,0 0.11905,0 0.23809,0 0.35714,0 0.2381,0 0.51618,-0.13207 0.71429,0 0.22149,0.14767 0.13565,0.56663 0.35714,0.71429 0.19811,0.13207 0.47619,0 0.71428,0 0.11905,0 0.2381,0 0.35715,0 0.23809,0 0.50132,-0.10648 0.71428,0 0.10648,0.0532 -0.0842,0.27296 0,0.35714 0.0842,0.0842 0.2381,0 0.35715,0 0.23809,0 0.54592,-0.16836 0.71428,0 0.16836,0.16836 -0.10648,0.50133 0,0.71429 0.0532,0.10648 0.27297,-0.0842 0.35714,0 0.0842,0.0842 0,0.23809 0,0.35714 0,0.2381 -0.16835,0.54593 0,0.71429 0.16836,0.16836 0.50133,-0.10648 0.71429,0 0.10648,0.0532 0,0.23809 0,0.35714 0,0.2381 -0.10648,0.50133 0,0.71429 0.0532,0.10648 0.2381,0 0.35714,0"
       id="path4576"
       inkscape:connector-curvature="0" />
    <path
       style="fill:none;fill-rule:evenodd;stroke:#aa8800;stroke-width:3.00000024;stroke-linecap:butt;stroke-linejoin:miter;stroke-miterlimit:4;stroke-dasharray:none;stroke-opacity:0.46610173;filter:url(#filter4630)"
       d="m 57.857143,164.51301 c 0.64097,-0.45175 1.46522,0.22588 2.14285,0 0.15972,-0.0532 0.19382,-0.3163 0.35715,-0.35714 0.34648,-0.0866 0.71428,0 1.07143,0 0.95238,0 1.90476,0 2.85714,0 1.19047,0 2.38095,0 3.57143,0 0.35714,0 0.71914,-0.0587 1.07143,0 0.37134,0.0619 0.69787,0.31045 1.07142,0.35714 0.59065,0.0738 1.19048,0 1.78572,0 0.47619,0 0.95238,0 1.42857,0 0.35714,0 0.71915,-0.0587 1.07143,0 0.37134,0.0619 0.69787,0.31045 1.07143,0.35715 0.59064,0.0738 1.20825,-0.14437 1.78571,0 0.41642,0.1041 0.65871,0.59636 1.07143,0.71428 0.64815,0.18519 1.80556,-0.13889 2.5,0 0.26103,0.0522 0.45171,0.31338 0.71429,0.35715 0.46971,0.0783 0.95238,0 1.42857,0 0.35714,0 0.73261,-0.11294 1.07143,0 0.4072,0.13573 0.65501,0.61018 1.07142,0.71428 3.80953,0.95238 0.17915,-0.79057 2.85715,0.35715 0.48935,0.20972 0.90651,0.60987 1.42857,0.71428 0.70041,0.14008 1.43294,-0.0789 2.14286,0 0.37416,0.0416 0.70009,0.29525 1.07142,0.35714 0.35229,0.0587 0.71429,0 1.07143,0 0.2381,0 0.51618,-0.13207 0.71429,0 0.22149,0.14766 0.11905,0.59524 0.35714,0.71429 1.28837,0.64418 0.78871,-0.63987 1.78572,0.35714 0.18823,0.18823 0.11904,0.59524 0.35714,0.71429 0.31944,0.15972 0.71428,0 1.07143,0 0.23809,0 0.50132,-0.10648 0.71428,0 0.10648,0.0532 -0.0842,0.27296 0,0.35714 0.0842,0.0842 0.2381,0 0.35715,0 0.23809,0 0.54592,-0.16836 0.71428,0 0.16836,0.16836 -0.10648,0.50133 0,0.71429 0.0532,0.10648 0.2381,0 0.35714,0 0.238097,0 0.476197,0 0.714287,0 1.42857,0 -0.59524,-0.11905 0.35714,0.35714 0.21296,0.10648 0.47619,0 0.71429,0 1.0119,0 -0.47619,-0.11905 0.35714,0.71429 0.14794,0.50507 0.81889,-0.25254 1.07143,0 0.0842,0.0842 -0.10648,0.3039 0,0.35714 0.21296,0.10648 0.47619,0 0.71429,0 0.11904,0 0.3039,-0.10648 0.35714,0 0.10648,0.21296 -0.16836,0.54592 0,0.71428 0.14793,0.50508 0.81889,-0.25253 1.07143,0 0.0842,0.0842 0,0.2381 0,0.35715 0,0.23809 -0.16836,0.54592 0,0.71428 0.16836,0.16836 0.50132,-0.10648 0.71428,0 0.10648,0.0532 -0.0376,0.24421 0,0.35715 0.0842,0.25253 0.14419,0.55456 0.35715,0.71428 0.30117,0.22588 0.73471,0.18878 1.07142,0.35714 0.38392,0.19196 0.70337,0.49345 1.07143,0.71429 0.22827,0.13696 0.56663,0.13565 0.71429,0.35714 0.13207,0.19811 -0.10648,0.50133 0,0.71429 0.0532,0.10648 0.23809,0 0.35714,0 0.2381,0 0.50133,-0.10648 0.71429,0 0.10648,0.0532 -0.0842,0.27296 0,0.35714 0.0842,0.0842 0.3039,-0.10648 0.35714,0 0.10648,0.21296 0.2381,0.71429 0,0.71429 -0.23809,0 0,-0.47619 0,-0.71429"
       id="path4580"
       inkscape:connector-curvature="0" />
    <path
       style="fill:none;fill-rule:evenodd;stroke:#aa8800;stroke-width:3.00000024;stroke-linecap:butt;stroke-linejoin:miter;stroke-miterlimit:4;stroke-dasharray:none;stroke-opacity:0.46610173;filter:url(#filter4622)"
       d="m 67.85714,19.155859 c 0.47619,0 0.95716,-0.06734 1.42857,0 0.37268,0.05324 0.72189,0.217329 1.07143,0.357143 0.84179,0.336717 1.68907,0.665967 2.5,1.071428 0.38391,0.191959 0.66422,0.578551 1.07142,0.714286 0.33882,0.112939 0.71915,-0.05871 1.07143,0 0.37134,0.06189 0.70009,0.295253 1.07143,0.357143 0.35229,0.05871 0.73983,-0.13264 1.07143,0 0.31263,0.125054 0.40165,0.589232 0.71429,0.714286 0.33159,0.132639 0.72495,-0.08662 1.07142,0 0.16334,0.04083 0.21097,0.273613 0.35715,0.357143 0.69337,0.396214 1.40569,0.764276 2.14285,1.071428 1.07143,0.446429 2.14286,0.669643 3.21429,1.071429 0.59524,0.238095 1.19048,0.47619 1.78571,0.714285 0.11905,0 0.24421,-0.03765 0.35715,0 0.25254,0.08418 0.45325,0.304937 0.71428,0.357143 0.35021,0.07004 0.71429,0 1.07143,0 0.11905,0 0.25809,-0.06603 0.35714,0 0.28017,0.186778 0.4762,0.476191 0.71429,0.714286 0.47619,0.119048 1.0024,0.113615 1.42857,0.357143 0.43853,0.250588 0.64313,0.803739 1.07143,1.071428 0.0469,0.02933 2.40383,0.995876 2.85714,1.071429 0.35229,0.05871 0.73262,-0.112938 1.07143,0 0.40721,0.135735 0.68751,0.522327 1.07143,0.714286 0.10648,0.05324 0.2381,0 0.35714,0 0.2381,0 0.47619,0 0.71429,0 0.11905,0 0.2442,-0.03765 0.35714,0 0.25254,0.08418 0.46175,0.272963 0.71429,0.357143 0.11294,0.03765 0.23809,0 0.35714,0 0.2381,0 0.47619,0 0.71429,0 0.71428,0 1.42857,0 2.14285,0 0.11905,0 0.2381,0 0.35715,0 0.23809,0 0.54592,-0.168359 0.71428,0 0.16836,0.168358 -0.10648,0.501326 0,0.714285 0.0532,0.10648 0.2381,0 0.35714,0 0.2381,0 0.4762,0 0.71429,0 0.11905,0 0.2381,0 0.35714,0 0.2381,0 0.50133,-0.106479 0.71429,0 0.95238,0.476191 -1.07143,0.357143 0.35714,0.357143"
       id="path4582"
       inkscape:connector-curvature="0" />
    <path
       style="fill:none;fill-rule:evenodd;stroke:#aa8800;stroke-width:3.00000024;stroke-linecap:butt;stroke-linejoin:miter;stroke-miterlimit:4;stroke-dasharray:none;stroke-opacity:0.46610173;filter:url(#filter4646)"
       d="m 132.5,198.79871 c 0.71429,0.23809 1.42857,0.47619 2.14286,0.71428 0.11904,0.2381 0.14418,0.55457 0.35714,0.71429 0.30117,0.22587 0.73471,0.18878 1.07143,0.35714 0.62088,0.31044 1.11601,0.88878 1.78571,1.07143 0.68912,0.18794 1.44558,-0.15495 2.14286,0 0.41901,0.0931 0.6769,0.5452 1.07143,0.71428 0.45116,0.19336 0.96291,0.20193 1.42857,0.35715 0.60819,0.20273 1.16721,0.5456 1.78571,0.71428 0.69863,0.19054 1.48114,0.063 2.14286,0.35715 0.46155,0.20513 0.62991,0.82614 1.07143,1.07142 0.65817,0.36566 1.46942,0.37757 2.14286,0.71429 0.53239,0.2662 0.91816,0.76518 1.42857,1.07143 0.68479,0.41087 1.42857,0.71428 2.14286,1.07143 0.71428,0.35714 1.42857,0.71428 2.14285,1.07143 0.71429,0.35714 1.39235,0.79851 2.14286,1.07142 0.57048,0.20745 1.20984,0.16519 1.78571,0.35715 1.38289,0.46096 1.84114,1.17542 3.21429,1.78571 0.7021,0.87344 1.71841,0.0445 2.5,0.35715 0.31263,0.12505 0.40165,0.58923 0.71429,0.71428 0.33159,0.13264 0.71428,0 1.07142,0 0.4762,0 0.95239,0 1.42858,0 0.23809,0 0.47619,0 0.71428,0 0.11905,0 0.27297,-0.0842 0.35714,0 0.0842,0.0842 -0.10647,0.3039 0,0.35714 0.21296,0.10648 0.4762,0 0.71429,0 0.11905,0 0.25809,-0.066 0.35714,0 0.28017,0.18678 0.40165,0.58924 0.71429,0.71429 0.3316,0.13264 0.72495,-0.0866 1.07143,0 0.16333,0.0408 0.19742,0.3039 0.35714,0.35714 0.22588,0.0753 0.47619,0 0.71429,0 0.11904,0 0.23809,0 0.35714,0 0.23809,0 0.54593,-0.16836 0.71428,0 0.16836,0.16836 -0.10647,0.50133 0,0.71429 0.0532,0.10648 0.2381,0 0.35715,0 0.23809,0 0.50132,-0.10648 0.71428,0 0.10648,0.0532 -0.0842,0.27296 0,0.35714 0.0842,0.0842 0.2381,0 0.35715,0 0.35714,0 0.71428,0 1.07142,0"
       id="path4584"
       inkscape:connector-curvature="0" />
  </g>
  <g
     inkscape:groupmode="layer"
     id="layer3"
     inkscape:label="Grille"
     style="display:none"
     sodipodi:insensitive="true">
    <path
       sodipodi:type="star"
       style="opacity:1;fill:#000000;fill-opacity:0;stroke:#4b5062;stroke-width:5;stroke-linecap:round;stroke-linejoin:round;stroke-miterlimit:4;stroke-dasharray:none;stroke-dashoffset:0;stroke-opacity:0.30508477"
       id="path4434"
       sodipodi:sides="3"
       sodipodi:cx="145.71429"
       sodipodi:cy="291.29871"
       sodipodi:r1="38.992413"
       sodipodi:r2="19.496206"
       sodipodi:arg1="2.0943951"
       sodipodi:arg2="3.1415927"
       inkscape:flatsided="true"
       inkscape:rounded="0"
       inkscape:randomized="0"
       d="m 126.21809,325.06713 0,-67.53684 58.48862,33.76842 z"
       inkscape:transform-center-x="-9.7481031"
       inkscape:transform-center-y="-3.8301796e-005" />
    <path
       inkscape:transform-center-y="-3.8301796e-005"
       inkscape:transform-center-x="-9.7481031"
       d="m 124.78951,253.63855 0,-67.53684 58.48862,33.76842 z"
       inkscape:randomized="0"
       inkscape:rounded="0"
       inkscape:flatsided="true"
       sodipodi:arg2="3.1415927"
       sodipodi:arg1="2.0943951"
       sodipodi:r2="19.496206"
       sodipodi:r1="38.992413"
       sodipodi:cy="219.87013"
       sodipodi:cx="144.28572"
       sodipodi:sides="3"
       id="path4436"
       style="opacity:1;fill:#000000;fill-opacity:0;stroke:#4b5062;stroke-width:5;stroke-linecap:round;stroke-linejoin:round;stroke-miterlimit:4;stroke-dasharray:none;stroke-dashoffset:0;stroke-opacity:0.30508477"
       sodipodi:type="star" />
    <path
       sodipodi:type="star"
       style="opacity:1;fill:#000000;fill-opacity:0;stroke:#4b5062;stroke-width:5;stroke-linecap:round;stroke-linejoin:round;stroke-miterlimit:4;stroke-dasharray:none;stroke-dashoffset:0;stroke-opacity:0.30508477"
       id="path4438"
       sodipodi:sides="3"
       sodipodi:cx="85.357147"
       sodipodi:cy="183.08441"
       sodipodi:r1="38.992413"
       sodipodi:r2="19.496206"
       sodipodi:arg1="2.0943951"
       sodipodi:arg2="3.1415927"
       inkscape:flatsided="true"
       inkscape:rounded="0"
       inkscape:randomized="0"
       d="m 65.860941,216.85283 0,-67.53684 58.488619,33.76842 z"
       inkscape:transform-center-x="-9.7481031"
       inkscape:transform-center-y="-3.8301796e-005" />
    <path
       inkscape:transform-center-y="-3.8301796e-005"
       inkscape:transform-center-x="-9.7481031"
       d="m 189.78953,216.85283 0,-67.53684 58.48862,33.76842 z"
       inkscape:randomized="0"
       inkscape:rounded="0"
       inkscape:flatsided="true"
       sodipodi:arg2="3.1415927"
       sodipodi:arg1="2.0943951"
       sodipodi:r2="19.496206"
       sodipodi:r1="38.992413"
       sodipodi:cy="183.08441"
       sodipodi:cx="209.28574"
       sodipodi:sides="3"
       id="path4440"
       style="opacity:1;fill:#000000;fill-opacity:0;stroke:#4b5062;stroke-width:5;stroke-linecap:round;stroke-linejoin:round;stroke-miterlimit:4;stroke-dasharray:none;stroke-dashoffset:0;stroke-opacity:0.30508477"
       sodipodi:type="star" />
    <path
       sodipodi:type="star"
       style="opacity:1;fill:#000000;fill-opacity:0;stroke:#4b5062;stroke-width:5;stroke-linecap:round;stroke-linejoin:round;stroke-miterlimit:4;stroke-dasharray:none;stroke-dashoffset:0;stroke-opacity:0.30508477"
       id="path4442"
       sodipodi:sides="3"
       sodipodi:cx="271.78574"
       sodipodi:cy="218.79871"
       sodipodi:r1="38.992413"
       sodipodi:r2="19.496206"
       sodipodi:arg1="2.0943951"
       sodipodi:arg2="3.1415927"
       inkscape:flatsided="true"
       inkscape:rounded="0"
       inkscape:randomized="0"
       d="m 252.28953,252.56713 0,-67.53684 58.48862,33.76842 z"
       inkscape:transform-center-x="-9.7481031"
       inkscape:transform-center-y="-3.8301796e-005" />
    <path
       inkscape:transform-center-y="-3.8301796e-005"
       inkscape:transform-center-x="-9.7481031"
       d="m 250.14668,180.06713 0,-67.53684 58.48862,33.76842 z"
       inkscape:randomized="0"
       inkscape:rounded="0"
       inkscape:flatsided="true"
       sodipodi:arg2="3.1415927"
       sodipodi:arg1="2.0943951"
       sodipodi:r2="19.496206"
       sodipodi:r1="38.992413"
       sodipodi:cy="146.29871"
       sodipodi:cx="269.64288"
       sodipodi:sides="3"
       id="path4444"
       style="opacity:1;fill:#000000;fill-opacity:0;stroke:#4b5062;stroke-width:5;stroke-linecap:round;stroke-linejoin:round;stroke-miterlimit:4;stroke-dasharray:none;stroke-dashoffset:0;stroke-opacity:0.30508477"
       sodipodi:type="star" />
    <path
       sodipodi:type="star"
       style="opacity:1;fill:#000000;fill-opacity:0;stroke:#4b5062;stroke-width:5;stroke-linecap:round;stroke-linejoin:round;stroke-miterlimit:4;stroke-dasharray:none;stroke-dashoffset:0;stroke-opacity:0.30508477"
       id="path4446"
       sodipodi:sides="3"
       sodipodi:cx="333.57147"
       sodipodi:cy="110.58442"
       sodipodi:r1="38.992413"
       sodipodi:r2="19.496206"
       sodipodi:arg1="2.0943951"
       sodipodi:arg2="3.1415927"
       inkscape:flatsided="true"
       inkscape:rounded="0"
       inkscape:randomized="0"
       d="m 314.07527,144.35284 0,-67.536841 58.48861,33.768421 z"
       inkscape:transform-center-x="-9.7481031"
       inkscape:transform-center-y="-3.8301796e-005" />
    <path
       inkscape:transform-center-y="-3.8301796e-005"
       inkscape:transform-center-x="-9.7481031"
       d="m 371.57527,179.70999 0,-67.53684 58.48861,33.76842 z"
       inkscape:randomized="0"
       inkscape:rounded="0"
       inkscape:flatsided="true"
       sodipodi:arg2="3.1415927"
       sodipodi:arg1="2.0943951"
       sodipodi:r2="19.496206"
       sodipodi:r1="38.992413"
       sodipodi:cy="145.94157"
       sodipodi:cx="391.07147"
       sodipodi:sides="3"
       id="path4448"
       style="opacity:1;fill:#000000;fill-opacity:0;stroke:#4b5062;stroke-width:5;stroke-linecap:round;stroke-linejoin:round;stroke-miterlimit:4;stroke-dasharray:none;stroke-dashoffset:0;stroke-opacity:0.30508477"
       sodipodi:type="star" />
    <path
       sodipodi:type="star"
       style="opacity:1;fill:#000000;fill-opacity:0;stroke:#4b5062;stroke-width:5;stroke-linecap:round;stroke-linejoin:round;stroke-miterlimit:4;stroke-dasharray:none;stroke-dashoffset:0;stroke-opacity:0.30508477"
       id="path4450"
       sodipodi:sides="3"
       sodipodi:cx="208.21432"
       sodipodi:cy="108.44157"
       sodipodi:r1="38.992413"
       sodipodi:r2="19.496206"
       sodipodi:arg1="2.0943951"
       sodipodi:arg2="3.1415927"
       inkscape:flatsided="true"
       inkscape:rounded="0"
       inkscape:randomized="0"
       d="m 188.71812,142.20999 0,-67.536843 58.48862,33.768423 z"
       inkscape:transform-center-x="-9.7481031"
       inkscape:transform-center-y="-3.8301796e-005" />
    <path
       inkscape:transform-center-y="-3.8301796e-005"
       inkscape:transform-center-x="-9.7481031"
       d="m 188.00384,73.995692 0,-67.5368398 58.48862,33.7684198 z"
       inkscape:randomized="0"
       inkscape:rounded="0"
       inkscape:flatsided="true"
       sodipodi:arg2="3.1415927"
       sodipodi:arg1="2.0943951"
       sodipodi:r2="19.496206"
       sodipodi:r1="38.992413"
       sodipodi:cy="40.227272"
       sodipodi:cx="207.50005"
       sodipodi:sides="3"
       id="path4452"
       style="opacity:1;fill:#000000;fill-opacity:0;stroke:#4b5062;stroke-width:5;stroke-linecap:round;stroke-linejoin:round;stroke-miterlimit:4;stroke-dasharray:none;stroke-dashoffset:0;stroke-opacity:0.30508477"
       sodipodi:type="star" />
    <path
       sodipodi:type="star"
       style="opacity:1;fill:#000000;fill-opacity:0;stroke:#4b5062;stroke-width:5;stroke-linecap:round;stroke-linejoin:round;stroke-miterlimit:4;stroke-dasharray:none;stroke-dashoffset:0;stroke-opacity:0.30508477"
       id="path4454"
       sodipodi:sides="3"
       sodipodi:cx="147.85718"
       sodipodi:cy="74.870132"
       sodipodi:r1="38.992413"
       sodipodi:r2="19.496206"
       sodipodi:arg1="2.0943951"
       sodipodi:arg2="3.1415927"
       inkscape:flatsided="true"
       inkscape:rounded="0"
       inkscape:randomized="0"
       d="m 128.36097,108.63855 0,-67.536837 58.48862,33.768419 z"
       inkscape:transform-center-x="-9.7481031"
       inkscape:transform-center-y="-3.8301796e-005" />
    <path
       inkscape:transform-center-y="-3.8301796e-005"
       inkscape:transform-center-x="-9.7481031"
       d="m 65.503824,72.924262 0,-67.53684 58.488616,33.76842 z"
       inkscape:randomized="0"
       inkscape:rounded="0"
       inkscape:flatsided="true"
       sodipodi:arg2="3.1415927"
       sodipodi:arg1="2.0943951"
       sodipodi:r2="19.496206"
       sodipodi:r1="38.992413"
       sodipodi:cy="39.155842"
       sodipodi:cx="85.000031"
       sodipodi:sides="3"
       id="path4456"
       style="opacity:1;fill:#000000;fill-opacity:0;stroke:#4b5062;stroke-width:5;stroke-linecap:round;stroke-linejoin:round;stroke-miterlimit:4;stroke-dasharray:none;stroke-dashoffset:0;stroke-opacity:0.30508477"
       sodipodi:type="star" />
  </g>
</svg>
