<?xml version="1.0" encoding="UTF-8" standalone="no"?>
<!-- Created with Inkscape (http://www.inkscape.org/) -->

<svg
   xmlns:dc="http://purl.org/dc/elements/1.1/"
   xmlns:cc="http://creativecommons.org/ns#"
   xmlns:rdf="http://www.w3.org/1999/02/22-rdf-syntax-ns#"
   xmlns:svg="http://www.w3.org/2000/svg"
   xmlns="http://www.w3.org/2000/svg"
   xmlns:sodipodi="http://sodipodi.sourceforge.net/DTD/sodipodi-0.dtd"
   xmlns:inkscape="http://www.inkscape.org/namespaces/inkscape"
   width="23.828417mm"
   height="47.894073mm"
   viewBox="0 0 84.431404 169.70341"
   id="svg2"
   version="1.1"
   inkscape:version="0.92.1 r15371"
   sodipodi:docname="menhir.svg"
   inkscape:export-filename="/home/ziltoid/git/menhyr/png/menhir.png"
   inkscape:export-xdpi="53.890129"
   inkscape:export-ydpi="53.890129">
  <defs
     id="defs4" />
  <sodipodi:namedview
     id="base"
     pagecolor="#ffffff"
     bordercolor="#666666"
     borderopacity="1.0"
     inkscape:pageopacity="0.0"
     inkscape:pageshadow="2"
     inkscape:zoom="0.98994949"
     inkscape:cx="24.606128"
     inkscape:cy="-58.920494"
     inkscape:document-units="px"
     inkscape:current-layer="layer4"
     showgrid="false"
     inkscape:window-width="2560"
     inkscape:window-height="1016"
     inkscape:window-x="0"
     inkscape:window-y="27"
     inkscape:window-maximized="1"
     fit-margin-top="0"
     fit-margin-left="0"
     fit-margin-right="0"
     fit-margin-bottom="0" />
  <metadata
     id="metadata7">
    <rdf:RDF>
      <cc:Work
         rdf:about="">
        <dc:format>image/svg+xml</dc:format>
        <dc:type
           rdf:resource="http://purl.org/dc/dcmitype/StillImage" />
        <dc:title />
      </cc:Work>
    </rdf:RDF>
  </metadata>
  <g
     inkscape:groupmode="layer"
     id="layer2"
     inkscape:label="Repère"
     style="display:none"
     transform="translate(-132.90827,-229.38988)"
     sodipodi:insensitive="true">
    <path
       sodipodi:type="star"
       style="opacity:1;fill:#003880;fill-opacity:0.11440681;stroke:none;stroke-width:1;stroke-linecap:round;stroke-linejoin:round;stroke-miterlimit:4;stroke-dasharray:none;stroke-dashoffset:0;stroke-opacity:1"
       id="path4136"
       sodipodi:sides="6"
       sodipodi:cx="166.67517"
       sodipodi:cy="350.30618"
       sodipodi:r1="144.63184"
       sodipodi:r2="125.25484"
       sodipodi:arg1="1.0471976"
       sodipodi:arg2="1.5707964"
       inkscape:flatsided="true"
       inkscape:rounded="0"
       inkscape:randomized="0"
       d="m 238.99108,475.56103 -144.631833,-1e-5 -72.315912,-125.25484 72.315924,-125.25484 144.631831,0 72.31592,125.25485 z"
       transform="rotate(30.000002,185.1914,381.7103)" />
  </g>
  <g
     inkscape:label="Calque 1"
     inkscape:groupmode="layer"
     id="layer1"
     transform="translate(-132.90827,-229.38988)" />
  <g
     inkscape:groupmode="layer"
     id="layer4"
     inkscape:label="Décor"
     transform="translate(-137.06755,-30.468995)">
    <g
       id="g4214"
       transform="translate(-32.857145,-7.8571437)">
      <path
         inkscape:connector-curvature="0"
         id="path4200"
         d="m 252.79067,195.6065 c -0.80276,1.04005 0.92154,0.73101 1.01016,1.26269 0.0692,0.41517 -0.1331,0.86339 0,1.26269 0.0595,0.17857 0.42089,0.0842 0.50507,0.25254 0.11294,0.22588 0,0.50507 0,0.75761 0,0.16836 0,0.33672 0,0.50508 0,0.84179 0,1.68359 0,2.52538 0,0.4209 0,0.84179 0,1.26269 0,0.0842 0.0266,0.17268 0,0.25254 -0.0595,0.17857 -0.21562,0.3205 -0.25254,0.50508 -0.0495,0.24763 0.14009,0.54749 0,0.75761 -0.0934,0.14008 -0.34535,-0.0532 -0.50507,0 -0.11294,0.0376 -0.18111,0.1573 -0.25254,0.25254 -0.18211,0.24281 -0.24482,0.60146 -0.50508,0.75761 -0.21655,0.12993 -0.54749,-0.14008 -0.75761,0 -0.82137,0.54758 0.69984,0.44016 -0.25254,0.75762 -0.15972,0.0532 -0.33672,0 -0.50508,0 -0.33671,0 -0.67343,0 -1.01015,0 -0.16836,0 -0.33672,0 -0.50507,0 -0.0842,0 -0.1825,-0.0467 -0.25254,0 -0.19811,0.13207 -0.28401,0.41665 -0.50508,0.50507 -0.23448,0.0938 -0.50508,0 -0.75761,0 -0.75762,0 -1.51523,0 -2.27285,0 -0.25253,0 -0.51261,-0.0613 -0.75761,0 -0.11549,0.0289 -0.13511,0.23297 -0.25254,0.25254 -0.41517,0.0692 -0.84179,0 -1.26269,0 -0.25254,0 -0.50508,0 -0.75761,0 -0.0842,0 -0.17725,-0.0376 -0.25254,0 -0.27147,0.13574 -0.46133,0.43924 -0.75762,0.50508 -0.49305,0.10956 -1.01015,0 -1.51523,0 -1.01587,0 -0.49935,0 -1.51522,0 -1.17852,0 -2.35703,0 -3.53554,0 -0.25254,0 -0.50507,0 -0.75761,0 -0.25254,0 -0.50852,0.0415 -0.75762,0 -0.26257,-0.0438 -0.49304,-0.22314 -0.75761,-0.25254 -0.50199,-0.0558 -1.01015,0 -1.51523,0 -0.25254,0 -0.50508,0 -0.75761,0 -0.25254,0 -0.51804,0.0799 -0.75762,0 -0.28794,-0.096 -0.4669,-0.41786 -0.75761,-0.50508 -4.79227,-1.43768 0.96957,0.69248 -3.283,-0.25253 -0.29629,-0.0659 -0.46316,-0.43147 -0.75761,-0.50508 -0.40833,-0.10208 -0.84752,0.0692 -1.26269,0 -0.11743,-0.0196 -0.14606,-0.1993 -0.25254,-0.25254 -0.40546,-0.20273 -0.83264,-0.36172 -1.26269,-0.50508 -3.98236,-1.32745 2.44608,0.9272 -2.27285,-0.25253 -0.29445,-0.0736 -0.49229,-0.35768 -0.75761,-0.50508 -0.63816,-0.35453 -2.64291,-1.31828 -3.283,-1.51523 -0.4894,-0.15058 -1.01847,-0.12835 -1.51523,-0.25254 -0.5165,-0.12912 -1.00159,-0.36499 -1.51522,-0.50507 -0.41411,-0.11294 -0.85549,-0.11681 -1.2627,-0.25254 -0.35714,-0.11905 -0.64956,-0.3969 -1.01015,-0.50508 -0.49045,-0.14713 -1.01847,-0.12835 -1.51523,-0.25254 -0.5165,-0.12912 -0.99872,-0.37595 -1.51523,-0.50507 -0.49675,-0.12419 -1.03401,-0.0776 -1.51522,-0.25254 -0.4613,-0.16774 -0.79704,-0.6024 -1.26269,-0.75761 -0.31944,-0.10648 -0.69072,0.10647 -1.01016,0 -0.22587,-0.0753 -0.29211,-0.3986 -0.50507,-0.50508 -0.31044,-0.15522 -0.68089,-0.14278 -1.01016,-0.25254 -0.43005,-0.14335 -0.84179,-0.33672 -1.26269,-0.50508 -0.50507,-0.0842 -1.02478,-0.1054 -1.51523,-0.25253 -0.75219,-0.22566 -1.5961,-0.96192 -2.27284,-1.26269 -0.31716,-0.14097 -0.69299,-0.11158 -1.01015,-0.25254 -0.44854,-0.19935 -0.84646,-0.49747 -1.26269,-0.75762 -0.75762,-0.47351 -1.51523,-1.07328 -2.27285,-1.51523 -0.48776,-0.28453 -1.04537,-0.44437 -1.51522,-0.75761 -1.03613,-0.69075 -1.50298,-1.40686 -2.52539,-2.0203 -0.48422,-0.29054 -0.9992,-0.52828 -1.51522,-0.75762 -0.24326,-0.10811 -0.53613,-0.10488 -0.75762,-0.25254 -0.29716,-0.1981 -0.45476,-0.56833 -0.75761,-0.75761 -0.38442,-0.24026 -0.87828,-0.26482 -1.26269,-0.50508 -0.30286,-0.18928 -0.48645,-0.52519 -0.75762,-0.75761 -0.31957,-0.27392 -0.69058,-0.4837 -1.01015,-0.75762 -0.27116,-0.23242 -0.46045,-0.5595 -0.75761,-0.75761 -0.2215,-0.14766 -0.53613,-0.10488 -0.75762,-0.25254 -1.67554,-1.11703 0.13725,-0.43645 -1.51523,-1.26269 -0.23809,-0.11905 -0.56938,-0.0643 -0.75761,-0.25254 -0.11905,-0.11905 0.11905,-0.38603 0,-0.50507 -0.11905,-0.11905 -0.35449,0.0753 -0.50508,0 -0.0753,-0.0377 0.0595,-0.19302 0,-0.25254 -0.0595,-0.0595 -0.21489,0.0753 -0.25254,0 -0.0753,-0.15059 0.11905,-0.38603 0,-0.50508 -0.11904,-0.11905 -0.34535,0.0532 -0.50507,0 -0.11294,-0.0377 -0.16836,-0.16836 -0.25254,-0.25254 -0.16836,-0.16836 -0.33672,-0.33671 -0.50508,-0.50507 -0.0842,-0.25254 -0.0928,-0.54466 -0.25254,-0.75762 -0.11293,-0.15058 -0.37197,-0.11944 -0.50507,-0.25254 -0.1331,-0.1331 -0.11944,-0.37197 -0.25254,-0.50507 -0.1331,-0.1331 -0.37198,-0.11944 -0.50508,-0.25254 -1.0445,-1.04451 0.65848,0.10383 -0.25253,-1.26269 -0.0934,-0.14008 -0.3545,0.0753 -0.50508,0 -0.0753,-0.0377 0.0595,-0.19302 0,-0.25254 -0.0595,-0.0595 -0.21489,0.0753 -0.25254,0 -0.0753,-0.15058 0,-0.33672 0,-0.50508 0,-0.0842 0.0467,-0.18249 0,-0.25253 -0.13207,-0.19811 -0.38258,-0.30091 -0.50508,-0.50508 -0.13695,-0.22826 -0.13349,-0.51952 -0.25253,-0.75761 -0.13574,-0.27147 -0.36934,-0.48615 -0.50508,-0.75762 -0.11905,-0.23809 -0.18798,-0.49936 -0.25254,-0.75761 -0.0204,-0.0817 0.0467,-0.1825 0,-0.25254 -0.13207,-0.19811 -0.41665,-0.28401 -0.50507,-0.50508 -0.0938,-0.23447 0.0613,-0.51261 0,-0.75761 -0.0289,-0.11549 -0.16836,-0.16836 -0.25254,-0.25254 -0.16836,-0.16836 -0.37301,-0.30697 -0.50508,-0.50508 -0.0467,-0.07 0,-0.16835 0,-0.25253 0,-0.16836 0.0753,-0.3545 0,-0.50508 -0.33672,-0.67344 -0.25254,0.75761 -0.25254,-0.25254 0,-0.16836 0,-0.33672 0,-0.50507 0,-0.0842 0.0467,-0.1825 0,-0.25254 -0.13207,-0.19811 -0.41665,-0.28401 -0.50507,-0.50508 -0.31944,-0.28488 0.10648,-0.69071 0,-1.01015 -0.29019,-0.87055 -0.25254,-0.18707 -0.25254,-0.75762 0,-0.25253 0,-0.50507 0,-0.75761 0,-0.16836 0.11905,-0.38603 0,-0.50508 -0.11905,-0.11904 -0.35449,0.0753 -0.50508,0 -0.0753,-0.0376 0,-0.16836 0,-0.25254 0,-0.42089 0,-0.84179 0,-1.26269 0,-1.01015 0.0842,0.4209 -0.25254,-0.25253 -0.0753,-0.15059 0,-0.33672 0,-0.50508 0,-0.25254 0,-0.50508 0,-0.75761 0,-0.75762 0,-1.51523 0,-2.27285 0,-0.25254 0,-0.50507 0,-0.75761 0,-0.0842 -0.0595,-0.19302 0,-0.25254 0.0595,-0.0595 0.2149,0.0753 0.25254,0 0.0753,-0.15059 0,-0.33672 0,-0.50508 0,-0.0842 -0.0595,-0.19301 0,-0.25253 0.0595,-0.0595 0.21489,0.0753 0.25254,0 0.0753,-0.15059 0,-0.33672 0,-0.50508 0,-0.0842 -0.0753,-0.21489 0,-0.25254 1.34687,-0.67343 -0.16836,0.84179 0.50508,-0.50508 0.0376,-0.0753 0.17268,0.0266 0.25254,0 0.17857,-0.0595 0.3265,-0.19301 0.50507,-0.25253 0.0799,-0.0266 0.21489,0.0753 0.25254,0 0.0753,-0.15059 -0.11905,-0.38603 0,-0.50508 0.12627,-0.12627 0.56821,0.0631 0.75761,0 0.17858,-0.0595 0.32651,-0.19301 0.50508,-0.25254 0.0799,-0.0266 0.1825,0.0467 0.25254,0 0.19811,-0.13207 0.33672,-0.33672 0.50507,-0.50507 0.0842,-0.0842 0.1396,-0.2149 0.25254,-0.25254 0.15972,-0.0532 0.38603,0.11905 0.50508,0 0.11905,-0.11905 -0.0753,-0.35449 0,-0.50508 0.0376,-0.0753 0.16836,0 0.25254,0 0.67343,0 1.34687,0 2.0203,0 0.0842,0 0.16836,0 0.25254,0 0.16836,0 0.35449,0.0753 0.50508,0 0.0753,-0.0376 -0.0595,-0.19301 0,-0.25254 0.0595,-0.0595 0.16836,0 0.25253,0 0.16836,0 0.33672,0 0.50508,0 1.01015,0 2.02031,0 3.03046,0 0.75761,0 1.51523,0 2.27284,0 0.25254,0 0.50508,0 0.75762,0 0.0842,0 0.18249,0.0467 0.25253,0 0.19811,-0.13207 0.28401,-0.41665 0.50508,-0.50507 0.23448,-0.0938 0.50508,0 0.75762,0 0.58925,0 1.17851,0 1.76776,0 0.92598,0 1.85195,0 2.77792,0 0.0842,0 0.16836,0 0.25254,0 0.25254,0 0.50851,-0.0415 0.75761,0 0.26258,0.0438 0.49348,0.21952 0.75762,0.25254 0.41765,0.0522 0.84179,0 1.26269,0 0.25254,0 0.50508,0 0.75761,0 0.25254,0 0.50508,0 0.75762,0 0.0842,0 0.18249,-0.0467 0.25254,0 0.1981,0.13207 0.29211,0.39859 0.50507,0.50507 0.31044,0.15522 0.67344,0.16836 1.01016,0.25254 0.67343,0.16836 1.34155,0.35963 2.0203,0.50508 0.50068,0.10728 1.01847,0.12835 1.51523,0.25253 0.5165,0.12913 0.99873,0.37595 1.51523,0.50508 1.43751,0.35938 1.65629,0.0705 3.03046,0.75761 0.37646,0.18824 0.64923,0.54107 1.01015,0.75762 0.48422,0.29053 1.01015,0.50508 1.51523,0.75761 0.67343,0.33672 1.33802,0.69176 2.0203,1.01016 0.58095,0.2711 1.22178,0.42162 1.76777,0.75761 0.55993,0.34457 0.96218,0.90716 1.51523,1.26269 0.63334,0.40715 1.39383,0.59251 2.0203,1.01015 0.64575,0.4305 1.14689,1.04958 1.76777,1.51523 1.18553,0.88915 3.02533,1.9629 4.29315,2.77792 0.51062,0.32826 1.02961,0.64594 1.51523,1.01015 0.52597,0.39448 0.95529,0.91812 1.51523,1.2627 0.54599,0.33599 1.19435,0.4709 1.76776,0.75761 0.43903,0.21951 0.83871,0.51029 1.26269,0.75761 0.48485,0.28283 3.77375,2.15848 4.04061,2.27285 0.39453,0.16908 0.86079,0.10182 1.26269,0.25254 0.98438,0.36914 0.49291,0.36967 1.01016,0.75761 0.24281,0.18211 0.48614,0.36934 0.75761,0.50508 2.1462,0.7154 -0.47058,-0.28235 1.26269,0.75761 0.22826,0.13696 0.49937,0.18798 0.75762,0.25254 0.0817,0.0204 0.21489,-0.0753 0.25253,0 0.0753,0.15058 -0.11904,0.38603 0,0.50507 0.11905,0.11905 0.33672,0 0.50508,0 0.0842,0 0.19301,-0.0595 0.25254,0 0.0595,0.0595 0,0.16836 0,0.25254 0.16836,0 0.36499,-0.0934 0.50507,0 0.15662,0.10441 0.1557,0.34367 0.25254,0.50508 0.15616,0.26026 0.26808,0.56801 0.50508,0.75761 1.84522,1.47618 -0.54366,-1.63147 1.76777,1.01016 0.32322,0.3694 0.41053,0.91561 0.75761,1.26269 0.34708,0.34708 0.87001,0.4631 1.26269,0.75761 0.0416,0.0312 1.48385,1.49431 1.51523,1.51523 0.22149,0.14766 0.54466,0.0928 0.75761,0.25254 0.15059,0.11294 0.16836,0.33672 0.25254,0.50507 0.25254,0.25254 0.46046,0.55951 0.75762,0.75762 2.5378,1.69186 -1.89452,-2.2522 2.0203,1.01015 0.1446,0.1205 0.11944,0.37198 0.25254,0.50508 0.1331,0.1331 0.3265,0.19301 0.50508,0.25254 0.0799,0.0266 0.21489,-0.0753 0.25253,0 0.67344,1.34687 -0.84179,-0.16836 0.50508,0.50507 0.0753,0.0377 0,0.16836 0,0.25254 0,1.43105 -0.16836,0.0842 0.25254,0.50508 0.0595,0.0595 -0.0753,0.21489 0,0.25253 0.15058,0.0753 0.33672,0 0.50508,0 0.0842,0 0.21489,-0.0753 0.25253,0 0.0753,0.15059 0,0.33672 0,0.50508 0,0.0842 -0.0753,0.21489 0,0.25254 0.15059,0.0753 0.38603,-0.11905 0.50508,0 0.11905,0.11905 -0.0532,0.34536 0,0.50508 0.0376,0.11293 0.16836,0.16835 0.25254,0.25253 0.16836,0.16836 0.373,0.30697 0.50507,0.50508 0.0467,0.07 0,0.16836 0,0.25254 0,0.16836 -0.0753,0.35449 0,0.50507 0.0376,0.0753 0.19302,-0.0595 0.25254,0 0.0595,0.0595 0,0.16836 0,0.25254 0,0.16836 -0.11905,0.38603 0,0.50508 0.11905,0.11905 0.35449,-0.0753 0.50508,0 0.0753,0.0376 -0.0433,0.18035 0,0.25254 0.21655,0.36091 0.50507,0.67343 0.75761,1.01015 z"
         style="fill:#777d5f;fill-opacity:0.46610173;fill-rule:evenodd;stroke:none;stroke-width:1px;stroke-linecap:butt;stroke-linejoin:miter;stroke-opacity:1" />
      <path
         inkscape:connector-curvature="0"
         id="path4184"
         d="m 183.92857,179.87013 c 2.14893,-6.98757 6.03326,-13.36495 7.09697,-20.70553 1.46922,-7.67302 5.16239,-14.64318 7.02081,-22.2174 2.46414,-8.25624 6.71187,-16.20837 6.6708,-24.99183 0.99887,-5.99581 1.50613,-12.134653 2.07562,-18.238512 1.44014,-4.939721 0.19925,-10.465389 1.06592,-15.632234 0.10298,-4.838175 1.06507,-9.191243 1.26438,-14.125485 1.22075,-6.504826 0.0563,-13.340453 4.50661,-18.668636 1.39366,-4.245641 5.97988,-10.893832 9.42024,-3.942786 2.55128,4.495465 4.98691,9.386758 9.75838,12.000397 5.17586,2.434238 8.49454,7.347189 6.50352,13.042248 -1.51146,6.21284 -1.94668,12.7162 -1.82876,19.141825 -0.0697,7.901031 2.1,15.593833 3.0055,23.392083 0.99957,7.11115 1.2565,14.32341 3.10872,21.32252 0.84757,9.90582 3.84484,19.53213 3.87464,29.53128 0.27574,6.37482 0.94835,12.72901 1.81379,19.01558 0.5402,5.35209 1.55404,10.42311 2.22245,15.82351 1.91731,7.48923 -6.88671,8.15641 -11.86504,6.31892 -5.43431,-1.38843 -10.89243,0.43773 -16.42384,1.23336 -6.37935,1.59873 -10.72244,-4.5081 -16.3882,-6.20283 -5.57852,-1.93617 -9.73172,-6.44765 -15.40251,-7.88219 -1.99187,-2.99263 -7.37454,-3.78984 -7.5,-8.21429 z"
         style="fill:#bab6a6;fill-opacity:1;fill-rule:evenodd;stroke:none;stroke-width:1px;stroke-linecap:butt;stroke-linejoin:miter;stroke-opacity:1" />
      <path
         inkscape:connector-curvature="0"
         id="path4188"
         d="m 248.49752,197.87934 c -1.40262,-9.49374 0.63037,-19.95732 -3.19149,-29.24855 -1.66732,-9.5035 -3.6499,-19.04877 -4.61119,-28.67679 -1.41291,-9.819 -2.13732,-19.72715 -3.52764,-29.49987 0.28377,-8.62226 -3.19429,-16.76733 -2.55927,-25.459329 -2.5425,-8.361535 4.35664,-16.222396 2.42874,-24.805109 -5.97036,-2.561023 -12.55018,-7.576753 -15.5757,-13.940285 -2.00906,7.965811 -3.33865,16.583983 -1.18074,24.661671 1.04422,7.721359 0.7499,15.641739 2.90184,23.066437 5.98111,6.799855 -6.32738,17.475085 0.52319,22.982125 3.76354,5.65478 5.65938,14.31376 5.59201,21.41025 -1.30976,7.0509 -11.9389,4.91661 -11.07077,14.01118 -0.31812,3.35353 -1.17072,9.8011 -1.0437,15.42803 0.10899,4.45411 -0.50741,8.98566 1.06321,13.23846 0.40926,7.26705 -2.38773,18.56218 8.86532,17.64433 6.54493,-0.65439 17.74746,-0.82938 21.38619,0.1976"
         style="fill:#c8c4b7;fill-rule:evenodd;stroke:none;stroke-width:1px;stroke-linecap:butt;stroke-linejoin:miter;stroke-opacity:1" />
      <path
         inkscape:connector-curvature="0"
         id="path4194"
         d="m 216.43016,38.326157 c -2.33567,-0.0098 -4.58158,4.045966 -5.4536,6.964844 -4.05032,5.328182 -2.98985,12.163143 -4.10087,18.667968 -0.1814,4.934242 -1.05638,9.286826 -1.15009,14.125 -0.78878,5.166845 0.34013,10.693092 -0.97057,15.632813 -0.5183,6.103858 -0.98047,12.242468 -1.88956,18.238278 0.0374,8.78346 -3.82777,16.73595 -6.07042,24.99219 -1.69139,7.57421 -5.05323,14.54377 -6.3904,22.21679 -0.9417,7.1404 -4.30227,13.37485 -6.28551,20.14063 0.0694,0.13179 0.14731,0.25869 0.21331,0.39258 0.48957,0.99306 0.91794,2.01914 1.37762,3.02929 0.22927,0.50383 0.45745,1.00854 0.68793,1.51172 1.53734,1.24834 3.39617,2.23343 4.37283,3.8457 3.26361,0.90713 5.97696,3.04377 8.81323,4.98243 -0.0125,-0.23397 0.26134,-0.55463 0.14754,-0.74219 -0.1202,-0.1981 -0.34019,-0.30776 -0.46039,-0.50586 -0.0425,-0.07 0,-0.16777 0,-0.25195 0,-0.16836 0.0685,-0.35527 0,-0.50586 -0.0343,-0.0753 -0.17514,0.0595 -0.22931,0 -0.0541,-0.0595 0.0343,-0.17666 0,-0.25196 -0.12353,-0.27147 -0.33685,-0.48634 -0.46039,-0.75781 -0.10834,-0.2381 -0.14424,-0.50856 -0.22931,-0.75781 -0.14487,-0.42446 -0.32993,-0.83166 -0.46039,-1.26172 -0.0999,-0.32926 -0.10488,-0.6927 -0.22931,-1.01172 -0.10881,-0.27897 -0.37304,-0.46987 -0.46039,-0.75781 -0.0727,-0.23958 0.0451,-0.50822 0,-0.75586 -0.36689,-2.01561 -0.22931,1.84614 -0.22931,-1.51563 v -0.50585 c 0,-0.0842 0.0342,-0.17667 0,-0.25196 -0.12354,-0.27147 -0.39162,-0.46336 -0.45862,-0.75781 -0.0929,-0.40833 0,-0.84278 0,-1.26367 v -0.75586 c 0,-0.0842 0.0186,-0.17224 0,-0.25391 -0.0588,-0.25825 -0.20103,-0.49367 -0.23107,-0.75781 -0.0475,-0.41765 0,-0.84083 0,-1.26172 v -3.2832 -2.01953 c 0,-0.25254 -0.0558,-0.51282 0,-0.75782 0.0263,-0.11549 0.21575,-0.13604 0.23107,-0.2539 0.065,-0.5 -0.0508,-1.01169 0,-1.51367 0.0268,-0.26457 0.20255,-0.49325 0.22931,-0.75782 0.0508,-0.50199 -0.11149,-1.02562 0,-1.51562 0.0525,-0.23098 0.3054,-0.33751 0.45862,-0.50586 0.0766,-0.33672 0.19966,-0.66441 0.23109,-1.00977 0.0458,-0.50257 -0.0997,-1.02257 0,-1.51562 0.0599,-0.29628 0.37125,-0.46987 0.45861,-0.75781 0.14736,-0.48577 0.11806,-1.01692 0.23108,-1.51368 0.11752,-0.5165 0.33113,-1.00198 0.45862,-1.51562 0.10279,-0.41411 0.10755,-0.85646 0.23108,-1.26367 0.10835,-0.35714 0.35027,-0.65263 0.45862,-1.00977 0.12353,-0.40721 0.0706,-0.86948 0.2293,-1.26172 0.15558,-0.38462 0.51839,-0.63526 0.6897,-1.01172 0.21669,-0.47619 0.27403,-1.02223 0.4604,-1.51367 0.19766,-0.52126 0.52718,-0.97991 0.6897,-1.51562 1.00629,-3.31702 -0.74204,0.31473 0.919,-3.03125 0.21393,-0.43091 0.47578,-0.83081 0.6897,-1.26172 0.2461,-0.49574 0.45987,-1.01055 0.68971,-1.51563 0.22984,-0.50507 0.42527,-1.0314 0.6897,-1.51562 0.1939,-0.82787 1.00504,-1.10946 1.37939,-1.76758 1.20315,-3.30492 -0.32356,0.40633 1.14832,-2.01953 0.13439,-0.22149 0.13388,-0.51314 0.22931,-0.75781 0.13497,-0.34603 0.30717,-0.67305 0.46039,-1.00977 0.0766,-0.16835 0.14116,-0.34446 0.22931,-0.50586 0.14211,-0.26026 0.29466,-0.515 0.46039,-0.75781 0.32672,-0.47863 0.42092,-0.12383 0.6897,-1.00977 0.1817,-0.3885 -0.12114,-0.86437 0,-1.26367 0.0342,-0.11294 0.20302,-0.13646 0.2293,-0.25195 0.0558,-0.245 -0.0854,-0.52334 0,-0.75781 0.0805,-0.22107 0.37992,-0.28284 0.4604,-0.50391 0.0854,-0.23447 -0.0557,-0.51282 0,-0.75781 0.0263,-0.1155 0.19505,-0.14097 0.22931,-0.25391 0.0484,-0.15972 0,-0.33555 0,-0.50391 0,-0.0842 -0.0342,-0.1786 0,-0.2539 0.12354,-0.27147 0.37126,-0.46792 0.45861,-0.75586 0.18171,-0.3885 -0.12114,-0.86437 0,-1.26367 0.0342,-0.11294 0.2048,-0.13647 0.23109,-0.25196 0.0558,-0.245 0,-0.50528 0,-0.75781 0,-0.16836 -0.085,-0.36578 0,-0.50586 0.095,-0.15662 0.36358,-0.0953 0.45861,-0.25195 0.085,-0.14008 0,-0.33751 0,-0.50586 v -0.75781 c 0.0766,0 0.17692,0.0595 0.23109,0 0.0542,-0.0595 0,-0.16778 0,-0.25196 0,-0.16836 -0.085,-0.36382 0,-0.5039 0.095,-0.15662 0.36358,-0.0973 0.45861,-0.25391 0.085,-0.14008 0,-0.33555 0,-0.5039 v -0.25391 c 0,-0.16835 -0.0484,-0.34419 0,-0.50391 0.0342,-0.11294 0.19683,-0.14096 0.23108,-0.2539 0.0484,-0.15972 0,-0.33555 0,-0.50391 0,-0.0842 -0.0685,-0.21431 0,-0.25195 0.13706,-0.0753 0.35027,0.11904 0.45862,0 0,-0.34213 -0.01,-0.51097 -0.0178,-0.59766 -0.0121,-0.0767 -0.0105,-0.11198 0,0 0.0177,0.1123 0.0739,0.28208 0.24708,0.0918 0.0541,-0.0595 0,-0.16778 0,-0.25196 v -0.50586 -1.51562 c 0,-0.0842 0.0541,-0.19243 0,-0.25195 -0.0542,-0.0595 -0.19504,0.0753 -0.22931,0 -0.0685,-0.15059 0,-0.3375 0,-0.50586 v -1.00977 c 0,-0.16836 0.0484,-0.34418 0,-0.5039 -0.0342,-0.11294 -0.19504,-0.14097 -0.2293,-0.25391 -0.0484,-0.15971 0,-0.33555 0,-0.50391 0,-0.0842 0.0685,-0.21625 0,-0.2539 -0.13705,-0.0753 -0.35205,0.11905 -0.4604,0 -0.32504,-0.1046 0.16252,-0.57925 0,-0.75782 -0.0542,-0.0595 -0.19505,0.0753 -0.22931,0 -0.0685,-0.15059 0,-0.33554 0,-0.5039 0,-0.0842 0.0685,-0.21431 0,-0.25196 -0.13705,-0.0753 -0.35204,0.11905 -0.46039,0 -0.10835,-0.11904 0,-0.3375 0,-0.50585 0,-0.0842 0.0541,-0.19244 0,-0.25196 -0.0541,-0.0595 -0.19504,0.0753 -0.22931,0 -0.0685,-0.15059 0.10835,-0.38681 0,-0.50586 -0.10834,-0.11905 -0.32334,0.0753 -0.46039,0 -0.0685,-0.0376 0,-0.16777 0,-0.25195 v -2.02148 -0.25196 c 0,-0.16836 -0.0685,-0.35527 0,-0.50586 0.0342,-0.0753 0.17691,0.0595 0.23109,0 0.0541,-0.0595 0,-0.16778 0,-0.25195 v -1.26172 c 0,-0.0842 -0.0425,-0.18387 0,-0.25391 0.1202,-0.1981 0.37814,-0.28283 0.45861,-0.5039 0.0854,-0.23448 0,-0.50528 0,-0.75781 v -0.75782 c 0,-0.0842 -0.0541,-0.19242 0,-0.25195 0.0541,-0.0595 0.19682,0.0753 0.23109,0 0.0685,-0.15058 0,-0.3375 0,-0.50586 v -1.00976 c 0,-0.16835 -0.085,-0.36578 0,-0.50586 0.095,-0.15662 0.382,-0.0836 0.45861,-0.25196 0.10278,-0.22588 -0.0451,-0.51018 0,-0.75781 0.0336,-0.18458 0.19749,-0.32129 0.23108,-0.50586 0.0451,-0.24763 -0.10278,-0.52998 0,-0.75586 0.0766,-0.16835 0.3636,-0.0973 0.45862,-0.2539 0.085,-0.14009 0,-0.33555 0,-0.50391 v -2.27344 -0.25195 c 0,-0.16836 0.03,-0.34077 0,-0.50586 -0.1265,-0.69497 -0.31305,-0.93625 -0.6897,-1.51563 -0.22266,-0.34248 -0.53413,-0.625136 -0.6897,-1.009756 -0.15866,-0.392238 -0.0706,-0.869482 -0.22931,-1.261719 -0.15557,-0.384621 -0.45985,-0.675001 -0.68969,-1.011719 -0.15323,-0.420897 -0.31376,-0.837263 -0.45862,-1.261719 -0.0851,-0.249249 -0.17232,-0.499561 -0.23108,-0.757812 -0.046,-0.20203 0.0919,-0.60629 0,-0.757812 -0.095,-0.156618 -0.36359,-0.09534 -0.45862,-0.251954 -0.085,-0.140083 0,-0.3375 0,-0.505859 v -1.515625 -2.271484 -0.253907 c 0,-0.168358 -0.0685,-0.353321 0,-0.503906 0.0342,-0.07529 0.17512,0.05952 0.2293,0 0.0542,-0.05952 0,-0.167774 0,-0.251953 V 87.01561 86.509751 c 0,-0.08418 -0.0425,-0.181913 0,-0.251954 0.1202,-0.198107 0.3402,-0.307751 0.4604,-0.505859 0.0425,-0.07004 0,-0.167773 0,-0.251953 v -0.757812 c 0,-0.964666 -0.0489,-0.03861 0.22931,-1.261719 0.0186,-0.08167 0,-0.169728 0,-0.253907 v -1.261718 c 0,-0.08418 -0.0342,-0.178614 0,-0.253906 0.12354,-0.27147 0.37126,-0.467922 0.45861,-0.75586 0.0727,-0.239579 -0.0378,-0.508709 0,-0.757812 0.0399,-0.262576 0.20104,-0.49367 0.23109,-0.757813 0.0475,-0.417647 -0.12114,-0.864374 0,-1.263672 0.0541,-0.178571 0.40444,-0.07339 0.45861,-0.251953 0.40861,-1.34687 -0.24516,-0.942035 0,-2.019531 0.0263,-0.115493 0.21328,-0.136478 0.23109,-0.253906 0.063,-0.41517 0,-0.840822 0,-1.261719 0,-0.252538 -0.0727,-0.518234 0,-0.757813 0.0874,-0.287938 0.38272,-0.465977 0.45861,-0.757812 0.0842,-0.323762 -0.0504,-0.67763 0,-1.009766 0.0281,-0.18567 0.19749,-0.321284 0.23108,-0.505859 0.0451,-0.247634 0,-0.505275 0,-0.757813 0,-0.252538 -0.10278,-0.531935 0,-0.757812 0.0766,-0.168359 0.40445,-0.07339 0.45862,-0.251953 0.12114,-0.399298 0,-0.840822 0,-1.261719 v -1.769531 -0.503906 c 0,-0.08418 -0.0242,-0.172095 0,-0.251954 0.0541,-0.178572 0.20114,-0.32019 0.22931,-0.505859 0.0504,-0.332137 0,-0.673049 0,-1.009766 V 62.26561 56.710923 54.437485 53.933579 c 0,-0.252538 -0.10279,-0.531936 0,-0.757813 0.0766,-0.168359 0.38378,-0.08555 0.46039,-0.253906 0.10278,-0.225877 0,-0.505275 0,-0.757813 v -2.019531 -0.251953 c 0,-0.168358 -0.0685,-0.355274 0,-0.505859 0.0342,-0.07529 0.17514,0.05952 0.22931,0 0.0541,-0.05952 0,-0.167774 0,-0.251953 v -0.50586 -0.757812 c 0,-0.08418 -0.0685,-0.214307 0,-0.251953 0.13705,-0.07529 0.35204,0.119048 0.46039,0 0.10835,-0.119048 0,-0.337501 0,-0.50586 v -0.755859 c 0,-0.08418 -0.0541,-0.194382 0,-0.253906 0.0541,-0.05952 0.19505,0.07529 0.22931,0 0.0685,-0.150584 0,-0.335548 0,-0.503907 0,-0.08418 -0.0685,-0.21626 0,-0.253906 0.13705,-0.07529 0.35205,0.119047 0.46039,0 0.32505,-0.104605 -0.16252,-0.57924 0,-0.757812 0.0542,-0.05952 0.19505,0.07529 0.22931,0 0.0685,-0.150584 0,-0.335548 0,-0.503907 0,-0.08418 -0.0685,-0.214307 0,-0.251953 0.13705,-0.07529 0.35204,0.119048 0.46039,0 0.37377,-0.410684 -0.37318,-0.537151 0.22931,-0.757812 0.14536,-0.05324 0.35205,0.119047 0.46039,0 0.10835,-0.119048 -0.0685,-0.355275 0,-0.50586 0.0343,-0.07529 0.17514,0.05952 0.2293,0 0.0542,-0.05952 -0.0685,-0.214307 0,-0.251953 0.13706,-0.07529 0.35205,0.119048 0.4604,0 0.10834,-0.119047 -0.0685,-0.355274 0,-0.505859 0.0342,-0.07529 0.1527,0 0.22931,0 h 1.14832 0.23108 c 0.15322,0 0.32157,-0.07529 0.45861,0 0.0685,0.03765 -0.0541,0.192429 0,0.251953 0.0542,0.05952 0.15448,0 0.23109,0 h 1.11099 c -0.12158,-0.237658 -0.24614,-0.478979 -0.36797,-0.714844 -0.97847,-2.172201 -2.05975,-3.017047 -3.12142,-3.021484 z"
         style="fill:#afaa97;fill-opacity:1;fill-rule:evenodd;stroke:none;stroke-width:1px;stroke-linecap:butt;stroke-linejoin:miter;stroke-opacity:1" />
      <path
         id="path4206"
         transform="translate(0,-1.5258791e-5)"
         d="m 216.42969,38.326172 c -2.33567,-0.0098 -4.58111,4.045966 -5.45313,6.964844 -4.05032,5.32818 -2.99054,12.163145 -4.10156,18.667968 -0.1814,4.934242 -1.05473,9.286828 -1.14844,14.125 -0.78878,5.166845 0.34,10.693092 -0.9707,15.632813 -0.5183,6.103856 -0.98154,12.242473 -1.89063,18.238283 0.0374,8.78346 -3.82766,16.73595 -6.07031,24.99219 -1.69139,7.57419 -5.05345,14.54377 -6.39062,22.21679 -0.9417,7.1404 -4.30192,13.37485 -6.28516,20.14063 -0.0611,0.18968 -0.1328,0.37585 -0.19141,0.5664 0.0531,1.87307 1.06629,3.08297 2.34766,4.09766 0.041,0.0899 0.0819,0.17976 0.12305,0.26953 1.53734,1.24834 3.39638,2.23343 4.37304,3.8457 3.26361,0.90713 5.97623,3.04377 8.8125,4.98243 -0.0125,-0.23397 0.26224,-0.55463 0.14844,-0.74219 -0.0708,-0.1167 -0.17222,-0.20736 -0.27148,-0.29883 2.34546,1.49042 4.69443,3.0124 7.37109,3.94141 5.66576,1.69473 10.00737,7.80185 16.38672,6.20312 5.53141,-0.79563 10.98952,-2.6228 16.42383,-1.23437 3.03828,1.12142 7.49083,1.29986 10.07226,-0.42578 -0.0636,-0.20688 -0.0877,-0.43045 -0.20703,-0.60938 -0.19811,-0.29716 -0.50527,-0.50527 -0.75781,-0.75781 -0.25254,-0.25254 -0.4721,-0.54353 -0.75781,-0.75781 -0.39268,-0.29451 -0.86905,-0.46331 -1.26172,-0.75782 -0.28572,-0.21428 -0.46719,-0.55023 -0.75781,-0.75781 -0.30634,-0.21881 -0.68068,-0.32303 -1.00977,-0.50586 -0.42908,-0.23837 -0.83276,-0.52082 -1.26367,-0.75586 -0.49574,-0.27041 -1.03141,-0.46727 -1.51563,-0.75781 -0.36091,-0.21655 -0.61897,-0.60149 -1.00976,-0.75781 -0.47542,-0.19017 -1.03442,-0.0789 -1.51563,-0.25391 -0.46129,-0.16774 -0.83264,-0.51749 -1.26172,-0.75586 -0.32909,-0.18283 -0.66374,-0.35756 -1.00976,-0.50586 -0.24468,-0.10486 -0.50856,-0.15848 -0.75781,-0.25195 -0.42445,-0.15917 -0.83362,-0.36251 -1.26368,-0.50586 -0.0799,-0.0266 -0.17209,0.0266 -0.25195,0 -0.17857,-0.0595 -0.3375,-0.16777 -0.50586,-0.25195 -0.33672,-0.16836 -0.65261,-0.38681 -1.00976,-0.50586 -0.74584,-0.24861 -1.13632,-0.36519 -1.40235,-0.43555 1.19562,0.65389 -1.1475,-0.30351 0,0 -0.15686,-0.0858 -0.31763,-0.17249 -0.61719,-0.32227 -0.0753,-0.0377 -0.16972,0 -0.2539,0 -0.25254,-0.0842 -0.51972,-0.1329 -0.75781,-0.25195 -0.27147,-0.13574 -0.52269,-0.31155 -0.75586,-0.50586 -0.27436,-0.22863 -0.43838,-0.59809 -0.75782,-0.75781 -0.38392,-0.19196 -0.87976,-0.06 -1.26367,-0.25195 -0.31944,-0.15972 -0.49088,-0.52055 -0.75781,-0.75782 -0.49139,-0.4368 -1.00223,-0.85101 -1.51563,-1.26172 -0.32865,-0.26293 -0.67752,-0.4994 -1.00976,-0.75781 -0.52524,-0.40852 -1.66262,-1.36166 -2.27148,-1.76758 -1.27164,-0.84775 -1.17243,-0.57189 -2.27344,-1.51562 -1.25708,-1.0775 -0.37532,-0.67266 -2.02149,-2.01953 -0.46981,-0.38439 -1.02805,-0.64751 -1.51367,-1.01172 -0.50228,-0.37671 -2.04897,-1.65895 -2.52539,-2.27148 -0.30135,-0.38746 -0.46331,-0.871 -0.75781,-1.26368 -0.21429,-0.28571 -0.52917,-0.48345 -0.75781,-0.75781 -0.1943,-0.23317 -0.32375,-0.515 -0.50586,-0.75781 -0.38793,-0.51725 -0.38868,-0.0254 -0.75782,-1.00977 -0.15071,-0.4019 -0.10123,-0.85981 -0.25195,-1.26172 -0.52356,-1.39616 -0.52259,-0.10428 -0.75781,-1.51562 -0.0415,-0.2491 0,-0.50527 0,-0.75781 0,-0.25254 0.11294,-0.53194 0,-0.75782 -0.0842,-0.16835 -0.4522,-0.0709 -0.50391,-0.25195 -0.13875,-0.48565 0,-1.01055 0,-1.51562 v -0.75782 -2.01953 c 0,-0.25254 0.0415,-0.5087 0,-0.75781 -0.0438,-0.26257 -0.2245,-0.49324 -0.2539,-0.75781 -0.0558,-0.50199 0,-1.01055 0,-1.51563 v -0.75781 -0.25195 c 0,-0.25254 0.0938,-0.52334 0,-0.75782 -0.0884,-0.22106 -0.42862,-0.27999 -0.50391,-0.50586 -0.10648,-0.31944 0,-0.67305 0,-1.00976 v -0.75781 c 0,-0.25254 0.0415,-0.50872 0,-0.75782 -0.0438,-0.26258 -0.22089,-0.49367 -0.25391,-0.75781 -0.0522,-0.41764 0.0913,-0.85084 0,-1.26172 -0.0817,-0.3675 -0.42223,-0.64226 -0.5039,-1.00976 -0.0913,-0.41088 0,-0.84279 0,-1.26367 v -1.00977 c 0,-0.16836 0.033,-0.33882 0,-0.50391 -0.0522,-0.26103 -0.20819,-0.49523 -0.25196,-0.75781 -0.0415,-0.2491 0,-0.50527 0,-0.75781 v -1.76758 -0.50586 c 0,-0.0842 0.0377,-0.17666 0,-0.25195 -0.13573,-0.27147 -0.40988,-0.46988 -0.50586,-0.75781 -0.0799,-0.23957 0,-0.50528 0,-0.75782 v -2.77734 -0.75781 c 0,-0.0842 0.0204,-0.17225 0,-0.25391 -0.0646,-0.25825 -0.21893,-0.49171 -0.25195,-0.75586 -0.0522,-0.41764 0,-0.84277 0,-1.26367 v -0.75781 -4.04102 c 0,-2.44595 0.17779,0.78922 -0.50586,-1.26172 -0.10648,-0.31944 0,-0.67305 0,-1.00976 v -3.03125 -3.53516 -1.00977 c 0,-0.16836 -0.033,-0.34078 0,-0.50586 0.0522,-0.26102 0.21432,-0.49429 0.25195,-0.75781 0.0476,-0.33333 0,-0.67304 0,-1.00976 0,-0.16836 -0.0625,-0.34954 0,-0.50586 0.11272,-0.2818 0.42248,-0.46599 0.50586,-0.75781 0.0925,-0.32376 -0.0476,-0.67643 0,-1.00977 0.0376,-0.26352 0.22256,-0.49324 0.25196,-0.75781 0.0558,-0.50199 -0.10957,-1.02063 0,-1.51368 0.0658,-0.29627 0.39929,-0.47362 0.50586,-0.75781 0.15072,-0.40191 0.13901,-0.84957 0.25195,-1.26367 0.14008,-0.51364 0.35287,-1.00568 0.50586,-1.51562 0.0997,-0.33245 0.14219,-0.68051 0.25195,-1.00977 0.14335,-0.43006 0.36251,-0.83166 0.50586,-1.26172 0.10976,-0.32926 0.1422,-0.68245 0.25196,-1.01172 0.14334,-0.43005 0.36054,-0.83166 0.5039,-1.26172 0.10975,-0.32927 0.14416,-0.68049 0.25391,-1.00976 0.14336,-0.43006 0.36055,-0.83361 0.5039,-1.26367 0.10976,-0.32927 0.14415,-0.6805 0.25391,-1.00977 0.14335,-0.43006 0.36056,-0.83166 0.50391,-1.26172 0.10976,-0.32926 0.14415,-0.68245 0.2539,-1.01172 0.14336,-0.43005 0.42282,-0.81571 0.50391,-1.26172 0.0904,-0.49693 -0.0714,-1.01562 0,-1.51562 0.0168,-0.11785 0.23238,-0.13452 0.25195,-0.25195 0.0692,-0.41517 -0.10208,-0.85535 0,-1.26368 0.0736,-0.294438 0.42248,-0.465973 0.50586,-0.757808 0.0925,-0.323762 -0.0476,-0.676433 0,-1.009766 0.0376,-0.263523 0.20819,-0.495236 0.25195,-0.757812 0.0415,-0.249102 0,-0.505275 0,-0.757813 0,-0.252538 -0.0938,-0.521383 0,-0.755859 0.0884,-0.221066 0.44811,-0.274874 0.50586,-0.50586 0.1225,-0.489995 0,-1.010549 0,-1.515624 0,-0.252538 -0.0613,-0.512815 0,-0.757813 0.0289,-0.115493 0.16778,-0.167773 0.25196,-0.251953 V 91.8125 91.056641 c 0,-0.252538 -0.11294,-0.531936 0,-0.757813 0.0842,-0.168359 0.42168,-0.08555 0.50586,-0.253906 0.11294,-0.225877 0,-0.505275 0,-0.757813 v -0.503906 -0.757812 c 0,-0.08418 -0.0266,-0.172094 0,-0.251953 0.0595,-0.178571 0.21504,-0.321284 0.25195,-0.50586 0.0495,-0.247634 0,-0.505274 0,-0.757812 v -0.251954 c 0,-0.168358 -0.0625,-0.349541 0,-0.505859 0.11272,-0.281804 0.42248,-0.465977 0.50586,-0.757812 0.0925,-0.323762 -0.0476,-0.676432 0,-1.009766 0.0376,-0.263523 0.21893,-0.49367 0.25195,-0.757813 0.0522,-0.417646 -0.10209,-0.853388 0,-1.261718 0.0736,-0.294451 0.42248,-0.465978 0.50586,-0.757813 0.0786,-0.274986 -0.0589,-1.414025 0,-1.767578 0.0438,-0.262577 0.22255,-0.493242 0.25195,-0.757812 0.0558,-0.501987 -0.1225,-1.025629 0,-1.515625 0.0577,-0.230986 0.43056,-0.279983 0.50586,-0.50586 0.10648,-0.319439 -0.0476,-0.676432 0,-1.009765 0.0376,-0.263523 0.21895,-0.49367 0.25196,-0.757813 0.0522,-0.417647 0,-0.840822 0,-1.261719 v -0.757812 c 0,-0.252539 -0.11293,-0.531936 0,-0.757813 0.0842,-0.168359 0.44438,-0.07339 0.5039,-0.251953 0.1331,-0.399298 0,-0.842775 0,-1.263672 v -1.767578 c 0,-0.252538 -0.0495,-0.510178 0,-0.757812 0.0369,-0.184576 0.22296,-0.318238 0.25391,-0.503907 0.0554,-0.332135 -0.0925,-0.687956 0,-1.011718 0.0834,-0.291835 0.40794,-0.467922 0.50391,-0.75586 0.0799,-0.239579 0,-0.505273 0,-0.757812 v -0.50586 c 0,-0.252537 -0.0612,-0.512814 0,-0.757812 0.0289,-0.115493 0.23433,-0.134526 0.2539,-0.251953 0.0692,-0.415171 0,-0.842775 0,-1.263672 v -0.251953 -9.091797 -2.777344 -0.757812 c 0,-0.08418 -0.0467,-0.181912 0,-0.251953 0.13207,-0.198107 0.41548,-0.284794 0.50391,-0.50586 0.0938,-0.234476 0,-0.505274 0,-0.757812 v -1.009766 c 0,-0.168359 -0.0753,-0.353321 0,-0.503906 0.0377,-0.07529 0.19437,0.05952 0.2539,0 0.0595,-0.05952 0,-0.169726 0,-0.253906 0,-0.168358 -0.11905,-0.384859 0,-0.503907 0.11904,-0.119048 0.35333,0.07529 0.50391,0 0.0753,-0.03765 0,-0.169727 0,-0.253906 0,-0.168359 -0.0753,-0.353322 0,-0.503906 0.0377,-0.07529 0.16777,0 0.25195,0 0.16836,0 0.35527,0.07529 0.50586,0 0.0753,-0.03765 -0.0595,-0.194382 0,-0.253906 0.0595,-0.05952 0.18191,0.04669 0.25196,0 0.1981,-0.132071 0.3375,-0.335548 0.50586,-0.503907 0.0842,-0.08418 0.13901,-0.214307 0.25195,-0.251953 0.15972,-0.05324 0.3375,0 0.50586,0 h 0.25195 0.75781 c 0.16836,0 0.34077,-0.03302 0.50586,0 0.19476,0.03896 0.37668,0.124509 0.56446,0.189453 -0.51057,-0.892973 -1.01467,-1.791113 -1.51563,-2.673828 -1.61825,-3.269582 -3.48831,-3.512473 -5.16211,-2.429687 -0.48259,-0.401165 -0.97287,-0.589766 -1.45898,-0.591797 z"
         style="fill:#676c53;fill-opacity:0.24152545;fill-rule:evenodd;stroke:none;stroke-width:1px;stroke-linecap:butt;stroke-linejoin:miter;stroke-opacity:1"
         inkscape:connector-curvature="0" />
    </g>
  </g>
  <g
     inkscape:groupmode="layer"
     id="layer3"
     inkscape:label="Grille"
     style="display:none"
     sodipodi:insensitive="true"
     transform="translate(-137.06755,-30.468995)">
    <path
       sodipodi:type="star"
       style="opacity:1;fill:#000000;fill-opacity:0;stroke:#4b5062;stroke-width:5;stroke-linecap:round;stroke-linejoin:round;stroke-miterlimit:4;stroke-dasharray:none;stroke-dashoffset:0;stroke-opacity:0.30508477"
       id="path4434"
       sodipodi:sides="3"
       sodipodi:cx="145.71429"
       sodipodi:cy="291.29871"
       sodipodi:r1="38.992413"
       sodipodi:r2="19.496206"
       sodipodi:arg1="2.0943951"
       sodipodi:arg2="3.1415927"
       inkscape:flatsided="true"
       inkscape:rounded="0"
       inkscape:randomized="0"
       d="m 126.21809,325.06713 0,-67.53684 58.48862,33.76842 z"
       inkscape:transform-center-x="-9.7481031"
       inkscape:transform-center-y="-3.8301796e-05" />
    <path
       inkscape:transform-center-y="-3.8301796e-05"
       inkscape:transform-center-x="-9.7481031"
       d="m 124.78951,253.63855 0,-67.53684 58.48862,33.76842 z"
       inkscape:randomized="0"
       inkscape:rounded="0"
       inkscape:flatsided="true"
       sodipodi:arg2="3.1415927"
       sodipodi:arg1="2.0943951"
       sodipodi:r2="19.496206"
       sodipodi:r1="38.992413"
       sodipodi:cy="219.87013"
       sodipodi:cx="144.28572"
       sodipodi:sides="3"
       id="path4436"
       style="opacity:1;fill:#000000;fill-opacity:0;stroke:#4b5062;stroke-width:5;stroke-linecap:round;stroke-linejoin:round;stroke-miterlimit:4;stroke-dasharray:none;stroke-dashoffset:0;stroke-opacity:0.30508477"
       sodipodi:type="star" />
    <path
       sodipodi:type="star"
       style="opacity:1;fill:#000000;fill-opacity:0;stroke:#4b5062;stroke-width:5;stroke-linecap:round;stroke-linejoin:round;stroke-miterlimit:4;stroke-dasharray:none;stroke-dashoffset:0;stroke-opacity:0.30508477"
       id="path4438"
       sodipodi:sides="3"
       sodipodi:cx="85.357147"
       sodipodi:cy="183.08441"
       sodipodi:r1="38.992413"
       sodipodi:r2="19.496206"
       sodipodi:arg1="2.0943951"
       sodipodi:arg2="3.1415927"
       inkscape:flatsided="true"
       inkscape:rounded="0"
       inkscape:randomized="0"
       d="m 65.860941,216.85283 0,-67.53684 58.488619,33.76842 z"
       inkscape:transform-center-x="-9.7481031"
       inkscape:transform-center-y="-3.8301796e-05" />
    <path
       inkscape:transform-center-y="-3.8301796e-05"
       inkscape:transform-center-x="-9.7481031"
       d="m 189.78953,216.85283 0,-67.53684 58.48862,33.76842 z"
       inkscape:randomized="0"
       inkscape:rounded="0"
       inkscape:flatsided="true"
       sodipodi:arg2="3.1415927"
       sodipodi:arg1="2.0943951"
       sodipodi:r2="19.496206"
       sodipodi:r1="38.992413"
       sodipodi:cy="183.08441"
       sodipodi:cx="209.28574"
       sodipodi:sides="3"
       id="path4440"
       style="opacity:1;fill:#000000;fill-opacity:0;stroke:#4b5062;stroke-width:5;stroke-linecap:round;stroke-linejoin:round;stroke-miterlimit:4;stroke-dasharray:none;stroke-dashoffset:0;stroke-opacity:0.30508477"
       sodipodi:type="star" />
    <path
       sodipodi:type="star"
       style="opacity:1;fill:#000000;fill-opacity:0;stroke:#4b5062;stroke-width:5;stroke-linecap:round;stroke-linejoin:round;stroke-miterlimit:4;stroke-dasharray:none;stroke-dashoffset:0;stroke-opacity:0.30508477"
       id="path4442"
       sodipodi:sides="3"
       sodipodi:cx="271.78574"
       sodipodi:cy="218.79871"
       sodipodi:r1="38.992413"
       sodipodi:r2="19.496206"
       sodipodi:arg1="2.0943951"
       sodipodi:arg2="3.1415927"
       inkscape:flatsided="true"
       inkscape:rounded="0"
       inkscape:randomized="0"
       d="m 252.28953,252.56713 0,-67.53684 58.48862,33.76842 z"
       inkscape:transform-center-x="-9.7481031"
       inkscape:transform-center-y="-3.8301796e-05" />
    <path
       inkscape:transform-center-y="-3.8301796e-05"
       inkscape:transform-center-x="-9.7481031"
       d="m 250.14668,180.06713 0,-67.53684 58.48862,33.76842 z"
       inkscape:randomized="0"
       inkscape:rounded="0"
       inkscape:flatsided="true"
       sodipodi:arg2="3.1415927"
       sodipodi:arg1="2.0943951"
       sodipodi:r2="19.496206"
       sodipodi:r1="38.992413"
       sodipodi:cy="146.29871"
       sodipodi:cx="269.64288"
       sodipodi:sides="3"
       id="path4444"
       style="opacity:1;fill:#000000;fill-opacity:0;stroke:#4b5062;stroke-width:5;stroke-linecap:round;stroke-linejoin:round;stroke-miterlimit:4;stroke-dasharray:none;stroke-dashoffset:0;stroke-opacity:0.30508477"
       sodipodi:type="star" />
    <path
       sodipodi:type="star"
       style="opacity:1;fill:#000000;fill-opacity:0;stroke:#4b5062;stroke-width:5;stroke-linecap:round;stroke-linejoin:round;stroke-miterlimit:4;stroke-dasharray:none;stroke-dashoffset:0;stroke-opacity:0.30508477"
       id="path4446"
       sodipodi:sides="3"
       sodipodi:cx="333.57147"
       sodipodi:cy="110.58442"
       sodipodi:r1="38.992413"
       sodipodi:r2="19.496206"
       sodipodi:arg1="2.0943951"
       sodipodi:arg2="3.1415927"
       inkscape:flatsided="true"
       inkscape:rounded="0"
       inkscape:randomized="0"
       d="m 314.07527,144.35284 0,-67.536841 58.48861,33.768421 z"
       inkscape:transform-center-x="-9.7481031"
       inkscape:transform-center-y="-3.8301796e-05" />
    <path
       inkscape:transform-center-y="-3.8301796e-05"
       inkscape:transform-center-x="-9.7481031"
       d="m 371.57527,179.70999 0,-67.53684 58.48861,33.76842 z"
       inkscape:randomized="0"
       inkscape:rounded="0"
       inkscape:flatsided="true"
       sodipodi:arg2="3.1415927"
       sodipodi:arg1="2.0943951"
       sodipodi:r2="19.496206"
       sodipodi:r1="38.992413"
       sodipodi:cy="145.94157"
       sodipodi:cx="391.07147"
       sodipodi:sides="3"
       id="path4448"
       style="opacity:1;fill:#000000;fill-opacity:0;stroke:#4b5062;stroke-width:5;stroke-linecap:round;stroke-linejoin:round;stroke-miterlimit:4;stroke-dasharray:none;stroke-dashoffset:0;stroke-opacity:0.30508477"
       sodipodi:type="star" />
    <path
       sodipodi:type="star"
       style="opacity:1;fill:#000000;fill-opacity:0;stroke:#4b5062;stroke-width:5;stroke-linecap:round;stroke-linejoin:round;stroke-miterlimit:4;stroke-dasharray:none;stroke-dashoffset:0;stroke-opacity:0.30508477"
       id="path4450"
       sodipodi:sides="3"
       sodipodi:cx="208.21432"
       sodipodi:cy="108.44157"
       sodipodi:r1="38.992413"
       sodipodi:r2="19.496206"
       sodipodi:arg1="2.0943951"
       sodipodi:arg2="3.1415927"
       inkscape:flatsided="true"
       inkscape:rounded="0"
       inkscape:randomized="0"
       d="m 188.71812,142.20999 0,-67.536843 58.48862,33.768423 z"
       inkscape:transform-center-x="-9.7481031"
       inkscape:transform-center-y="-3.8301796e-05" />
    <path
       inkscape:transform-center-y="-3.8301796e-05"
       inkscape:transform-center-x="-9.7481031"
       d="m 188.00384,73.995692 0,-67.5368398 58.48862,33.7684198 z"
       inkscape:randomized="0"
       inkscape:rounded="0"
       inkscape:flatsided="true"
       sodipodi:arg2="3.1415927"
       sodipodi:arg1="2.0943951"
       sodipodi:r2="19.496206"
       sodipodi:r1="38.992413"
       sodipodi:cy="40.227272"
       sodipodi:cx="207.50005"
       sodipodi:sides="3"
       id="path4452"
       style="opacity:1;fill:#000000;fill-opacity:0;stroke:#4b5062;stroke-width:5;stroke-linecap:round;stroke-linejoin:round;stroke-miterlimit:4;stroke-dasharray:none;stroke-dashoffset:0;stroke-opacity:0.30508477"
       sodipodi:type="star" />
    <path
       sodipodi:type="star"
       style="opacity:1;fill:#000000;fill-opacity:0;stroke:#4b5062;stroke-width:5;stroke-linecap:round;stroke-linejoin:round;stroke-miterlimit:4;stroke-dasharray:none;stroke-dashoffset:0;stroke-opacity:0.30508477"
       id="path4454"
       sodipodi:sides="3"
       sodipodi:cx="147.85718"
       sodipodi:cy="74.870132"
       sodipodi:r1="38.992413"
       sodipodi:r2="19.496206"
       sodipodi:arg1="2.0943951"
       sodipodi:arg2="3.1415927"
       inkscape:flatsided="true"
       inkscape:rounded="0"
       inkscape:randomized="0"
       d="m 128.36097,108.63855 0,-67.536837 58.48862,33.768419 z"
       inkscape:transform-center-x="-9.7481031"
       inkscape:transform-center-y="-3.8301796e-05" />
    <path
       inkscape:transform-center-y="-3.8301796e-05"
       inkscape:transform-center-x="-9.7481031"
       d="m 65.503824,72.924262 0,-67.53684 58.488616,33.76842 z"
       inkscape:randomized="0"
       inkscape:rounded="0"
       inkscape:flatsided="true"
       sodipodi:arg2="3.1415927"
       sodipodi:arg1="2.0943951"
       sodipodi:r2="19.496206"
       sodipodi:r1="38.992413"
       sodipodi:cy="39.155842"
       sodipodi:cx="85.000031"
       sodipodi:sides="3"
       id="path4456"
       style="opacity:1;fill:#000000;fill-opacity:0;stroke:#4b5062;stroke-width:5;stroke-linecap:round;stroke-linejoin:round;stroke-miterlimit:4;stroke-dasharray:none;stroke-dashoffset:0;stroke-opacity:0.30508477"
       sodipodi:type="star" />
  </g>
</svg>
