<?xml version="1.0" encoding="UTF-8" standalone="no"?>
<!-- Created with Inkscape (http://www.inkscape.org/) -->

<svg
   xmlns:dc="http://purl.org/dc/elements/1.1/"
   xmlns:cc="http://creativecommons.org/ns#"
   xmlns:rdf="http://www.w3.org/1999/02/22-rdf-syntax-ns#"
   xmlns:svg="http://www.w3.org/2000/svg"
   xmlns="http://www.w3.org/2000/svg"
   xmlns:sodipodi="http://sodipodi.sourceforge.net/DTD/sodipodi-0.dtd"
   xmlns:inkscape="http://www.inkscape.org/namespaces/inkscape"
   width="123.50506mm"
   height="92.693512mm"
   viewBox="0 0 437.61638 328.44158"
   id="svg2"
   version="1.1"
   inkscape:version="0.91 r13725"
   sodipodi:docname="menhir.svg"
   inkscape:export-filename="C:\Users\ziltoid\SharedWithVMs\tile5.png"
   inkscape:export-xdpi="53.890129"
   inkscape:export-ydpi="53.890129">
  <defs
     id="defs4">
    <filter
       inkscape:collect="always"
       style="color-interpolation-filters:sRGB"
       id="filter4664"
       x="-0.010485844"
       width="1.0209717"
       y="-0.014025245"
       height="1.0280505">
      <feGaussianBlur
         inkscape:collect="always"
         stdDeviation="1.8901471"
         id="feGaussianBlur4666" />
    </filter>
    <filter
       inkscape:collect="always"
       style="color-interpolation-filters:sRGB"
       id="filter4755"
       x="-0.11031244"
       width="1.2206249"
       y="-0.5411369"
       height="2.0822738">
      <feGaussianBlur
         inkscape:collect="always"
         stdDeviation="3.1681996"
         id="feGaussianBlur4757" />
    </filter>
    <filter
       inkscape:collect="always"
       style="color-interpolation-filters:sRGB"
       id="filter4759"
       x="-0.041992705"
       width="1.0839854"
       y="-0.12012004"
       height="1.2402401">
      <feGaussianBlur
         inkscape:collect="always"
         stdDeviation="3.1681996"
         id="feGaussianBlur4761" />
    </filter>
    <filter
       inkscape:collect="always"
       style="color-interpolation-filters:sRGB"
       id="filter4809"
       x="-0.023532624"
       width="1.0470652"
       y="-0.076561726"
       height="1.1531235">
      <feGaussianBlur
         inkscape:collect="always"
         stdDeviation="1.2331252"
         id="feGaussianBlur4811" />
    </filter>
    <filter
       inkscape:collect="always"
       style="color-interpolation-filters:sRGB"
       id="filter5478"
       x="-0.14090022"
       width="1.2818004"
       y="-0.50393831"
       height="2.0078766">
      <feGaussianBlur
         inkscape:collect="always"
         stdDeviation="5.11602"
         id="feGaussianBlur5480" />
    </filter>
    <filter
       inkscape:collect="always"
       style="color-interpolation-filters:sRGB"
       id="filter5482"
       x="-0.072817812"
       width="1.1456356"
       y="-0.45644278"
       height="1.9128856">
      <feGaussianBlur
         inkscape:collect="always"
         stdDeviation="5.11602"
         id="feGaussianBlur5484" />
    </filter>
    <filter
       inkscape:collect="always"
       style="color-interpolation-filters:sRGB"
       id="filter5486"
       x="-0.29895358"
       width="1.5979072"
       y="-0.15336524"
       height="1.3067305">
      <feGaussianBlur
         inkscape:collect="always"
         stdDeviation="5.11602"
         id="feGaussianBlur5488" />
    </filter>
  </defs>
  <sodipodi:namedview
     id="base"
     pagecolor="#ffffff"
     bordercolor="#666666"
     borderopacity="1.0"
     inkscape:pageopacity="0.0"
     inkscape:pageshadow="2"
     inkscape:zoom="1.4"
     inkscape:cx="21.407489"
     inkscape:cy="146.50811"
     inkscape:document-units="px"
     inkscape:current-layer="layer4"
     showgrid="false"
     inkscape:window-width="2560"
     inkscape:window-height="1012"
     inkscape:window-x="-8"
     inkscape:window-y="-8"
     inkscape:window-maximized="1"
     fit-margin-top="0"
     fit-margin-left="0"
     fit-margin-right="0"
     fit-margin-bottom="0" />
  <metadata
     id="metadata7">
    <rdf:RDF>
      <cc:Work
         rdf:about="">
        <dc:format>image/svg+xml</dc:format>
        <dc:type
           rdf:resource="http://purl.org/dc/dcmitype/StillImage" />
        <dc:title />
      </cc:Work>
    </rdf:RDF>
  </metadata>
  <g
     inkscape:groupmode="layer"
     id="layer2"
     inkscape:label="Repère"
     style="display:none"
     transform="translate(4.1592743,-198.92088)"
     sodipodi:insensitive="true">
    <path
       sodipodi:type="star"
       style="opacity:1;fill:#003880;fill-opacity:0.11440681;stroke:none;stroke-width:1;stroke-linecap:round;stroke-linejoin:round;stroke-miterlimit:4;stroke-dasharray:none;stroke-dashoffset:0;stroke-opacity:1"
       id="path4136"
       sodipodi:sides="6"
       sodipodi:cx="166.67517"
       sodipodi:cy="350.30618"
       sodipodi:r1="144.63184"
       sodipodi:r2="125.25484"
       sodipodi:arg1="1.0471976"
       sodipodi:arg2="1.5707964"
       inkscape:flatsided="true"
       inkscape:rounded="0"
       inkscape:randomized="0"
       d="m 238.99108,475.56103 -144.631833,-1e-5 -72.315912,-125.25484 72.315924,-125.25484 144.631831,0 72.31592,125.25485 z"
       transform="matrix(0.8660254,0.50000003,-0.49999997,0.8660254,215.66608,-41.456222)" />
  </g>
  <g
     inkscape:label="Calque 1"
     inkscape:groupmode="layer"
     id="layer1"
     transform="translate(4.1592743,-198.92088)"
     sodipodi:insensitive="true">
    <path
       style="opacity:1;fill:#9bad59;fill-opacity:1;stroke:#9eb05e;stroke-width:5;stroke-linecap:round;stroke-linejoin:round;stroke-miterlimit:4;stroke-dasharray:none;stroke-dashoffset:0;stroke-opacity:1;filter:url(#filter4664)"
       d="m 307.95058,273.46261 -2.6e-4,71.2778 61.27868,-35.37998 9e-5,71.19907 61.72825,-35.63913 -61.66034,-35.59961 0.38157,-0.21948 -61.72799,-35.63867 z m -0.25032,0.42156 -61.36659,35.43069 -0.39918,-0.23047 -2.7e-4,71.2778 61.36661,-35.4307 0.32644,0.18848 -0.77405,0.44619 61.72967,35.63965 -0.001,-71.27878 -60.88156,35.14917 3.5e-4,-71.19203 z m -125.35417,-70.16537 -7.8e-4,68.23965 -60.25981,-34.79102 -7.6e-4,71.2279 -0.0989,0.0579 -2.6e-4,-71.05032 -61.728252,35.63912 61.531782,35.52539 -0.12509,0.0721 60.92963,35.17774 -6e-4,2.47369 1.91075,-1.10249 61.3305,35.40918 2.6e-4,-71.27779 -1.91075,1.10248 -0.002,-10e-4 5.7e-4,-70.86038 -60.53253,34.94699 7.8e-4,-0.11456 60.68482,-35.03498 -61.72968,-35.63965 z m -121.996094,-2.29812 -2.58e-4,71.27779 61.728252,-35.63912 -61.727994,-35.63867 z m 248.841254,215.79901 -61.72825,35.63913 61.72799,35.63867 2.6e-4,-71.2778 z m -63.59621,-36.09032 1.2e-4,0.1444 -61.53347,-35.52637 -2.7e-4,71.27781 61.53321,-35.52396 2.1e-4,0.11283 -61.68646,35.61363 61.72967,35.63965 2.3e-4,-0.48475 61.68478,-35.61461 -61.72799,-35.63868 z m -61.81433,-34.03992 -61.3666,35.43069 -0.39918,-0.23046 -7.7e-4,71.22789 -0.0988,0.058 7e-4,-71.05201 -61.728248,35.63912 61.533478,35.52637 -0.12774,0.0729 0.92691,0.53515 4.9e-4,70.56556 61.72826,-35.63912 -0.92693,-0.53516 -0.002,-70.51663 0.0607,-0.0348 0.39918,0.23046 2.5e-4,-71.27779 z m -123.863917,-0.93406 -3.5e-4,2.3092 -61.5759672,35.55115 61.7279902,35.63867 3.5e-4,-2.3092 61.575974,-35.55114 -61.727997,-35.63868 z"
       id="path4140"
       inkscape:connector-curvature="0" />
  </g>
  <g
     inkscape:groupmode="layer"
     id="layer4"
     inkscape:label="Décor">
    <path
       style="fill:none;fill-rule:evenodd;stroke:#a68500;stroke-width:3.00000024;stroke-linecap:butt;stroke-linejoin:miter;stroke-miterlimit:4;stroke-dasharray:none;stroke-opacity:0.24152545;filter:url(#filter5486)"
       d="m 136.69906,305.76825 c 0.47619,0.11905 0.94725,0.26088 1.42857,0.35715 0.11673,0.0233 0.23809,0 0.35714,0 0.2381,0 0.47619,0 0.71429,0 0.35714,0 0.71428,0 1.07142,0 0.11905,0 0.24165,0.0289 0.35715,0 1.21936,-0.30485 2.02804,-0.83545 3.21428,-1.42858 3.33217,-1.66608 0.96397,-0.4135 3.92857,-2.14285 0.82905,-0.48362 1.67096,-0.94496 2.5,-1.42857 0.59961,-0.34977 1.2669,-0.61026 1.78572,-1.07143 0.56973,-0.50643 0.88956,-1.24671 1.42857,-1.78572 0.53901,-0.53901 1.2467,-0.88956 1.78571,-1.42857 0.53902,-0.53901 0.88956,-1.2467 1.42858,-1.78571 0.53901,-0.53901 1.27928,-0.85884 1.78571,-1.42857 0.46118,-0.51883 0.64526,-1.23778 1.07143,-1.78572 0.41345,-0.53158 0.95238,-0.95238 1.42857,-1.42857 0.71429,-0.71429 1.50319,-1.36104 2.14286,-2.14286 0.96321,-1.17726 0.88984,-1.81196 1.78571,-2.85714 0.43827,-0.51131 0.95238,-0.95238 1.42857,-1.42857 0.35715,-0.35714 0.71429,-0.71429 1.07143,-1.07143 0.35714,-0.35714 0.76838,-0.66737 1.07143,-1.07143 0.4165,-0.55533 0.61025,-1.26689 1.07143,-1.78571 0.50643,-0.56974 1.27928,-0.85884 1.78571,-1.42858 1.61314,-1.81477 0.6986,-1.38934 1.42857,-3.21428 0.71964,-1.7991 1.23618,-2.29655 2.14286,-3.92857 0.25856,-0.4654 0.54593,-0.9235 0.71429,-1.42857 0.19196,-0.57588 0.29011,-1.1824 0.35714,-1.78572 0.0526,-0.47328 0,-0.95238 0,-1.42857 0,-0.23809 0,-0.47619 0,-0.71429 0,-1.90476 0,-3.80952 0,-5.71428 0,-5.59524 0,-11.19048 0,-16.78572 0,-3.21428 0,-6.42857 0,-9.64285 0,-0.83334 0,-1.66667 0,-2.5 0,-0.2381 0,-0.47619 0,-0.71429 0,-0.11905 -0.066,-0.25809 0,-0.35714 0.96682,-1.45024 0.71429,0.13517 0.71429,-1.78572 0,-0.35714 -0.11294,-0.73261 0,-1.07142 0.0376,-0.11294 0.23809,0 0.35714,0 0,-0.11905 0,-0.2381 0,-0.35715 0,-0.23809 0,-0.47619 0,-0.71428 0,-0.11905 -0.10648,-0.30391 0,-0.35715 0.21296,-0.10647 0.47619,0 0.71428,0"
       id="path4677"
       inkscape:connector-curvature="0"
       transform="matrix(-1,0,0,1,247.46664,-214.7477)" />
    <path
       style="fill:none;fill-rule:evenodd;stroke:#806600;stroke-width:3.00000024;stroke-linecap:butt;stroke-linejoin:miter;stroke-miterlimit:4;stroke-dasharray:none;stroke-opacity:0.24152545;filter:url(#filter4759)"
       d="m -363.84387,229.98653 c 0.47619,0 0.95238,0 1.42857,0 0.83617,0 1.24393,0.0577 2.14285,-0.35714 1.11286,-0.51363 2.18525,-1.11987 3.21429,-1.78572 1.82421,-1.18037 3.71511,-2.86261 5.35714,-4.28571 0.95632,-0.82881 1.90823,-1.66272 2.85714,-2.5 1.07491,-0.94845 2.06022,-2.00678 3.21429,-2.85714 0.72745,-0.53602 7.44959,-4.37116 7.85714,-4.64286 1.48581,-0.99054 2.81752,-2.19784 4.28572,-3.21429 5.9373,-4.11044 3.92395,-2.08809 9.28571,-6.42857 13.14287,-10.63946 -7.0968,5.31836 6.42857,-6.07143 1.11154,-0.93603 2.45508,-1.5697 3.57143,-2.5 3.8944,-3.24533 1.71593,-2.60629 6.07143,-5.35714 1.12534,-0.71074 2.41955,-1.11884 3.57143,-1.78571 1.11441,-0.64519 2.08863,-1.5175 3.21428,-2.14286 1.02494,-0.56941 2.20889,-0.82533 3.21429,-1.42857 0.79729,-0.47837 1.39902,-1.22784 2.14286,-1.78572 1.38419,-1.03814 2.69891,-1.81994 4.28571,-2.5 3.64594,-1.56254 1.89848,-0.63282 5.35714,-1.78571 1.58363,-0.52787 3.53436,-1.26347 5,-2.14286 0.51042,-0.30624 0.91442,-0.7715 1.42858,-1.07143 0.91974,-0.53651 1.90476,-0.95238 2.85714,-1.42857 0.71428,-0.35714 1.41776,-0.73677 2.14286,-1.07143 0.82319,-0.37993 1.70002,-0.64477 2.5,-1.07142 0.99096,-0.52852 1.86617,-1.2572 2.85714,-1.78572 5.02734,-2.68125 -0.13544,0.60344 5.35714,-2.14286 0.5324,-0.26619 0.86388,-0.88319 1.42857,-1.07142 0.5647,-0.18823 1.19048,0 1.78572,0 0.35714,0 0.71428,0 1.07143,0 0.47619,0 0.95238,0 1.42857,0 0.59524,0 1.19411,-0.0657 1.78571,0 0.48785,0.0542 0.94726,0.26088 1.42857,0.35714 1.30515,0.26103 2.64614,0.35805 3.92857,0.71428 0.87357,0.24266 1.62398,0.83783 2.5,1.07143 0.92739,0.24731 1.91866,0.15604 2.85715,0.35715 1.66216,0.35617 3.06535,1.19415 4.64285,1.78571 1.05748,0.39655 2.14929,0.69555 3.21429,1.07143 0.95916,0.33852 1.90124,0.72383 2.85714,1.07143 0.3538,0.12865 0.73471,0.18878 1.07143,0.35714 1.6657,0.83285 0.56314,0.60093 2.14286,1.78571 0.0952,0.0714 0.23809,0 0.35714,0 0.2381,0.11905 0.52606,0.16892 0.71429,0.35715 0.18823,0.18823 0.16891,0.52605 0.35714,0.71428 0.18823,0.18823 0.48602,0.22019 0.71429,0.35715 0.35714,0.23809 0.71428,0.47619 1.07142,0.71428 0.11905,0.11905 0.21706,0.26376 0.35715,0.35714 0.57757,0.38506 1.23038,0.65494 1.78571,1.07143 0.40406,0.30305 0.68342,0.74809 1.07143,1.07143 0.32975,0.27479 0.72804,0.45675 1.07143,0.71429 0.13469,0.10101 0.19742,0.3039 0.35714,0.35714 0.22588,0.0753 0.54593,-0.16836 0.71429,0 0.16836,0.16836 -0.10648,0.50133 0,0.71429 0.0532,0.10648 0.2442,-0.0377 0.35714,0 0.25254,0.0842 0.50642,0.19085 0.71429,0.35714 1.31643,1.05314 0.7009,1.06474 2.14285,1.78571 0.33672,0.16836 0.77026,0.13127 1.07143,0.35715 0.21296,0.15972 0.14419,0.55456 0.35714,0.71428 0.30117,0.22588 0.73472,0.18879 1.07143,0.35714 0.38392,0.19196 0.66423,0.57856 1.07143,0.71429 0.33882,0.11294 0.71429,0 1.07143,0 0.59524,0 1.19048,0 1.78571,0 1.07143,0 2.14286,0 3.21429,0 0.35714,0 0.71915,0.0587 1.07143,0 0.94158,-0.15693 1.63262,-0.71002 2.5,-1.07143 0.9389,-0.39121 1.94738,-0.61655 2.85714,-1.07143 0.5324,-0.2662 0.93331,-0.74125 1.42857,-1.07143 0.57758,-0.38505 1.20814,-0.68637 1.78572,-1.07142 0.94049,-0.627 -0.4964,-0.34957 1.42857,-1.07143 0.56838,-0.21314 1.18337,-0.28185 1.78571,-0.35715 0.35439,-0.0443 0.75199,0.15972 1.07143,0 0.2381,-0.11904 0.11905,-0.59523 0.35714,-0.71428 0.54295,-0.27147 1.24278,-0.0857 1.78572,-0.35714 0.23809,-0.11905 0.14418,-0.55457 0.35714,-0.71429 0.30117,-0.22588 0.71894,-0.22496 1.07143,-0.35714 0.60027,-0.2251 1.16377,-0.5588 1.78571,-0.71429 0.34648,-0.0866 0.71429,0 1.07143,0 0.11905,0 0.24165,0.0289 0.35715,0 0.36522,-0.0913 0.70009,-0.29525 1.07142,-0.35714 0.35229,-0.0587 0.71429,0 1.07143,0 0.2381,0 0.47619,0 0.71429,0 0.71428,0 1.42857,0 2.14286,0 0.11904,0 0.25809,0.066 0.35714,0 0.28016,-0.18678 0.47619,-0.47619 0.71428,-0.71429 0.11905,-0.11904 0.19743,-0.3039 0.35715,-0.35714 0.22587,-0.0753 0.47619,0 0.71428,0"
       id="path4679"
       inkscape:connector-curvature="0"
       transform="matrix(-1,0,0,1,-446.6112,-129.80462)" />
    <path
       style="fill:none;fill-rule:evenodd;stroke:#806600;stroke-width:3.00000024;stroke-linecap:butt;stroke-linejoin:miter;stroke-miterlimit:4;stroke-dasharray:none;stroke-opacity:0.24152545;filter:url(#filter4755)"
       d="m 122.21976,272.17655 c 0.47435,-0.79243 1.54853,0.39622 2.14285,0 0.22149,-0.14766 0.15265,-0.54387 0.35715,-0.71428 3.12993,-2.60828 0.57324,-0.12349 2.85714,-1.42857 0.51681,-0.29532 0.9333,-0.74125 1.42857,-1.07143 0.57758,-0.38505 1.20814,-0.68638 1.78571,-1.07143 2.09834,-1.39889 1.087,-1.05028 3.57143,-2.85714 0.5614,-0.40829 1.23778,-0.64526 1.78572,-1.07143 0.53157,-0.41345 0.87687,-1.04238 1.42857,-1.42857 0.65423,-0.45797 1.44177,-0.68902 2.14286,-1.07143 0.6094,-0.3324 1.20813,-0.68638 1.78571,-1.07143 0.49527,-0.33018 0.89617,-0.80523 1.42857,-1.07143 3.16387,-1.58194 1.06634,-0.35629 3.21429,-0.71429 0.37134,-0.0619 0.69787,-0.31044 1.07143,-0.35714 0.70877,-0.0886 1.42857,0 2.14285,0 0.35715,0 0.71915,-0.0587 1.07143,0 0.37134,0.0619 0.70393,0.27548 1.07143,0.35714 3.86391,0.85865 0.46832,-0.28657 5.35714,1.07143 1.08819,0.30228 2.10684,0.84994 3.21429,1.07143 1.28939,0.25788 2.65623,0.0252 3.92857,0.35714 1.4975,0.39066 2.83127,1.25683 4.28571,1.78572 1.67567,0.60933 5.86252,1.675 7.5,2.14286 1.19508,0.34145 2.34375,0.87758 3.57143,1.07142 1.05832,0.16711 2.14558,-0.0763 3.21429,0 2.95244,0.21089 0.67844,0.52975 3.92857,1.07143 0.70457,0.11743 1.42857,0 2.14286,0 0.11904,0 0.2442,-0.0376 0.35714,0 0.25254,0.0842 0.46175,0.27297 0.71429,0.35715 0.11293,0.0376 0.23809,0 0.35714,0 0.35714,0 0.71428,0 1.07143,0"
       id="path4681"
       inkscape:connector-curvature="0"
       transform="matrix(-0.66546255,0.74643128,-0.7464312,-0.66546255,90.729894,300.54021)" />
    <path
       style="fill:none;fill-rule:evenodd;stroke:#a68500;stroke-width:3.00000024;stroke-linecap:butt;stroke-linejoin:miter;stroke-miterlimit:4;stroke-dasharray:none;stroke-opacity:0.24152545;filter:url(#filter5482)"
       d="m 128.44092,105.19905 c 0.81175,-0.21791 1.68285,0.16343 2.5,0 0.26103,-0.0522 0.47619,-0.2381 0.71428,-0.35714 0.47619,-0.2381 0.96317,-0.45573 1.42857,-0.71429 0.60681,-0.33711 1.15139,-0.7895 1.78572,-1.07143 0.44854,-0.19935 0.98003,-0.15779 1.42857,-0.35714 0.63433,-0.28193 1.15377,-0.78418 1.78571,-1.07143 1.63408,-0.74276 2.04767,-0.6143 3.57143,-1.07143 0.72117,-0.21635 1.41242,-0.53167 2.14286,-0.714279 0.70252,-0.17563 1.43479,-0.20542 2.14286,-0.35715 0.9599,-0.20569 1.88217,-0.59958 2.85714,-0.71428 1.06409,-0.12519 2.14286,0 3.21428,0 1.42858,0 2.85715,0 4.28572,0 1.90476,0 3.80952,0 5.71428,0 0.59524,0 1.19292,-0.0539 1.78572,0 1.27812,0.11619 4.89026,0.95371 5.71428,1.07143 1.30171,0.185959 2.63687,0.1111 3.92857,0.357139 1.89235,0.36045 4.90102,1.61933 6.78572,2.14286 1.05752,0.29375 2.17929,0.34899 3.21428,0.71428 1.0041,0.35439 1.90477,0.95238 2.85715,1.42857 3.1388,1.56941 3.35103,1.8313 6.42857,2.85715 1.17911,0.39303 2.38704,0.69458 3.57143,1.07143 1.43496,0.45657 2.8378,1.01488 4.28571,1.42857 1.05534,0.30152 2.16132,0.40459 3.21429,0.71428 1.91489,0.56321 3.51881,1.40753 5.35714,2.14286 0.94439,0.37776 1.91275,0.69367 2.85714,1.07143 0.8418,0.33672 1.63346,0.8048 2.5,1.07143 0.69212,0.21296 1.46232,0.10967 2.14286,0.35714 0.65237,0.23722 1.15377,0.78418 1.78571,1.07143 0.68544,0.31156 1.48469,0.34863 2.14286,0.71428 0.44152,0.24529 0.65118,0.79127 1.07143,1.07143 0.66447,0.44298 1.43972,0.69282 2.14286,1.07143 0.84507,0.45504 1.63025,1.02269 2.5,1.42857 0.92172,0.43014 1.92224,0.67076 2.85714,1.07143 0.73403,0.31458 1.42857,0.71429 2.14286,1.07143 0.47619,0.2381 0.91666,0.56802 1.42857,0.71429 2.03107,0 0.23513,-0.15972 1.78571,0.35714 0.11294,0.0376 0.25809,-0.066 0.35715,0 0.28016,0.18678 0.41311,0.5637 0.71428,0.71428 0.43903,0.21952 0.94073,0.30294 1.42857,0.35715 0.5916,0.0657 1.19048,0 1.78572,0 0.11905,0 0.25809,-0.066 0.35714,0 0.28017,0.18677 0.40165,0.58923 0.71429,0.71428 0.33159,0.13264 0.71428,0 1.07142,0 0.4762,0 0.95239,0 1.42858,0 1.30952,0 2.61904,0 3.92857,0 0.11905,0 0.23809,0 0.35714,0 0.35714,0 0.72122,0.07 1.07143,0 0.26103,-0.0522 0.45171,-0.31338 0.71428,-0.35714 0.46972,-0.0783 0.95239,0 1.42858,0 0.23809,0 0.47619,0 0.71428,0 0.35714,0 0.75199,0.15972 1.07143,0 0.2381,-0.11905 0.10461,-0.63011 0.35714,-0.71429 0.5647,-0.18823 1.19858,0.0979 1.78572,0 0.16607,-0.0277 0.19047,-0.33333 0.35714,-0.35714 0.70711,-0.10101 1.42857,0 2.14286,0 0.35714,0 0.71428,0 1.07143,0 0.23809,0 0.47619,0 0.71428,0 0.35714,0 0.75199,0.15972 1.07143,0 0.2381,-0.11905 0.10461,-0.63011 0.35714,-0.71428 0.5647,-0.18824 1.19858,0.0979 1.78572,0 0.16607,-0.0277 0.20656,-0.28185 0.35714,-0.35715 0.57341,-0.2867 1.16376,-0.5588 1.78571,-0.71428 0.69296,-0.17324 1.4499,0.17324 2.14286,0 0.16333,-0.0408 0.20656,-0.28185 0.35714,-0.35715 0.57341,-0.2867 1.17753,-0.51155 1.78572,-0.71428 1.61816,-0.53939 1.53753,-0.1399 3.21428,-1.07143 3.45437,-2.59077 -0.22686,-0.0651 2.5,-1.42857 0.38392,-0.19196 0.66953,-0.56357 1.07143,-0.71429 0.56838,-0.21314 1.24278,-0.0857 1.78572,-0.35714 0.45175,-0.22588 0.68794,-0.74273 1.07143,-1.07143 0.45193,-0.38737 0.9442,-0.72545 1.42857,-1.07143 0.34928,-0.24948 0.76791,-0.41077 1.07143,-0.71428 0.30351,-0.30352 0.35714,-0.83334 0.71428,-1.07143 0.40841,-0.27227 1.0024,-0.11362 1.42857,-0.35714 0.43853,-0.25059 0.71429,-0.71429 1.07143,-1.07143 0.35714,-0.35715 0.71429,-0.71429 1.07143,-1.07143 0.35714,-0.35714 0.76838,-0.66737 1.07143,-1.07143 0.4165,-0.55533 0.70352,-1.19707 1.07143,-1.78571 0.22749,-0.36399 0.52232,-0.68752 0.71428,-1.07143 0.16836,-0.33672 0.13127,-0.77026 0.35715,-1.07143 0.15972,-0.21296 0.52605,-0.16891 0.71428,-0.35714 0.18823,-0.18824 0.16891,-0.52606 0.35714,-0.71429 0.18824,-0.18823 0.48603,-0.22018 0.71429,-0.35714 0.36806,-0.22084 0.74168,-0.4395 1.07143,-0.71429 0.38801,-0.32334 0.71428,-0.71428 1.07143,-1.07143 0.11905,-0.11904 0.22245,-0.25612 0.35714,-0.35714 0.34339,-0.25754 0.68751,-0.52233 1.07143,-0.71429 0.33672,-0.16835 0.73471,-0.18878 1.07143,-0.35714 0.38391,-0.19196 0.67289,-0.55487 1.07143,-0.71428 0.22106,-0.0884 0.4884,0.0753 0.71428,0 0.15972,-0.0532 0.19743,-0.30391 0.35714,-0.35715 0.22588,-0.0753 0.4762,0 0.71429,0 0.11905,0 0.3039,0.10648 0.35714,0 0.10648,-0.21296 0,-0.47619 0,-0.714279"
       id="path4683"
       inkscape:connector-curvature="0" />
    <path
       style="fill:none;fill-rule:evenodd;stroke:#a68500;stroke-width:3.00000024;stroke-linecap:butt;stroke-linejoin:miter;stroke-miterlimit:4;stroke-dasharray:none;stroke-opacity:0.24152545;filter:url(#filter5478)"
       d="m 34.481838,170.72364 c 1.09863,-0.9764 2.39964,-1.62115 3.57143,-2.5 0.74383,-0.55786 1.33557,-1.3244 2.14286,-1.7857 3.30055,-1.23771 2.40361,-0.72789 5.35714,-2.5 7.7366,-4.64196 -1.13547,0.44657 5,-2.85715 2.38969,-1.28675 2.18881,-1.52934 4.64286,-2.14285 0.70251,-0.17563 1.42122,-0.29701 2.14285,-0.35715 0.71182,-0.0593 1.42857,0 2.14286,0 0.59524,0 1.19048,0 1.78571,0 0.71429,0 1.42858,0 2.14286,0 0.11905,0 0.2381,0 0.35714,0 0.2381,0 0.47943,-0.0391 0.71429,0 0.48417,0.0807 0.97044,0.18094 1.42857,0.35715 1.09433,0.42089 2.14508,0.94742 3.21429,1.42857 1.31176,0.59029 2.58435,1.27363 3.92857,1.78571 1.6798,1.38147 3.85166,0.8077 5.71428,1.42857 1.70532,0.56844 2.37808,1.36761 3.92858,2.14286 3.11464,1.55732 1.79423,0.51507 4.64285,2.14286 5.57012,3.18291 0.25909,0.46917 5.35715,3.21427 0.70314,0.37862 1.46565,0.64818 2.14285,1.07143 0.28554,0.17846 0.42556,0.54105 0.71429,0.71429 0.32281,0.19369 0.74457,0.17036 1.07143,0.35714 2.46221,1.40698 0.47346,0.62295 2.5,2.14286 0.55533,0.4165 1.176312,0.73903 1.785712,1.07143 4.47642,2.44168 -0.3198,-0.33848 4.64286,2.14285 0.62088,0.31044 1.12717,0.85192 1.78571,1.07143 0.45176,0.15059 0.95238,0 1.42857,0 0.35715,0 0.73262,-0.11294 1.07143,0 0.40721,0.13574 0.66953,0.56358 1.07143,0.71429 0.56838,0.21314 1.20984,0.16518 1.78572,0.35714 2.94343,1.47172 0.0943,0.31333 2.5,0.71429 4.59351,0.76558 -2.79332,-0.16262 2.14285,1.07143 0.57747,0.14436 1.19858,-0.0979 1.78572,0 0.16607,0.0277 0.19381,0.31631 0.35714,0.35714 0.34648,0.0866 0.71429,0 1.07143,0 0.23809,0 0.47619,0 0.71428,0 0.11905,0 0.35715,-0.11905 0.35715,0 0,0.11905 -0.2381,0 -0.35715,0"
       id="path4685"
       inkscape:connector-curvature="0" />
    <path
       style="fill:#859a2d;fill-opacity:1;fill-rule:evenodd;stroke:none;stroke-width:1px;stroke-linecap:butt;stroke-linejoin:miter;stroke-opacity:1"
       d="m 259.38145,252.80254 c 4.72671,1.50305 9.91772,0.75013 14.33363,-1.35273 10.06805,-0.31685 1.66491,-2.58813 0.22602,-7.41566 0,0 3.52139,2.56285 5.37251,3.21106 1.81273,1.13528 3.5138,1.91314 4.46952,3.88775 -1.47063,-1.65902 -2.2187,-6.16102 -2.2187,-6.16102 2.84606,3.19272 5.10921,6.45899 4.33039,3.45697 -0.83564,-3.97362 -4.18313,-11.5296 -4.18313,-11.5296 0,0 3.00282,5.38609 4.30242,8.16375 0.39871,1.79955 0.99883,3.99386 2.77801,4.8773 2.20813,0.0356 3.6741,-3.99438 3.6741,-3.99438 1.04497,3.94652 -3.37084,7.13638 0.66755,5.70428 1.23659,-1.35043 3.84383,-3.24349 5.11185,-0.85797 6.68461,0.70533 9.5632,0.0841 15.37079,2.34875 -5.44624,-0.46258 -10.28525,0.72292 -15.36549,0.56421 -4.54117,-0.0155 -9.10844,-0.35454 -13.6238,0.28683 -6.68857,0.27111 -13.42779,0.0528 -20.01727,-1.19867 -1.74179,-0.17956 -3.48954,0.24734 -5.2284,0.009 z"
       id="path4490"
       inkscape:connector-curvature="0"
       sodipodi:nodetypes="ccccccccccccccccccc" />
    <path
       sodipodi:nodetypes="ccccccccccccccccccc"
       inkscape:connector-curvature="0"
       id="path4496"
       d="m 175.02066,215.0322 c -4.72671,1.50305 -9.91772,0.75013 -14.33363,-1.35273 -10.06805,-0.31685 -1.66491,-2.58813 -0.22602,-7.41566 0,0 -3.52139,2.56285 -5.37251,3.21106 -1.81273,1.13528 -3.5138,1.91314 -4.46952,3.88775 1.47063,-1.65902 2.2187,-6.16102 2.2187,-6.16102 -2.84606,3.19272 -5.10921,6.45899 -4.33039,3.45697 0.83564,-3.97362 4.18313,-11.5296 4.18313,-11.5296 0,0 -3.00282,5.38609 -4.30242,8.16375 -0.39871,1.79955 -0.99883,3.99386 -2.77801,4.8773 -2.20813,0.0356 -3.6741,-3.99438 -3.6741,-3.99438 -1.04497,3.94652 3.37084,7.13638 -0.66755,5.70428 -1.23659,-1.35043 -3.84383,-3.24349 -5.11185,-0.85797 -6.68461,0.70533 -9.5632,0.0841 -15.37079,2.34875 5.44624,-0.46258 10.28525,0.72292 15.36549,0.56421 4.54117,-0.0155 9.10844,-0.35454 13.6238,0.28683 6.68857,0.27111 13.42779,0.0528 20.01727,-1.19867 1.74179,-0.17956 3.48954,0.24734 5.2284,0.009 z"
       style="fill:#959a2d;fill-opacity:1;fill-rule:evenodd;stroke:none;stroke-width:1px;stroke-linecap:butt;stroke-linejoin:miter;stroke-opacity:1" />
    <path
       style="fill:#47976d;fill-opacity:1;fill-rule:evenodd;stroke:none;stroke-width:1px;stroke-linecap:butt;stroke-linejoin:miter;stroke-opacity:1"
       d="m -181.6178,134.28201 c -3.87075,1.50305 -8.12172,0.75013 -11.73795,-1.35273 -8.24481,-0.31685 -1.36341,-2.58813 -0.18509,-7.41566 0,0 -2.8837,2.56285 -4.3996,3.21106 -1.48445,1.13528 -2.87747,1.91314 -3.66012,3.88775 1.20431,-1.65902 1.81691,-6.16102 1.81691,-6.16102 -2.33066,3.19272 -4.18398,6.45899 -3.54619,3.45697 0.68431,-3.97362 3.4256,-11.5296 3.4256,-11.5296 0,0 -2.45904,5.38609 -3.52329,8.16375 -0.32651,1.79955 -0.81795,3.99386 -2.27494,4.8773 -1.80826,0.0356 -3.00876,-3.99438 -3.00876,-3.99438 -0.85573,3.94652 2.76042,7.13638 -0.54666,5.70428 -1.01265,-1.35043 -3.14775,-3.24349 -4.18614,-0.85797 -5.4741,0.70533 -7.83141,0.0841 -12.5873,2.34875 4.45998,-0.46258 8.4227,0.72292 12.58296,0.56421 3.71881,-0.0155 7.45899,-0.35454 11.15666,0.28683 5.47732,0.27111 10.99614,0.0528 16.39232,-1.19867 1.42637,-0.17956 2.85762,0.24734 4.28159,0.009 z"
       id="path4498"
       inkscape:connector-curvature="0"
       sodipodi:nodetypes="ccccccccccccccccccc" />
    <path
       style="fill:#959a2d;fill-opacity:1;fill-rule:evenodd;stroke:none;stroke-width:1px;stroke-linecap:butt;stroke-linejoin:miter;stroke-opacity:1"
       d="m 189.76505,284.82502 c -4.72671,1.50305 -9.91772,0.75013 -14.33363,-1.35273 -10.06805,-0.31685 -1.66491,-2.58813 -0.22602,-7.41566 0,0 -3.52139,2.56285 -5.37251,3.21106 -1.81273,1.13528 -3.5138,1.91314 -4.46952,3.88775 1.47063,-1.65902 2.2187,-6.16102 2.2187,-6.16102 -2.84606,3.19272 -5.10921,6.45899 -4.33039,3.45697 0.83564,-3.97362 4.18313,-11.5296 4.18313,-11.5296 0,0 -3.00282,5.38609 -4.30242,8.16375 -0.39871,1.79955 -0.99883,3.99386 -2.77801,4.8773 -2.20813,0.0356 -3.6741,-3.99438 -3.6741,-3.99438 -1.04497,3.94652 3.37084,7.13638 -0.66755,5.70428 -1.23659,-1.35043 -3.84383,-3.24349 -5.11185,-0.85797 -6.68461,0.70533 -9.5632,0.0841 -15.37079,2.34875 5.44624,-0.46258 10.28525,0.72292 15.36549,0.56421 4.54117,-0.0155 9.10844,-0.35454 13.6238,0.28683 6.68857,0.27111 13.42779,0.0528 20.01727,-1.19867 1.74179,-0.17956 3.48954,0.24734 5.2284,0.009 z"
       id="path4500"
       inkscape:connector-curvature="0"
       sodipodi:nodetypes="ccccccccccccccccccc" />
    <path
       sodipodi:nodetypes="ccccccccccccccccccc"
       inkscape:connector-curvature="0"
       id="path4502"
       d="m 207.46321,202.47977 c -5.58507,1.50305 -11.71875,0.75013 -16.93659,-1.35273 -11.89639,-0.31685 -1.96725,-2.58813 -0.26706,-7.41566 0,0 -4.16087,2.56285 -6.34815,3.21106 -2.14192,1.13528 -4.1519,1.91314 -5.28118,3.88775 1.7377,-1.65902 2.62161,-6.16102 2.62161,-6.16102 -3.3629,3.19272 -6.03703,6.45899 -5.11678,3.45697 0.98739,-3.97362 4.94278,-11.5296 4.94278,-11.5296 0,0 -3.54813,5.38609 -5.08373,8.16375 -0.47112,1.79955 -1.18022,3.99386 -3.28249,4.8773 -2.60913,0.0356 -4.34131,-3.99438 -4.34131,-3.99438 -1.23474,3.94652 3.98297,7.13638 -0.78878,5.70428 -1.46115,-1.35043 -4.54186,-3.24349 -6.04016,-0.85797 -7.89852,0.70533 -11.29986,0.0841 -18.1621,2.34875 6.43527,-0.46258 12.15304,0.72292 18.15584,0.56421 5.36584,-0.0155 10.76252,-0.35454 16.09786,0.28683 7.90321,0.27111 15.86626,0.0528 23.65237,-1.19867 2.0581,-0.17956 4.12324,0.24734 6.17787,0.009 z"
       style="fill:#859a2d;fill-opacity:1;fill-rule:evenodd;stroke:none;stroke-width:1px;stroke-linecap:butt;stroke-linejoin:miter;stroke-opacity:1" />
    <path
       sodipodi:nodetypes="ccccccccccccccccccc"
       inkscape:connector-curvature="0"
       id="path4504"
       d="m 25.133367,186.11976 c 3.87075,1.50305 8.12172,0.75013 11.73795,-1.35273 8.24481,-0.31685 1.36341,-2.58813 0.18509,-7.41566 0,0 2.8837,2.56285 4.3996,3.21106 1.48445,1.13528 2.87747,1.91314 3.66012,3.88775 -1.20431,-1.65902 -1.81691,-6.16102 -1.81691,-6.16102 2.33066,3.19272 4.18398,6.45899 3.54619,3.45697 -0.68431,-3.97362 -3.4256,-11.5296 -3.4256,-11.5296 0,0 2.45904,5.38609 3.52329,8.16375 0.32651,1.79955 0.81795,3.99386 2.27494,4.8773 1.80826,0.0356 3.00876,-3.99438 3.00876,-3.99438 0.85573,3.94652 -2.76042,7.13638 0.54666,5.70428 1.01265,-1.35043 3.14775,-3.24349 4.18614,-0.85797 5.4741,0.70533 7.83141,0.0841 12.5873,2.34875 -4.45998,-0.46258 -8.4227,0.72292 -12.58296,0.56421 -3.71881,-0.0155 -7.45899,-0.35454 -11.15666,0.28683 -5.47732,0.27111 -10.99614,0.0528 -16.39232,-1.19867 -1.42637,-0.17956 -2.85763,0.24734 -4.28159,0.009 z"
       style="fill:#47976d;fill-opacity:1;fill-rule:evenodd;stroke:none;stroke-width:1px;stroke-linecap:butt;stroke-linejoin:miter;stroke-opacity:1" />
    <path
       style="fill:#c87137;fill-rule:evenodd;stroke:#c87137;stroke-width:0.20000002;stroke-linecap:butt;stroke-linejoin:miter;stroke-miterlimit:4;stroke-dasharray:none;stroke-opacity:1"
       d="m 89.644824,48.137794 c -1.6602,-0.89954 -3.40931,-1.62096 -5.15832,-2.27354 -0.95838,-0.47868 -3.30137,-1.7115 -4.68731,-2.69115 -1.40827,-0.50204 -1.11466,-1.4889 0.24413,-1.03153 2.31068,0.28449 4.69352,0.0444 6.9478,0.70876 0.97719,0.61473 1.35055,1.07637 0.43672,-0.22775 -1.17893,-1.75453 -2.60423,-3.33769 -3.92178,-4.91468 -0.78065,-0.64098 -1.04009,-1.44009 -0.01,-0.29285 1.77683,1.24793 3.26922,2.87789 4.92361,4.29911 1.43588,0.62993 -0.36139,-2.37126 -0.42592,-3.38222 -0.53729,-1.86036 -1.33435,-3.6472 -1.46225,-5.60919 -0.17556,-0.9537 -1.48603,-4.52768 -0.28267,-2.16994 0.58459,2.092 1.31477,3.50979 1.86574,5.46227 0.90219,1.38602 1.92039,4.64313 2.59845,4.92429 0.67268,-2.58601 -0.16504,-5.27956 0.10135,-7.91961 -0.29952,-0.86721 0.49645,-4.4816 0.59334,-1.93479 0.17545,0.95009 -0.23856,2.96751 0.11268,2.5338 0.15425,1.92266 0.18064,3.89189 0.60573,5.76843 1.68985,0.9953 2.83608,-2.565 3.78562,-3.92729 1.55723,-1.29301 -0.35224,1.97797 -0.73492,2.52409 -1.09692,1.60809 -2.68591,3.39083 -2.68769,5.44136 2.15575,0.41985 3.74606,-1.59161 5.61685,-2.36114 0.96561,-0.38101 2.427596,-0.98581 0.7767,0.0683 -1.86057,1.47573 -4.2504,1.43757 -6.25476,2.57618 1.93882,-0.13359 3.8157,0.77599 5.76794,0.44374 0.89954,-0.0404 2.846986,-0.11711 0.95632,0.4179 -2.52599,0.95172 -5.11619,1.77018 -7.79058,1.98861 -0.312,0.17261 -2.28731,0.59371 -1.84458,0.44059"
       id="path4506"
       inkscape:connector-curvature="0" />
    <path
       style="fill:#c87137;fill-rule:evenodd;stroke:#c87137;stroke-width:0.20000002;stroke-linecap:butt;stroke-linejoin:miter;stroke-miterlimit:4;stroke-dasharray:none;stroke-opacity:1"
       d="m 94.261824,46.796794 c -3.04763,-1.49844 -5.43083,-4.14957 -7.98082,-6.45002 -1.08001,-1.41967 -2.71271,-2.17472 -3.54214,-3.87141 -0.87917,-0.6864 -1.79837,-2.19365 -0.16274,-1.0099 1.37088,1.2958 2.46607,2.94436 4.14075,3.82191 1.97775,1.46255 3.98551,2.87986 5.75496,4.64916 2.24878,1.94138 0.40872,-1.71974 -0.17493,-2.65433 -1.4927,-2.77399 -3.86948,-5.29199 -3.75056,-8.76993 -0.42693,-1.71146 -0.35902,-1.40065 0.38929,-0.14909 2.16738,3.72001 4.62731,7.22427 6.5432,11.11871 0.5018,0.76468 1.80127,3.7514 1.23642,1.11618 -0.80198,-4.68655 -2.48212,-9.09494 -3.84304,-13.60159 0.63589,-0.97992 0.5785,2.23423 1.1089,2.92122 0.65776,2.13122 0.84582,4.40115 1.7189,6.45762 0.10043,2.20947 1.31581,1.10869 1.47895,-0.41747 0.7894,-2.5609 1.08461,-5.25024 1.45915,-7.90348 0.33044,-1.27877 -0.83563,1.41039 -0.60156,2.0286 0.003,0.48515 -0.55935,1.18573 -0.17215,0.46057 -0.0539,2.43858 -1.01085,4.64808 -1.8594,6.84474 -1.22949,2.07427 0.94227,2.68694 2.17615,1.43601 1.863036,-1.49492 3.985386,-2.48708 5.688406,-4.20991 1.44131,-0.74473 1.21563,-1.96528 -0.32597,-1.24445 -1.96127,0.6249 -4.066446,1.3708 -5.312826,3.30155 -0.82155,0.87275 -2.17601,2.66768 -2.08975,3.47149 1.80365,0.25891 3.7444,0.25739 5.444746,-0.49888 0.83692,-0.34788 3.31865,-0.994 3.01043,-1.46117 -1.97945,0.32966 -3.89685,0.98662 -5.874016,1.24976 -1.21264,0.41145 -3.33883,0.35844 -3.79276,1.83901"
       id="path4508"
       inkscape:connector-curvature="0" />
    <path
       inkscape:connector-curvature="0"
       id="path4516"
       d="m -281.52296,32.719963 c -1.6602,-0.89954 -3.40931,-1.62096 -5.15832,-2.27354 -0.95838,-0.47868 -3.30137,-1.7115 -4.68731,-2.69115 -1.40828,-0.50205 -1.11467,-1.48891 0.24413,-1.03154 2.31068,0.28449 4.69352,0.0444 6.9478,0.70876 0.97719,0.61474 1.35055,1.07638 0.43672,-0.22775 -1.17893,-1.75453 -2.60423,-3.33769 -3.92178,-4.91468 -0.78065,-0.64098 -1.04009,-1.44009 -0.01,-0.29285 1.77683,1.24793 3.26922,2.87789 4.92361,4.29911 1.43588,0.62993 -0.36139,-2.37126 -0.42592,-3.38222 -0.53729,-1.86036 -1.33435,-3.647198 -1.46225,-5.609188 -0.17556,-0.9537 -1.48603,-4.52768 -0.28267,-2.16994 0.58459,2.092 1.31477,3.50979 1.86574,5.462268 0.90219,1.38602 1.92039,4.64313 2.59845,4.92429 0.67268,-2.58601 -0.16504,-5.27956 0.10135,-7.919608 -0.29952,-0.86721 0.49645,-4.4816 0.59334,-1.93479 0.17545,0.95009 -0.23856,2.96751 0.11268,2.5338 0.15425,1.922658 0.18064,3.891888 0.60573,5.768428 1.68985,0.9953 2.83608,-2.565 3.78562,-3.92729 1.55723,-1.293008 -0.35224,1.97797 -0.73492,2.52409 -1.09692,1.60809 -2.68591,3.39083 -2.68769,5.44137 2.15575,0.41985 3.74606,-1.59162 5.61685,-2.36115 0.96561,-0.38101 2.4276,-0.98581 0.7767,0.0683 -1.86057,1.47573 -4.2504,1.43757 -6.25476,2.57619 1.93882,-0.13359 3.8157,0.77599 5.76794,0.44374 0.89954,-0.0404 2.84699,-0.11711 0.95632,0.4179 -2.52599,0.95172 -5.11619,1.77018 -7.79058,1.98861 -0.312,0.17261 -2.28731,0.59371 -1.84458,0.44059"
       style="fill:#c87137;fill-rule:evenodd;stroke:#c87137;stroke-width:0.20000002;stroke-linecap:butt;stroke-linejoin:miter;stroke-miterlimit:4;stroke-dasharray:none;stroke-opacity:1" />
    <path
       style="fill:#c89337;fill-opacity:1;fill-rule:evenodd;stroke:#c89337;stroke-width:0.20000002;stroke-linecap:butt;stroke-linejoin:miter;stroke-miterlimit:4;stroke-dasharray:none;stroke-opacity:1"
       d="m -316.6254,90.524009 c 1.6602,-0.89954 3.40931,-1.62096 5.15832,-2.27354 0.95838,-0.47868 3.30137,-1.7115 4.68731,-2.69115 1.40828,-0.50204 1.11467,-1.4889 -0.24413,-1.03153 -2.31068,0.28449 -4.69352,0.0444 -6.9478,0.70876 -0.97719,0.61473 -1.35055,1.07637 -0.43672,-0.22775 1.17893,-1.75453 2.60423,-3.33769 3.92178,-4.91468 0.78065,-0.64098 1.04009,-1.44009 0.01,-0.29285 -1.77683,1.24793 -3.26922,2.87789 -4.92361,4.29911 -1.43588,0.62993 0.36139,-2.37126 0.42592,-3.38222 0.53729,-1.86036 1.33435,-3.6472 1.46225,-5.60919 0.17556,-0.9537 1.48603,-4.52768 0.28267,-2.16994 -0.58459,2.092 -1.31477,3.50979 -1.86574,5.46227 -0.90219,1.38602 -1.92039,4.64313 -2.59845,4.92429 -0.67268,-2.58601 0.16504,-5.27956 -0.10135,-7.91961 0.29952,-0.86721 -0.49645,-4.4816 -0.59334,-1.93479 -0.17545,0.95009 0.23856,2.96751 -0.11268,2.5338 -0.15425,1.92266 -0.18064,3.89189 -0.60573,5.76843 -1.68985,0.9953 -2.83608,-2.565 -3.78562,-3.92729 -1.55723,-1.29301 0.35224,1.97797 0.73492,2.52409 1.09692,1.60809 2.68591,3.39083 2.68769,5.44136 -2.15575,0.41985 -3.74606,-1.59161 -5.61685,-2.36114 -0.96561,-0.38101 -2.4276,-0.98581 -0.7767,0.0683 1.86057,1.47573 4.2504,1.43757 6.25476,2.57618 -1.93882,-0.13359 -3.8157,0.77599 -5.76794,0.44374 -0.89954,-0.0404 -2.84699,-0.11711 -0.95632,0.4179 2.52599,0.95172 5.11619,1.77018 7.79058,1.98861 0.312,0.17261 2.28731,0.59371 1.84458,0.44059"
       id="path4528"
       inkscape:connector-curvature="0" />
    <path
       style="fill:#c89337;fill-opacity:1;fill-rule:evenodd;stroke:#c89337;stroke-width:0.20000002;stroke-linecap:butt;stroke-linejoin:miter;stroke-miterlimit:4;stroke-dasharray:none;stroke-opacity:1"
       d="m -313.86905,89.540149 c -3.04763,-1.49844 -5.43083,-4.14957 -7.98082,-6.45002 -1.08001,-1.41967 -2.71272,-2.17472 -3.54215,-3.87141 -0.87917,-0.6864 -1.79837,-2.19365 -0.16274,-1.0099 1.37088,1.2958 2.46608,2.94436 4.14076,3.82191 1.97775,1.46255 3.98551,2.87986 5.75496,4.64916 2.24878,1.94138 0.40872,-1.71974 -0.17493,-2.65433 -1.4927,-2.77399 -3.86948,-5.29199 -3.75056,-8.76993 -0.42693,-1.71146 -0.35902,-1.40065 0.38929,-0.14909 2.16738,3.72001 4.62731,7.22427 6.5432,11.11871 0.5018,0.76468 1.80127,3.7514 1.23642,1.11618 -0.80198,-4.68655 -2.48212,-9.09494 -3.84304,-13.60159 0.63589,-0.97992 0.5785,2.23423 1.1089,2.92122 0.65776,2.13122 0.84582,4.40115 1.7189,6.45762 0.10043,2.20947 1.31581,1.10869 1.47895,-0.41747 0.7894,-2.5609 1.08461,-5.25024 1.45915,-7.90348 0.33044,-1.27877 -0.83563,1.41039 -0.60156,2.0286 0.003,0.48515 -0.55935,1.18573 -0.17215,0.46057 -0.0539,2.43858 -1.01085,4.64808 -1.8594,6.84474 -1.22949,2.07427 0.94227,2.68694 2.17615,1.43601 1.86304,-1.49492 3.98539,-2.48708 5.68841,-4.20991 1.44131,-0.74473 1.21563,-1.96528 -0.32597,-1.24445 -1.96127,0.6249 -4.06645,1.3708 -5.31283,3.30155 -0.82155,0.87275 -2.17601,2.66768 -2.08975,3.47149 1.80365,0.25891 3.7444,0.25739 5.44475,-0.49888 0.83692,-0.34788 3.31865,-0.994 3.01043,-1.46117 -1.97945,0.32966 -3.89685,0.98662 -5.87402,1.24976 -1.21264,0.41145 -3.33883,0.35844 -3.79276,1.83901"
       id="path4530"
       inkscape:connector-curvature="0" />
    <path
       sodipodi:nodetypes="ccccccccccccccccccc"
       inkscape:connector-curvature="0"
       id="path4532"
       d="m 323.61506,151.18975 c 4.72671,1.50305 9.91772,0.75013 14.33363,-1.35273 10.06805,-0.31685 1.66491,-2.58813 0.22602,-7.41566 0,0 3.52139,2.56285 5.37251,3.21106 1.81273,1.13528 3.5138,1.91314 4.46952,3.88775 -1.47063,-1.65902 -2.2187,-6.16102 -2.2187,-6.16102 2.84606,3.19272 5.10921,6.45899 4.33039,3.45697 -0.83564,-3.97362 -4.18313,-11.5296 -4.18313,-11.5296 0,0 3.00282,5.38609 4.30242,8.16375 0.39871,1.79955 0.99883,3.99386 2.77801,4.8773 2.20813,0.0356 3.6741,-3.99438 3.6741,-3.99438 1.04497,3.94652 -3.37084,7.13638 0.66755,5.70428 1.23659,-1.35043 3.84383,-3.24349 5.11185,-0.85797 6.68461,0.70533 9.5632,0.0841 15.37079,2.34875 -5.44624,-0.46258 -10.28525,0.72292 -15.36549,0.56421 -4.54117,-0.0155 -9.10844,-0.35454 -13.6238,0.28683 -6.68857,0.27111 -13.42779,0.0528 -20.01727,-1.19867 -1.74179,-0.17956 -3.48954,0.24734 -5.2284,0.009 z"
       style="fill:#959a2d;fill-opacity:1;fill-rule:evenodd;stroke:none;stroke-width:1px;stroke-linecap:butt;stroke-linejoin:miter;stroke-opacity:1" />
    <path
       inkscape:connector-curvature="0"
       id="path4673"
       d="m 338.25762,114.02034 c 1.6602,-0.89954 3.40931,-1.62096 5.15832,-2.27354 0.95838,-0.47868 3.30137,-1.7115 4.68731,-2.69115 1.40828,-0.50204 1.11467,-1.4889 -0.24413,-1.03153 -2.31068,0.28449 -4.69352,0.0444 -6.9478,0.70876 -0.97719,0.61473 -1.35055,1.07637 -0.43672,-0.22775 1.17893,-1.75453 2.60423,-3.33769 3.92178,-4.91468 0.78065,-0.64098 1.04009,-1.44009 0.01,-0.29285 -1.77683,1.24793 -3.26922,2.87789 -4.92361,4.29911 -1.43588,0.62993 0.36139,-2.37126 0.42592,-3.38222 0.53729,-1.86036 1.33435,-3.6472 1.46225,-5.609186 0.17556,-0.9537 1.48603,-4.52768 0.28267,-2.16994 -0.58459,2.092 -1.31477,3.50979 -1.86574,5.462266 -0.90219,1.38602 -1.92039,4.64313 -2.59845,4.92429 -0.67268,-2.58601 0.16504,-5.27956 -0.10135,-7.919606 0.29952,-0.86721 -0.49645,-4.4816 -0.59334,-1.93479 -0.17545,0.95009 0.23856,2.96751 -0.11268,2.5338 -0.15425,1.922656 -0.18064,3.891886 -0.60573,5.768426 -1.68985,0.9953 -2.83608,-2.565 -3.78562,-3.92729 -1.55723,-1.29301 0.35224,1.97797 0.73492,2.52409 1.09692,1.60809 2.68591,3.39083 2.68769,5.44136 -2.15575,0.41985 -3.74606,-1.59161 -5.61685,-2.36114 -0.96561,-0.38101 -2.4276,-0.98581 -0.7767,0.0683 1.86057,1.47573 4.2504,1.43757 6.25476,2.57618 -1.93882,-0.13359 -3.8157,0.77599 -5.76794,0.44374 -0.89954,-0.0404 -2.84699,-0.11711 -0.95632,0.4179 2.52599,0.95172 5.11619,1.77018 7.79058,1.98861 0.312,0.17261 2.28731,0.59371 1.84458,0.44059"
       style="fill:#c89337;fill-opacity:1;fill-rule:evenodd;stroke:#c89337;stroke-width:0.20000002;stroke-linecap:butt;stroke-linejoin:miter;stroke-miterlimit:4;stroke-dasharray:none;stroke-opacity:1" />
    <path
       inkscape:connector-curvature="0"
       id="path4675"
       d="m 338.99776,113.03648 c 3.04763,-1.49844 5.43083,-4.14957 7.98082,-6.45002 1.08001,-1.41967 2.71272,-2.17472 3.54215,-3.87141 0.87917,-0.6864 1.79837,-2.19365 0.16274,-1.0099 -1.37088,1.2958 -2.46608,2.94436 -4.14076,3.82191 -1.97775,1.46255 -3.98551,2.87986 -5.75496,4.64916 -2.24878,1.94138 -0.40872,-1.71974 0.17493,-2.65433 1.4927,-2.77399 3.86948,-5.29199 3.75056,-8.769926 0.42693,-1.71146 0.35902,-1.40065 -0.38929,-0.14909 -2.16738,3.720006 -4.62731,7.224266 -6.5432,11.118706 -0.5018,0.76468 -1.80127,3.7514 -1.23642,1.11618 0.80198,-4.68655 2.48212,-9.09494 3.84304,-13.601586 -0.63589,-0.97992 -0.5785,2.23423 -1.1089,2.921216 -0.65776,2.13122 -0.84582,4.40115 -1.7189,6.45762 -0.10043,2.20947 -1.31581,1.10869 -1.47895,-0.41747 -0.7894,-2.5609 -1.08461,-5.25024 -1.45915,-7.903476 -0.33044,-1.27877 0.83563,1.41039 0.60156,2.028596 -0.003,0.48515 0.55935,1.18573 0.17215,0.46057 0.0539,2.43858 1.01085,4.64808 1.8594,6.84474 1.22949,2.07427 -0.94227,2.68694 -2.17615,1.43601 -1.86304,-1.49492 -3.98539,-2.48708 -5.68841,-4.20991 -1.44131,-0.74473 -1.21563,-1.96528 0.32597,-1.24445 1.96127,0.6249 4.06645,1.3708 5.31283,3.30155 0.82155,0.87275 2.17601,2.66768 2.08975,3.47149 -1.80365,0.25891 -3.7444,0.25739 -5.44475,-0.49888 -0.83692,-0.34788 -3.31865,-0.994 -3.01043,-1.46117 1.97945,0.32966 3.89685,0.98662 5.87402,1.24976 1.21264,0.41145 3.33883,0.35844 3.79276,1.83901"
       style="fill:#c89337;fill-opacity:1;fill-rule:evenodd;stroke:#c89337;stroke-width:0.20000002;stroke-linecap:butt;stroke-linejoin:miter;stroke-miterlimit:4;stroke-dasharray:none;stroke-opacity:1" />
    <path
       style="fill:none;fill-rule:evenodd;stroke:#6c6753;stroke-width:2.00000024;stroke-linecap:butt;stroke-linejoin:miter;stroke-miterlimit:4;stroke-dasharray:none;stroke-opacity:0.1440678;filter:url(#filter4809)"
       d="m -305.98673,251.4151 c 1.07143,0 2.14285,0 3.21428,0 0.35715,0 0.73262,0.11294 1.07143,0 0.40721,-0.13573 0.6603,-0.59094 1.07143,-0.71428 7.11261,-2.13378 -2.5625,1.75701 5.35714,-1.07143 0.75207,-0.2686 1.42857,-0.71429 2.14286,-1.07143 0.71429,-0.35714 1.45807,-0.66055 2.14286,-1.07143 0.51041,-0.30625 0.8759,-0.85036 1.42857,-1.07143 0.67234,-0.26893 1.48113,-0.063 2.14286,-0.35714 0.46154,-0.20513 0.69393,-0.73587 1.07142,-1.07143 0.69494,-0.61772 1.44793,-1.16799 2.14286,-1.78571 0.3775,-0.33556 0.69132,-0.73884 1.07143,-1.07143 0.57367,-0.50196 1.2467,-0.88956 1.78571,-1.42857 0.53902,-0.53901 0.79432,-1.36288 1.42858,-1.78572 0.50507,-0.33671 1.231,-0.1106 1.78571,-0.35714 0.54394,-0.24175 0.90824,-0.78235 1.42857,-1.07143 0.56042,-0.31134 1.24207,-0.37451 1.78572,-0.71428 0.4283,-0.26769 0.65118,-0.79127 1.07142,-1.07143 0.31324,-0.20883 0.73472,-0.18879 1.07143,-0.35715 0.38392,-0.19195 0.68751,-0.52232 1.07143,-0.71428 0.33672,-0.16836 0.72742,-0.20425 1.07143,-0.35714 0.72977,-0.32434 1.42857,-0.71429 2.14286,-1.07143 0.47619,-0.2381 0.96317,-0.45573 1.42857,-0.71429 0.6068,-0.33711 1.20814,-0.68638 1.78571,-1.07143 0.49527,-0.33018 0.88464,-0.82968 1.42857,-1.07143 0.55471,-0.24653 1.28064,-0.0204 1.78572,-0.35714 0.63425,-0.42283 0.83333,-1.30952 1.42857,-1.78571 0.6236,-0.49888 1.42857,-0.71429 2.14286,-1.07143 0.71428,-0.47619 1.47844,-0.88496 2.14285,-1.42857 0.65152,-0.53306 1.22646,-1.15655 1.78572,-1.78572 1.35126,-1.52016 0.67023,-1.27281 2.14286,-2.5 0.32974,-0.27478 0.74168,-0.43949 1.07142,-0.71428 0.38801,-0.32334 0.65118,-0.79126 1.07143,-1.07143 0.31324,-0.20882 0.77026,-0.13127 1.07143,-0.35714 0.21296,-0.15972 0.16891,-0.52606 0.35714,-0.71429 0.99701,-0.99701 0.49735,0.28704 1.78572,-0.35714 1.90476,-0.95238 -1.30952,-0.59524 1.07143,-1.07143 0.3502,-0.07 0.71428,0 1.07143,0 0.35714,0 0.75199,0.15972 1.07142,0 0.2381,-0.11905 0.11905,-0.59524 0.35715,-0.71429 0.31944,-0.15972 0.71428,0 1.07143,0 0.23809,0 0.47619,0 0.71428,0 1.19048,0 2.38095,0 3.57143,0 0.35714,0 0.71429,0 1.07143,0 0.35714,0 0.71914,0.0587 1.07143,0 0.48639,-0.0811 2.75389,-1.03271 2.85714,-1.07143 0.35249,-0.13218 0.72541,-0.20884 1.07143,-0.35714 0.48935,-0.20972 0.91863,-0.5613 1.42857,-0.71428 0.6936,-0.20808 1.44423,-0.16661 2.14286,-0.35715 1.70504,-0.46501 1.57446,-0.88922 3.21428,-1.07143 0.5916,-0.0657 1.19048,0 1.78572,0 1.19047,0 2.38095,0 3.57143,0 0.71428,0 1.42857,0 2.14285,0 0.35715,0 0.71429,0 1.07143,0 0.2381,0 0.48841,-0.0753 0.71429,0 0.15972,0.0532 0.19107,0.32947 0.35714,0.35715 0.58714,0.0978 1.19507,-0.0738 1.78571,0 1.12629,0.14078 1.37143,0.73285 2.5,1.07143 0.6936,0.20808 1.42315,0.27717 2.14286,0.35714 0.35496,0.0394 0.73261,-0.11294 1.07143,0 0.40721,0.13573 0.68751,0.52233 1.07143,0.71428 0.33672,0.16836 0.72741,0.20425 1.07143,0.35715 3.51755,1.56335 0.80293,0.74383 5,2.14285 0.8222,0.27407 1.65919,0.50409 2.5,0.71429 0.5889,0.14723 1.21734,0.144 1.78571,0.35714 0.4019,0.15072 0.66422,0.57855 1.07143,0.71429 0.0984,0.0328 2.01366,-0.0323 2.14286,0 0.16333,0.0408 0.19381,0.31631 0.35714,0.35714 0.34648,0.0866 0.73983,-0.13264 1.07143,0 0.31263,0.12506 0.39901,0.59606 0.71428,0.71429 0.67804,0.25426 1.45588,0.12815 2.14286,0.35714 0.40721,0.13574 0.66422,0.57855 1.07143,0.71429 0.33882,0.11293 0.71429,0 1.07143,0 0.11905,0 0.27296,-0.0842 0.35714,0 0.0842,0.0842 -0.10648,0.3039 0,0.35714 0.21296,0.10648 0.51618,-0.13207 0.71429,0 0.22149,0.14766 0.23809,0.47619 0.35714,0.71428 0.35714,0.11905 0.71894,0.22496 1.07143,0.35715 0.60027,0.2251 1.2123,0.42758 1.78571,0.71428 0.15059,0.0753 0.19743,0.30391 0.35715,0.35715 0.22587,0.0753 0.54592,-0.16836 0.71428,0 0.16836,0.16836 -0.10648,0.50132 0,0.71428 0.0532,0.10648 0.24421,-0.0376 0.35714,0 0.25254,0.0842 0.46175,0.27297 0.71429,0.35714 0.11294,0.0377 0.3039,-0.10647 0.35714,0 0.10648,0.21296 0,0.4762 0,0.71429"
       id="path4767"
       inkscape:connector-curvature="0"
       transform="matrix(1,0,0,-1,472.2938,450.13338)" />
    <g
       id="g4214"
       transform="translate(-32.857145,-7.8571437)">
      <path
         inkscape:connector-curvature="0"
         id="path4200"
         d="m 252.79067,195.6065 c -0.80276,1.04005 0.92154,0.73101 1.01016,1.26269 0.0692,0.41517 -0.1331,0.86339 0,1.26269 0.0595,0.17857 0.42089,0.0842 0.50507,0.25254 0.11294,0.22588 0,0.50507 0,0.75761 0,0.16836 0,0.33672 0,0.50508 0,0.84179 0,1.68359 0,2.52538 0,0.4209 0,0.84179 0,1.26269 0,0.0842 0.0266,0.17268 0,0.25254 -0.0595,0.17857 -0.21562,0.3205 -0.25254,0.50508 -0.0495,0.24763 0.14009,0.54749 0,0.75761 -0.0934,0.14008 -0.34535,-0.0532 -0.50507,0 -0.11294,0.0376 -0.18111,0.1573 -0.25254,0.25254 -0.18211,0.24281 -0.24482,0.60146 -0.50508,0.75761 -0.21655,0.12993 -0.54749,-0.14008 -0.75761,0 -0.82137,0.54758 0.69984,0.44016 -0.25254,0.75762 -0.15972,0.0532 -0.33672,0 -0.50508,0 -0.33671,0 -0.67343,0 -1.01015,0 -0.16836,0 -0.33672,0 -0.50507,0 -0.0842,0 -0.1825,-0.0467 -0.25254,0 -0.19811,0.13207 -0.28401,0.41665 -0.50508,0.50507 -0.23448,0.0938 -0.50508,0 -0.75761,0 -0.75762,0 -1.51523,0 -2.27285,0 -0.25253,0 -0.51261,-0.0613 -0.75761,0 -0.11549,0.0289 -0.13511,0.23297 -0.25254,0.25254 -0.41517,0.0692 -0.84179,0 -1.26269,0 -0.25254,0 -0.50508,0 -0.75761,0 -0.0842,0 -0.17725,-0.0376 -0.25254,0 -0.27147,0.13574 -0.46133,0.43924 -0.75762,0.50508 -0.49305,0.10956 -1.01015,0 -1.51523,0 -1.01587,0 -0.49935,0 -1.51522,0 -1.17852,0 -2.35703,0 -3.53554,0 -0.25254,0 -0.50507,0 -0.75761,0 -0.25254,0 -0.50852,0.0415 -0.75762,0 -0.26257,-0.0438 -0.49304,-0.22314 -0.75761,-0.25254 -0.50199,-0.0558 -1.01015,0 -1.51523,0 -0.25254,0 -0.50508,0 -0.75761,0 -0.25254,0 -0.51804,0.0799 -0.75762,0 -0.28794,-0.096 -0.4669,-0.41786 -0.75761,-0.50508 -4.79227,-1.43768 0.96957,0.69248 -3.283,-0.25253 -0.29629,-0.0659 -0.46316,-0.43147 -0.75761,-0.50508 -0.40833,-0.10208 -0.84752,0.0692 -1.26269,0 -0.11743,-0.0196 -0.14606,-0.1993 -0.25254,-0.25254 -0.40546,-0.20273 -0.83264,-0.36172 -1.26269,-0.50508 -3.98236,-1.32745 2.44608,0.9272 -2.27285,-0.25253 -0.29445,-0.0736 -0.49229,-0.35768 -0.75761,-0.50508 -0.63816,-0.35453 -2.64291,-1.31828 -3.283,-1.51523 -0.4894,-0.15058 -1.01847,-0.12835 -1.51523,-0.25254 -0.5165,-0.12912 -1.00159,-0.36499 -1.51522,-0.50507 -0.41411,-0.11294 -0.85549,-0.11681 -1.2627,-0.25254 -0.35714,-0.11905 -0.64956,-0.3969 -1.01015,-0.50508 -0.49045,-0.14713 -1.01847,-0.12835 -1.51523,-0.25254 -0.5165,-0.12912 -0.99872,-0.37595 -1.51523,-0.50507 -0.49675,-0.12419 -1.03401,-0.0776 -1.51522,-0.25254 -0.4613,-0.16774 -0.79704,-0.6024 -1.26269,-0.75761 -0.31944,-0.10648 -0.69072,0.10647 -1.01016,0 -0.22587,-0.0753 -0.29211,-0.3986 -0.50507,-0.50508 -0.31044,-0.15522 -0.68089,-0.14278 -1.01016,-0.25254 -0.43005,-0.14335 -0.84179,-0.33672 -1.26269,-0.50508 -0.50507,-0.0842 -1.02478,-0.1054 -1.51523,-0.25253 -0.75219,-0.22566 -1.5961,-0.96192 -2.27284,-1.26269 -0.31716,-0.14097 -0.69299,-0.11158 -1.01015,-0.25254 -0.44854,-0.19935 -0.84646,-0.49747 -1.26269,-0.75762 -0.75762,-0.47351 -1.51523,-1.07328 -2.27285,-1.51523 -0.48776,-0.28453 -1.04537,-0.44437 -1.51522,-0.75761 -1.03613,-0.69075 -1.50298,-1.40686 -2.52539,-2.0203 -0.48422,-0.29054 -0.9992,-0.52828 -1.51522,-0.75762 -0.24326,-0.10811 -0.53613,-0.10488 -0.75762,-0.25254 -0.29716,-0.1981 -0.45476,-0.56833 -0.75761,-0.75761 -0.38442,-0.24026 -0.87828,-0.26482 -1.26269,-0.50508 -0.30286,-0.18928 -0.48645,-0.52519 -0.75762,-0.75761 -0.31957,-0.27392 -0.69058,-0.4837 -1.01015,-0.75762 -0.27116,-0.23242 -0.46045,-0.5595 -0.75761,-0.75761 -0.2215,-0.14766 -0.53613,-0.10488 -0.75762,-0.25254 -1.67554,-1.11703 0.13725,-0.43645 -1.51523,-1.26269 -0.23809,-0.11905 -0.56938,-0.0643 -0.75761,-0.25254 -0.11905,-0.11905 0.11905,-0.38603 0,-0.50507 -0.11905,-0.11905 -0.35449,0.0753 -0.50508,0 -0.0753,-0.0377 0.0595,-0.19302 0,-0.25254 -0.0595,-0.0595 -0.21489,0.0753 -0.25254,0 -0.0753,-0.15059 0.11905,-0.38603 0,-0.50508 -0.11904,-0.11905 -0.34535,0.0532 -0.50507,0 -0.11294,-0.0377 -0.16836,-0.16836 -0.25254,-0.25254 -0.16836,-0.16836 -0.33672,-0.33671 -0.50508,-0.50507 -0.0842,-0.25254 -0.0928,-0.54466 -0.25254,-0.75762 -0.11293,-0.15058 -0.37197,-0.11944 -0.50507,-0.25254 -0.1331,-0.1331 -0.11944,-0.37197 -0.25254,-0.50507 -0.1331,-0.1331 -0.37198,-0.11944 -0.50508,-0.25254 -1.0445,-1.04451 0.65848,0.10383 -0.25253,-1.26269 -0.0934,-0.14008 -0.3545,0.0753 -0.50508,0 -0.0753,-0.0377 0.0595,-0.19302 0,-0.25254 -0.0595,-0.0595 -0.21489,0.0753 -0.25254,0 -0.0753,-0.15058 0,-0.33672 0,-0.50508 0,-0.0842 0.0467,-0.18249 0,-0.25253 -0.13207,-0.19811 -0.38258,-0.30091 -0.50508,-0.50508 -0.13695,-0.22826 -0.13349,-0.51952 -0.25253,-0.75761 -0.13574,-0.27147 -0.36934,-0.48615 -0.50508,-0.75762 -0.11905,-0.23809 -0.18798,-0.49936 -0.25254,-0.75761 -0.0204,-0.0817 0.0467,-0.1825 0,-0.25254 -0.13207,-0.19811 -0.41665,-0.28401 -0.50507,-0.50508 -0.0938,-0.23447 0.0613,-0.51261 0,-0.75761 -0.0289,-0.11549 -0.16836,-0.16836 -0.25254,-0.25254 -0.16836,-0.16836 -0.37301,-0.30697 -0.50508,-0.50508 -0.0467,-0.07 0,-0.16835 0,-0.25253 0,-0.16836 0.0753,-0.3545 0,-0.50508 -0.33672,-0.67344 -0.25254,0.75761 -0.25254,-0.25254 0,-0.16836 0,-0.33672 0,-0.50507 0,-0.0842 0.0467,-0.1825 0,-0.25254 -0.13207,-0.19811 -0.41665,-0.28401 -0.50507,-0.50508 -0.31944,-0.28488 0.10648,-0.69071 0,-1.01015 -0.29019,-0.87055 -0.25254,-0.18707 -0.25254,-0.75762 0,-0.25253 0,-0.50507 0,-0.75761 0,-0.16836 0.11905,-0.38603 0,-0.50508 -0.11905,-0.11904 -0.35449,0.0753 -0.50508,0 -0.0753,-0.0376 0,-0.16836 0,-0.25254 0,-0.42089 0,-0.84179 0,-1.26269 0,-1.01015 0.0842,0.4209 -0.25254,-0.25253 -0.0753,-0.15059 0,-0.33672 0,-0.50508 0,-0.25254 0,-0.50508 0,-0.75761 0,-0.75762 0,-1.51523 0,-2.27285 0,-0.25254 0,-0.50507 0,-0.75761 0,-0.0842 -0.0595,-0.19302 0,-0.25254 0.0595,-0.0595 0.2149,0.0753 0.25254,0 0.0753,-0.15059 0,-0.33672 0,-0.50508 0,-0.0842 -0.0595,-0.19301 0,-0.25253 0.0595,-0.0595 0.21489,0.0753 0.25254,0 0.0753,-0.15059 0,-0.33672 0,-0.50508 0,-0.0842 -0.0753,-0.21489 0,-0.25254 1.34687,-0.67343 -0.16836,0.84179 0.50508,-0.50508 0.0376,-0.0753 0.17268,0.0266 0.25254,0 0.17857,-0.0595 0.3265,-0.19301 0.50507,-0.25253 0.0799,-0.0266 0.21489,0.0753 0.25254,0 0.0753,-0.15059 -0.11905,-0.38603 0,-0.50508 0.12627,-0.12627 0.56821,0.0631 0.75761,0 0.17858,-0.0595 0.32651,-0.19301 0.50508,-0.25254 0.0799,-0.0266 0.1825,0.0467 0.25254,0 0.19811,-0.13207 0.33672,-0.33672 0.50507,-0.50507 0.0842,-0.0842 0.1396,-0.2149 0.25254,-0.25254 0.15972,-0.0532 0.38603,0.11905 0.50508,0 0.11905,-0.11905 -0.0753,-0.35449 0,-0.50508 0.0376,-0.0753 0.16836,0 0.25254,0 0.67343,0 1.34687,0 2.0203,0 0.0842,0 0.16836,0 0.25254,0 0.16836,0 0.35449,0.0753 0.50508,0 0.0753,-0.0376 -0.0595,-0.19301 0,-0.25254 0.0595,-0.0595 0.16836,0 0.25253,0 0.16836,0 0.33672,0 0.50508,0 1.01015,0 2.02031,0 3.03046,0 0.75761,0 1.51523,0 2.27284,0 0.25254,0 0.50508,0 0.75762,0 0.0842,0 0.18249,0.0467 0.25253,0 0.19811,-0.13207 0.28401,-0.41665 0.50508,-0.50507 0.23448,-0.0938 0.50508,0 0.75762,0 0.58925,0 1.17851,0 1.76776,0 0.92598,0 1.85195,0 2.77792,0 0.0842,0 0.16836,0 0.25254,0 0.25254,0 0.50851,-0.0415 0.75761,0 0.26258,0.0438 0.49348,0.21952 0.75762,0.25254 0.41765,0.0522 0.84179,0 1.26269,0 0.25254,0 0.50508,0 0.75761,0 0.25254,0 0.50508,0 0.75762,0 0.0842,0 0.18249,-0.0467 0.25254,0 0.1981,0.13207 0.29211,0.39859 0.50507,0.50507 0.31044,0.15522 0.67344,0.16836 1.01016,0.25254 0.67343,0.16836 1.34155,0.35963 2.0203,0.50508 0.50068,0.10728 1.01847,0.12835 1.51523,0.25253 0.5165,0.12913 0.99873,0.37595 1.51523,0.50508 1.43751,0.35938 1.65629,0.0705 3.03046,0.75761 0.37646,0.18824 0.64923,0.54107 1.01015,0.75762 0.48422,0.29053 1.01015,0.50508 1.51523,0.75761 0.67343,0.33672 1.33802,0.69176 2.0203,1.01016 0.58095,0.2711 1.22178,0.42162 1.76777,0.75761 0.55993,0.34457 0.96218,0.90716 1.51523,1.26269 0.63334,0.40715 1.39383,0.59251 2.0203,1.01015 0.64575,0.4305 1.14689,1.04958 1.76777,1.51523 1.18553,0.88915 3.02533,1.9629 4.29315,2.77792 0.51062,0.32826 1.02961,0.64594 1.51523,1.01015 0.52597,0.39448 0.95529,0.91812 1.51523,1.2627 0.54599,0.33599 1.19435,0.4709 1.76776,0.75761 0.43903,0.21951 0.83871,0.51029 1.26269,0.75761 0.48485,0.28283 3.77375,2.15848 4.04061,2.27285 0.39453,0.16908 0.86079,0.10182 1.26269,0.25254 0.98438,0.36914 0.49291,0.36967 1.01016,0.75761 0.24281,0.18211 0.48614,0.36934 0.75761,0.50508 2.1462,0.7154 -0.47058,-0.28235 1.26269,0.75761 0.22826,0.13696 0.49937,0.18798 0.75762,0.25254 0.0817,0.0204 0.21489,-0.0753 0.25253,0 0.0753,0.15058 -0.11904,0.38603 0,0.50507 0.11905,0.11905 0.33672,0 0.50508,0 0.0842,0 0.19301,-0.0595 0.25254,0 0.0595,0.0595 0,0.16836 0,0.25254 0.16836,0 0.36499,-0.0934 0.50507,0 0.15662,0.10441 0.1557,0.34367 0.25254,0.50508 0.15616,0.26026 0.26808,0.56801 0.50508,0.75761 1.84522,1.47618 -0.54366,-1.63147 1.76777,1.01016 0.32322,0.3694 0.41053,0.91561 0.75761,1.26269 0.34708,0.34708 0.87001,0.4631 1.26269,0.75761 0.0416,0.0312 1.48385,1.49431 1.51523,1.51523 0.22149,0.14766 0.54466,0.0928 0.75761,0.25254 0.15059,0.11294 0.16836,0.33672 0.25254,0.50507 0.25254,0.25254 0.46046,0.55951 0.75762,0.75762 2.5378,1.69186 -1.89452,-2.2522 2.0203,1.01015 0.1446,0.1205 0.11944,0.37198 0.25254,0.50508 0.1331,0.1331 0.3265,0.19301 0.50508,0.25254 0.0799,0.0266 0.21489,-0.0753 0.25253,0 0.67344,1.34687 -0.84179,-0.16836 0.50508,0.50507 0.0753,0.0377 0,0.16836 0,0.25254 0,1.43105 -0.16836,0.0842 0.25254,0.50508 0.0595,0.0595 -0.0753,0.21489 0,0.25253 0.15058,0.0753 0.33672,0 0.50508,0 0.0842,0 0.21489,-0.0753 0.25253,0 0.0753,0.15059 0,0.33672 0,0.50508 0,0.0842 -0.0753,0.21489 0,0.25254 0.15059,0.0753 0.38603,-0.11905 0.50508,0 0.11905,0.11905 -0.0532,0.34536 0,0.50508 0.0376,0.11293 0.16836,0.16835 0.25254,0.25253 0.16836,0.16836 0.373,0.30697 0.50507,0.50508 0.0467,0.07 0,0.16836 0,0.25254 0,0.16836 -0.0753,0.35449 0,0.50507 0.0376,0.0753 0.19302,-0.0595 0.25254,0 0.0595,0.0595 0,0.16836 0,0.25254 0,0.16836 -0.11905,0.38603 0,0.50508 0.11905,0.11905 0.35449,-0.0753 0.50508,0 0.0753,0.0376 -0.0433,0.18035 0,0.25254 0.21655,0.36091 0.50507,0.67343 0.75761,1.01015 z"
         style="fill:#777d5f;fill-opacity:0.46610173;fill-rule:evenodd;stroke:none;stroke-width:1px;stroke-linecap:butt;stroke-linejoin:miter;stroke-opacity:1" />
      <path
         inkscape:connector-curvature="0"
         id="path4184"
         d="m 183.92857,179.87013 c 2.14893,-6.98757 6.03326,-13.36495 7.09697,-20.70553 1.46922,-7.67302 5.16239,-14.64318 7.02081,-22.2174 2.46414,-8.25624 6.71187,-16.20837 6.6708,-24.99183 0.99887,-5.99581 1.50613,-12.134653 2.07562,-18.238512 1.44014,-4.939721 0.19925,-10.465389 1.06592,-15.632234 0.10298,-4.838175 1.06507,-9.191243 1.26438,-14.125485 1.22075,-6.504826 0.0563,-13.340453 4.50661,-18.668636 1.39366,-4.245641 5.97988,-10.893832 9.42024,-3.942786 2.55128,4.495465 4.98691,9.386758 9.75838,12.000397 5.17586,2.434238 8.49454,7.347189 6.50352,13.042248 -1.51146,6.21284 -1.94668,12.7162 -1.82876,19.141825 -0.0697,7.901031 2.1,15.593833 3.0055,23.392083 0.99957,7.11115 1.2565,14.32341 3.10872,21.32252 0.84757,9.90582 3.84484,19.53213 3.87464,29.53128 0.27574,6.37482 0.94835,12.72901 1.81379,19.01558 0.5402,5.35209 1.55404,10.42311 2.22245,15.82351 1.91731,7.48923 -6.88671,8.15641 -11.86504,6.31892 -5.43431,-1.38843 -10.89243,0.43773 -16.42384,1.23336 -6.37935,1.59873 -10.72244,-4.5081 -16.3882,-6.20283 -5.57852,-1.93617 -9.73172,-6.44765 -15.40251,-7.88219 -1.99187,-2.99263 -7.37454,-3.78984 -7.5,-8.21429 z"
         style="fill:#bab6a6;fill-opacity:1;fill-rule:evenodd;stroke:none;stroke-width:1px;stroke-linecap:butt;stroke-linejoin:miter;stroke-opacity:1" />
      <path
         inkscape:connector-curvature="0"
         id="path4188"
         d="m 248.49752,197.87934 c -1.40262,-9.49374 0.63037,-19.95732 -3.19149,-29.24855 -1.66732,-9.5035 -3.6499,-19.04877 -4.61119,-28.67679 -1.41291,-9.819 -2.13732,-19.72715 -3.52764,-29.49987 0.28377,-8.62226 -3.19429,-16.76733 -2.55927,-25.459329 -2.5425,-8.361535 4.35664,-16.222396 2.42874,-24.805109 -5.97036,-2.561023 -12.55018,-7.576753 -15.5757,-13.940285 -2.00906,7.965811 -3.33865,16.583983 -1.18074,24.661671 1.04422,7.721359 0.7499,15.641739 2.90184,23.066437 5.98111,6.799855 -6.32738,17.475085 0.52319,22.982125 3.76354,5.65478 5.65938,14.31376 5.59201,21.41025 -1.30976,7.0509 -11.9389,4.91661 -11.07077,14.01118 -0.31812,3.35353 -1.17072,9.8011 -1.0437,15.42803 0.10899,4.45411 -0.50741,8.98566 1.06321,13.23846 0.40926,7.26705 -2.38773,18.56218 8.86532,17.64433 6.54493,-0.65439 17.74746,-0.82938 21.38619,0.1976"
         style="fill:#c8c4b7;fill-rule:evenodd;stroke:none;stroke-width:1px;stroke-linecap:butt;stroke-linejoin:miter;stroke-opacity:1" />
      <path
         inkscape:connector-curvature="0"
         id="path4194"
         d="m 216.43016,38.326157 c -2.33567,-0.0098 -4.58158,4.045966 -5.4536,6.964844 -4.05032,5.328182 -2.98985,12.163143 -4.10087,18.667968 -0.1814,4.934242 -1.05638,9.286826 -1.15009,14.125 -0.78878,5.166845 0.34013,10.693092 -0.97057,15.632813 -0.5183,6.103858 -0.98047,12.242468 -1.88956,18.238278 0.0374,8.78346 -3.82777,16.73595 -6.07042,24.99219 -1.69139,7.57421 -5.05323,14.54377 -6.3904,22.21679 -0.9417,7.1404 -4.30227,13.37485 -6.28551,20.14063 0.0694,0.13179 0.14731,0.25869 0.21331,0.39258 0.48957,0.99306 0.91794,2.01914 1.37762,3.02929 0.22927,0.50383 0.45745,1.00854 0.68793,1.51172 1.53734,1.24834 3.39617,2.23343 4.37283,3.8457 3.26361,0.90713 5.97696,3.04377 8.81323,4.98243 -0.0125,-0.23397 0.26134,-0.55463 0.14754,-0.74219 -0.1202,-0.1981 -0.34019,-0.30776 -0.46039,-0.50586 -0.0425,-0.07 0,-0.16777 0,-0.25195 0,-0.16836 0.0685,-0.35527 0,-0.50586 -0.0343,-0.0753 -0.17514,0.0595 -0.22931,0 -0.0541,-0.0595 0.0343,-0.17666 0,-0.25196 -0.12353,-0.27147 -0.33685,-0.48634 -0.46039,-0.75781 -0.10834,-0.2381 -0.14424,-0.50856 -0.22931,-0.75781 -0.14487,-0.42446 -0.32993,-0.83166 -0.46039,-1.26172 -0.0999,-0.32926 -0.10488,-0.6927 -0.22931,-1.01172 -0.10881,-0.27897 -0.37304,-0.46987 -0.46039,-0.75781 -0.0727,-0.23958 0.0451,-0.50822 0,-0.75586 -0.36689,-2.01561 -0.22931,1.84614 -0.22931,-1.51563 l 0,-0.50585 c 0,-0.0842 0.0342,-0.17667 0,-0.25196 -0.12354,-0.27147 -0.39162,-0.46336 -0.45862,-0.75781 -0.0929,-0.40833 0,-0.84278 0,-1.26367 l 0,-0.75586 c 0,-0.0842 0.0186,-0.17224 0,-0.25391 -0.0588,-0.25825 -0.20103,-0.49367 -0.23107,-0.75781 -0.0475,-0.41765 0,-0.84083 0,-1.26172 l 0,-3.2832 0,-2.01953 c 0,-0.25254 -0.0558,-0.51282 0,-0.75782 0.0263,-0.11549 0.21575,-0.13604 0.23107,-0.2539 0.065,-0.5 -0.0508,-1.01169 0,-1.51367 0.0268,-0.26457 0.20255,-0.49325 0.22931,-0.75782 0.0508,-0.50199 -0.11149,-1.02562 0,-1.51562 0.0525,-0.23098 0.3054,-0.33751 0.45862,-0.50586 0.0766,-0.33672 0.19966,-0.66441 0.23109,-1.00977 0.0458,-0.50257 -0.0997,-1.02257 0,-1.51562 0.0599,-0.29628 0.37125,-0.46987 0.45861,-0.75781 0.14736,-0.48577 0.11806,-1.01692 0.23108,-1.51368 0.11752,-0.5165 0.33113,-1.00198 0.45862,-1.51562 0.10279,-0.41411 0.10755,-0.85646 0.23108,-1.26367 0.10835,-0.35714 0.35027,-0.65263 0.45862,-1.00977 0.12353,-0.40721 0.0706,-0.86948 0.2293,-1.26172 0.15558,-0.38462 0.51839,-0.63526 0.6897,-1.01172 0.21669,-0.47619 0.27403,-1.02223 0.4604,-1.51367 0.19766,-0.52126 0.52718,-0.97991 0.6897,-1.51562 1.00629,-3.31702 -0.74204,0.31473 0.919,-3.03125 0.21393,-0.43091 0.47578,-0.83081 0.6897,-1.26172 0.2461,-0.49574 0.45987,-1.01055 0.68971,-1.51563 0.22984,-0.50507 0.42527,-1.0314 0.6897,-1.51562 0.1939,-0.82787 1.00504,-1.10946 1.37939,-1.76758 1.20315,-3.30492 -0.32356,0.40633 1.14832,-2.01953 0.13439,-0.22149 0.13388,-0.51314 0.22931,-0.75781 0.13497,-0.34603 0.30717,-0.67305 0.46039,-1.00977 0.0766,-0.16835 0.14116,-0.34446 0.22931,-0.50586 0.14211,-0.26026 0.29466,-0.515 0.46039,-0.75781 0.32672,-0.47863 0.42092,-0.12383 0.6897,-1.00977 0.1817,-0.3885 -0.12114,-0.86437 0,-1.26367 0.0342,-0.11294 0.20302,-0.13646 0.2293,-0.25195 0.0558,-0.245 -0.0854,-0.52334 0,-0.75781 0.0805,-0.22107 0.37992,-0.28284 0.4604,-0.50391 0.0854,-0.23447 -0.0557,-0.51282 0,-0.75781 0.0263,-0.1155 0.19505,-0.14097 0.22931,-0.25391 0.0484,-0.15972 0,-0.33555 0,-0.50391 0,-0.0842 -0.0342,-0.1786 0,-0.2539 0.12354,-0.27147 0.37126,-0.46792 0.45861,-0.75586 0.18171,-0.3885 -0.12114,-0.86437 0,-1.26367 0.0342,-0.11294 0.2048,-0.13647 0.23109,-0.25196 0.0558,-0.245 0,-0.50528 0,-0.75781 0,-0.16836 -0.085,-0.36578 0,-0.50586 0.095,-0.15662 0.36358,-0.0953 0.45861,-0.25195 0.085,-0.14008 0,-0.33751 0,-0.50586 l 0,-0.75781 c 0.0766,0 0.17692,0.0595 0.23109,0 0.0542,-0.0595 0,-0.16778 0,-0.25196 0,-0.16836 -0.085,-0.36382 0,-0.5039 0.095,-0.15662 0.36358,-0.0973 0.45861,-0.25391 0.085,-0.14008 0,-0.33555 0,-0.5039 l 0,-0.25391 c 0,-0.16835 -0.0484,-0.34419 0,-0.50391 0.0342,-0.11294 0.19683,-0.14096 0.23108,-0.2539 0.0484,-0.15972 0,-0.33555 0,-0.50391 0,-0.0842 -0.0685,-0.21431 0,-0.25195 0.13706,-0.0753 0.35027,0.11904 0.45862,0 0,-0.34213 -0.01,-0.51097 -0.0178,-0.59766 -0.0121,-0.0767 -0.0105,-0.11198 0,0 0.0177,0.1123 0.0739,0.28208 0.24708,0.0918 0.0541,-0.0595 0,-0.16778 0,-0.25196 l 0,-0.50586 0,-1.51562 c 0,-0.0842 0.0541,-0.19243 0,-0.25195 -0.0542,-0.0595 -0.19504,0.0753 -0.22931,0 -0.0685,-0.15059 0,-0.3375 0,-0.50586 l 0,-1.00977 c 0,-0.16836 0.0484,-0.34418 0,-0.5039 -0.0342,-0.11294 -0.19504,-0.14097 -0.2293,-0.25391 -0.0484,-0.15971 0,-0.33555 0,-0.50391 0,-0.0842 0.0685,-0.21625 0,-0.2539 -0.13705,-0.0753 -0.35205,0.11905 -0.4604,0 -0.32504,-0.1046 0.16252,-0.57925 0,-0.75782 -0.0542,-0.0595 -0.19505,0.0753 -0.22931,0 -0.0685,-0.15059 0,-0.33554 0,-0.5039 0,-0.0842 0.0685,-0.21431 0,-0.25196 -0.13705,-0.0753 -0.35204,0.11905 -0.46039,0 -0.10835,-0.11904 0,-0.3375 0,-0.50585 0,-0.0842 0.0541,-0.19244 0,-0.25196 -0.0541,-0.0595 -0.19504,0.0753 -0.22931,0 -0.0685,-0.15059 0.10835,-0.38681 0,-0.50586 -0.10834,-0.11905 -0.32334,0.0753 -0.46039,0 -0.0685,-0.0376 0,-0.16777 0,-0.25195 l 0,-2.02148 0,-0.25196 c 0,-0.16836 -0.0685,-0.35527 0,-0.50586 0.0342,-0.0753 0.17691,0.0595 0.23109,0 0.0541,-0.0595 0,-0.16778 0,-0.25195 l 0,-1.26172 c 0,-0.0842 -0.0425,-0.18387 0,-0.25391 0.1202,-0.1981 0.37814,-0.28283 0.45861,-0.5039 0.0854,-0.23448 0,-0.50528 0,-0.75781 l 0,-0.75782 c 0,-0.0842 -0.0541,-0.19242 0,-0.25195 0.0541,-0.0595 0.19682,0.0753 0.23109,0 0.0685,-0.15058 0,-0.3375 0,-0.50586 l 0,-1.00976 c 0,-0.16835 -0.085,-0.36578 0,-0.50586 0.095,-0.15662 0.382,-0.0836 0.45861,-0.25196 0.10278,-0.22588 -0.0451,-0.51018 0,-0.75781 0.0336,-0.18458 0.19749,-0.32129 0.23108,-0.50586 0.0451,-0.24763 -0.10278,-0.52998 0,-0.75586 0.0766,-0.16835 0.3636,-0.0973 0.45862,-0.2539 0.085,-0.14009 0,-0.33555 0,-0.50391 l 0,-2.27344 0,-0.25195 c 0,-0.16836 0.03,-0.34077 0,-0.50586 -0.1265,-0.69497 -0.31305,-0.93625 -0.6897,-1.51563 -0.22266,-0.34248 -0.53413,-0.625136 -0.6897,-1.009756 -0.15866,-0.392238 -0.0706,-0.869482 -0.22931,-1.261719 -0.15557,-0.384621 -0.45985,-0.675001 -0.68969,-1.011719 -0.15323,-0.420897 -0.31376,-0.837263 -0.45862,-1.261719 -0.0851,-0.249249 -0.17232,-0.499561 -0.23108,-0.757812 -0.046,-0.20203 0.0919,-0.60629 0,-0.757812 -0.095,-0.156618 -0.36359,-0.09534 -0.45862,-0.251954 -0.085,-0.140083 0,-0.3375 0,-0.505859 l 0,-1.515625 0,-2.271484 0,-0.253907 c 0,-0.168358 -0.0685,-0.353321 0,-0.503906 0.0342,-0.07529 0.17512,0.05952 0.2293,0 0.0542,-0.05952 0,-0.167774 0,-0.251953 l 0,-1.515625 0,-0.505859 c 0,-0.08418 -0.0425,-0.181913 0,-0.251954 0.1202,-0.198107 0.3402,-0.307751 0.4604,-0.505859 0.0425,-0.07004 0,-0.167773 0,-0.251953 l 0,-0.757812 c 0,-0.964666 -0.0489,-0.03861 0.22931,-1.261719 0.0186,-0.08167 0,-0.169728 0,-0.253907 l 0,-1.261718 c 0,-0.08418 -0.0342,-0.178614 0,-0.253906 0.12354,-0.27147 0.37126,-0.467922 0.45861,-0.75586 0.0727,-0.239579 -0.0378,-0.508709 0,-0.757812 0.0399,-0.262576 0.20104,-0.49367 0.23109,-0.757813 0.0475,-0.417647 -0.12114,-0.864374 0,-1.263672 0.0541,-0.178571 0.40444,-0.07339 0.45861,-0.251953 0.40861,-1.34687 -0.24516,-0.942035 0,-2.019531 0.0263,-0.115493 0.21328,-0.136478 0.23109,-0.253906 0.063,-0.41517 0,-0.840822 0,-1.261719 0,-0.252538 -0.0727,-0.518234 0,-0.757813 0.0874,-0.287938 0.38272,-0.465977 0.45861,-0.757812 0.0842,-0.323762 -0.0504,-0.67763 0,-1.009766 0.0281,-0.18567 0.19749,-0.321284 0.23108,-0.505859 0.0451,-0.247634 0,-0.505275 0,-0.757813 0,-0.252538 -0.10278,-0.531935 0,-0.757812 0.0766,-0.168359 0.40445,-0.07339 0.45862,-0.251953 0.12114,-0.399298 0,-0.840822 0,-1.261719 l 0,-1.769531 0,-0.503906 c 0,-0.08418 -0.0242,-0.172095 0,-0.251954 0.0541,-0.178572 0.20114,-0.32019 0.22931,-0.505859 0.0504,-0.332137 0,-0.673049 0,-1.009766 l 0,-2.021484 0,-5.554687 0,-2.273438 0,-0.503906 c 0,-0.252538 -0.10279,-0.531936 0,-0.757813 0.0766,-0.168359 0.38378,-0.08555 0.46039,-0.253906 0.10278,-0.225877 0,-0.505275 0,-0.757813 l 0,-2.019531 0,-0.251953 c 0,-0.168358 -0.0685,-0.355274 0,-0.505859 0.0342,-0.07529 0.17514,0.05952 0.22931,0 0.0541,-0.05952 0,-0.167774 0,-0.251953 l 0,-0.50586 0,-0.757812 c 0,-0.08418 -0.0685,-0.214307 0,-0.251953 0.13705,-0.07529 0.35204,0.119048 0.46039,0 0.10835,-0.119048 0,-0.337501 0,-0.50586 l 0,-0.755859 c 0,-0.08418 -0.0541,-0.194382 0,-0.253906 0.0541,-0.05952 0.19505,0.07529 0.22931,0 0.0685,-0.150584 0,-0.335548 0,-0.503907 0,-0.08418 -0.0685,-0.21626 0,-0.253906 0.13705,-0.07529 0.35205,0.119047 0.46039,0 0.32505,-0.104605 -0.16252,-0.57924 0,-0.757812 0.0542,-0.05952 0.19505,0.07529 0.22931,0 0.0685,-0.150584 0,-0.335548 0,-0.503907 0,-0.08418 -0.0685,-0.214307 0,-0.251953 0.13705,-0.07529 0.35204,0.119048 0.46039,0 0.37377,-0.410684 -0.37318,-0.537151 0.22931,-0.757812 0.14536,-0.05324 0.35205,0.119047 0.46039,0 0.10835,-0.119048 -0.0685,-0.355275 0,-0.50586 0.0343,-0.07529 0.17514,0.05952 0.2293,0 0.0542,-0.05952 -0.0685,-0.214307 0,-0.251953 0.13706,-0.07529 0.35205,0.119048 0.4604,0 0.10834,-0.119047 -0.0685,-0.355274 0,-0.505859 0.0342,-0.07529 0.1527,0 0.22931,0 l 1.14832,0 0.23108,0 c 0.15322,0 0.32157,-0.07529 0.45861,0 0.0685,0.03765 -0.0541,0.192429 0,0.251953 0.0542,0.05952 0.15448,0 0.23109,0 l 1.11099,0 c -0.12158,-0.237658 -0.24614,-0.478979 -0.36797,-0.714844 -0.97847,-2.172201 -2.05975,-3.017047 -3.12142,-3.021484 z"
         style="fill:#afaa97;fill-opacity:1;fill-rule:evenodd;stroke:none;stroke-width:1px;stroke-linecap:butt;stroke-linejoin:miter;stroke-opacity:1" />
      <path
         id="path4206"
         transform="translate(0,-1.5258791e-5)"
         d="m 216.42969,38.326172 c -2.33567,-0.0098 -4.58111,4.045966 -5.45313,6.964844 -4.05032,5.32818 -2.99054,12.163145 -4.10156,18.667968 -0.1814,4.934242 -1.05473,9.286828 -1.14844,14.125 -0.78878,5.166845 0.34,10.693092 -0.9707,15.632813 -0.5183,6.103856 -0.98154,12.242473 -1.89063,18.238283 0.0374,8.78346 -3.82766,16.73595 -6.07031,24.99219 -1.69139,7.57419 -5.05345,14.54377 -6.39062,22.21679 -0.9417,7.1404 -4.30192,13.37485 -6.28516,20.14063 -0.0611,0.18968 -0.1328,0.37585 -0.19141,0.5664 0.0531,1.87307 1.06629,3.08297 2.34766,4.09766 0.041,0.0899 0.0819,0.17976 0.12305,0.26953 1.53734,1.24834 3.39638,2.23343 4.37304,3.8457 3.26361,0.90713 5.97623,3.04377 8.8125,4.98243 -0.0125,-0.23397 0.26224,-0.55463 0.14844,-0.74219 -0.0708,-0.1167 -0.17222,-0.20736 -0.27148,-0.29883 2.34546,1.49042 4.69443,3.0124 7.37109,3.94141 5.66576,1.69473 10.00737,7.80185 16.38672,6.20312 5.53141,-0.79563 10.98952,-2.6228 16.42383,-1.23437 3.03828,1.12142 7.49083,1.29986 10.07226,-0.42578 -0.0636,-0.20688 -0.0877,-0.43045 -0.20703,-0.60938 -0.19811,-0.29716 -0.50527,-0.50527 -0.75781,-0.75781 -0.25254,-0.25254 -0.4721,-0.54353 -0.75781,-0.75781 -0.39268,-0.29451 -0.86905,-0.46331 -1.26172,-0.75782 -0.28572,-0.21428 -0.46719,-0.55023 -0.75781,-0.75781 -0.30634,-0.21881 -0.68068,-0.32303 -1.00977,-0.50586 -0.42908,-0.23837 -0.83276,-0.52082 -1.26367,-0.75586 -0.49574,-0.27041 -1.03141,-0.46727 -1.51563,-0.75781 -0.36091,-0.21655 -0.61897,-0.60149 -1.00976,-0.75781 -0.47542,-0.19017 -1.03442,-0.0789 -1.51563,-0.25391 -0.46129,-0.16774 -0.83264,-0.51749 -1.26172,-0.75586 -0.32909,-0.18283 -0.66374,-0.35756 -1.00976,-0.50586 -0.24468,-0.10486 -0.50856,-0.15848 -0.75781,-0.25195 -0.42445,-0.15917 -0.83362,-0.36251 -1.26368,-0.50586 -0.0799,-0.0266 -0.17209,0.0266 -0.25195,0 -0.17857,-0.0595 -0.3375,-0.16777 -0.50586,-0.25195 -0.33672,-0.16836 -0.65261,-0.38681 -1.00976,-0.50586 -0.74584,-0.24861 -1.13632,-0.36519 -1.40235,-0.43555 1.19562,0.65389 -1.1475,-0.30351 0,0 -0.15686,-0.0858 -0.31763,-0.17249 -0.61719,-0.32227 -0.0753,-0.0377 -0.16972,0 -0.2539,0 -0.25254,-0.0842 -0.51972,-0.1329 -0.75781,-0.25195 -0.27147,-0.13574 -0.52269,-0.31155 -0.75586,-0.50586 -0.27436,-0.22863 -0.43838,-0.59809 -0.75782,-0.75781 -0.38392,-0.19196 -0.87976,-0.06 -1.26367,-0.25195 -0.31944,-0.15972 -0.49088,-0.52055 -0.75781,-0.75782 -0.49139,-0.4368 -1.00223,-0.85101 -1.51563,-1.26172 -0.32865,-0.26293 -0.67752,-0.4994 -1.00976,-0.75781 -0.52524,-0.40852 -1.66262,-1.36166 -2.27148,-1.76758 -1.27164,-0.84775 -1.17243,-0.57189 -2.27344,-1.51562 -1.25708,-1.0775 -0.37532,-0.67266 -2.02149,-2.01953 -0.46981,-0.38439 -1.02805,-0.64751 -1.51367,-1.01172 -0.50228,-0.37671 -2.04897,-1.65895 -2.52539,-2.27148 -0.30135,-0.38746 -0.46331,-0.871 -0.75781,-1.26368 -0.21429,-0.28571 -0.52917,-0.48345 -0.75781,-0.75781 -0.1943,-0.23317 -0.32375,-0.515 -0.50586,-0.75781 -0.38793,-0.51725 -0.38868,-0.0254 -0.75782,-1.00977 -0.15071,-0.4019 -0.10123,-0.85981 -0.25195,-1.26172 -0.52356,-1.39616 -0.52259,-0.10428 -0.75781,-1.51562 -0.0415,-0.2491 0,-0.50527 0,-0.75781 0,-0.25254 0.11294,-0.53194 0,-0.75782 -0.0842,-0.16835 -0.4522,-0.0709 -0.50391,-0.25195 -0.13875,-0.48565 0,-1.01055 0,-1.51562 l 0,-0.75782 0,-2.01953 c 0,-0.25254 0.0415,-0.5087 0,-0.75781 -0.0438,-0.26257 -0.2245,-0.49324 -0.2539,-0.75781 -0.0558,-0.50199 0,-1.01055 0,-1.51563 l 0,-0.75781 0,-0.25195 c 0,-0.25254 0.0938,-0.52334 0,-0.75782 -0.0884,-0.22106 -0.42862,-0.27999 -0.50391,-0.50586 -0.10648,-0.31944 0,-0.67305 0,-1.00976 l 0,-0.75781 c 0,-0.25254 0.0415,-0.50872 0,-0.75782 -0.0438,-0.26258 -0.22089,-0.49367 -0.25391,-0.75781 -0.0522,-0.41764 0.0913,-0.85084 0,-1.26172 -0.0817,-0.3675 -0.42223,-0.64226 -0.5039,-1.00976 -0.0913,-0.41088 0,-0.84279 0,-1.26367 l 0,-1.00977 c 0,-0.16836 0.033,-0.33882 0,-0.50391 -0.0522,-0.26103 -0.20819,-0.49523 -0.25196,-0.75781 -0.0415,-0.2491 0,-0.50527 0,-0.75781 l 0,-1.76758 0,-0.50586 c 0,-0.0842 0.0377,-0.17666 0,-0.25195 -0.13573,-0.27147 -0.40988,-0.46988 -0.50586,-0.75781 -0.0799,-0.23957 0,-0.50528 0,-0.75782 l 0,-2.77734 0,-0.75781 c 0,-0.0842 0.0204,-0.17225 0,-0.25391 -0.0646,-0.25825 -0.21893,-0.49171 -0.25195,-0.75586 -0.0522,-0.41764 0,-0.84277 0,-1.26367 l 0,-0.75781 0,-4.04102 c 0,-2.44595 0.17779,0.78922 -0.50586,-1.26172 -0.10648,-0.31944 0,-0.67305 0,-1.00976 l 0,-3.03125 0,-3.53516 0,-1.00977 c 0,-0.16836 -0.033,-0.34078 0,-0.50586 0.0522,-0.26102 0.21432,-0.49429 0.25195,-0.75781 0.0476,-0.33333 0,-0.67304 0,-1.00976 0,-0.16836 -0.0625,-0.34954 0,-0.50586 0.11272,-0.2818 0.42248,-0.46599 0.50586,-0.75781 0.0925,-0.32376 -0.0476,-0.67643 0,-1.00977 0.0376,-0.26352 0.22256,-0.49324 0.25196,-0.75781 0.0558,-0.50199 -0.10957,-1.02063 0,-1.51368 0.0658,-0.29627 0.39929,-0.47362 0.50586,-0.75781 0.15072,-0.40191 0.13901,-0.84957 0.25195,-1.26367 0.14008,-0.51364 0.35287,-1.00568 0.50586,-1.51562 0.0997,-0.33245 0.14219,-0.68051 0.25195,-1.00977 0.14335,-0.43006 0.36251,-0.83166 0.50586,-1.26172 0.10976,-0.32926 0.1422,-0.68245 0.25196,-1.01172 0.14334,-0.43005 0.36054,-0.83166 0.5039,-1.26172 0.10975,-0.32927 0.14416,-0.68049 0.25391,-1.00976 0.14336,-0.43006 0.36055,-0.83361 0.5039,-1.26367 0.10976,-0.32927 0.14415,-0.6805 0.25391,-1.00977 0.14335,-0.43006 0.36056,-0.83166 0.50391,-1.26172 0.10976,-0.32926 0.14415,-0.68245 0.2539,-1.01172 0.14336,-0.43005 0.42282,-0.81571 0.50391,-1.26172 0.0904,-0.49693 -0.0714,-1.01562 0,-1.51562 0.0168,-0.11785 0.23238,-0.13452 0.25195,-0.25195 0.0692,-0.41517 -0.10208,-0.85535 0,-1.26368 0.0736,-0.294438 0.42248,-0.465973 0.50586,-0.757808 0.0925,-0.323762 -0.0476,-0.676433 0,-1.009766 0.0376,-0.263523 0.20819,-0.495236 0.25195,-0.757812 0.0415,-0.249102 0,-0.505275 0,-0.757813 0,-0.252538 -0.0938,-0.521383 0,-0.755859 0.0884,-0.221066 0.44811,-0.274874 0.50586,-0.50586 0.1225,-0.489995 0,-1.010549 0,-1.515624 0,-0.252538 -0.0613,-0.512815 0,-0.757813 0.0289,-0.115493 0.16778,-0.167773 0.25196,-0.251953 l 0,-1.263672 0,-0.755859 c 0,-0.252538 -0.11294,-0.531936 0,-0.757813 0.0842,-0.168359 0.42168,-0.08555 0.50586,-0.253906 0.11294,-0.225877 0,-0.505275 0,-0.757813 l 0,-0.503906 0,-0.757812 c 0,-0.08418 -0.0266,-0.172094 0,-0.251953 0.0595,-0.178571 0.21504,-0.321284 0.25195,-0.50586 0.0495,-0.247634 0,-0.505274 0,-0.757812 l 0,-0.251954 c 0,-0.168358 -0.0625,-0.349541 0,-0.505859 0.11272,-0.281804 0.42248,-0.465977 0.50586,-0.757812 0.0925,-0.323762 -0.0476,-0.676432 0,-1.009766 0.0376,-0.263523 0.21893,-0.49367 0.25195,-0.757813 0.0522,-0.417646 -0.10209,-0.853388 0,-1.261718 0.0736,-0.294451 0.42248,-0.465978 0.50586,-0.757813 0.0786,-0.274986 -0.0589,-1.414025 0,-1.767578 0.0438,-0.262577 0.22255,-0.493242 0.25195,-0.757812 0.0558,-0.501987 -0.1225,-1.025629 0,-1.515625 0.0577,-0.230986 0.43056,-0.279983 0.50586,-0.50586 0.10648,-0.319439 -0.0476,-0.676432 0,-1.009765 0.0376,-0.263523 0.21895,-0.49367 0.25196,-0.757813 0.0522,-0.417647 0,-0.840822 0,-1.261719 l 0,-0.757812 c 0,-0.252539 -0.11293,-0.531936 0,-0.757813 0.0842,-0.168359 0.44438,-0.07339 0.5039,-0.251953 0.1331,-0.399298 0,-0.842775 0,-1.263672 l 0,-1.767578 c 0,-0.252538 -0.0495,-0.510178 0,-0.757812 0.0369,-0.184576 0.22296,-0.318238 0.25391,-0.503907 0.0554,-0.332135 -0.0925,-0.687956 0,-1.011718 0.0834,-0.291835 0.40794,-0.467922 0.50391,-0.75586 0.0799,-0.239579 0,-0.505273 0,-0.757812 l 0,-0.50586 c 0,-0.252537 -0.0612,-0.512814 0,-0.757812 0.0289,-0.115493 0.23433,-0.134526 0.2539,-0.251953 0.0692,-0.415171 0,-0.842775 0,-1.263672 l 0,-0.251953 0,-9.091797 0,-2.777344 0,-0.757812 c 0,-0.08418 -0.0467,-0.181912 0,-0.251953 0.13207,-0.198107 0.41548,-0.284794 0.50391,-0.50586 0.0938,-0.234476 0,-0.505274 0,-0.757812 l 0,-1.009766 c 0,-0.168359 -0.0753,-0.353321 0,-0.503906 0.0377,-0.07529 0.19437,0.05952 0.2539,0 0.0595,-0.05952 0,-0.169726 0,-0.253906 0,-0.168358 -0.11905,-0.384859 0,-0.503907 0.11904,-0.119048 0.35333,0.07529 0.50391,0 0.0753,-0.03765 0,-0.169727 0,-0.253906 0,-0.168359 -0.0753,-0.353322 0,-0.503906 0.0377,-0.07529 0.16777,0 0.25195,0 0.16836,0 0.35527,0.07529 0.50586,0 0.0753,-0.03765 -0.0595,-0.194382 0,-0.253906 0.0595,-0.05952 0.18191,0.04669 0.25196,0 0.1981,-0.132071 0.3375,-0.335548 0.50586,-0.503907 0.0842,-0.08418 0.13901,-0.214307 0.25195,-0.251953 0.15972,-0.05324 0.3375,0 0.50586,0 l 0.25195,0 0.75781,0 c 0.16836,0 0.34077,-0.03302 0.50586,0 0.19476,0.03896 0.37668,0.124509 0.56446,0.189453 -0.51057,-0.892973 -1.01467,-1.791113 -1.51563,-2.673828 -1.61825,-3.269582 -3.48831,-3.512473 -5.16211,-2.429687 -0.48259,-0.401165 -0.97287,-0.589766 -1.45898,-0.591797 z"
         style="fill:#676c53;fill-opacity:0.24152545;fill-rule:evenodd;stroke:none;stroke-width:1px;stroke-linecap:butt;stroke-linejoin:miter;stroke-opacity:1"
         inkscape:connector-curvature="0" />
    </g>
  </g>
  <g
     inkscape:groupmode="layer"
     id="layer3"
     inkscape:label="Grille"
     style="display:none"
     sodipodi:insensitive="true">
    <path
       sodipodi:type="star"
       style="opacity:1;fill:#000000;fill-opacity:0;stroke:#4b5062;stroke-width:5;stroke-linecap:round;stroke-linejoin:round;stroke-miterlimit:4;stroke-dasharray:none;stroke-dashoffset:0;stroke-opacity:0.30508477"
       id="path4434"
       sodipodi:sides="3"
       sodipodi:cx="145.71429"
       sodipodi:cy="291.29871"
       sodipodi:r1="38.992413"
       sodipodi:r2="19.496206"
       sodipodi:arg1="2.0943951"
       sodipodi:arg2="3.1415927"
       inkscape:flatsided="true"
       inkscape:rounded="0"
       inkscape:randomized="0"
       d="m 126.21809,325.06713 0,-67.53684 58.48862,33.76842 z"
       inkscape:transform-center-x="-9.7481031"
       inkscape:transform-center-y="-3.8301796e-005" />
    <path
       inkscape:transform-center-y="-3.8301796e-005"
       inkscape:transform-center-x="-9.7481031"
       d="m 124.78951,253.63855 0,-67.53684 58.48862,33.76842 z"
       inkscape:randomized="0"
       inkscape:rounded="0"
       inkscape:flatsided="true"
       sodipodi:arg2="3.1415927"
       sodipodi:arg1="2.0943951"
       sodipodi:r2="19.496206"
       sodipodi:r1="38.992413"
       sodipodi:cy="219.87013"
       sodipodi:cx="144.28572"
       sodipodi:sides="3"
       id="path4436"
       style="opacity:1;fill:#000000;fill-opacity:0;stroke:#4b5062;stroke-width:5;stroke-linecap:round;stroke-linejoin:round;stroke-miterlimit:4;stroke-dasharray:none;stroke-dashoffset:0;stroke-opacity:0.30508477"
       sodipodi:type="star" />
    <path
       sodipodi:type="star"
       style="opacity:1;fill:#000000;fill-opacity:0;stroke:#4b5062;stroke-width:5;stroke-linecap:round;stroke-linejoin:round;stroke-miterlimit:4;stroke-dasharray:none;stroke-dashoffset:0;stroke-opacity:0.30508477"
       id="path4438"
       sodipodi:sides="3"
       sodipodi:cx="85.357147"
       sodipodi:cy="183.08441"
       sodipodi:r1="38.992413"
       sodipodi:r2="19.496206"
       sodipodi:arg1="2.0943951"
       sodipodi:arg2="3.1415927"
       inkscape:flatsided="true"
       inkscape:rounded="0"
       inkscape:randomized="0"
       d="m 65.860941,216.85283 0,-67.53684 58.488619,33.76842 z"
       inkscape:transform-center-x="-9.7481031"
       inkscape:transform-center-y="-3.8301796e-005" />
    <path
       inkscape:transform-center-y="-3.8301796e-005"
       inkscape:transform-center-x="-9.7481031"
       d="m 189.78953,216.85283 0,-67.53684 58.48862,33.76842 z"
       inkscape:randomized="0"
       inkscape:rounded="0"
       inkscape:flatsided="true"
       sodipodi:arg2="3.1415927"
       sodipodi:arg1="2.0943951"
       sodipodi:r2="19.496206"
       sodipodi:r1="38.992413"
       sodipodi:cy="183.08441"
       sodipodi:cx="209.28574"
       sodipodi:sides="3"
       id="path4440"
       style="opacity:1;fill:#000000;fill-opacity:0;stroke:#4b5062;stroke-width:5;stroke-linecap:round;stroke-linejoin:round;stroke-miterlimit:4;stroke-dasharray:none;stroke-dashoffset:0;stroke-opacity:0.30508477"
       sodipodi:type="star" />
    <path
       sodipodi:type="star"
       style="opacity:1;fill:#000000;fill-opacity:0;stroke:#4b5062;stroke-width:5;stroke-linecap:round;stroke-linejoin:round;stroke-miterlimit:4;stroke-dasharray:none;stroke-dashoffset:0;stroke-opacity:0.30508477"
       id="path4442"
       sodipodi:sides="3"
       sodipodi:cx="271.78574"
       sodipodi:cy="218.79871"
       sodipodi:r1="38.992413"
       sodipodi:r2="19.496206"
       sodipodi:arg1="2.0943951"
       sodipodi:arg2="3.1415927"
       inkscape:flatsided="true"
       inkscape:rounded="0"
       inkscape:randomized="0"
       d="m 252.28953,252.56713 0,-67.53684 58.48862,33.76842 z"
       inkscape:transform-center-x="-9.7481031"
       inkscape:transform-center-y="-3.8301796e-005" />
    <path
       inkscape:transform-center-y="-3.8301796e-005"
       inkscape:transform-center-x="-9.7481031"
       d="m 250.14668,180.06713 0,-67.53684 58.48862,33.76842 z"
       inkscape:randomized="0"
       inkscape:rounded="0"
       inkscape:flatsided="true"
       sodipodi:arg2="3.1415927"
       sodipodi:arg1="2.0943951"
       sodipodi:r2="19.496206"
       sodipodi:r1="38.992413"
       sodipodi:cy="146.29871"
       sodipodi:cx="269.64288"
       sodipodi:sides="3"
       id="path4444"
       style="opacity:1;fill:#000000;fill-opacity:0;stroke:#4b5062;stroke-width:5;stroke-linecap:round;stroke-linejoin:round;stroke-miterlimit:4;stroke-dasharray:none;stroke-dashoffset:0;stroke-opacity:0.30508477"
       sodipodi:type="star" />
    <path
       sodipodi:type="star"
       style="opacity:1;fill:#000000;fill-opacity:0;stroke:#4b5062;stroke-width:5;stroke-linecap:round;stroke-linejoin:round;stroke-miterlimit:4;stroke-dasharray:none;stroke-dashoffset:0;stroke-opacity:0.30508477"
       id="path4446"
       sodipodi:sides="3"
       sodipodi:cx="333.57147"
       sodipodi:cy="110.58442"
       sodipodi:r1="38.992413"
       sodipodi:r2="19.496206"
       sodipodi:arg1="2.0943951"
       sodipodi:arg2="3.1415927"
       inkscape:flatsided="true"
       inkscape:rounded="0"
       inkscape:randomized="0"
       d="m 314.07527,144.35284 0,-67.536841 58.48861,33.768421 z"
       inkscape:transform-center-x="-9.7481031"
       inkscape:transform-center-y="-3.8301796e-005" />
    <path
       inkscape:transform-center-y="-3.8301796e-005"
       inkscape:transform-center-x="-9.7481031"
       d="m 371.57527,179.70999 0,-67.53684 58.48861,33.76842 z"
       inkscape:randomized="0"
       inkscape:rounded="0"
       inkscape:flatsided="true"
       sodipodi:arg2="3.1415927"
       sodipodi:arg1="2.0943951"
       sodipodi:r2="19.496206"
       sodipodi:r1="38.992413"
       sodipodi:cy="145.94157"
       sodipodi:cx="391.07147"
       sodipodi:sides="3"
       id="path4448"
       style="opacity:1;fill:#000000;fill-opacity:0;stroke:#4b5062;stroke-width:5;stroke-linecap:round;stroke-linejoin:round;stroke-miterlimit:4;stroke-dasharray:none;stroke-dashoffset:0;stroke-opacity:0.30508477"
       sodipodi:type="star" />
    <path
       sodipodi:type="star"
       style="opacity:1;fill:#000000;fill-opacity:0;stroke:#4b5062;stroke-width:5;stroke-linecap:round;stroke-linejoin:round;stroke-miterlimit:4;stroke-dasharray:none;stroke-dashoffset:0;stroke-opacity:0.30508477"
       id="path4450"
       sodipodi:sides="3"
       sodipodi:cx="208.21432"
       sodipodi:cy="108.44157"
       sodipodi:r1="38.992413"
       sodipodi:r2="19.496206"
       sodipodi:arg1="2.0943951"
       sodipodi:arg2="3.1415927"
       inkscape:flatsided="true"
       inkscape:rounded="0"
       inkscape:randomized="0"
       d="m 188.71812,142.20999 0,-67.536843 58.48862,33.768423 z"
       inkscape:transform-center-x="-9.7481031"
       inkscape:transform-center-y="-3.8301796e-005" />
    <path
       inkscape:transform-center-y="-3.8301796e-005"
       inkscape:transform-center-x="-9.7481031"
       d="m 188.00384,73.995692 0,-67.5368398 58.48862,33.7684198 z"
       inkscape:randomized="0"
       inkscape:rounded="0"
       inkscape:flatsided="true"
       sodipodi:arg2="3.1415927"
       sodipodi:arg1="2.0943951"
       sodipodi:r2="19.496206"
       sodipodi:r1="38.992413"
       sodipodi:cy="40.227272"
       sodipodi:cx="207.50005"
       sodipodi:sides="3"
       id="path4452"
       style="opacity:1;fill:#000000;fill-opacity:0;stroke:#4b5062;stroke-width:5;stroke-linecap:round;stroke-linejoin:round;stroke-miterlimit:4;stroke-dasharray:none;stroke-dashoffset:0;stroke-opacity:0.30508477"
       sodipodi:type="star" />
    <path
       sodipodi:type="star"
       style="opacity:1;fill:#000000;fill-opacity:0;stroke:#4b5062;stroke-width:5;stroke-linecap:round;stroke-linejoin:round;stroke-miterlimit:4;stroke-dasharray:none;stroke-dashoffset:0;stroke-opacity:0.30508477"
       id="path4454"
       sodipodi:sides="3"
       sodipodi:cx="147.85718"
       sodipodi:cy="74.870132"
       sodipodi:r1="38.992413"
       sodipodi:r2="19.496206"
       sodipodi:arg1="2.0943951"
       sodipodi:arg2="3.1415927"
       inkscape:flatsided="true"
       inkscape:rounded="0"
       inkscape:randomized="0"
       d="m 128.36097,108.63855 0,-67.536837 58.48862,33.768419 z"
       inkscape:transform-center-x="-9.7481031"
       inkscape:transform-center-y="-3.8301796e-005" />
    <path
       inkscape:transform-center-y="-3.8301796e-005"
       inkscape:transform-center-x="-9.7481031"
       d="m 65.503824,72.924262 0,-67.53684 58.488616,33.76842 z"
       inkscape:randomized="0"
       inkscape:rounded="0"
       inkscape:flatsided="true"
       sodipodi:arg2="3.1415927"
       sodipodi:arg1="2.0943951"
       sodipodi:r2="19.496206"
       sodipodi:r1="38.992413"
       sodipodi:cy="39.155842"
       sodipodi:cx="85.000031"
       sodipodi:sides="3"
       id="path4456"
       style="opacity:1;fill:#000000;fill-opacity:0;stroke:#4b5062;stroke-width:5;stroke-linecap:round;stroke-linejoin:round;stroke-miterlimit:4;stroke-dasharray:none;stroke-dashoffset:0;stroke-opacity:0.30508477"
       sodipodi:type="star" />
  </g>
</svg>
