<?xml version="1.0" encoding="UTF-8" standalone="no"?>
<!-- Created with Inkscape (http://www.inkscape.org/) -->

<svg
   xmlns:dc="http://purl.org/dc/elements/1.1/"
   xmlns:cc="http://creativecommons.org/ns#"
   xmlns:rdf="http://www.w3.org/1999/02/22-rdf-syntax-ns#"
   xmlns:svg="http://www.w3.org/2000/svg"
   xmlns="http://www.w3.org/2000/svg"
   xmlns:sodipodi="http://sodipodi.sourceforge.net/DTD/sodipodi-0.dtd"
   xmlns:inkscape="http://www.inkscape.org/namespaces/inkscape"
   width="29.852705mm"
   height="47.985065mm"
   viewBox="0 0 105.7773 170.02582"
   id="svg2"
   version="1.1"
   inkscape:version="0.92.1 r15371"
   sodipodi:docname="menhir2.svg"
   inkscape:export-filename="/home/ziltoid/git/menhyr/png/menhir2.png"
   inkscape:export-xdpi="53.890129"
   inkscape:export-ydpi="53.890129">
  <defs
     id="defs4" />
  <sodipodi:namedview
     id="base"
     pagecolor="#ffffff"
     bordercolor="#666666"
     borderopacity="1.0"
     inkscape:pageopacity="0.0"
     inkscape:pageshadow="2"
     inkscape:zoom="1.979899"
     inkscape:cx="-125.96637"
     inkscape:cy="145.91271"
     inkscape:document-units="px"
     inkscape:current-layer="layer4"
     showgrid="false"
     inkscape:window-width="2560"
     inkscape:window-height="1016"
     inkscape:window-x="0"
     inkscape:window-y="27"
     inkscape:window-maximized="1"
     fit-margin-top="0"
     fit-margin-left="0"
     fit-margin-right="0"
     fit-margin-bottom="0"
     inkscape:snap-nodes="false" />
  <metadata
     id="metadata7">
    <rdf:RDF>
      <cc:Work
         rdf:about="">
        <dc:format>image/svg+xml</dc:format>
        <dc:type
           rdf:resource="http://purl.org/dc/dcmitype/StillImage" />
        <dc:title />
      </cc:Work>
    </rdf:RDF>
  </metadata>
  <g
     inkscape:groupmode="layer"
     id="layer2"
     inkscape:label="Repère"
     style="display:none"
     transform="translate(-117.15094,-230.48001)"
     sodipodi:insensitive="true">
    <path
       sodipodi:type="star"
       style="opacity:1;fill:#003880;fill-opacity:0.11440681;stroke:none;stroke-width:1;stroke-linecap:round;stroke-linejoin:round;stroke-miterlimit:4;stroke-dasharray:none;stroke-dashoffset:0;stroke-opacity:1"
       id="path4136"
       sodipodi:sides="6"
       sodipodi:cx="166.67517"
       sodipodi:cy="350.30618"
       sodipodi:r1="144.63184"
       sodipodi:r2="125.25484"
       sodipodi:arg1="1.0471976"
       sodipodi:arg2="1.5707964"
       inkscape:flatsided="true"
       inkscape:rounded="0"
       inkscape:randomized="0"
       d="m 238.99108,475.56103 -144.631833,-1e-5 -72.315912,-125.25484 72.315924,-125.25484 144.631831,0 72.31592,125.25485 z"
       transform="rotate(30.000002,185.1914,381.71031)" />
  </g>
  <g
     inkscape:label="Calque 1"
     inkscape:groupmode="layer"
     id="layer1"
     transform="translate(-117.15094,-230.48001)" />
  <g
     inkscape:groupmode="layer"
     id="layer4"
     inkscape:label="Décor"
     transform="translate(-121.31022,-31.559125)">
    <g
       id="g5761"
       transform="matrix(1.5681245,0,0,1.5681245,-90.803894,-123.11459)"
       style="stroke-width:0.63770449"
       inkscape:export-filename="/home/ziltoid/git/menhyr/png/menhir2.png"
       inkscape:export-xdpi="53.890129"
       inkscape:export-ydpi="53.890129">
      <path
         style="fill:#777d5f;fill-opacity:0.46610173;fill-rule:evenodd;stroke:none;stroke-width:0.63770449px;stroke-linecap:butt;stroke-linejoin:miter;stroke-opacity:1"
         d="m 221.67366,174.817 c -0.37647,1.61721 1.27652,0.49034 1.60166,1.1 0.25388,0.47606 0.24061,1.11052 0.55384,1.53942 0.1401,0.19183 0.47355,-0.0801 0.63465,0.0882 0.21623,0.22626 0.22146,0.61578 0.33229,0.92366 0.0739,0.20525 0.14778,0.4105 0.22147,0.61579 0.36922,1.02629 0.73845,2.05259 1.10768,3.07888 0.18463,0.51315 0.36923,1.02627 0.55384,1.53943 0.0369,0.10264 0.10333,0.19894 0.11074,0.30789 0.0166,0.24359 -0.0831,0.48454 -0.0404,0.72563 0.0566,0.32357 0.38545,0.60655 0.33231,0.92366 -0.0354,0.21141 -0.38147,0.0858 -0.5239,0.21968 -0.10066,0.095 -0.11885,0.27054 -0.15118,0.41775 -0.0824,0.37523 0.01,0.83977 -0.19159,1.14336 -0.16764,0.25261 -0.62934,0.0674 -0.78584,0.32957 -0.6118,1.02489 0.91897,0.23219 0.0704,1.03353 -0.14234,0.13438 -0.34926,0.14651 -0.52391,0.21968 -0.34926,0.14641 -0.69852,0.29293 -1.04778,0.43942 -0.17463,0.0733 -0.34928,0.14641 -0.52389,0.21967 -0.0874,0.0366 -0.20981,0.0224 -0.26197,0.10983 -0.14756,0.2472 -0.11184,0.63152 -0.30236,0.83548 -0.20207,0.21636 -0.5239,0.21968 -0.78584,0.32958 -0.78585,0.32956 -1.57169,0.65912 -2.35752,0.9887 -0.26195,0.10983 -0.55858,0.14833 -0.78583,0.32957 -0.10714,0.0854 -0.0379,0.34279 -0.15119,0.41774 -0.40028,0.26498 -0.87315,0.36618 -1.30974,0.54929 -0.26194,0.10983 -0.52391,0.21967 -0.78583,0.32956 -0.0874,0.0367 -0.20034,0.0313 -0.26195,0.10983 -0.22205,0.28359 -0.28587,0.7362 -0.56431,0.94535 -0.46338,0.34807 -1.04779,0.43943 -1.57168,0.65915 -1.05373,0.44191 -0.51798,0.21718 -1.57168,0.65912 -1.22242,0.51268 -2.44484,1.02533 -3.66725,1.53801 -0.26197,0.10983 -0.52391,0.21967 -0.78584,0.32957 -0.26196,0.10983 -0.50927,0.2718 -0.78587,0.32956 -0.29141,0.0615 -0.60927,-0.0576 -0.89659,0.0217 -0.54519,0.15027 -1.04779,0.43943 -1.57169,0.65915 -0.26195,0.10983 -0.5239,0.21967 -0.78583,0.32956 -0.26196,0.10984 -0.5023,0.32277 -0.78585,0.32958 -0.34079,0.008 -0.66757,-0.30634 -1.00737,-0.28621 -5.60141,0.3319 1.30943,0.42248 -3.51608,1.12025 -0.33624,0.0485 -0.66967,-0.32455 -1.00737,-0.28621 -0.46832,0.0532 -0.84875,0.45305 -1.30974,0.54928 -0.13049,0.0267 -0.23891,-0.17944 -0.37271,-0.19802 -0.5095,-0.0708 -1.02233,-0.0788 -1.53127,-0.0665 -4.71298,0.11399 2.94388,0.0664 -2.4683,0.68083 -0.33772,0.0383 -0.66752,-0.2219 -1.00737,-0.2862 -0.81745,-0.15463 -3.31961,-0.45751 -4.06992,-0.41918 -0.57369,0.0293 -1.11274,0.2865 -1.68246,0.3512 -0.59238,0.0673 -1.199,-0.009 -1.79322,0.0434 -0.47907,0.0425 -0.93862,0.22965 -1.42049,0.24147 -0.42266,0.0102 -0.84786,-0.20133 -1.26933,-0.17635 -0.57325,0.034 -1.11273,0.2865 -1.68246,0.3512 -0.59236,0.0673 -1.20082,-0.0239 -1.79321,0.0434 -0.56973,0.0647 -1.10658,0.3552 -1.68246,0.35121 -0.55207,-0.004 -1.09096,-0.38772 -1.64203,-0.37438 -0.37804,0.009 -0.66975,0.43028 -1.04779,0.43943 -0.26732,0.006 -0.47782,-0.35889 -0.74543,-0.39606 -0.39009,-0.0542 -0.76888,0.1221 -1.15856,0.13154 -0.50896,0.0123 -1.02085,-0.0443 -1.53127,-0.0665 -0.5607,0.11766 -1.10919,0.3173 -1.68246,0.35121 -0.87919,0.0521 -2.07749,-0.47842 -2.91136,-0.55073 -0.39082,-0.0339 -0.76775,0.1654 -1.15856,0.13154 -0.55268,-0.0479 -1.09619,-0.2383 -1.64204,-0.3744 -0.99353,-0.24772 -2.04244,-0.64937 -3.02213,-0.8586 -0.63073,-0.13472 -1.27922,-0.087 -1.90398,-0.26452 -1.37771,-0.39142 -2.17605,-1.0614 -3.50562,-1.36452 -0.6297,-0.14359 -1.26814,-0.20941 -1.90399,-0.26455 -0.29974,-0.026 -0.6021,0.10533 -0.89661,0.0217 -0.39512,-0.11226 -0.72098,-0.49508 -1.11813,-0.5941 -0.50412,-0.12569 -1.02716,0.0592 -1.53127,-0.0665 -0.39716,-0.099 -0.73494,-0.42868 -1.11815,-0.59407 -0.45162,-0.19495 -0.92847,-0.28931 -1.3801,-0.48424 -0.3832,-0.16542 -0.723,-0.48184 -1.11813,-0.5941 -0.29452,-0.0837 -0.6021,0.10543 -0.89662,0.0217 -2.22791,-0.63297 -0.0491,-0.5918 -2.12553,-0.88029 -0.29915,-0.0415 -0.61879,0.16927 -0.8966,0.0217 -0.17569,-0.0933 -0.0458,-0.52243 -0.22147,-0.61579 -0.17568,-0.0933 -0.33466,0.24602 -0.5239,0.21968 -0.0946,-0.0131 -0.0229,-0.26121 -0.11073,-0.3079 -0.0878,-0.0466 -0.18987,0.18529 -0.26196,0.10983 -0.14415,-0.15084 -0.0458,-0.52243 -0.22147,-0.61579 -0.17569,-0.0933 -0.33487,0.21509 -0.52389,0.21967 -0.1337,0.003 -0.24848,-0.13203 -0.37272,-0.19803 -0.24848,-0.13203 -0.49695,-0.26403 -0.74542,-0.39605 -0.19811,-0.27126 -0.33516,-0.62367 -0.59427,-0.81382 -0.18318,-0.13445 -0.4382,0.0162 -0.63465,-0.0882 -0.19645,-0.10437 -0.28705,-0.40152 -0.48349,-0.5059 -0.19643,-0.10438 -0.43821,0.0163 -0.63466,-0.0882 -1.54156,-0.81908 0.72854,-0.15991 -0.81578,-1.42958 -0.15832,-0.13016 -0.33468,0.24601 -0.5239,0.21967 -0.0946,-0.0131 -0.023,-0.26121 -0.11074,-0.30789 -0.0878,-0.0466 -0.18988,0.18529 -0.26196,0.10983 -0.14414,-0.15083 -0.14778,-0.41051 -0.22147,-0.61578 -0.0369,-0.10266 -0.0316,-0.24283 -0.11073,-0.3079 -0.22389,-0.18407 -0.52883,-0.20043 -0.74543,-0.39606 -0.24218,-0.21871 -0.36634,-0.57531 -0.59425,-0.81381 -0.25987,-0.27192 -0.59633,-0.43202 -0.85621,-0.70394 -0.22791,-0.2385 -0.41401,-0.52704 -0.59425,-0.81381 -0.057,-0.0907 -0.0316,-0.24282 -0.11073,-0.30789 -0.22389,-0.18409 -0.55675,-0.16502 -0.74542,-0.39608 -0.20014,-0.24504 -0.16127,-0.65162 -0.33231,-0.92364 -0.0806,-0.12824 -0.24848,-0.13202 -0.37271,-0.19804 -0.24849,-0.13202 -0.52155,-0.21198 -0.74545,-0.39606 -0.0792,-0.065 -0.0739,-0.20524 -0.11073,-0.30788 -0.0739,-0.20525 -0.0774,-0.46495 -0.22147,-0.61579 -0.64466,-0.67457 0.0704,1.03351 -0.37272,-0.19803 -0.0739,-0.20526 -0.14778,-0.4105 -0.22147,-0.61579 -0.0368,-0.10265 -0.0316,-0.24282 -0.11074,-0.30789 -0.22388,-0.18408 -0.55674,-0.16501 -0.74543,-0.39607 -0.45629,-0.20836 -0.19245,-0.88842 -0.44307,-1.23154 -0.68284,-0.93511 -0.344,-0.11822 -0.59425,-0.81381 -0.11073,-0.30789 -0.22146,-0.61578 -0.33231,-0.92366 -0.0739,-0.20525 -0.0458,-0.52243 -0.22147,-0.61579 -0.1757,-0.0933 -0.33468,0.24601 -0.52392,0.21968 -0.0946,-0.0131 -0.0739,-0.20526 -0.11073,-0.3079 -0.18462,-0.51313 -0.36924,-1.02628 -0.55385,-1.53944 -0.44307,-1.23154 0.27195,0.47653 -0.37271,-0.19801 -0.14416,-0.15085 -0.14778,-0.4105 -0.22147,-0.61579 -0.11074,-0.3079 -0.22147,-0.61579 -0.33232,-0.92366 -0.3323,-0.92366 -0.66459,-1.84732 -0.9969,-2.77099 -0.11074,-0.30789 -0.22147,-0.61577 -0.33231,-0.92366 -0.0368,-0.10264 -0.14642,-0.20943 -0.11073,-0.30789 0.0356,-0.0983 0.25595,-0.002 0.26196,-0.10984 0.0121,-0.21635 -0.14777,-0.4105 -0.22147,-0.61579 -0.0369,-0.10265 -0.14642,-0.20942 -0.11073,-0.30788 0.0356,-0.0983 0.25593,-0.002 0.26196,-0.10983 0.0121,-0.21635 -0.14777,-0.4105 -0.22146,-0.61579 -0.0368,-0.10264 -0.17236,-0.22922 -0.11074,-0.30789 1.10168,-1.40692 0.19461,1.09952 0.30237,-0.8355 0.006,-0.10816 0.19077,-0.0427 0.26195,-0.10984 0.1591,-0.15028 0.254,-0.37734 0.41312,-0.52758 0.0712,-0.0673 0.25594,-0.002 0.26196,-0.10983 0.0121,-0.21636 -0.29281,-0.41885 -0.22147,-0.61579 0.0756,-0.20888 0.61706,-0.17025 0.78583,-0.32958 0.15915,-0.15016 0.25402,-0.37733 0.41313,-0.52759 0.0712,-0.0673 0.2098,-0.0224 0.26195,-0.10984 0.14757,-0.24719 0.20158,-0.557 0.30237,-0.83548 0.0504,-0.13934 0.0505,-0.32273 0.15117,-0.41774 0.14233,-0.13439 0.45264,-0.0228 0.52391,-0.21967 0.0712,-0.19693 -0.23359,-0.39944 -0.22147,-0.61581 0.006,-0.10815 0.17464,-0.0733 0.26196,-0.10983 0.69852,-0.29296 1.39705,-0.5859 2.09557,-0.87886 0.0874,-0.0366 0.17463,-0.0733 0.26195,-0.10983 0.17462,-0.0733 0.40072,-0.0624 0.5239,-0.21968 0.0616,-0.0786 -0.14643,-0.20943 -0.11074,-0.30791 0.0356,-0.0983 0.17463,-0.0733 0.26195,-0.10983 0.17463,-0.0733 0.34927,-0.14641 0.5239,-0.21967 1.04779,-0.43942 2.09559,-0.87886 3.14337,-1.31828 0.78583,-0.32957 1.57168,-0.65913 2.35752,-0.9887 0.26195,-0.10983 0.5239,-0.21967 0.78585,-0.32958 0.0873,-0.0366 0.20979,-0.0224 0.26194,-0.10983 0.14756,-0.24719 0.11184,-0.63151 0.30236,-0.83549 0.20208,-0.21635 0.52391,-0.21967 0.78584,-0.32955 0.61122,-0.25635 1.22242,-0.51268 1.83363,-0.769 0.96049,-0.4028 1.92096,-0.80562 2.88142,-1.20842 0.0874,-0.0366 0.17463,-0.0733 0.26195,-0.10983 0.26197,-0.10984 0.50927,-0.2718 0.78584,-0.32957 0.29145,-0.0615 0.60816,0.053 0.89663,-0.0217 0.4561,-0.11803 0.87315,-0.36618 1.30972,-0.54927 0.26196,-0.10983 0.52391,-0.21968 0.78584,-0.32958 0.26196,-0.10983 0.52389,-0.21967 0.78585,-0.32956 0.0873,-0.0366 0.16881,-0.13629 0.26196,-0.10984 0.26341,0.0748 0.47782,0.35888 0.74541,0.39607 0.39009,0.0542 0.77238,-0.0877 1.15856,-0.13164 0.77237,-0.0876 1.54928,-0.14513 2.31711,-0.26307 0.56637,-0.087 1.11272,-0.2865 1.68246,-0.35121 0.59236,-0.0673 1.20081,0.0239 1.79321,-0.0434 1.6487,-0.18717 1.74892,-0.63454 3.47567,-0.39461 0.47305,0.0657 0.91074,0.37724 1.38009,0.48425 0.62969,0.14356 1.26933,0.17634 1.90398,0.26451 0.84622,0.11756 1.6913,0.26132 2.53865,0.35271 0.72152,0.0778 1.45224,-0.0175 2.16593,0.15466 0.73193,0.17651 1.39592,0.68742 2.12553,0.88029 0.83552,0.22087 1.70565,0.11604 2.53864,0.3527 0.85863,0.24395 1.64999,0.78071 2.49824,1.07832 1.6197,0.56831 3.99902,1.07706 5.67155,1.51921 0.67362,0.17806 1.35129,0.33961 2.01475,0.57239 0.71859,0.25214 1.39359,0.70378 2.12553,0.8803 0.7137,0.17213 1.44539,0.0546 2.16592,0.15467 0.55167,0.0766 1.09379,0.25728 1.64204,0.37439 0.62697,0.13389 4.86109,0.98993 5.18807,1.01328 0.48339,0.0345 0.93752,-0.25033 1.4205,-0.24137 1.18297,0.0218 0.67342,0.23627 1.38011,0.48422 0.33172,0.11641 0.66624,0.23881 1.00736,0.28622 2.53996,-0.0614 -0.61196,-0.13953 1.64204,0.37437 0.29685,0.0677 0.60043,0.012 0.89661,-0.0217 0.0938,-0.0103 0.18987,-0.18529 0.26195,-0.10983 0.14415,0.15083 0.0458,0.52241 0.22146,0.61577 0.17571,0.0933 0.34928,-0.14641 0.52392,-0.21968 0.0874,-0.0366 0.17409,-0.15655 0.26194,-0.10983 0.0878,0.0466 0.0739,0.20524 0.11074,0.30789 0.17464,-0.0733 0.33762,-0.27265 0.52389,-0.21967 0.20825,0.0591 0.31225,0.35126 0.48349,0.50591 0.27614,0.24938 0.52721,0.57589 0.85621,0.70395 2.56144,0.99703 -1.27952,-1.75255 2.27669,0.46257 0.4973,0.30974 0.82745,0.93769 1.33968,1.20986 0.51225,0.27216 1.10556,0.18613 1.64204,0.37437 0.0568,0.02 2.19457,1.17633 2.2363,1.18819 0.2945,0.0837 0.60571,-0.12347 0.89659,-0.0217 0.20574,0.0721 0.32233,0.33728 0.4835,0.5059 0.3727,0.19804 0.72301,0.48183 1.11815,0.5941 3.37442,0.9587 -2.95297,-1.92168 2.53864,0.3527 0.20284,0.084 0.28704,0.40155 0.48348,0.50592 0.19644,0.10437 0.42333,0.0933 0.63467,0.0882 0.0945,-0.002 0.18987,-0.18527 0.26194,-0.10983 1.28929,1.34912 -0.94698,0.16098 0.74543,0.39606 0.0946,0.0131 0.0739,0.20525 0.11073,0.30789 0.62768,1.7447 -0.13771,0.1759 0.48348,0.50593 0.0878,0.0466 0.0161,0.29475 0.11074,0.30788 0.18922,0.0263 0.34926,-0.14651 0.52391,-0.21967 0.0873,-0.0367 0.18986,-0.1853 0.26194,-0.10983 0.14416,0.15082 0.14758,0.41054 0.22147,0.61579 0.0369,0.10265 0.0161,0.29475 0.11073,0.3079 0.18923,0.0263 0.3482,-0.31307 0.52392,-0.21968 0.17569,0.0933 0.0967,0.44411 0.22147,0.61578 0.0885,0.12133 0.24848,0.13201 0.37271,0.19802 0.24849,0.13203 0.52154,0.21199 0.74543,0.39608 0.0792,0.065 0.0739,0.20523 0.11074,0.30789 0.0739,0.20525 0.0774,0.46495 0.22147,0.61578 0.072,0.0754 0.17411,-0.15656 0.26195,-0.10983 0.0879,0.0466 0.0739,0.20525 0.11073,0.30788 0.0739,0.20526 0.0458,0.52245 0.22148,0.61581 0.17569,0.0933 0.33466,-0.24602 0.52389,-0.21968 0.0946,0.013 0.0342,0.2387 0.11074,0.30789 0.38291,0.34582 0.81926,0.60131 1.2289,0.90199 z"
         id="path4749"
         inkscape:connector-curvature="0" />
      <path
         inkscape:connector-curvature="0"
         id="path4729"
         d="m 142.45058,183.33284 c 0.49264,-7.29542 0.52794,-14.68359 1.81251,-21.91931 0.93541,-7.98715 2.67822,-15.85231 2.83758,-23.90363 0.63245,-12.77797 3.95067,-25.30482 9.39487,-36.86912 3.60566,-11.268973 8.60568,-22.033853 12.84679,-33.069579 4.93038,-10.086806 8.63203,-20.787217 14.24929,-30.52275 1.36074,-7.587723 9.01128,-6.288863 13.54204,-2.224863 8.52471,3.710382 11.92534,13.239184 14.64405,21.414844 4.21455,13.749621 6.63179,28.46219 3.81878,42.736895 -1.49364,11.389003 -1.55347,22.994153 0.45091,34.310253 1.30393,10.91154 4.43417,21.41593 6.60745,32.14379 1.0034,7.43235 2.04287,15.70984 -2.63137,22.21572 -5.90463,2.7732 -13.17966,4.62695 -20.00127,4.34081 -7.97398,0.86819 -16.01177,1.38775 -23.86475,3.21355 -5.49393,0.54771 -11.0442,0.15904 -16.56402,0.27625 -5.47501,-2.70446 -13.38102,-2.64966 -16.42091,-8.76101 -0.34193,-1.10797 -0.86,-2.19699 -0.72195,-3.38185 z"
         style="fill:#bab6a6;fill-opacity:1;fill-rule:evenodd;stroke:none;stroke-width:0.63770449px;stroke-linecap:butt;stroke-linejoin:miter;stroke-opacity:1" />
      <path
         inkscape:connector-curvature="0"
         id="path4733"
         d="m 195.12614,186.74891 c 0.40289,-11.66394 -1.66145,-23.19513 -1.26269,-34.85027 1.2544,-6.12629 0.70214,-12.60477 4.11503,-18.1691 1.1299,-4.99914 3.93381,-12.32794 -2.91502,-14.07397 0.0907,-4.96878 5.06906,-8.33106 6.43278,-12.62486 -2.89633,-5.74218 -7.5641,-11.540003 -5.40911,-18.505363 -0.12739,-7.498437 1.39159,-14.834489 2.91399,-22.132429 0.14222,-6.501261 2.01664,-13.551388 -0.55753,-19.688394 -0.81484,-3.269282 -8.8243,-9.314307 -4.5036,-11.406228 5.70206,1.019059 11.47171,3.637918 10.88954,10.413189 0.15536,5.747518 5.7795,8.458095 7.25819,13.552612 1.51801,4.624636 2.4085,9.452957 2.76802,14.308258 -0.20189,6.263154 0.25164,12.577882 -0.23668,18.810782 -1.37303,6.59496 -2.12213,13.328023 -3.62089,19.881353 -0.25342,6.55438 -0.44405,13.13805 0.0379,19.68364 3.7173,9.50691 5.49316,19.58512 7.91577,29.44824 1.25496,6.86867 1.43687,13.85186 1.68068,20.80685 0.13452,7.06242 -7.72733,3.1122 -12.06601,4.55418 -4.29181,-1.7369 -10.58649,2.53561 -13.44034,-0.008 z"
         style="fill:#c8c4b7;fill-opacity:1;fill-rule:evenodd;stroke:none;stroke-width:0.63770449px;stroke-linecap:butt;stroke-linejoin:miter;stroke-opacity:1" />
      <path
         inkscape:connector-curvature="0"
         id="path4737"
         d="m 186.03489,32.640023 c -3.59567,5.352608 -6.11946,11.680885 -8.97963,17.608238 -7.50113,16.955567 -14.89499,33.990437 -21.06358,51.478719 -6.01825,12.82476 -8.84496,26.92933 -9.19728,41.04245 -1.45425,12.60335 -4.02187,25.09301 -4.17686,37.82428 -1.8105,7.08794 5.14175,11.90372 11.35338,12.88266 3.52401,1.64625 13.63798,4.36714 8.8296,-1.67618 -0.79142,-0.61023 -2.32083,-1.99813 -2.77735,-4.04102 -1.80626,-1.81537 -2.70657,-4.37698 -2.01953,-6.40126 0.49922,-1.24125 1.32727,-3.96176 0.25195,-4.96397 -0.6173,-1.47369 -0.51228,-3.11569 -0.75781,-4.7205 -0.10807,-1.69848 0.0337,-3.82557 1.00977,-4.62325 0.468,-1.66762 2.36684,-4.17081 2.27343,-6.56446 0.70547,-2.96257 2.02685,-6.58836 4.04102,-9.34375 1.93429,-2.09638 5.35507,-4.78131 3.53516,-7.83008 -0.66893,-2.20103 -1.93798,-4.20072 -2.52539,-5.80859 -1.23307,-2.19483 -1.27795,-5.03251 -2.77735,-7.32227 -0.56639,-1.4727 -0.68023,-3.68238 -0.2539,-5.64539 0.0124,-3.78969 1.69365,-7.41206 2.27343,-11.02258 0.72958,-2.53134 1.47338,-6.04875 0.75782,-8.33398 -1.41818,-2.21971 0.0266,-4.72783 1.51465,-6.565433 1.43872,-2.5342 2.82242,-4.93077 3.53613,-6.56738 1.15096,-1.93772 2.73455,-3.73317 3.03125,-5.80664 0.51147,-2.209931 1.79806,-5.139095 2.52539,-7.576176 1.07262,-2.013161 1.90561,-3.475529 2.52539,-5.050781 1.35189,-2.920206 2.61659,-6.337072 2.77734,-9.521269 -0.27524,-4.722187 1.16116,-9.018802 3.28321,-13.207247 0.96573,-2.167818 1.19645,-4.621082 1.26171,-7.072266 -0.0643,-3.73322 0.18849,-7.595737 -0.25195,-11.171875 z"
         style="fill:#afaa97;fill-opacity:1;fill-rule:evenodd;stroke:none;stroke-width:0.63770449px;stroke-linecap:butt;stroke-linejoin:miter;stroke-opacity:1" />
      <path
         id="path4743"
         d="m 189.17356,31.565805 c -2.64907,0.11575 -4.90166,1.68856 -5.58203,5.482421 -5.61726,9.735532 -9.31962,20.436633 -14.25,30.523438 -4.24111,11.035725 -9.24004,21.799391 -12.8457,33.068356 -5.4442,11.5643 -8.76208,24.09117 -9.39453,36.86914 -0.15936,8.05132 -1.90248,15.91715 -2.83789,23.9043 -1.28457,7.23572 -1.31986,14.6245 -1.8125,21.91992 -0.13805,1.18486 0.37877,2.27289 0.7207,3.38086 3.03989,6.11135 10.94687,6.05726 16.42187,8.76172 5.51982,-0.11721 11.07053,0.27036 16.56446,-0.27735 7.85298,-1.8258 15.8893,-2.3447 23.86328,-3.21289 6.82161,0.28614 14.09732,-1.56664 20.00195,-4.33984 0.01,-0.0135 0.0177,-0.0275 0.0274,-0.041 -3.4897,-0.37725 -6.97442,-1.24425 -10.5293,-0.0976 -8.74581,0.21939 -17.7439,2.03782 -26.36328,-0.63672 -5.94397,-1.36031 -10.06921,-7.67594 -9.49805,-13.25391 0.75558,-3.33825 -1.03474,-4.4666 -3.42383,-5.33008 -3.59244,-2.82427 -5.47624,-8.05454 -6.92969,-12.34765 -2.39226,-6.11595 0.61461,-12.44973 -1.00976,-18.6875 -1.22339,-3.99371 -2.71421,-7.66394 -4.29297,-11.36328 -0.69425,-6.54781 4.37861,-13.5635 6.56445,-19.95117 1.51941,-5.12259 5.27333,-9.965309 7.57618,-15.404298 3.33571,-6.028028 5.47978,-12.629067 8.83984,-18.689454 3.29024,-10.177558 9.33758,-19.742229 10.10156,-30.55664 0.36606,-2.970261 0.93952,-6.080622 1.96875,-8.986328 -1.29957,-0.510887 -2.63421,-0.788847 -3.88086,-0.734375 z"
         style="opacity:1;fill:#676c53;fill-opacity:0.24313725;fill-rule:evenodd;stroke:none;stroke-width:0.63770449px;stroke-linecap:butt;stroke-linejoin:miter;stroke-opacity:1"
         inkscape:connector-curvature="0" />
    </g>
    <g
       id="layer2-3"
       inkscape:label="Repère"
       style="display:none"
       transform="translate(-183.50019,-235.4869)">
      <path
         sodipodi:type="star"
         style="opacity:1;fill:#003880;fill-opacity:0.11440681;stroke:none;stroke-width:1;stroke-linecap:round;stroke-linejoin:round;stroke-miterlimit:4;stroke-dasharray:none;stroke-dashoffset:0;stroke-opacity:1"
         id="path4136-5"
         sodipodi:sides="6"
         sodipodi:cx="166.67517"
         sodipodi:cy="350.30618"
         sodipodi:r1="144.63184"
         sodipodi:r2="125.25484"
         sodipodi:arg1="1.0471976"
         sodipodi:arg2="1.5707964"
         inkscape:flatsided="true"
         inkscape:rounded="0"
         inkscape:randomized="0"
         d="m 238.99108,475.56103 -144.631833,-1e-5 -72.315912,-125.25484 72.315924,-125.25484 144.631831,0 72.31592,125.25485 z"
         transform="rotate(30.000002,185.1914,381.7103)" />
    </g>
    <g
       inkscape:label="Calque 1"
       id="layer1-6"
       transform="translate(-183.50019,-235.4869)" />
    <g
       id="layer3-9"
       inkscape:label="Grille"
       style="display:none"
       transform="translate(-187.65947,-36.566016)">
      <path
         sodipodi:type="star"
         style="opacity:1;fill:#000000;fill-opacity:0;stroke:#4b5062;stroke-width:5;stroke-linecap:round;stroke-linejoin:round;stroke-miterlimit:4;stroke-dasharray:none;stroke-dashoffset:0;stroke-opacity:0.30508477"
         id="path4434-1"
         sodipodi:sides="3"
         sodipodi:cx="145.71429"
         sodipodi:cy="291.29871"
         sodipodi:r1="38.992413"
         sodipodi:r2="19.496206"
         sodipodi:arg1="2.0943951"
         sodipodi:arg2="3.1415927"
         inkscape:flatsided="true"
         inkscape:rounded="0"
         inkscape:randomized="0"
         d="m 126.21809,325.06713 0,-67.53684 58.48862,33.76842 z"
         inkscape:transform-center-x="-9.7481031"
         inkscape:transform-center-y="-3.8301796e-05" />
      <path
         inkscape:transform-center-y="-3.8301796e-05"
         inkscape:transform-center-x="-9.7481031"
         d="m 124.78951,253.63855 0,-67.53684 58.48862,33.76842 z"
         inkscape:randomized="0"
         inkscape:rounded="0"
         inkscape:flatsided="true"
         sodipodi:arg2="3.1415927"
         sodipodi:arg1="2.0943951"
         sodipodi:r2="19.496206"
         sodipodi:r1="38.992413"
         sodipodi:cy="219.87013"
         sodipodi:cx="144.28572"
         sodipodi:sides="3"
         id="path4436-2"
         style="opacity:1;fill:#000000;fill-opacity:0;stroke:#4b5062;stroke-width:5;stroke-linecap:round;stroke-linejoin:round;stroke-miterlimit:4;stroke-dasharray:none;stroke-dashoffset:0;stroke-opacity:0.30508477"
         sodipodi:type="star" />
      <path
         sodipodi:type="star"
         style="opacity:1;fill:#000000;fill-opacity:0;stroke:#4b5062;stroke-width:5;stroke-linecap:round;stroke-linejoin:round;stroke-miterlimit:4;stroke-dasharray:none;stroke-dashoffset:0;stroke-opacity:0.30508477"
         id="path4438-7"
         sodipodi:sides="3"
         sodipodi:cx="85.357147"
         sodipodi:cy="183.08441"
         sodipodi:r1="38.992413"
         sodipodi:r2="19.496206"
         sodipodi:arg1="2.0943951"
         sodipodi:arg2="3.1415927"
         inkscape:flatsided="true"
         inkscape:rounded="0"
         inkscape:randomized="0"
         d="m 65.860941,216.85283 0,-67.53684 58.488619,33.76842 z"
         inkscape:transform-center-x="-9.7481031"
         inkscape:transform-center-y="-3.8301796e-05" />
      <path
         inkscape:transform-center-y="-3.8301796e-05"
         inkscape:transform-center-x="-9.7481031"
         d="m 189.78953,216.85283 0,-67.53684 58.48862,33.76842 z"
         inkscape:randomized="0"
         inkscape:rounded="0"
         inkscape:flatsided="true"
         sodipodi:arg2="3.1415927"
         sodipodi:arg1="2.0943951"
         sodipodi:r2="19.496206"
         sodipodi:r1="38.992413"
         sodipodi:cy="183.08441"
         sodipodi:cx="209.28574"
         sodipodi:sides="3"
         id="path4440-0"
         style="opacity:1;fill:#000000;fill-opacity:0;stroke:#4b5062;stroke-width:5;stroke-linecap:round;stroke-linejoin:round;stroke-miterlimit:4;stroke-dasharray:none;stroke-dashoffset:0;stroke-opacity:0.30508477"
         sodipodi:type="star" />
      <path
         sodipodi:type="star"
         style="opacity:1;fill:#000000;fill-opacity:0;stroke:#4b5062;stroke-width:5;stroke-linecap:round;stroke-linejoin:round;stroke-miterlimit:4;stroke-dasharray:none;stroke-dashoffset:0;stroke-opacity:0.30508477"
         id="path4442-9"
         sodipodi:sides="3"
         sodipodi:cx="271.78574"
         sodipodi:cy="218.79871"
         sodipodi:r1="38.992413"
         sodipodi:r2="19.496206"
         sodipodi:arg1="2.0943951"
         sodipodi:arg2="3.1415927"
         inkscape:flatsided="true"
         inkscape:rounded="0"
         inkscape:randomized="0"
         d="m 252.28953,252.56713 0,-67.53684 58.48862,33.76842 z"
         inkscape:transform-center-x="-9.7481031"
         inkscape:transform-center-y="-3.8301796e-05" />
      <path
         inkscape:transform-center-y="-3.8301796e-05"
         inkscape:transform-center-x="-9.7481031"
         d="m 250.14668,180.06713 0,-67.53684 58.48862,33.76842 z"
         inkscape:randomized="0"
         inkscape:rounded="0"
         inkscape:flatsided="true"
         sodipodi:arg2="3.1415927"
         sodipodi:arg1="2.0943951"
         sodipodi:r2="19.496206"
         sodipodi:r1="38.992413"
         sodipodi:cy="146.29871"
         sodipodi:cx="269.64288"
         sodipodi:sides="3"
         id="path4444-3"
         style="opacity:1;fill:#000000;fill-opacity:0;stroke:#4b5062;stroke-width:5;stroke-linecap:round;stroke-linejoin:round;stroke-miterlimit:4;stroke-dasharray:none;stroke-dashoffset:0;stroke-opacity:0.30508477"
         sodipodi:type="star" />
      <path
         sodipodi:type="star"
         style="opacity:1;fill:#000000;fill-opacity:0;stroke:#4b5062;stroke-width:5;stroke-linecap:round;stroke-linejoin:round;stroke-miterlimit:4;stroke-dasharray:none;stroke-dashoffset:0;stroke-opacity:0.30508477"
         id="path4446-6"
         sodipodi:sides="3"
         sodipodi:cx="333.57147"
         sodipodi:cy="110.58442"
         sodipodi:r1="38.992413"
         sodipodi:r2="19.496206"
         sodipodi:arg1="2.0943951"
         sodipodi:arg2="3.1415927"
         inkscape:flatsided="true"
         inkscape:rounded="0"
         inkscape:randomized="0"
         d="m 314.07527,144.35284 0,-67.536841 58.48861,33.768421 z"
         inkscape:transform-center-x="-9.7481031"
         inkscape:transform-center-y="-3.8301796e-05" />
      <path
         inkscape:transform-center-y="-3.8301796e-05"
         inkscape:transform-center-x="-9.7481031"
         d="m 371.57527,179.70999 0,-67.53684 58.48861,33.76842 z"
         inkscape:randomized="0"
         inkscape:rounded="0"
         inkscape:flatsided="true"
         sodipodi:arg2="3.1415927"
         sodipodi:arg1="2.0943951"
         sodipodi:r2="19.496206"
         sodipodi:r1="38.992413"
         sodipodi:cy="145.94157"
         sodipodi:cx="391.07147"
         sodipodi:sides="3"
         id="path4448-0"
         style="opacity:1;fill:#000000;fill-opacity:0;stroke:#4b5062;stroke-width:5;stroke-linecap:round;stroke-linejoin:round;stroke-miterlimit:4;stroke-dasharray:none;stroke-dashoffset:0;stroke-opacity:0.30508477"
         sodipodi:type="star" />
      <path
         sodipodi:type="star"
         style="opacity:1;fill:#000000;fill-opacity:0;stroke:#4b5062;stroke-width:5;stroke-linecap:round;stroke-linejoin:round;stroke-miterlimit:4;stroke-dasharray:none;stroke-dashoffset:0;stroke-opacity:0.30508477"
         id="path4450-6"
         sodipodi:sides="3"
         sodipodi:cx="208.21432"
         sodipodi:cy="108.44157"
         sodipodi:r1="38.992413"
         sodipodi:r2="19.496206"
         sodipodi:arg1="2.0943951"
         sodipodi:arg2="3.1415927"
         inkscape:flatsided="true"
         inkscape:rounded="0"
         inkscape:randomized="0"
         d="m 188.71812,142.20999 0,-67.536843 58.48862,33.768423 z"
         inkscape:transform-center-x="-9.7481031"
         inkscape:transform-center-y="-3.8301796e-05" />
      <path
         inkscape:transform-center-y="-3.8301796e-05"
         inkscape:transform-center-x="-9.7481031"
         d="m 188.00384,73.995692 0,-67.5368398 58.48862,33.7684198 z"
         inkscape:randomized="0"
         inkscape:rounded="0"
         inkscape:flatsided="true"
         sodipodi:arg2="3.1415927"
         sodipodi:arg1="2.0943951"
         sodipodi:r2="19.496206"
         sodipodi:r1="38.992413"
         sodipodi:cy="40.227272"
         sodipodi:cx="207.50005"
         sodipodi:sides="3"
         id="path4452-2"
         style="opacity:1;fill:#000000;fill-opacity:0;stroke:#4b5062;stroke-width:5;stroke-linecap:round;stroke-linejoin:round;stroke-miterlimit:4;stroke-dasharray:none;stroke-dashoffset:0;stroke-opacity:0.30508477"
         sodipodi:type="star" />
      <path
         sodipodi:type="star"
         style="opacity:1;fill:#000000;fill-opacity:0;stroke:#4b5062;stroke-width:5;stroke-linecap:round;stroke-linejoin:round;stroke-miterlimit:4;stroke-dasharray:none;stroke-dashoffset:0;stroke-opacity:0.30508477"
         id="path4454-6"
         sodipodi:sides="3"
         sodipodi:cx="147.85718"
         sodipodi:cy="74.870132"
         sodipodi:r1="38.992413"
         sodipodi:r2="19.496206"
         sodipodi:arg1="2.0943951"
         sodipodi:arg2="3.1415927"
         inkscape:flatsided="true"
         inkscape:rounded="0"
         inkscape:randomized="0"
         d="m 128.36097,108.63855 0,-67.536837 58.48862,33.768419 z"
         inkscape:transform-center-x="-9.7481031"
         inkscape:transform-center-y="-3.8301796e-05" />
      <path
         inkscape:transform-center-y="-3.8301796e-05"
         inkscape:transform-center-x="-9.7481031"
         d="m 65.503824,72.924262 0,-67.53684 58.488616,33.76842 z"
         inkscape:randomized="0"
         inkscape:rounded="0"
         inkscape:flatsided="true"
         sodipodi:arg2="3.1415927"
         sodipodi:arg1="2.0943951"
         sodipodi:r2="19.496206"
         sodipodi:r1="38.992413"
         sodipodi:cy="39.155842"
         sodipodi:cx="85.000031"
         sodipodi:sides="3"
         id="path4456-1"
         style="opacity:1;fill:#000000;fill-opacity:0;stroke:#4b5062;stroke-width:5;stroke-linecap:round;stroke-linejoin:round;stroke-miterlimit:4;stroke-dasharray:none;stroke-dashoffset:0;stroke-opacity:0.30508477"
         sodipodi:type="star" />
    </g>
  </g>
  <g
     inkscape:groupmode="layer"
     id="layer3"
     inkscape:label="Grille"
     style="display:none"
     sodipodi:insensitive="true"
     transform="translate(-121.31022,-31.559125)">
    <path
       sodipodi:type="star"
       style="opacity:1;fill:#000000;fill-opacity:0;stroke:#4b5062;stroke-width:5;stroke-linecap:round;stroke-linejoin:round;stroke-miterlimit:4;stroke-dasharray:none;stroke-dashoffset:0;stroke-opacity:0.30508477"
       id="path4434"
       sodipodi:sides="3"
       sodipodi:cx="145.71429"
       sodipodi:cy="291.29871"
       sodipodi:r1="38.992413"
       sodipodi:r2="19.496206"
       sodipodi:arg1="2.0943951"
       sodipodi:arg2="3.1415927"
       inkscape:flatsided="true"
       inkscape:rounded="0"
       inkscape:randomized="0"
       d="m 126.21809,325.06713 0,-67.53684 58.48862,33.76842 z"
       inkscape:transform-center-x="-9.7481031"
       inkscape:transform-center-y="-3.8301796e-05" />
    <path
       inkscape:transform-center-y="-3.8301796e-05"
       inkscape:transform-center-x="-9.7481031"
       d="m 124.78951,253.63855 0,-67.53684 58.48862,33.76842 z"
       inkscape:randomized="0"
       inkscape:rounded="0"
       inkscape:flatsided="true"
       sodipodi:arg2="3.1415927"
       sodipodi:arg1="2.0943951"
       sodipodi:r2="19.496206"
       sodipodi:r1="38.992413"
       sodipodi:cy="219.87013"
       sodipodi:cx="144.28572"
       sodipodi:sides="3"
       id="path4436"
       style="opacity:1;fill:#000000;fill-opacity:0;stroke:#4b5062;stroke-width:5;stroke-linecap:round;stroke-linejoin:round;stroke-miterlimit:4;stroke-dasharray:none;stroke-dashoffset:0;stroke-opacity:0.30508477"
       sodipodi:type="star" />
    <path
       sodipodi:type="star"
       style="opacity:1;fill:#000000;fill-opacity:0;stroke:#4b5062;stroke-width:5;stroke-linecap:round;stroke-linejoin:round;stroke-miterlimit:4;stroke-dasharray:none;stroke-dashoffset:0;stroke-opacity:0.30508477"
       id="path4438"
       sodipodi:sides="3"
       sodipodi:cx="85.357147"
       sodipodi:cy="183.08441"
       sodipodi:r1="38.992413"
       sodipodi:r2="19.496206"
       sodipodi:arg1="2.0943951"
       sodipodi:arg2="3.1415927"
       inkscape:flatsided="true"
       inkscape:rounded="0"
       inkscape:randomized="0"
       d="m 65.860941,216.85283 0,-67.53684 58.488619,33.76842 z"
       inkscape:transform-center-x="-9.7481031"
       inkscape:transform-center-y="-3.8301796e-05" />
    <path
       inkscape:transform-center-y="-3.8301796e-05"
       inkscape:transform-center-x="-9.7481031"
       d="m 189.78953,216.85283 0,-67.53684 58.48862,33.76842 z"
       inkscape:randomized="0"
       inkscape:rounded="0"
       inkscape:flatsided="true"
       sodipodi:arg2="3.1415927"
       sodipodi:arg1="2.0943951"
       sodipodi:r2="19.496206"
       sodipodi:r1="38.992413"
       sodipodi:cy="183.08441"
       sodipodi:cx="209.28574"
       sodipodi:sides="3"
       id="path4440"
       style="opacity:1;fill:#000000;fill-opacity:0;stroke:#4b5062;stroke-width:5;stroke-linecap:round;stroke-linejoin:round;stroke-miterlimit:4;stroke-dasharray:none;stroke-dashoffset:0;stroke-opacity:0.30508477"
       sodipodi:type="star" />
    <path
       sodipodi:type="star"
       style="opacity:1;fill:#000000;fill-opacity:0;stroke:#4b5062;stroke-width:5;stroke-linecap:round;stroke-linejoin:round;stroke-miterlimit:4;stroke-dasharray:none;stroke-dashoffset:0;stroke-opacity:0.30508477"
       id="path4442"
       sodipodi:sides="3"
       sodipodi:cx="271.78574"
       sodipodi:cy="218.79871"
       sodipodi:r1="38.992413"
       sodipodi:r2="19.496206"
       sodipodi:arg1="2.0943951"
       sodipodi:arg2="3.1415927"
       inkscape:flatsided="true"
       inkscape:rounded="0"
       inkscape:randomized="0"
       d="m 252.28953,252.56713 0,-67.53684 58.48862,33.76842 z"
       inkscape:transform-center-x="-9.7481031"
       inkscape:transform-center-y="-3.8301796e-05" />
    <path
       inkscape:transform-center-y="-3.8301796e-05"
       inkscape:transform-center-x="-9.7481031"
       d="m 250.14668,180.06713 0,-67.53684 58.48862,33.76842 z"
       inkscape:randomized="0"
       inkscape:rounded="0"
       inkscape:flatsided="true"
       sodipodi:arg2="3.1415927"
       sodipodi:arg1="2.0943951"
       sodipodi:r2="19.496206"
       sodipodi:r1="38.992413"
       sodipodi:cy="146.29871"
       sodipodi:cx="269.64288"
       sodipodi:sides="3"
       id="path4444"
       style="opacity:1;fill:#000000;fill-opacity:0;stroke:#4b5062;stroke-width:5;stroke-linecap:round;stroke-linejoin:round;stroke-miterlimit:4;stroke-dasharray:none;stroke-dashoffset:0;stroke-opacity:0.30508477"
       sodipodi:type="star" />
    <path
       sodipodi:type="star"
       style="opacity:1;fill:#000000;fill-opacity:0;stroke:#4b5062;stroke-width:5;stroke-linecap:round;stroke-linejoin:round;stroke-miterlimit:4;stroke-dasharray:none;stroke-dashoffset:0;stroke-opacity:0.30508477"
       id="path4446"
       sodipodi:sides="3"
       sodipodi:cx="333.57147"
       sodipodi:cy="110.58442"
       sodipodi:r1="38.992413"
       sodipodi:r2="19.496206"
       sodipodi:arg1="2.0943951"
       sodipodi:arg2="3.1415927"
       inkscape:flatsided="true"
       inkscape:rounded="0"
       inkscape:randomized="0"
       d="m 314.07527,144.35284 0,-67.536841 58.48861,33.768421 z"
       inkscape:transform-center-x="-9.7481031"
       inkscape:transform-center-y="-3.8301796e-05" />
    <path
       inkscape:transform-center-y="-3.8301796e-05"
       inkscape:transform-center-x="-9.7481031"
       d="m 371.57527,179.70999 0,-67.53684 58.48861,33.76842 z"
       inkscape:randomized="0"
       inkscape:rounded="0"
       inkscape:flatsided="true"
       sodipodi:arg2="3.1415927"
       sodipodi:arg1="2.0943951"
       sodipodi:r2="19.496206"
       sodipodi:r1="38.992413"
       sodipodi:cy="145.94157"
       sodipodi:cx="391.07147"
       sodipodi:sides="3"
       id="path4448"
       style="opacity:1;fill:#000000;fill-opacity:0;stroke:#4b5062;stroke-width:5;stroke-linecap:round;stroke-linejoin:round;stroke-miterlimit:4;stroke-dasharray:none;stroke-dashoffset:0;stroke-opacity:0.30508477"
       sodipodi:type="star" />
    <path
       sodipodi:type="star"
       style="opacity:1;fill:#000000;fill-opacity:0;stroke:#4b5062;stroke-width:5;stroke-linecap:round;stroke-linejoin:round;stroke-miterlimit:4;stroke-dasharray:none;stroke-dashoffset:0;stroke-opacity:0.30508477"
       id="path4450"
       sodipodi:sides="3"
       sodipodi:cx="208.21432"
       sodipodi:cy="108.44157"
       sodipodi:r1="38.992413"
       sodipodi:r2="19.496206"
       sodipodi:arg1="2.0943951"
       sodipodi:arg2="3.1415927"
       inkscape:flatsided="true"
       inkscape:rounded="0"
       inkscape:randomized="0"
       d="m 188.71812,142.20999 0,-67.536843 58.48862,33.768423 z"
       inkscape:transform-center-x="-9.7481031"
       inkscape:transform-center-y="-3.8301796e-05" />
    <path
       inkscape:transform-center-y="-3.8301796e-05"
       inkscape:transform-center-x="-9.7481031"
       d="m 188.00384,73.995692 0,-67.5368398 58.48862,33.7684198 z"
       inkscape:randomized="0"
       inkscape:rounded="0"
       inkscape:flatsided="true"
       sodipodi:arg2="3.1415927"
       sodipodi:arg1="2.0943951"
       sodipodi:r2="19.496206"
       sodipodi:r1="38.992413"
       sodipodi:cy="40.227272"
       sodipodi:cx="207.50005"
       sodipodi:sides="3"
       id="path4452"
       style="opacity:1;fill:#000000;fill-opacity:0;stroke:#4b5062;stroke-width:5;stroke-linecap:round;stroke-linejoin:round;stroke-miterlimit:4;stroke-dasharray:none;stroke-dashoffset:0;stroke-opacity:0.30508477"
       sodipodi:type="star" />
    <path
       sodipodi:type="star"
       style="opacity:1;fill:#000000;fill-opacity:0;stroke:#4b5062;stroke-width:5;stroke-linecap:round;stroke-linejoin:round;stroke-miterlimit:4;stroke-dasharray:none;stroke-dashoffset:0;stroke-opacity:0.30508477"
       id="path4454"
       sodipodi:sides="3"
       sodipodi:cx="147.85718"
       sodipodi:cy="74.870132"
       sodipodi:r1="38.992413"
       sodipodi:r2="19.496206"
       sodipodi:arg1="2.0943951"
       sodipodi:arg2="3.1415927"
       inkscape:flatsided="true"
       inkscape:rounded="0"
       inkscape:randomized="0"
       d="m 128.36097,108.63855 0,-67.536837 58.48862,33.768419 z"
       inkscape:transform-center-x="-9.7481031"
       inkscape:transform-center-y="-3.8301796e-05" />
    <path
       inkscape:transform-center-y="-3.8301796e-05"
       inkscape:transform-center-x="-9.7481031"
       d="m 65.503824,72.924262 0,-67.53684 58.488616,33.76842 z"
       inkscape:randomized="0"
       inkscape:rounded="0"
       inkscape:flatsided="true"
       sodipodi:arg2="3.1415927"
       sodipodi:arg1="2.0943951"
       sodipodi:r2="19.496206"
       sodipodi:r1="38.992413"
       sodipodi:cy="39.155842"
       sodipodi:cx="85.000031"
       sodipodi:sides="3"
       id="path4456"
       style="opacity:1;fill:#000000;fill-opacity:0;stroke:#4b5062;stroke-width:5;stroke-linecap:round;stroke-linejoin:round;stroke-miterlimit:4;stroke-dasharray:none;stroke-dashoffset:0;stroke-opacity:0.30508477"
       sodipodi:type="star" />
  </g>
</svg>
