<?xml version="1.0" encoding="UTF-8" standalone="no"?>
<!-- Created with Inkscape (http://www.inkscape.org/) -->

<svg
   xmlns:dc="http://purl.org/dc/elements/1.1/"
   xmlns:cc="http://creativecommons.org/ns#"
   xmlns:rdf="http://www.w3.org/1999/02/22-rdf-syntax-ns#"
   xmlns:svg="http://www.w3.org/2000/svg"
   xmlns="http://www.w3.org/2000/svg"
   xmlns:sodipodi="http://sodipodi.sourceforge.net/DTD/sodipodi-0.dtd"
   xmlns:inkscape="http://www.inkscape.org/namespaces/inkscape"
   width="210mm"
   height="297mm"
   viewBox="0 0 744.09448819 1052.3622047"
   id="svg2"
   version="1.1"
   inkscape:version="0.92.1 r15371"
   sodipodi:docname="people.svg">
  <defs
     id="defs4">
    <filter
       height="1.0280505"
       y="-0.014025245"
       width="1.0209717"
       x="-0.010485844"
       id="filter4664"
       style="color-interpolation-filters:sRGB"
       inkscape:collect="always">
      <feGaussianBlur
         id="feGaussianBlur4666"
         stdDeviation="1.8901471"
         inkscape:collect="always" />
    </filter>
    <filter
       height="2.0822738"
       y="-0.5411369"
       width="1.2206249"
       x="-0.11031244"
       id="filter4755"
       style="color-interpolation-filters:sRGB"
       inkscape:collect="always">
      <feGaussianBlur
         id="feGaussianBlur4757"
         stdDeviation="3.1681996"
         inkscape:collect="always" />
    </filter>
    <filter
       height="1.1531235"
       y="-0.076561726"
       width="1.0470652"
       x="-0.023532624"
       id="filter4809"
       style="color-interpolation-filters:sRGB"
       inkscape:collect="always">
      <feGaussianBlur
         id="feGaussianBlur4811"
         stdDeviation="1.2331252"
         inkscape:collect="always" />
    </filter>
    <filter
       height="1.9277154"
       y="-0.46385769"
       width="1.2593875"
       x="-0.12969377"
       id="filter6866"
       style="color-interpolation-filters:sRGB"
       inkscape:collect="always">
      <feGaussianBlur
         id="feGaussianBlur6868"
         stdDeviation="4.7091193"
         inkscape:collect="always" />
    </filter>
    <filter
       height="1.8402795"
       y="-0.42013973"
       width="1.1340525"
       x="-0.067026273"
       id="filter6870"
       style="color-interpolation-filters:sRGB"
       inkscape:collect="always">
      <feGaussianBlur
         id="feGaussianBlur6872"
         stdDeviation="4.7091193"
         inkscape:collect="always" />
    </filter>
    <filter
       height="1.2823348"
       y="-0.1411674"
       width="1.5503528"
       x="-0.27517642"
       id="filter6874"
       style="color-interpolation-filters:sRGB"
       inkscape:collect="always">
      <feGaussianBlur
         id="feGaussianBlur6876"
         stdDeviation="4.7091193"
         inkscape:collect="always" />
    </filter>
    <filter
       height="1.3570858"
       y="-0.17854292"
       width="1.1248335"
       x="-0.062416731"
       id="filter6878"
       style="color-interpolation-filters:sRGB"
       inkscape:collect="always">
      <feGaussianBlur
         id="feGaussianBlur6880"
         stdDeviation="4.7091193"
         inkscape:collect="always" />
    </filter>
  </defs>
  <sodipodi:namedview
     id="base"
     pagecolor="#ffffff"
     bordercolor="#666666"
     borderopacity="1.0"
     inkscape:pageopacity="0.0"
     inkscape:pageshadow="2"
     inkscape:zoom="3.959798"
     inkscape:cx="157.63584"
     inkscape:cy="794.68834"
     inkscape:document-units="px"
     inkscape:current-layer="layer2"
     showgrid="false"
     inkscape:window-width="2560"
     inkscape:window-height="1016"
     inkscape:window-x="0"
     inkscape:window-y="27"
     inkscape:window-maximized="1" />
  <metadata
     id="metadata7">
    <rdf:RDF>
      <cc:Work
         rdf:about="">
        <dc:format>image/svg+xml</dc:format>
        <dc:type
           rdf:resource="http://purl.org/dc/dcmitype/StillImage" />
        <dc:title />
      </cc:Work>
    </rdf:RDF>
  </metadata>
  <g
     inkscape:groupmode="layer"
     id="layer2"
     inkscape:label="Repères"
     style="display:none">
    <g
       id="g4792"
       transform="translate(-13.94761,194.38097)">
      <g
         transform="translate(4.1592743,-198.92088)"
         style="display:none"
         inkscape:label="Repère"
         id="layer2-3">
        <path
           transform="rotate(30.000002,185.1914,381.7103)"
           d="m 238.99108,475.56103 -144.631833,-1e-5 -72.315912,-125.25484 72.315924,-125.25484 144.631831,0 72.31592,125.25485 z"
           inkscape:randomized="0"
           inkscape:rounded="0"
           inkscape:flatsided="true"
           sodipodi:arg2="1.5707964"
           sodipodi:arg1="1.0471976"
           sodipodi:r2="125.25484"
           sodipodi:r1="144.63184"
           sodipodi:cy="350.30618"
           sodipodi:cx="166.67517"
           sodipodi:sides="6"
           id="path4136"
           style="opacity:1;fill:#003880;fill-opacity:0.11440681;stroke:none;stroke-width:1;stroke-linecap:round;stroke-linejoin:round;stroke-miterlimit:4;stroke-dasharray:none;stroke-dashoffset:0;stroke-opacity:1"
           sodipodi:type="star" />
      </g>
      <g
         transform="translate(4.1592743,-198.92088)"
         id="layer1-5"
         inkscape:label="Calque 1">
        <path
           inkscape:connector-curvature="0"
           id="path4140"
           d="m 307.95058,273.46261 -2.6e-4,71.2778 61.27868,-35.37998 9e-5,71.19907 61.72825,-35.63913 -61.66034,-35.59961 0.38157,-0.21948 z m -0.25032,0.42156 -61.36659,35.43069 -0.39918,-0.23047 -2.7e-4,71.2778 61.36661,-35.4307 0.32644,0.18848 -0.77405,0.44619 61.72967,35.63965 -0.001,-71.27878 -60.88156,35.14917 3.5e-4,-71.19203 z m -125.35417,-70.16537 -7.8e-4,68.23965 -60.25981,-34.79102 -7.6e-4,71.2279 -0.0989,0.0579 -2.6e-4,-71.05032 -61.728252,35.63912 61.531782,35.52539 -0.12509,0.0721 60.92963,35.17774 -6e-4,2.47369 1.91075,-1.10249 61.3305,35.40918 2.6e-4,-71.27779 -1.91075,1.10248 -0.002,-10e-4 5.7e-4,-70.86038 -60.53253,34.94699 7.8e-4,-0.11456 60.68482,-35.03498 -61.72968,-35.63965 z m -121.996094,-2.29812 -2.58e-4,71.27779 61.728252,-35.63912 z m 248.841254,215.79901 -61.72825,35.63913 61.72799,35.63867 z m -63.59621,-36.09032 1.2e-4,0.1444 -61.53347,-35.52637 -2.7e-4,71.27781 61.53321,-35.52396 2.1e-4,0.11283 -61.68646,35.61363 61.72967,35.63965 2.3e-4,-0.48475 61.68478,-35.61461 -61.72799,-35.63868 z m -61.81433,-34.03992 -61.3666,35.43069 -0.39918,-0.23046 -7.7e-4,71.22789 -0.0988,0.058 7e-4,-71.05201 -61.728248,35.63912 61.533478,35.52637 -0.12774,0.0729 0.92691,0.53515 4.9e-4,70.56556 61.72826,-35.63912 -0.92693,-0.53516 -0.002,-70.51663 0.0607,-0.0348 0.39918,0.23046 2.5e-4,-71.27779 z m -123.863917,-0.93406 -3.5e-4,2.3092 -61.5759672,35.55115 61.7279902,35.63867 3.5e-4,-2.3092 61.575974,-35.55114 z"
           style="opacity:1;fill:#9bad59;fill-opacity:1;stroke:#9eb05e;stroke-width:5;stroke-linecap:round;stroke-linejoin:round;stroke-miterlimit:4;stroke-dasharray:none;stroke-dashoffset:0;stroke-opacity:1;filter:url(#filter4664)" />
      </g>
      <g
         inkscape:label="Décor"
         id="layer4">
        <path
           inkscape:connector-curvature="0"
           id="path4677"
           d="m 138.21429,308.79871 c 0.47619,0.11905 0.94725,0.26088 1.42857,0.35715 0.11673,0.0233 0.23809,0 0.35714,0 0.2381,0 0.47619,0 0.71429,0 0.35714,0 0.71428,0 1.07142,0 0.11905,0 0.24165,0.0289 0.35715,0 1.21936,-0.30485 2.02804,-0.83545 3.21428,-1.42858 3.33217,-1.66608 0.96397,-0.4135 3.92857,-2.14285 0.82905,-0.48362 1.67096,-0.94496 2.5,-1.42857 0.59961,-0.34977 1.2669,-0.61026 1.78572,-1.07143 0.56973,-0.50643 0.88956,-1.24671 1.42857,-1.78572 0.53901,-0.53901 1.2467,-0.88956 1.78571,-1.42857 0.53902,-0.53901 0.88956,-1.2467 1.42858,-1.78571 0.53901,-0.53901 1.27928,-0.85884 1.78571,-1.42857 0.46118,-0.51883 0.64526,-1.23778 1.07143,-1.78572 0.41345,-0.53158 0.95238,-0.95238 1.42857,-1.42857 0.71429,-0.71429 1.50319,-1.36104 2.14286,-2.14286 0.96321,-1.17726 0.88984,-1.81196 1.78571,-2.85714 0.43827,-0.51131 0.95238,-0.95238 1.42857,-1.42857 0.35715,-0.35714 0.71429,-0.71429 1.07143,-1.07143 0.35714,-0.35714 0.76838,-0.66737 1.07143,-1.07143 0.4165,-0.55533 0.61025,-1.26689 1.07143,-1.78571 0.50643,-0.56974 1.27928,-0.85884 1.78571,-1.42858 1.61314,-1.81477 0.6986,-1.38934 1.42857,-3.21428 0.71964,-1.7991 1.23618,-2.29655 2.14286,-3.92857 0.25856,-0.4654 0.54593,-0.9235 0.71429,-1.42857 0.19196,-0.57588 0.29011,-1.1824 0.35714,-1.78572 0.0526,-0.47328 0,-0.95238 0,-1.42857 0,-0.23809 0,-0.47619 0,-0.71429 0,-1.90476 0,-3.80952 0,-5.71428 0,-5.59524 0,-11.19048 0,-16.78572 0,-3.21428 0,-6.42857 0,-9.64285 0,-0.83334 0,-1.66667 0,-2.5 0,-0.2381 0,-0.47619 0,-0.71429 0,-0.11905 -0.066,-0.25809 0,-0.35714 0.96682,-1.45024 0.71429,0.13517 0.71429,-1.78572 0,-0.35714 -0.11294,-0.73261 0,-1.07142 0.0376,-0.11294 0.23809,0 0.35714,0 0,-0.11905 0,-0.2381 0,-0.35715 0,-0.23809 0,-0.47619 0,-0.71428 0,-0.11905 -0.10648,-0.30391 0,-0.35715 0.21296,-0.10647 0.47619,0 0.71428,0"
           style="fill:none;fill-rule:evenodd;stroke:#9e7e00;stroke-width:3.00000024;stroke-linecap:butt;stroke-linejoin:miter;stroke-miterlimit:4;stroke-dasharray:none;stroke-opacity:0.24152545;filter:url(#filter6874)" />
        <path
           inkscape:connector-curvature="0"
           id="path4679"
           d="m 96.785714,211.29871 c 0.476191,0 0.952381,0 1.428572,0 0.836171,0 1.24393,0.0577 2.142854,-0.35714 1.11286,-0.51363 2.18525,-1.11987 3.21429,-1.78572 1.82421,-1.18037 3.71511,-2.86261 5.35714,-4.28571 0.95632,-0.82881 1.90823,-1.66272 2.85714,-2.5 1.07491,-0.94845 2.06022,-2.00678 3.21429,-2.85714 0.72745,-0.53602 7.44959,-4.37116 7.85714,-4.64286 1.48581,-0.99054 2.81752,-2.19784 4.28572,-3.21429 5.9373,-4.11044 3.92395,-2.08809 9.28571,-6.42857 13.14287,-10.63946 -7.0968,5.31836 6.42857,-6.07143 1.11154,-0.93603 2.45508,-1.5697 3.57143,-2.5 3.8944,-3.24533 1.71593,-2.60629 6.07143,-5.35714 1.12534,-0.71074 2.41955,-1.11884 3.57143,-1.78571 1.11441,-0.64519 2.08863,-1.5175 3.21428,-2.14286 1.02494,-0.56941 2.20889,-0.82533 3.21429,-1.42857 0.79729,-0.47837 1.39902,-1.22784 2.14286,-1.78572 1.38419,-1.03814 2.69891,-1.81994 4.28571,-2.5 3.64594,-1.56254 1.89848,-0.63282 5.35714,-1.78571 1.58363,-0.52787 3.53436,-1.26347 5,-2.14286 0.51042,-0.30624 0.91442,-0.7715 1.42858,-1.07143 0.91974,-0.53651 1.90476,-0.95238 2.85714,-1.42857 0.71428,-0.35714 1.41776,-0.73677 2.14286,-1.07143 0.82319,-0.37993 1.70002,-0.64477 2.5,-1.07142 0.99096,-0.52852 1.86617,-1.2572 2.85714,-1.78572 5.02734,-2.68125 -0.13544,0.60344 5.35714,-2.14286 0.5324,-0.26619 0.86388,-0.88319 1.42857,-1.07142 0.5647,-0.18823 1.19048,0 1.78572,0 0.35714,0 0.71428,0 1.07143,0 0.47619,0 0.95238,0 1.42857,0 0.59524,0 1.19411,-0.0657 1.78571,0 0.48785,0.0542 0.94726,0.26088 1.42857,0.35714 1.30515,0.26103 2.64614,0.35805 3.92857,0.71428 0.87357,0.24266 1.62398,0.83783 2.5,1.07143 0.92739,0.24731 1.91866,0.15604 2.85715,0.35715 1.66216,0.35617 3.06535,1.19415 4.64285,1.78571 1.05748,0.39655 2.14929,0.69555 3.21429,1.07143 0.95916,0.33852 1.90124,0.72383 2.85714,1.07143 0.3538,0.12865 0.73471,0.18878 1.07143,0.35714 1.6657,0.83285 0.56314,0.60093 2.14286,1.78571 0.0952,0.0714 0.23809,0 0.35714,0 0.2381,0.11905 0.52606,0.16892 0.71429,0.35715 0.18823,0.18823 0.16891,0.52605 0.35714,0.71428 0.18823,0.18823 0.48602,0.22019 0.71429,0.35715 0.35714,0.23809 0.71428,0.47619 1.07142,0.71428 0.11905,0.11905 0.21706,0.26376 0.35715,0.35714 0.57757,0.38506 1.23038,0.65494 1.78571,1.07143 0.40406,0.30305 0.68342,0.74809 1.07143,1.07143 0.32975,0.27479 0.72804,0.45675 1.07143,0.71429 0.13469,0.10101 0.19742,0.3039 0.35714,0.35714 0.22588,0.0753 0.54593,-0.16836 0.71429,0 0.16836,0.16836 -0.10648,0.50133 0,0.71429 0.0532,0.10648 0.2442,-0.0377 0.35714,0 0.25254,0.0842 0.50642,0.19085 0.71429,0.35714 1.31643,1.05314 0.7009,1.06474 2.14285,1.78571 0.33672,0.16836 0.77026,0.13127 1.07143,0.35715 0.21296,0.15972 0.14419,0.55456 0.35714,0.71428 0.30117,0.22588 0.73472,0.18879 1.07143,0.35714 0.38392,0.19196 0.66423,0.57856 1.07143,0.71429 0.33882,0.11294 0.71429,0 1.07143,0 0.59524,0 1.19048,0 1.78571,0 1.07143,0 2.14286,0 3.21429,0 0.35714,0 0.71915,0.0587 1.07143,0 0.94158,-0.15693 1.63262,-0.71002 2.5,-1.07143 0.9389,-0.39121 1.94738,-0.61655 2.85714,-1.07143 0.5324,-0.2662 0.93331,-0.74125 1.42857,-1.07143 0.57758,-0.38505 1.20814,-0.68637 1.78572,-1.07142 0.94049,-0.627 -0.4964,-0.34957 1.42857,-1.07143 0.56838,-0.21314 1.18337,-0.28185 1.78571,-0.35715 0.35439,-0.0443 0.75199,0.15972 1.07143,0 0.2381,-0.11904 0.11905,-0.59523 0.35714,-0.71428 0.54295,-0.27147 1.24278,-0.0857 1.78572,-0.35714 0.23809,-0.11905 0.14418,-0.55457 0.35714,-0.71429 0.30117,-0.22588 0.71894,-0.22496 1.07143,-0.35714 0.60027,-0.2251 1.16377,-0.5588 1.78571,-0.71429 0.34648,-0.0866 0.71429,0 1.07143,0 0.11905,0 0.24165,0.0289 0.35715,0 0.36522,-0.0913 0.70009,-0.29525 1.07142,-0.35714 0.35229,-0.0587 0.71429,0 1.07143,0 0.2381,0 0.47619,0 0.71429,0 0.71428,0 1.42857,0 2.14286,0 0.11904,0 0.25809,0.066 0.35714,0 0.28016,-0.18678 0.47619,-0.47619 0.71428,-0.71429 0.11905,-0.11904 0.19743,-0.3039 0.35715,-0.35714 0.22587,-0.0753 0.47619,0 0.71428,0"
           style="fill:none;fill-rule:evenodd;stroke:#9e7e00;stroke-width:3.00000024;stroke-linecap:butt;stroke-linejoin:miter;stroke-miterlimit:4;stroke-dasharray:none;stroke-opacity:0.24152545;filter:url(#filter6878)" />
        <path
           inkscape:connector-curvature="0"
           id="path4681"
           d="m 29.285714,177.72728 c 0.474358,-0.79243 1.548536,0.39622 2.142857,0 0.221491,-0.14766 0.152644,-0.54387 0.357143,-0.71428 3.129933,-2.60828 0.573241,-0.12349 2.857143,-1.42857 0.516812,-0.29532 0.933304,-0.74125 1.428572,-1.07143 0.577576,-0.38505 1.208137,-0.68638 1.785714,-1.07143 2.098335,-1.39889 1.086998,-1.05028 3.571428,-2.85714 0.561393,-0.40829 1.237777,-0.64526 1.785715,-1.07143 0.531577,-0.41345 0.876872,-1.04238 1.428571,-1.42857 0.654235,-0.45797 1.441774,-0.68902 2.142857,-1.07143 0.609401,-0.3324 1.208138,-0.68638 1.785715,-1.07143 0.495268,-0.33018 0.896174,-0.80523 1.428571,-1.07143 3.163872,-1.58194 1.066338,-0.35629 3.214286,-0.71429 0.371339,-0.0619 0.697874,-0.31044 1.071428,-0.35714 0.70877,-0.0886 1.428572,0 2.142858,0 0.357142,0 0.719145,-0.0587 1.071428,0 0.37134,0.0619 0.703932,0.27548 1.071429,0.35714 3.863906,0.85865 0.468322,-0.28657 5.357143,1.07143 1.088182,0.30228 2.106832,0.84994 3.214285,1.07143 1.289389,0.25788 2.656229,0.0252 3.928572,0.35714 1.497503,0.39066 2.831272,1.25683 4.285714,1.78572 1.675662,0.60933 5.862512,1.675 7.5,2.14286 1.195072,0.34145 2.343744,0.87758 3.571429,1.07142 1.058317,0.16711 2.14558,-0.0763 3.214285,0 2.952441,0.21089 0.678444,0.52975 3.928572,1.07143 0.704567,0.11743 1.428571,0 2.142857,0 0.119047,0 0.244204,-0.0376 0.357143,0 0.252538,0.0842 0.461747,0.27297 0.714285,0.35715 0.112939,0.0376 0.238096,0 0.357143,0 0.357143,0 0.714286,0 1.071429,0"
           style="fill:none;fill-rule:evenodd;stroke:#806600;stroke-width:3.00000024;stroke-linecap:butt;stroke-linejoin:miter;stroke-miterlimit:4;stroke-dasharray:none;stroke-opacity:0.24152545;filter:url(#filter4755)" />
        <path
           inkscape:connector-curvature="0"
           id="path4683"
           d="m 74.285714,64.870145 c 0.811757,-0.217906 1.68285,0.16343 2.5,0 0.26103,-0.05221 0.476191,-0.238095 0.714286,-0.357142 0.476191,-0.238096 0.963173,-0.455731 1.428572,-0.714286 0.606805,-0.337115 1.151382,-0.789503 1.785714,-1.071429 0.448541,-0.199351 0.980031,-0.157791 1.428571,-0.357143 0.634333,-0.281925 1.153774,-0.784182 1.785715,-1.071428 1.634078,-0.742763 2.047669,-0.614301 3.571428,-1.071429 0.72117,-0.216351 1.412414,-0.531675 2.142857,-0.714285 0.702518,-0.17563 1.434793,-0.205415 2.142857,-0.357143 0.959901,-0.205693 1.882175,-0.599584 2.857143,-0.714286 1.06409,-0.125187 2.142857,0 3.214286,0 1.428571,0 2.857147,0 4.285717,0 1.90476,0 3.80952,0 5.71428,0 0.59524,0 1.19292,-0.05389 1.78572,0 1.27812,0.116193 4.89026,0.953711 5.71428,1.071429 1.30171,0.185958 2.63687,0.111104 3.92857,0.357142 1.89235,0.360447 4.90102,1.619331 6.78572,2.142858 1.05752,0.293756 2.17929,0.348994 3.21428,0.714285 1.0041,0.354385 1.90477,0.952381 2.85715,1.428572 3.1388,1.569403 3.35103,1.831295 6.42857,2.857143 1.17911,0.393037 2.38704,0.694578 3.57143,1.071428 1.43496,0.456578 2.8378,1.014884 4.28571,1.428572 1.05534,0.301524 2.16132,0.404589 3.21429,0.714285 1.91489,0.563203 3.51881,1.407525 5.35714,2.142857 0.94439,0.377758 1.91275,0.693671 2.85714,1.071429 0.8418,0.336717 1.63346,0.804799 2.5,1.071429 0.69212,0.212958 1.46232,0.109673 2.14286,0.357142 0.65237,0.237225 1.15377,0.784183 1.78571,1.071429 0.68544,0.311562 1.48469,0.348634 2.14286,0.714286 0.44152,0.245286 0.65118,0.791262 1.07143,1.071428 0.66447,0.442981 1.43972,0.692815 2.14286,1.071429 0.84507,0.455037 1.63025,1.022689 2.5,1.428571 0.92172,0.430135 1.92224,0.670756 2.85714,1.071429 0.73403,0.314582 1.42857,0.714286 2.14286,1.071428 0.47619,0.238096 0.91666,0.568025 1.42857,0.714286 2.03107,0 0.23513,-0.159719 1.78571,0.357143 0.11294,0.03765 0.25809,-0.06604 0.35715,0 0.28016,0.186777 0.41311,0.563701 0.71428,0.714286 0.43903,0.219513 0.94073,0.302938 1.42857,0.357143 0.5916,0.06573 1.19048,0 1.78572,0 0.11905,0 0.25809,-0.06604 0.35714,0 0.28017,0.186777 0.40165,0.589232 0.71429,0.714285 0.33159,0.13264 0.71428,0 1.07142,0 0.4762,0 0.95239,0 1.42858,0 1.30952,0 2.61904,0 3.92857,0 0.11905,0 0.23809,0 0.35714,0 0.35714,0 0.72122,0.07004 1.07143,0 0.26103,-0.05221 0.45171,-0.31338 0.71428,-0.357143 0.46972,-0.07828 0.95239,0 1.42858,0 0.23809,0 0.47619,0 0.71428,0 0.35714,0 0.75199,0.15972 1.07143,0 0.2381,-0.119047 0.10461,-0.630106 0.35714,-0.714285 0.5647,-0.188231 1.19858,0.09786 1.78572,0 0.16607,-0.02768 0.19047,-0.333334 0.35714,-0.357143 0.70711,-0.101015 1.42857,0 2.14286,0 0.35714,0 0.71428,0 1.07143,0 0.23809,0 0.47619,0 0.71428,0 0.35714,0 0.75199,0.159719 1.07143,0 0.2381,-0.119048 0.10461,-0.630107 0.35714,-0.714286 0.5647,-0.188231 1.19858,0.09786 1.78572,0 0.16607,-0.02768 0.20656,-0.28185 0.35714,-0.357143 0.57341,-0.286704 1.16376,-0.558798 1.78571,-0.714285 0.69296,-0.17324 1.4499,0.173239 2.14286,0 0.16333,-0.04083 0.20656,-0.281851 0.35714,-0.357143 0.57341,-0.286705 1.17753,-0.511555 1.78572,-0.714286 1.61816,-0.539387 1.53753,-0.1399 3.21428,-1.071429 3.45437,-2.590772 -0.22686,-0.06514 2.5,-1.428571 0.38392,-0.191959 0.66953,-0.563572 1.07143,-0.714286 0.56838,-0.213141 1.24278,-0.08567 1.78572,-0.357143 0.45175,-0.225877 0.68794,-0.742729 1.07143,-1.071428 0.45193,-0.387376 0.9442,-0.725454 1.42857,-1.071429 0.34928,-0.249486 0.76791,-0.410772 1.07143,-0.714285 0.30351,-0.303514 0.35714,-0.833334 0.71428,-1.071429 0.40841,-0.272272 1.0024,-0.113615 1.42857,-0.357143 0.43853,-0.250588 0.71429,-0.714286 1.07143,-1.071428 0.35714,-0.357143 0.71429,-0.714286 1.07143,-1.071429 0.35714,-0.357143 0.76838,-0.667368 1.07143,-1.071429 0.4165,-0.555328 0.70352,-1.197067 1.07143,-1.785714 0.22749,-0.363988 0.52232,-0.687511 0.71428,-1.071428 0.16836,-0.336718 0.13127,-0.77026 0.35715,-1.071429 0.15972,-0.212959 0.52605,-0.168912 0.71428,-0.357143 0.18823,-0.188231 0.16891,-0.526055 0.35714,-0.714286 0.18824,-0.18823 0.48603,-0.220184 0.71429,-0.357142 0.36806,-0.220839 0.74168,-0.439498 1.07143,-0.714286 0.38801,-0.323342 0.71428,-0.714286 1.07143,-1.071429 0.11905,-0.119047 0.22245,-0.256127 0.35714,-0.357143 0.34339,-0.257539 0.68751,-0.522327 1.07143,-0.714285 0.33672,-0.168359 0.73471,-0.188784 1.07143,-0.357143 0.38391,-0.191959 0.67289,-0.554873 1.07143,-0.714286 0.22106,-0.08843 0.4884,0.07529 0.71428,0 0.15972,-0.05324 0.19743,-0.303903 0.35714,-0.357143 0.22588,-0.07529 0.4762,0 0.71429,0 0.11905,0 0.3039,0.10648 0.35714,0 0.10648,-0.212959 0,-0.47619 0,-0.714285"
           style="fill:none;fill-rule:evenodd;stroke:#9e7e00;stroke-width:3.00000024;stroke-linecap:butt;stroke-linejoin:miter;stroke-miterlimit:4;stroke-dasharray:none;stroke-opacity:0.24152545;filter:url(#filter6870)" />
        <path
           inkscape:connector-curvature="0"
           id="path4685"
           d="m 325,131.29871 c 1.09863,-0.9764 2.39964,-1.62115 3.57143,-2.5 0.74383,-0.55787 1.33557,-1.32441 2.14286,-1.78571 3.30055,-1.23771 2.40361,-0.72789 5.35714,-2.5 7.7366,-4.64196 -1.13547,0.44657 5,-2.85715 2.38969,-1.28675 2.18881,-1.52934 4.64286,-2.14285 0.70251,-0.17563 1.42122,-0.29701 2.14285,-0.35715 0.71182,-0.0593 1.42857,0 2.14286,0 0.59524,0 1.19048,0 1.78571,0 0.71429,0 1.42858,0 2.14286,0 0.11905,0 0.2381,0 0.35714,0 0.2381,0 0.47943,-0.0391 0.71429,0 0.48417,0.0807 0.97044,0.18094 1.42857,0.35715 1.09433,0.42089 2.14508,0.94742 3.21429,1.42857 1.31176,0.59029 2.58435,1.27363 3.92857,1.78571 1.6798,1.38147 3.85166,0.8077 5.71428,1.42857 1.70532,0.56844 2.37808,1.36761 3.92858,2.14286 3.11464,1.55732 1.79423,0.51507 4.64285,2.14286 5.57012,3.18292 0.25909,0.46918 5.35715,3.21428 0.70314,0.37862 1.46565,0.64818 2.14285,1.07143 0.28554,0.17846 0.42556,0.54105 0.71429,0.71429 0.32281,0.19369 0.74457,0.17036 1.07143,0.35714 2.46221,1.40698 0.47346,0.62295 2.5,2.14286 0.55533,0.4165 1.17631,0.73903 1.78571,1.07143 4.47642,2.44168 -0.3198,-0.33848 4.64286,2.14285 0.62088,0.31044 1.12717,0.85192 1.78571,1.07143 0.45176,0.15059 0.95238,0 1.42857,0 0.35715,0 0.73262,-0.11294 1.07143,0 0.40721,0.13574 0.66953,0.56358 1.07143,0.71429 0.56838,0.21314 1.20984,0.16518 1.78572,0.35714 2.94343,1.47172 0.0943,0.31333 2.5,0.71429 4.59351,0.76558 -2.79332,-0.16262 2.14285,1.07143 0.57747,0.14436 1.19858,-0.0979 1.78572,0 0.16607,0.0277 0.19381,0.31631 0.35714,0.35714 0.34648,0.0866 0.71429,0 1.07143,0 0.23809,0 0.47619,0 0.71428,0 0.11905,0 0.35715,-0.11905 0.35715,0 0,0.11905 -0.2381,0 -0.35715,0"
           style="fill:none;fill-rule:evenodd;stroke:#9e7e00;stroke-width:3.00000024;stroke-linecap:butt;stroke-linejoin:miter;stroke-miterlimit:4;stroke-dasharray:none;stroke-opacity:0.24152545;filter:url(#filter6866)" />
        <g
           transform="matrix(0.72987206,0,0,0.72987206,23.472933,49.657717)"
           id="g4668">
          <path
             style="fill:#859a2d;fill-opacity:1;fill-rule:evenodd;stroke:none;stroke-width:1px;stroke-linecap:butt;stroke-linejoin:miter;stroke-opacity:1"
             d="m 76.771608,199.7482 c -2.34294,-1.03498 -2.35824,-3.81914 -2.92576,-5.89797 -1.05654,-4.44839 -3.51293,-8.39997 -5.4112,-12.53496 -0.55633,-2.3712 2.58525,-1.21417 3.31722,-0.053 1.94217,1.30498 4.26754,1.92946 6.24478,3.17585 2.58863,-0.32746 1.5033,-3.58498 2.84333,-5.04063 1.34335,-2.97677 2.63522,-6.14448 5.20452,-8.35938 2.628342,-0.42513 0.751076,3.35252 0.709939,4.77405 -0.652129,2.55993 -1.105049,5.1817 -0.996549,7.82276 -0.13539,2.78851 -0.004,5.79259 -1.66882,8.22557 -0.66724,1.32431 -2.74493,3.4825 -1.88581,4.54817 1.60998,-1.37989 3.06312,-2.95456 4.555057,-4.46176 1.493784,-1.67925 2.402963,-3.77781 4.258174,-5.15279 1.730953,-1.60926 3.852807,-2.8328 6.197542,-3.3703 3.532769,-1.41532 6.768329,-3.46918 10.409969,-4.6401 2.23782,1.36401 -0.75261,3.41868 -1.36865,4.90142 -1.81798,2.83149 -4.19724,5.28429 -6.00559,8.12143 -2.712736,3.18796 -7.645183,2.86334 -10.62778,5.69191 -0.974151,0.10242 -2.591574,1.18857 -0.623662,0.71985 1.621461,-0.61383 5.131286,-0.82666 4.468375,1.76004 -0.630377,2.54438 -3.913846,3.17242 -6.014061,1.938 -3.840344,-1.18289 -7.518424,-3.21849 -11.610984,-3.38851 -0.20848,0.0456 -0.41128,0.12431 -0.58532,0.24568"
             id="path4458"
             inkscape:connector-curvature="0" />
          <path
             style="fill:#859a2d;fill-opacity:1;fill-rule:evenodd;stroke:none;stroke-width:1px;stroke-linecap:butt;stroke-linejoin:miter;stroke-opacity:1"
             d="m 78.034298,195.84937 c 0.0842,-0.32491 0.218,-0.64146 0.25254,-0.97471 0.0503,-0.48493 0,-0.9747 0,-1.46206 0,-0.24368 0,-0.48736 0,-0.73103 0,-0.24368 -0.0415,-0.49068 0,-0.73104 0.0438,-0.25336 0.22844,-0.47522 0.25254,-0.73102 0.061,-0.64714 0,-1.29961 0,-1.94943 0,-0.24367 0,-0.48735 0,-0.73102 0,-1.46207 0,-2.92413 0,-4.3862 0,-0.81225 0,-1.62451 0,-2.43677 0,-0.24368 0.0415,-0.49066 0,-0.73103 -0.0438,-0.25336 -0.21952,-0.47616 -0.25254,-0.73103 -0.0522,-0.403 0,-0.81226 0,-1.21839 0,-0.24368 0.0357,-0.4898 0,-0.73102 -0.0491,-0.33155 -0.22372,-0.64098 -0.25254,-0.97472 -0.0559,-0.64756 0.12047,-1.31009 0,-1.94941 -0.0543,-0.28815 -0.41786,-0.45052 -0.50507,-0.73104 -1.43768,-4.62411 0.69247,0.93556 -0.25254,-3.1678 -0.0658,-0.28589 -0.43147,-0.44692 -0.50508,-0.73104 -0.10208,-0.394 0,-0.81225 0,-1.21838 0,-0.0813 0,-0.16245 0,-0.24368 0,-0.24367 0.0495,-0.49209 0,-0.73103 -0.0369,-0.1781 -0.16836,-0.3249 -0.25254,-0.48736 -0.16836,-0.32489 -0.3969,-0.62676 -0.50507,-0.9747 -0.14714,-0.47324 -0.20618,-0.97002 -0.25254,-1.46207 0,-0.40612 0,-0.81225 0,-1.21838 -0.16836,-0.0813 -0.4209,-0.0813 -0.50508,-0.24368 -0.11294,-0.21795 0,-0.48735 0,-0.73103 0,-0.24368 0.0495,-0.49208 0,-0.73104 -0.0369,-0.17809 -0.16836,-0.32489 -0.25254,-0.48734 -0.16835,-0.32491 -0.40165,-0.62544 -0.50507,-0.97471 -0.0694,-0.23431 0.0799,-0.49986 0,-0.73104 -0.0266,-0.0771 -0.21489,0.0727 -0.25254,0 -0.0753,-0.14529 0,-0.3249 0,-0.48735 0,-0.0813 0,-0.16245 0,-0.24367 0,-0.16246 0.11905,-0.37249 0,-0.48736 -0.11905,-0.11488 -0.35449,0.0727 -0.50508,0 -0.0753,-0.0364 -0.0595,-0.18624 0,-0.24368 0.0595,-0.0574 0.19302,-0.0574 0.25254,0 0.0595,0.0574 -0.0753,0.20735 0,0.24368 0.15059,0.0727 0.33672,0 0.50508,0 0.0842,0 0.19301,-0.0574 0.25254,0 0.0595,0.0574 -0.0753,0.20735 0,0.24368 1.34687,0.6498 -0.16836,-0.81227 0.50507,0.48735 0.0376,0.0727 0.16836,0 0.25254,0 0.16836,0 0.35449,-0.0727 0.50508,0 0.0753,0.0363 -0.0595,0.18624 0,0.24367 0.0595,0.0574 0.18249,-0.0451 0.25253,0 0.19811,0.12744 0.33672,0.32491 0.50508,0.48736 0.0842,0.0813 0.21489,0.1347 0.25254,0.24368 0.0532,0.15412 0,0.3249 0,0.48735 0,0.0812 -0.0467,0.1761 0,0.24368 0.13207,0.19116 0.42978,0.2694 0.50508,0.48736 0.10647,0.30823 -0.0476,0.65307 0,0.9747 0.0376,0.25428 0.16835,0.48736 0.25253,0.73103 1.5263,4.41823 -0.31323,-1.10822 0.75762,2.68045 0.12492,0.44197 0.69533,1.83583 0.75761,2.43678 0.0503,0.48494 -0.1225,0.98926 0,1.46206 0.0577,0.22288 0.44733,0.26447 0.50508,0.48735 0.1225,0.47281 -0.0558,0.97769 0,1.46207 0.082,0.71195 0.54305,1.01563 0.75761,1.70574 0.14714,0.47324 0.14525,0.97895 0.25254,1.46207 0.14545,0.65493 0.33672,1.29961 0.50508,1.94941 0.0842,0.3249 0.21421,0.64186 0.25254,0.97471 0.0465,0.40365 -0.10209,0.82438 0,1.21838 0.0736,0.28412 0.40909,0.4532 0.50507,0.73104 0.0799,0.23117 0,0.48735 0,0.73102 0,0.24368 0,0.48736 0,0.73104 0,0.24368 0,0.48735 0,0.73103 0,0.0813 -0.0266,0.16662 0,0.24368 0.0595,0.1723 0.21562,0.30925 0.25254,0.48736 0.0495,0.23894 0,0.48734 0,0.73102 0,0.48736 0,0.97471 0,1.46207 0,0.24368 -0.0799,0.49985 0,0.73103 0.096,0.27783 0.42169,0.44943 0.50507,0.73103 0.0925,0.3124 0,0.6498 0,0.97471 0,0.16245 0,0.3249 0,0.48736 0,0.81225 0,1.6245 0,2.43677 0,0.16245 0,0.3249 0,0.48735 0,0.0812 0.0595,0.18624 0,0.24368 -0.0595,0.0574 -0.21489,-0.0727 -0.25253,0 -0.0753,0.1453 0,0.3249 0,0.48735 0,0.0812 0.0753,0.20735 0,0.24368 -0.15059,0.0727 -0.38603,-0.11487 -0.50508,0 -0.11905,0.11487 0,0.3249 0,0.48735 0,0.0813 0,0.16245 0,0.24368 0,0.16245 0.0753,0.34205 0,0.48736 -0.0376,0.0727 -0.16836,0 -0.25254,0 -0.16836,0 -0.35449,-0.0727 -0.50507,0 -0.0753,0.0363 0.0595,0.18624 0,0.24368 -0.0595,0.0574 -0.21489,-0.0727 -0.25254,0 -0.0753,0.14529 0.11905,0.37247 0,0.48735 -0.11905,0.11487 -0.35449,-0.0727 -0.50508,0 -0.0753,0.0363 0.0595,0.18624 0,0.24367 -0.0595,0.0574 -0.21489,-0.0727 -0.25254,0 -0.0753,0.1453 0.11905,0.37249 0,0.48736 -0.11904,0.11487 -0.35449,-0.0727 -0.50507,0 -0.0753,0.0363 0.0595,0.18624 0,0.24367 -0.0595,0.0574 -0.21489,-0.0727 -0.25254,0 -0.33672,0.64981 0.50508,0.48736 -0.50508,0.48736"
             id="path4467"
             inkscape:connector-curvature="0" />
          <path
             style="fill:#ffe680;fill-rule:evenodd;stroke:none;stroke-width:1px;stroke-linecap:butt;stroke-linejoin:miter;stroke-opacity:1"
             d="m 72.225918,154.18057 c -1.84736,-0.29709 -1.00318,-0.24368 -2.52538,-0.24368 -0.16836,0 -0.34535,-0.0513 -0.50507,0 -0.11294,0.0364 -0.15567,0.17691 -0.25254,0.24368 -2.0586,1.41883 -1.17537,0.31882 -2.27284,2.43677 -0.41562,0.80206 -1.12597,2.0006 -1.2627,2.92413 -0.0952,0.64327 -0.061,1.30227 0,1.94941 0.0552,0.58553 0.58098,1.19443 0.75762,1.70574 0.13573,0.39293 -0.051,0.92553 0.25254,1.21839 0.30351,0.29286 0.84627,0.14323 1.26269,0.24368 0.59454,0.14341 1.15966,0.5607 1.76776,0.48736 1.32504,-0.15982 3.06555,-1.35228 3.78808,-2.43679 0.38893,-0.58377 0.45999,-1.31762 0.75761,-1.94941 0.1256,-0.26661 0.36934,-0.46908 0.50508,-0.73103 0.0376,-0.0727 0,-0.16245 0,-0.24367 0,-0.16246 0,-0.32491 0,-0.48736 0,-0.0813 0,0.16245 0,0.24368 0,0.16245 0.0753,0.34205 0,0.48735 -0.18823,0.36326 -0.6013,0.59762 -0.75762,0.97471 -0.32173,0.77611 -0.25254,1.86112 -0.25254,2.68045 0,0.24367 0,0.48735 0,0.73103 0,0.24368 -0.0612,0.49463 0,0.73104 0.0289,0.11143 0.16836,0.16244 0.25254,0.24366 0.25254,0.24368 0.42935,0.59529 0.75762,0.73104 0.30949,0.12799 0.67343,0 1.01015,0 0.25254,0 0.50508,0 0.75761,0 0.16836,0 0.365,0.0901 0.50508,0 0.15662,-0.10074 0.1396,-0.34205 0.25254,-0.48736 0.39448,-0.50751 1.0037,-0.87895 1.26269,-1.46206 0.26734,-0.60191 0.0879,-1.31411 0.25254,-1.94941 0.0913,-0.35241 0.40165,-0.62544 0.50507,-0.97471 0.0694,-0.23431 0,-0.48736 0,-0.73104 0,-0.16245 0.0753,-0.34205 0,-0.48735 -0.0376,-0.0727 -0.19301,0.0574 -0.25253,0 -0.18239,-0.17599 0.44895,-0.70396 -0.50508,-0.24367 -0.0753,0.0363 -0.0595,0.18623 0,0.24367 0.0595,0.0574 0.17268,-0.0257 0.25254,0 0.17857,0.0574 0.3205,0.20806 0.50507,0.24367 0.24764,0.0478 0.50508,0 0.75762,0 0.25254,0 0.51803,0.0771 0.75761,0 0.0799,-0.0257 -0.0376,-0.17102 0,-0.24367 0.0532,-0.10274 0.1993,-0.14093 0.25254,-0.24367 0.20273,-0.39124 0.40674,-0.7914 0.50508,-1.21839 0.12649,-0.54927 0.006,-1.20589 -0.25254,-1.70574 -0.21951,-0.42363 -0.41053,-0.88349 -0.75762,-1.21839 -0.18823,-0.18162 -0.50836,-0.15349 -0.75761,-0.24368 -0.42446,-0.15358 -0.82017,-0.39247 -1.26269,-0.48736 -0.3287,-0.0704 -0.67549,-0.0359 -1.01015,0 -0.42661,0.0457 -0.8593,0.10214 -1.26269,0.24368 -0.99451,0.34895 -1.7322,0.82427 -2.52539,1.46207 -0.1829,0.14708 -0.33671,0.3249 -0.50507,0.48736 -0.0842,0.0812 -0.25254,0.1288 -0.25254,0.24367 0,0.74622 0.8218,0.51832 1.26269,0.73103 0.21296,0.10275 0.33672,0.32491 0.50508,0.48736"
             id="path4469"
             inkscape:connector-curvature="0" />
        </g>
        <path
           sodipodi:nodetypes="ccccccccccccccccccc"
           inkscape:connector-curvature="0"
           id="path4490"
           d="m 175.69108,196.39063 c 4.72671,1.50305 9.91772,0.75013 14.33363,-1.35273 10.06805,-0.31685 1.66491,-2.58813 0.22602,-7.41566 0,0 3.52139,2.56285 5.37251,3.21106 1.81273,1.13528 3.5138,1.91314 4.46952,3.88775 -1.47063,-1.65902 -2.2187,-6.16102 -2.2187,-6.16102 2.84606,3.19272 5.10921,6.45899 4.33039,3.45697 -0.83564,-3.97362 -4.18313,-11.5296 -4.18313,-11.5296 0,0 3.00282,5.38609 4.30242,8.16375 0.39871,1.79955 0.99883,3.99386 2.77801,4.8773 2.20813,0.0356 3.6741,-3.99438 3.6741,-3.99438 1.04497,3.94652 -3.37084,7.13638 0.66755,5.70428 1.23659,-1.35043 3.84383,-3.24349 5.11185,-0.85797 6.68461,0.70533 9.5632,0.0841 15.37079,2.34875 -5.44624,-0.46258 -10.28525,0.72292 -15.36549,0.56421 -4.54117,-0.0155 -9.10844,-0.35454 -13.6238,0.28683 -6.68857,0.27111 -13.42779,0.0528 -20.01727,-1.19867 -1.74179,-0.17956 -3.48954,0.24734 -5.2284,0.009 z"
           style="fill:#859a2d;fill-opacity:1;fill-rule:evenodd;stroke:none;stroke-width:1px;stroke-linecap:butt;stroke-linejoin:miter;stroke-opacity:1" />
        <path
           style="fill:#959a2d;fill-opacity:1;fill-rule:evenodd;stroke:none;stroke-width:1px;stroke-linecap:butt;stroke-linejoin:miter;stroke-opacity:1"
           d="m 309.42098,226.98762 c -4.72671,1.50305 -9.91772,0.75013 -14.33363,-1.35273 -10.06805,-0.31685 -1.66491,-2.58813 -0.22602,-7.41566 0,0 -3.52139,2.56285 -5.37251,3.21106 -1.81273,1.13528 -3.5138,1.91314 -4.46952,3.88775 1.47063,-1.65902 2.2187,-6.16102 2.2187,-6.16102 -2.84606,3.19272 -5.10921,6.45899 -4.33039,3.45697 0.83564,-3.97362 4.18313,-11.5296 4.18313,-11.5296 0,0 -3.00282,5.38609 -4.30242,8.16375 -0.39871,1.79955 -0.99883,3.99386 -2.77801,4.8773 -2.20813,0.0356 -3.6741,-3.99438 -3.6741,-3.99438 -1.04497,3.94652 3.37084,7.13638 -0.66755,5.70428 -1.23659,-1.35043 -3.84383,-3.24349 -5.11185,-0.85797 -6.68461,0.70533 -9.5632,0.0841 -15.37079,2.34875 5.44624,-0.46258 10.28525,0.72292 15.36549,0.56421 4.54117,-0.0155 9.10844,-0.35454 13.6238,0.28683 6.68857,0.27111 13.42779,0.0528 20.01727,-1.19867 1.74179,-0.17956 3.48954,0.24734 5.2284,0.009 z"
           id="path4496"
           inkscape:connector-curvature="0"
           sodipodi:nodetypes="ccccccccccccccccccc" />
        <path
           sodipodi:nodetypes="ccccccccccccccccccc"
           inkscape:connector-curvature="0"
           id="path4498"
           d="m 285.07271,212.56884 c -3.87075,1.50305 -8.12172,0.75013 -11.73795,-1.35273 -8.24481,-0.31685 -1.36341,-2.58813 -0.18509,-7.41566 0,0 -2.8837,2.56285 -4.3996,3.21106 -1.48445,1.13528 -2.87747,1.91314 -3.66012,3.88775 1.20431,-1.65902 1.81691,-6.16102 1.81691,-6.16102 -2.33066,3.19272 -4.18398,6.45899 -3.54619,3.45697 0.68431,-3.97362 3.4256,-11.5296 3.4256,-11.5296 0,0 -2.45904,5.38609 -3.52329,8.16375 -0.32651,1.79955 -0.81795,3.99386 -2.27494,4.8773 -1.80826,0.0356 -3.00876,-3.99438 -3.00876,-3.99438 -0.85573,3.94652 2.76042,7.13638 -0.54666,5.70428 -1.01265,-1.35043 -3.14775,-3.24349 -4.18614,-0.85797 -5.4741,0.70533 -7.83141,0.0841 -12.5873,2.34875 4.45998,-0.46258 8.4227,0.72292 12.58296,0.56421 3.71881,-0.0155 7.45899,-0.35454 11.15666,0.28683 5.47732,0.27111 10.99614,0.0528 16.39232,-1.19867 1.42637,-0.17956 2.85762,0.24734 4.28159,0.009 z"
           style="fill:#47976d;fill-opacity:1;fill-rule:evenodd;stroke:none;stroke-width:1px;stroke-linecap:butt;stroke-linejoin:miter;stroke-opacity:1" />
        <path
           sodipodi:nodetypes="ccccccccccccccccccc"
           inkscape:connector-curvature="0"
           id="path4500"
           d="m 316.13821,105.94825 c -4.72671,1.50305 -9.91772,0.75013 -14.33363,-1.35273 -10.06805,-0.31685 -1.66491,-2.58813 -0.22602,-7.415663 0,0 -3.52139,2.56285 -5.37251,3.211063 -1.81273,1.13528 -3.5138,1.91314 -4.46952,3.88775 1.47063,-1.65902 2.2187,-6.161023 2.2187,-6.161023 -2.84606,3.192723 -5.10921,6.458993 -4.33039,3.456973 0.83564,-3.973623 4.18313,-11.529603 4.18313,-11.529603 0,0 -3.00282,5.38609 -4.30242,8.16375 -0.39871,1.799553 -0.99883,3.993863 -2.77801,4.877303 -2.20813,0.0356 -3.6741,-3.994383 -3.6741,-3.994383 -1.04497,3.946523 3.37084,7.136383 -0.66755,5.704283 -1.23659,-1.35043 -3.84383,-3.24349 -5.11185,-0.85797 -6.68461,0.70533 -9.5632,0.0841 -15.37079,2.34875 5.44624,-0.46258 10.28525,0.72292 15.36549,0.56421 4.54117,-0.0155 9.10844,-0.35454 13.6238,0.28683 6.68857,0.27111 13.42779,0.0528 20.01727,-1.19867 1.74179,-0.17956 3.48954,0.24734 5.2284,0.009 z"
           style="fill:#959a2d;fill-opacity:1;fill-rule:evenodd;stroke:none;stroke-width:1px;stroke-linecap:butt;stroke-linejoin:miter;stroke-opacity:1" />
        <path
           style="fill:#859a2d;fill-opacity:1;fill-rule:evenodd;stroke:none;stroke-width:1px;stroke-linecap:butt;stroke-linejoin:miter;stroke-opacity:1"
           d="m 262.56655,143.21944 c -5.58507,1.50305 -11.71876,0.75013 -16.9366,-1.35273 -11.89639,-0.31685 -1.96725,-2.58813 -0.26706,-7.41566 0,0 -4.16087,2.56285 -6.34815,3.21106 -2.14192,1.13528 -4.1519,1.91314 -5.28118,3.88775 1.7377,-1.65902 2.62161,-6.16102 2.62161,-6.16102 -3.3629,3.19272 -6.03703,6.45899 -5.11678,3.45697 0.98739,-3.97362 4.94278,-11.5296 4.94278,-11.5296 0,0 -3.54813,5.38609 -5.08373,8.16375 -0.47112,1.79955 -1.18022,3.99386 -3.28249,4.8773 -2.60913,0.0356 -4.34131,-3.99438 -4.34131,-3.99438 -1.23474,3.94652 3.98297,7.13638 -0.78878,5.70428 -1.46115,-1.35043 -4.54186,-3.24349 -6.04016,-0.85797 -7.89852,0.70533 -11.29986,0.0841 -18.1621,2.34875 6.43527,-0.46258 12.15304,0.72292 18.15584,0.56421 5.36584,-0.0155 10.76252,-0.35454 16.09786,0.28683 7.90321,0.27111 15.86626,0.0528 23.65238,-1.19867 2.0581,-0.17956 4.12324,0.24734 6.17787,0.009 z"
           id="path4502"
           inkscape:connector-curvature="0"
           sodipodi:nodetypes="ccccccccccccccccccc" />
        <path
           style="fill:#47976d;fill-opacity:1;fill-rule:evenodd;stroke:none;stroke-width:1px;stroke-linecap:butt;stroke-linejoin:miter;stroke-opacity:1"
           d="m 275.49458,124.80248 c 3.87075,1.50305 8.12172,0.75013 11.73795,-1.35273 8.24481,-0.31685 1.36341,-2.58813 0.18509,-7.41566 0,0 2.8837,2.56285 4.3996,3.21106 1.48445,1.13528 2.87747,1.91314 3.66012,3.88775 -1.20431,-1.65902 -1.81691,-6.16102 -1.81691,-6.16102 2.33066,3.19272 4.18398,6.45899 3.54619,3.45697 -0.68431,-3.97362 -3.4256,-11.5296 -3.4256,-11.5296 0,0 2.45904,5.38609 3.52329,8.16375 0.32651,1.79955 0.81795,3.99386 2.27494,4.8773 1.80826,0.0356 3.00876,-3.99438 3.00876,-3.99438 0.85573,3.94652 -2.76042,7.13638 0.54666,5.70428 1.01265,-1.35043 3.14775,-3.24349 4.18614,-0.85797 5.4741,0.70533 7.83141,0.0841 12.5873,2.34875 -4.45998,-0.46258 -8.4227,0.72292 -12.58296,0.56421 -3.71881,-0.0155 -7.45899,-0.35454 -11.15666,0.28683 -5.47732,0.27111 -10.99614,0.0528 -16.39232,-1.19867 -1.42637,-0.17956 -2.85763,0.24734 -4.28159,0.009 z"
           id="path4504"
           inkscape:connector-curvature="0"
           sodipodi:nodetypes="ccccccccccccccccccc" />
        <path
           inkscape:connector-curvature="0"
           id="path4506"
           d="m 196.10569,175.23937 c -1.6602,-0.89954 -3.40931,-1.62096 -5.15832,-2.27354 -0.95838,-0.47868 -3.30137,-1.7115 -4.68731,-2.69115 -1.40827,-0.50204 -1.11466,-1.4889 0.24413,-1.03153 2.31068,0.28449 4.69352,0.0444 6.9478,0.70876 0.97719,0.61473 1.35055,1.07637 0.43672,-0.22775 -1.17893,-1.75453 -2.60423,-3.33769 -3.92178,-4.91468 -0.78065,-0.64098 -1.04009,-1.44009 -0.01,-0.29285 1.77683,1.24793 3.26922,2.87789 4.92361,4.29911 1.43588,0.62993 -0.36139,-2.37126 -0.42592,-3.38222 -0.53729,-1.86036 -1.33435,-3.6472 -1.46225,-5.60919 -0.17556,-0.9537 -1.48603,-4.52768 -0.28267,-2.16994 0.58459,2.092 1.31477,3.50979 1.86574,5.46227 0.90219,1.38602 1.92039,4.64313 2.59845,4.92429 0.67268,-2.58601 -0.16504,-5.27956 0.10135,-7.91961 -0.29952,-0.86721 0.49645,-4.4816 0.59334,-1.93479 0.17545,0.95009 -0.23856,2.96751 0.11268,2.5338 0.15425,1.92266 0.18064,3.89189 0.60573,5.76843 1.68985,0.9953 2.83608,-2.565 3.78562,-3.92729 1.55723,-1.29301 -0.35224,1.97797 -0.73492,2.52409 -1.09692,1.60809 -2.68591,3.39083 -2.68769,5.44136 2.15575,0.41985 3.74606,-1.59161 5.61685,-2.36114 0.96561,-0.38101 2.4276,-0.98581 0.7767,0.0683 -1.86057,1.47573 -4.2504,1.43757 -6.25476,2.57618 1.93882,-0.13359 3.8157,0.77599 5.76794,0.44374 0.89954,-0.0404 2.84699,-0.11711 0.95632,0.4179 -2.52599,0.95172 -5.11619,1.77018 -7.79058,1.98861 -0.312,0.17261 -2.28731,0.59371 -1.84458,0.44059"
           style="fill:#c87137;fill-rule:evenodd;stroke:#c87137;stroke-width:0.20000002;stroke-linecap:butt;stroke-linejoin:miter;stroke-miterlimit:4;stroke-dasharray:none;stroke-opacity:1" />
        <path
           inkscape:connector-curvature="0"
           id="path4508"
           d="m 200.72269,173.89837 c -3.04763,-1.49844 -5.43083,-4.14957 -7.98082,-6.45002 -1.08001,-1.41967 -2.71271,-2.17472 -3.54214,-3.87141 -0.87917,-0.6864 -1.79837,-2.19365 -0.16274,-1.0099 1.37088,1.2958 2.46607,2.94436 4.14075,3.82191 1.97775,1.46255 3.98551,2.87986 5.75496,4.64916 2.24878,1.94138 0.40872,-1.71974 -0.17493,-2.65433 -1.4927,-2.77399 -3.86948,-5.29199 -3.75056,-8.76993 -0.42693,-1.71146 -0.35902,-1.40065 0.38929,-0.14909 2.16738,3.72001 4.62731,7.22427 6.5432,11.11871 0.5018,0.76468 1.80127,3.7514 1.23642,1.11618 -0.80198,-4.68655 -2.48212,-9.09494 -3.84304,-13.60159 0.63589,-0.97992 0.5785,2.23423 1.1089,2.92122 0.65776,2.13122 0.84582,4.40115 1.7189,6.45762 0.10043,2.20947 1.31581,1.10869 1.47895,-0.41747 0.7894,-2.5609 1.08461,-5.25024 1.45915,-7.90348 0.33044,-1.27877 -0.83563,1.41039 -0.60156,2.0286 0.003,0.48515 -0.55935,1.18573 -0.17215,0.46057 -0.0539,2.43858 -1.01085,4.64808 -1.8594,6.84474 -1.22949,2.07427 0.94227,2.68694 2.17615,1.43601 1.86304,-1.49492 3.98539,-2.48708 5.68841,-4.20991 1.44131,-0.74473 1.21563,-1.96528 -0.32597,-1.24445 -1.96127,0.6249 -4.06645,1.3708 -5.31283,3.30155 -0.82155,0.87275 -2.17601,2.66768 -2.08975,3.47149 1.80365,0.25891 3.7444,0.25739 5.44475,-0.49888 0.83692,-0.34788 3.31865,-0.994 3.01043,-1.46117 -1.97945,0.32966 -3.89685,0.98662 -5.87402,1.24976 -1.21264,0.41145 -3.33883,0.35844 -3.79276,1.83901"
           style="fill:#c87137;fill-rule:evenodd;stroke:#c87137;stroke-width:0.20000002;stroke-linecap:butt;stroke-linejoin:miter;stroke-miterlimit:4;stroke-dasharray:none;stroke-opacity:1" />
        <path
           style="fill:#c87137;fill-rule:evenodd;stroke:#c87137;stroke-width:0.20000002;stroke-linecap:butt;stroke-linejoin:miter;stroke-miterlimit:4;stroke-dasharray:none;stroke-opacity:1"
           d="m 236.68533,94.339273 c -1.6602,-0.89954 -3.40931,-1.62096 -5.15832,-2.27354 -0.95838,-0.47868 -3.30137,-1.7115 -4.68731,-2.69115 -1.40828,-0.502044 -1.11467,-1.488904 0.24413,-1.031534 2.31068,0.28449 4.69352,0.0444 6.9478,0.70876 0.97719,0.614734 1.35055,1.076374 0.43672,-0.22775 -1.17893,-1.75453 -2.60423,-3.33769 -3.92178,-4.91468 -0.78065,-0.64098 -1.04009,-1.44009 -0.01,-0.29285 1.77683,1.24793 3.26922,2.87789 4.92361,4.29911 1.43588,0.62993 -0.36139,-2.37126 -0.42592,-3.38222 -0.53729,-1.86036 -1.33435,-3.647201 -1.46225,-5.609191 -0.17556,-0.9537 -1.48603,-4.52768 -0.28267,-2.16994 0.58459,2.092 1.31477,3.50979 1.86574,5.462271 0.90219,1.38602 1.92039,4.64313 2.59845,4.92429 0.67268,-2.58601 -0.16504,-5.27956 0.10135,-7.919611 -0.29952,-0.86721 0.49645,-4.4816 0.59334,-1.93479 0.17545,0.95009 -0.23856,2.96751 0.11268,2.5338 0.15425,1.922661 0.18064,3.891891 0.60573,5.768431 1.68985,0.9953 2.83608,-2.565 3.78562,-3.92729 1.55723,-1.293011 -0.35224,1.97797 -0.73492,2.52409 -1.09692,1.60809 -2.68591,3.39083 -2.68769,5.441364 2.15575,0.41985 3.74606,-1.591614 5.61685,-2.361144 0.96561,-0.38101 2.4276,-0.98581 0.7767,0.0683 -1.86057,1.47573 -4.2504,1.43757 -6.25476,2.576184 1.93882,-0.13359 3.8157,0.77599 5.76794,0.44374 0.89954,-0.0404 2.84699,-0.11711 0.95632,0.4179 -2.52599,0.95172 -5.11619,1.77018 -7.79058,1.98861 -0.312,0.17261 -2.28731,0.59371 -1.84458,0.44059"
           id="path4516"
           inkscape:connector-curvature="0" />
        <path
           inkscape:connector-curvature="0"
           id="path4528"
           d="m 144.00419,71.836185 c 1.6602,-0.89954 3.40931,-1.62096 5.15832,-2.27354 0.95838,-0.47868 3.30137,-1.7115 4.68731,-2.69115 1.40828,-0.50204 1.11467,-1.4889 -0.24413,-1.03153 -2.31068,0.28449 -4.69352,0.0444 -6.9478,0.70876 -0.97719,0.61473 -1.35055,1.07637 -0.43672,-0.22775 1.17893,-1.75453 2.60423,-3.33769 3.92178,-4.91468 0.78065,-0.64098 1.04009,-1.44009 0.01,-0.29285 -1.77683,1.24793 -3.26922,2.87789 -4.92361,4.29911 -1.43588,0.62993 0.36139,-2.37126 0.42592,-3.38222 0.53729,-1.86036 1.33435,-3.6472 1.46225,-5.60919 0.17556,-0.9537 1.48603,-4.52768 0.28267,-2.16994 -0.58459,2.092 -1.31477,3.50979 -1.86574,5.46227 -0.90219,1.38602 -1.92039,4.64313 -2.59845,4.92429 -0.67268,-2.58601 0.16504,-5.27956 -0.10135,-7.91961 0.29952,-0.86721 -0.49645,-4.4816 -0.59334,-1.93479 -0.17545,0.95009 0.23856,2.96751 -0.11268,2.5338 -0.15425,1.92266 -0.18064,3.89189 -0.60573,5.76843 -1.68985,0.9953 -2.83608,-2.565 -3.78562,-3.92729 -1.55723,-1.29301 0.35224,1.97797 0.73492,2.52409 1.09692,1.60809 2.68591,3.39083 2.68769,5.44136 -2.15575,0.41985 -3.74606,-1.59161 -5.61685,-2.36114 -0.96561,-0.38101 -2.4276,-0.98581 -0.7767,0.0683 1.86057,1.47573 4.2504,1.43757 6.25476,2.57618 -1.93882,-0.13359 -3.8157,0.77599 -5.76794,0.44374 -0.89954,-0.0404 -2.84699,-0.11711 -0.95632,0.4179 2.52599,0.95172 5.11619,1.77018 7.79058,1.98861 0.312,0.17261 2.28731,0.59371 1.84458,0.44059"
           style="fill:#c89337;fill-opacity:1;fill-rule:evenodd;stroke:#c89337;stroke-width:0.20000002;stroke-linecap:butt;stroke-linejoin:miter;stroke-miterlimit:4;stroke-dasharray:none;stroke-opacity:1" />
        <path
           inkscape:connector-curvature="0"
           id="path4530"
           d="m 146.76054,70.852325 c -3.04763,-1.49844 -5.43083,-4.14957 -7.98082,-6.45002 -1.08001,-1.41967 -2.71272,-2.17472 -3.54215,-3.87141 -0.87917,-0.6864 -1.79837,-2.19365 -0.16274,-1.0099 1.37088,1.2958 2.46608,2.94436 4.14076,3.82191 1.97775,1.46255 3.98551,2.87986 5.75496,4.64916 2.24878,1.94138 0.40872,-1.71974 -0.17493,-2.65433 -1.4927,-2.77399 -3.86948,-5.29199 -3.75056,-8.76993 -0.42693,-1.71146 -0.35902,-1.40065 0.38929,-0.14909 2.16738,3.72001 4.62731,7.22427 6.5432,11.11871 0.5018,0.76468 1.80127,3.7514 1.23642,1.11618 -0.80198,-4.68655 -2.48212,-9.09494 -3.84304,-13.60159 0.63589,-0.97992 0.5785,2.23423 1.1089,2.92122 0.65776,2.13122 0.84582,4.40115 1.7189,6.45762 0.10043,2.20947 1.31581,1.10869 1.47895,-0.41747 0.7894,-2.5609 1.08461,-5.25024 1.45915,-7.90348 0.33044,-1.27877 -0.83563,1.41039 -0.60156,2.0286 0.003,0.48515 -0.55935,1.18573 -0.17215,0.46057 -0.0539,2.43858 -1.01085,4.64808 -1.8594,6.84474 -1.22949,2.07427 0.94227,2.68694 2.17615,1.43601 1.86304,-1.49492 3.98539,-2.48708 5.68841,-4.20991 1.44131,-0.74473 1.21563,-1.96528 -0.32597,-1.24445 -1.96127,0.6249 -4.06645,1.3708 -5.31283,3.30155 -0.82155,0.87275 -2.17601,2.66768 -2.08975,3.47149 1.80365,0.25891 3.7444,0.25739 5.44475,-0.49888 0.83692,-0.34788 3.31865,-0.994 3.01043,-1.46117 -1.97945,0.32966 -3.89685,0.98662 -5.87402,1.24976 -1.21264,0.41145 -3.33883,0.35844 -3.79276,1.83901"
           style="fill:#c89337;fill-opacity:1;fill-rule:evenodd;stroke:#c89337;stroke-width:0.20000002;stroke-linecap:butt;stroke-linejoin:miter;stroke-miterlimit:4;stroke-dasharray:none;stroke-opacity:1" />
        <path
           style="fill:#959a2d;fill-opacity:1;fill-rule:evenodd;stroke:none;stroke-width:1px;stroke-linecap:butt;stroke-linejoin:miter;stroke-opacity:1"
           d="m 123.68896,83.448244 c 4.72671,1.50305 9.91772,0.75013 14.33363,-1.35273 10.06805,-0.31685 1.66491,-2.58813 0.22602,-7.41566 0,0 3.52139,2.56285 5.37251,3.21106 1.81273,1.13528 3.5138,1.91314 4.46952,3.88775 -1.47063,-1.65902 -2.2187,-6.16102 -2.2187,-6.16102 2.84606,3.19272 5.10921,6.45899 4.33039,3.45697 -0.83564,-3.97362 -4.18313,-11.5296 -4.18313,-11.5296 0,0 3.00282,5.38609 4.30242,8.16375 0.39871,1.79955 0.99883,3.99386 2.77801,4.8773 2.20813,0.0356 3.6741,-3.99438 3.6741,-3.99438 1.04497,3.94652 -3.37084,7.13638 0.66755,5.70428 1.23659,-1.35043 3.84383,-3.24349 5.11185,-0.85797 6.68461,0.70533 9.5632,0.0841 15.37079,2.34875 -5.44624,-0.46258 -10.28525,0.72292 -15.36549,0.56421 -4.54117,-0.0155 -9.10844,-0.35454 -13.6238,0.28683 -6.68857,0.27111 -13.42779,0.0528 -20.01727,-1.19867 -1.74179,-0.17956 -3.48954,0.24734 -5.2284,0.009 z"
           id="path4532"
           inkscape:connector-curvature="0"
           sodipodi:nodetypes="ccccccccccccccccccc" />
        <path
           style="fill:#c89337;fill-opacity:1;fill-rule:evenodd;stroke:#c89337;stroke-width:0.20000002;stroke-linecap:butt;stroke-linejoin:miter;stroke-miterlimit:4;stroke-dasharray:none;stroke-opacity:1"
           d="m 216.50419,186.8362 c 1.6602,-0.89954 3.40931,-1.62096 5.15832,-2.27354 0.95838,-0.47868 3.30137,-1.7115 4.68731,-2.69115 1.40828,-0.50204 1.11467,-1.4889 -0.24413,-1.03153 -2.31068,0.28449 -4.69352,0.0444 -6.9478,0.70876 -0.97719,0.61473 -1.35055,1.07637 -0.43672,-0.22775 1.17893,-1.75453 2.60423,-3.33769 3.92178,-4.91468 0.78065,-0.64098 1.04009,-1.44009 0.01,-0.29285 -1.77683,1.24793 -3.26922,2.87789 -4.92361,4.29911 -1.43588,0.62993 0.36139,-2.37126 0.42592,-3.38222 0.53729,-1.86036 1.33435,-3.6472 1.46225,-5.60919 0.17556,-0.9537 1.48603,-4.52768 0.28267,-2.16994 -0.58459,2.092 -1.31477,3.50979 -1.86574,5.46227 -0.90219,1.38602 -1.92039,4.64313 -2.59845,4.92429 -0.67268,-2.58601 0.16504,-5.27956 -0.10135,-7.91961 0.29952,-0.86721 -0.49645,-4.4816 -0.59334,-1.93479 -0.17545,0.95009 0.23856,2.96751 -0.11268,2.5338 -0.15425,1.92266 -0.18064,3.89189 -0.60573,5.76843 -1.68985,0.9953 -2.83608,-2.565 -3.78562,-3.92729 -1.55723,-1.29301 0.35224,1.97797 0.73492,2.52409 1.09692,1.60809 2.68591,3.39083 2.68769,5.44136 -2.15575,0.41985 -3.74606,-1.59161 -5.61685,-2.36114 -0.96561,-0.38101 -2.4276,-0.98581 -0.7767,0.0683 1.86057,1.47573 4.2504,1.43757 6.25476,2.57618 -1.93882,-0.13359 -3.8157,0.77599 -5.76794,0.44374 -0.89954,-0.0404 -2.84699,-0.11711 -0.95632,0.4179 2.52599,0.95172 5.11619,1.77018 7.79058,1.98861 0.312,0.17261 2.28731,0.59371 1.84458,0.44059"
           id="path4673"
           inkscape:connector-curvature="0" />
        <path
           style="fill:#c89337;fill-opacity:1;fill-rule:evenodd;stroke:#c89337;stroke-width:0.20000002;stroke-linecap:butt;stroke-linejoin:miter;stroke-miterlimit:4;stroke-dasharray:none;stroke-opacity:1"
           d="m 217.24433,185.85234 c 3.04763,-1.49844 5.43083,-4.14957 7.98082,-6.45002 1.08001,-1.41967 2.71272,-2.17472 3.54215,-3.87141 0.87917,-0.6864 1.79837,-2.19365 0.16274,-1.0099 -1.37088,1.2958 -2.46608,2.94436 -4.14076,3.82191 -1.97775,1.46255 -3.98551,2.87986 -5.75496,4.64916 -2.24878,1.94138 -0.40872,-1.71974 0.17493,-2.65433 1.4927,-2.77399 3.86948,-5.29199 3.75056,-8.76993 0.42693,-1.71146 0.35902,-1.40065 -0.38929,-0.14909 -2.16738,3.72001 -4.62731,7.22427 -6.5432,11.11871 -0.5018,0.76468 -1.80127,3.7514 -1.23642,1.11618 0.80198,-4.68655 2.48212,-9.09494 3.84304,-13.60159 -0.63589,-0.97992 -0.5785,2.23423 -1.1089,2.92122 -0.65776,2.13122 -0.84582,4.40115 -1.7189,6.45762 -0.10043,2.20947 -1.31581,1.10869 -1.47895,-0.41747 -0.7894,-2.5609 -1.08461,-5.25024 -1.45915,-7.90348 -0.33044,-1.27877 0.83563,1.41039 0.60156,2.0286 -0.003,0.48515 0.55935,1.18573 0.17215,0.46057 0.0539,2.43858 1.01085,4.64808 1.8594,6.84474 1.22949,2.07427 -0.94227,2.68694 -2.17615,1.43601 -1.86304,-1.49492 -3.98539,-2.48708 -5.68841,-4.20991 -1.44131,-0.74473 -1.21563,-1.96528 0.32597,-1.24445 1.96127,0.6249 4.06645,1.3708 5.31283,3.30155 0.82155,0.87275 2.17601,2.66768 2.08975,3.47149 -1.80365,0.25891 -3.7444,0.25739 -5.44475,-0.49888 -0.83692,-0.34788 -3.31865,-0.994 -3.01043,-1.46117 1.97945,0.32966 3.89685,0.98662 5.87402,1.24976 1.21264,0.41145 3.33883,0.35844 3.79276,1.83901"
           id="path4675"
           inkscape:connector-curvature="0" />
        <path
           inkscape:connector-curvature="0"
           id="path4767"
           d="m 154.64286,232.72728 c 1.07143,0 2.14285,0 3.21428,0 0.35715,0 0.73262,0.11294 1.07143,0 0.40721,-0.13573 0.6603,-0.59094 1.07143,-0.71428 7.11261,-2.13378 -2.5625,1.75701 5.35714,-1.07143 0.75207,-0.2686 1.42857,-0.71429 2.14286,-1.07143 0.71429,-0.35714 1.45807,-0.66055 2.14286,-1.07143 0.51041,-0.30625 0.8759,-0.85036 1.42857,-1.07143 0.67234,-0.26893 1.48113,-0.063 2.14286,-0.35714 0.46154,-0.20513 0.69393,-0.73587 1.07142,-1.07143 0.69494,-0.61772 1.44793,-1.16799 2.14286,-1.78571 0.3775,-0.33556 0.69132,-0.73884 1.07143,-1.07143 0.57367,-0.50196 1.2467,-0.88956 1.78571,-1.42857 0.53902,-0.53901 0.79432,-1.36288 1.42858,-1.78572 0.50507,-0.33671 1.231,-0.1106 1.78571,-0.35714 0.54394,-0.24175 0.90824,-0.78235 1.42857,-1.07143 0.56042,-0.31134 1.24207,-0.37451 1.78572,-0.71428 0.4283,-0.26769 0.65118,-0.79127 1.07142,-1.07143 0.31324,-0.20883 0.73472,-0.18879 1.07143,-0.35715 0.38392,-0.19195 0.68751,-0.52232 1.07143,-0.71428 0.33672,-0.16836 0.72742,-0.20425 1.07143,-0.35714 0.72977,-0.32434 1.42857,-0.71429 2.14286,-1.07143 0.47619,-0.2381 0.96317,-0.45573 1.42857,-0.71429 0.6068,-0.33711 1.20814,-0.68638 1.78571,-1.07143 0.49527,-0.33018 0.88464,-0.82968 1.42857,-1.07143 0.55471,-0.24653 1.28064,-0.0204 1.78572,-0.35714 0.63425,-0.42283 0.83333,-1.30952 1.42857,-1.78571 0.6236,-0.49888 1.42857,-0.71429 2.14286,-1.07143 0.71428,-0.47619 1.47844,-0.88496 2.14285,-1.42857 0.65152,-0.53306 1.22646,-1.15655 1.78572,-1.78572 1.35126,-1.52016 0.67023,-1.27281 2.14286,-2.5 0.32974,-0.27478 0.74168,-0.43949 1.07142,-0.71428 0.38801,-0.32334 0.65118,-0.79126 1.07143,-1.07143 0.31324,-0.20882 0.77026,-0.13127 1.07143,-0.35714 0.21296,-0.15972 0.16891,-0.52606 0.35714,-0.71429 0.99701,-0.99701 0.49735,0.28704 1.78572,-0.35714 1.90476,-0.95238 -1.30952,-0.59524 1.07143,-1.07143 0.3502,-0.07 0.71428,0 1.07143,0 0.35714,0 0.75199,0.15972 1.07142,0 0.2381,-0.11905 0.11905,-0.59524 0.35715,-0.71429 0.31944,-0.15972 0.71428,0 1.07143,0 0.23809,0 0.47619,0 0.71428,0 1.19048,0 2.38095,0 3.57143,0 0.35714,0 0.71429,0 1.07143,0 0.35714,0 0.71914,0.0587 1.07143,0 0.48639,-0.0811 2.75389,-1.03271 2.85714,-1.07143 0.35249,-0.13218 0.72541,-0.20884 1.07143,-0.35714 0.48935,-0.20972 0.91863,-0.5613 1.42857,-0.71428 0.6936,-0.20808 1.44423,-0.16661 2.14286,-0.35715 1.70504,-0.46501 1.57446,-0.88922 3.21428,-1.07143 0.5916,-0.0657 1.19048,0 1.78572,0 1.19047,0 2.38095,0 3.57143,0 0.71428,0 1.42857,0 2.14285,0 0.35715,0 0.71429,0 1.07143,0 0.2381,0 0.48841,-0.0753 0.71429,0 0.15972,0.0532 0.19107,0.32947 0.35714,0.35715 0.58714,0.0978 1.19507,-0.0738 1.78571,0 1.12629,0.14078 1.37143,0.73285 2.5,1.07143 0.6936,0.20808 1.42315,0.27717 2.14286,0.35714 0.35496,0.0394 0.73261,-0.11294 1.07143,0 0.40721,0.13573 0.68751,0.52233 1.07143,0.71428 0.33672,0.16836 0.72741,0.20425 1.07143,0.35715 3.51755,1.56335 0.80293,0.74383 5,2.14285 0.8222,0.27407 1.65919,0.50409 2.5,0.71429 0.5889,0.14723 1.21734,0.144 1.78571,0.35714 0.4019,0.15072 0.66422,0.57855 1.07143,0.71429 0.0984,0.0328 2.01366,-0.0323 2.14286,0 0.16333,0.0408 0.19381,0.31631 0.35714,0.35714 0.34648,0.0866 0.73983,-0.13264 1.07143,0 0.31263,0.12506 0.39901,0.59606 0.71428,0.71429 0.67804,0.25426 1.45588,0.12815 2.14286,0.35714 0.40721,0.13574 0.66422,0.57855 1.07143,0.71429 0.33882,0.11293 0.71429,0 1.07143,0 0.11905,0 0.27296,-0.0842 0.35714,0 0.0842,0.0842 -0.10648,0.3039 0,0.35714 0.21296,0.10648 0.51618,-0.13207 0.71429,0 0.22149,0.14766 0.23809,0.47619 0.35714,0.71428 0.35714,0.11905 0.71894,0.22496 1.07143,0.35715 0.60027,0.2251 1.2123,0.42758 1.78571,0.71428 0.15059,0.0753 0.19743,0.30391 0.35715,0.35715 0.22587,0.0753 0.54592,-0.16836 0.71428,0 0.16836,0.16836 -0.10648,0.50132 0,0.71428 0.0532,0.10648 0.24421,-0.0376 0.35714,0 0.25254,0.0842 0.46175,0.27297 0.71429,0.35714 0.11294,0.0377 0.3039,-0.10647 0.35714,0 0.10648,0.21296 0,0.4762 0,0.71429"
           style="fill:none;fill-rule:evenodd;stroke:#6c6753;stroke-width:2.00000024;stroke-linecap:butt;stroke-linejoin:miter;stroke-miterlimit:4;stroke-dasharray:none;stroke-opacity:0.1440678;filter:url(#filter4809)" />
      </g>
      <g
         style="display:none"
         inkscape:label="Grille"
         id="layer3">
        <path
           inkscape:transform-center-y="-3.8301796e-05"
           inkscape:transform-center-x="-9.7481031"
           d="m 126.21809,325.06713 0,-67.53684 58.48862,33.76842 z"
           inkscape:randomized="0"
           inkscape:rounded="0"
           inkscape:flatsided="true"
           sodipodi:arg2="3.1415927"
           sodipodi:arg1="2.0943951"
           sodipodi:r2="19.496206"
           sodipodi:r1="38.992413"
           sodipodi:cy="291.29871"
           sodipodi:cx="145.71429"
           sodipodi:sides="3"
           id="path4434"
           style="opacity:1;fill:#000000;fill-opacity:0;stroke:#4b5062;stroke-width:5;stroke-linecap:round;stroke-linejoin:round;stroke-miterlimit:4;stroke-dasharray:none;stroke-dashoffset:0;stroke-opacity:0.30508477"
           sodipodi:type="star" />
        <path
           sodipodi:type="star"
           style="opacity:1;fill:#000000;fill-opacity:0;stroke:#4b5062;stroke-width:5;stroke-linecap:round;stroke-linejoin:round;stroke-miterlimit:4;stroke-dasharray:none;stroke-dashoffset:0;stroke-opacity:0.30508477"
           id="path4436"
           sodipodi:sides="3"
           sodipodi:cx="144.28572"
           sodipodi:cy="219.87013"
           sodipodi:r1="38.992413"
           sodipodi:r2="19.496206"
           sodipodi:arg1="2.0943951"
           sodipodi:arg2="3.1415927"
           inkscape:flatsided="true"
           inkscape:rounded="0"
           inkscape:randomized="0"
           d="m 124.78951,253.63855 0,-67.53684 58.48862,33.76842 z"
           inkscape:transform-center-x="-9.7481031"
           inkscape:transform-center-y="-3.8301796e-05" />
        <path
           inkscape:transform-center-y="-3.8301796e-05"
           inkscape:transform-center-x="-9.7481031"
           d="m 65.860941,216.85283 0,-67.53684 58.488619,33.76842 z"
           inkscape:randomized="0"
           inkscape:rounded="0"
           inkscape:flatsided="true"
           sodipodi:arg2="3.1415927"
           sodipodi:arg1="2.0943951"
           sodipodi:r2="19.496206"
           sodipodi:r1="38.992413"
           sodipodi:cy="183.08441"
           sodipodi:cx="85.357147"
           sodipodi:sides="3"
           id="path4438"
           style="opacity:1;fill:#000000;fill-opacity:0;stroke:#4b5062;stroke-width:5;stroke-linecap:round;stroke-linejoin:round;stroke-miterlimit:4;stroke-dasharray:none;stroke-dashoffset:0;stroke-opacity:0.30508477"
           sodipodi:type="star" />
        <path
           sodipodi:type="star"
           style="opacity:1;fill:#000000;fill-opacity:0;stroke:#4b5062;stroke-width:5;stroke-linecap:round;stroke-linejoin:round;stroke-miterlimit:4;stroke-dasharray:none;stroke-dashoffset:0;stroke-opacity:0.30508477"
           id="path4440"
           sodipodi:sides="3"
           sodipodi:cx="209.28574"
           sodipodi:cy="183.08441"
           sodipodi:r1="38.992413"
           sodipodi:r2="19.496206"
           sodipodi:arg1="2.0943951"
           sodipodi:arg2="3.1415927"
           inkscape:flatsided="true"
           inkscape:rounded="0"
           inkscape:randomized="0"
           d="m 189.78953,216.85283 0,-67.53684 58.48862,33.76842 z"
           inkscape:transform-center-x="-9.7481031"
           inkscape:transform-center-y="-3.8301796e-05" />
        <path
           inkscape:transform-center-y="-3.8301796e-05"
           inkscape:transform-center-x="-9.7481031"
           d="m 252.28953,252.56713 0,-67.53684 58.48862,33.76842 z"
           inkscape:randomized="0"
           inkscape:rounded="0"
           inkscape:flatsided="true"
           sodipodi:arg2="3.1415927"
           sodipodi:arg1="2.0943951"
           sodipodi:r2="19.496206"
           sodipodi:r1="38.992413"
           sodipodi:cy="218.79871"
           sodipodi:cx="271.78574"
           sodipodi:sides="3"
           id="path4442"
           style="opacity:1;fill:#000000;fill-opacity:0;stroke:#4b5062;stroke-width:5;stroke-linecap:round;stroke-linejoin:round;stroke-miterlimit:4;stroke-dasharray:none;stroke-dashoffset:0;stroke-opacity:0.30508477"
           sodipodi:type="star" />
        <path
           sodipodi:type="star"
           style="opacity:1;fill:#000000;fill-opacity:0;stroke:#4b5062;stroke-width:5;stroke-linecap:round;stroke-linejoin:round;stroke-miterlimit:4;stroke-dasharray:none;stroke-dashoffset:0;stroke-opacity:0.30508477"
           id="path4444"
           sodipodi:sides="3"
           sodipodi:cx="269.64288"
           sodipodi:cy="146.29871"
           sodipodi:r1="38.992413"
           sodipodi:r2="19.496206"
           sodipodi:arg1="2.0943951"
           sodipodi:arg2="3.1415927"
           inkscape:flatsided="true"
           inkscape:rounded="0"
           inkscape:randomized="0"
           d="m 250.14668,180.06713 0,-67.53684 58.48862,33.76842 z"
           inkscape:transform-center-x="-9.7481031"
           inkscape:transform-center-y="-3.8301796e-05" />
        <path
           inkscape:transform-center-y="-3.8301796e-05"
           inkscape:transform-center-x="-9.7481031"
           d="m 314.07527,144.35284 0,-67.536841 58.48861,33.768421 z"
           inkscape:randomized="0"
           inkscape:rounded="0"
           inkscape:flatsided="true"
           sodipodi:arg2="3.1415927"
           sodipodi:arg1="2.0943951"
           sodipodi:r2="19.496206"
           sodipodi:r1="38.992413"
           sodipodi:cy="110.58442"
           sodipodi:cx="333.57147"
           sodipodi:sides="3"
           id="path4446"
           style="opacity:1;fill:#000000;fill-opacity:0;stroke:#4b5062;stroke-width:5;stroke-linecap:round;stroke-linejoin:round;stroke-miterlimit:4;stroke-dasharray:none;stroke-dashoffset:0;stroke-opacity:0.30508477"
           sodipodi:type="star" />
        <path
           sodipodi:type="star"
           style="opacity:1;fill:#000000;fill-opacity:0;stroke:#4b5062;stroke-width:5;stroke-linecap:round;stroke-linejoin:round;stroke-miterlimit:4;stroke-dasharray:none;stroke-dashoffset:0;stroke-opacity:0.30508477"
           id="path4448"
           sodipodi:sides="3"
           sodipodi:cx="391.07147"
           sodipodi:cy="145.94157"
           sodipodi:r1="38.992413"
           sodipodi:r2="19.496206"
           sodipodi:arg1="2.0943951"
           sodipodi:arg2="3.1415927"
           inkscape:flatsided="true"
           inkscape:rounded="0"
           inkscape:randomized="0"
           d="m 371.57527,179.70999 0,-67.53684 58.48861,33.76842 z"
           inkscape:transform-center-x="-9.7481031"
           inkscape:transform-center-y="-3.8301796e-05" />
        <path
           inkscape:transform-center-y="-3.8301796e-05"
           inkscape:transform-center-x="-9.7481031"
           d="m 188.71812,142.20999 0,-67.536843 58.48862,33.768423 z"
           inkscape:randomized="0"
           inkscape:rounded="0"
           inkscape:flatsided="true"
           sodipodi:arg2="3.1415927"
           sodipodi:arg1="2.0943951"
           sodipodi:r2="19.496206"
           sodipodi:r1="38.992413"
           sodipodi:cy="108.44157"
           sodipodi:cx="208.21432"
           sodipodi:sides="3"
           id="path4450"
           style="opacity:1;fill:#000000;fill-opacity:0;stroke:#4b5062;stroke-width:5;stroke-linecap:round;stroke-linejoin:round;stroke-miterlimit:4;stroke-dasharray:none;stroke-dashoffset:0;stroke-opacity:0.30508477"
           sodipodi:type="star" />
        <path
           sodipodi:type="star"
           style="opacity:1;fill:#000000;fill-opacity:0;stroke:#4b5062;stroke-width:5;stroke-linecap:round;stroke-linejoin:round;stroke-miterlimit:4;stroke-dasharray:none;stroke-dashoffset:0;stroke-opacity:0.30508477"
           id="path4452"
           sodipodi:sides="3"
           sodipodi:cx="207.50005"
           sodipodi:cy="40.227272"
           sodipodi:r1="38.992413"
           sodipodi:r2="19.496206"
           sodipodi:arg1="2.0943951"
           sodipodi:arg2="3.1415927"
           inkscape:flatsided="true"
           inkscape:rounded="0"
           inkscape:randomized="0"
           d="m 188.00384,73.995692 0,-67.5368398 58.48862,33.7684198 z"
           inkscape:transform-center-x="-9.7481031"
           inkscape:transform-center-y="-3.8301796e-05" />
        <path
           inkscape:transform-center-y="-3.8301796e-05"
           inkscape:transform-center-x="-9.7481031"
           d="m 128.36097,108.63855 0,-67.536837 58.48862,33.768419 z"
           inkscape:randomized="0"
           inkscape:rounded="0"
           inkscape:flatsided="true"
           sodipodi:arg2="3.1415927"
           sodipodi:arg1="2.0943951"
           sodipodi:r2="19.496206"
           sodipodi:r1="38.992413"
           sodipodi:cy="74.870132"
           sodipodi:cx="147.85718"
           sodipodi:sides="3"
           id="path4454"
           style="opacity:1;fill:#000000;fill-opacity:0;stroke:#4b5062;stroke-width:5;stroke-linecap:round;stroke-linejoin:round;stroke-miterlimit:4;stroke-dasharray:none;stroke-dashoffset:0;stroke-opacity:0.30508477"
           sodipodi:type="star" />
        <path
           sodipodi:type="star"
           style="opacity:1;fill:#000000;fill-opacity:0;stroke:#4b5062;stroke-width:5;stroke-linecap:round;stroke-linejoin:round;stroke-miterlimit:4;stroke-dasharray:none;stroke-dashoffset:0;stroke-opacity:0.30508477"
           id="path4456"
           sodipodi:sides="3"
           sodipodi:cx="85.000031"
           sodipodi:cy="39.155842"
           sodipodi:r1="38.992413"
           sodipodi:r2="19.496206"
           sodipodi:arg1="2.0943951"
           sodipodi:arg2="3.1415927"
           inkscape:flatsided="true"
           inkscape:rounded="0"
           inkscape:randomized="0"
           d="m 65.503824,72.924262 0,-67.53684 58.488616,33.76842 z"
           inkscape:transform-center-x="-9.7481031"
           inkscape:transform-center-y="-3.8301796e-05" />
      </g>
    </g>
    <rect
       style="opacity:1;fill:none;fill-opacity:0.49411765;stroke:#000000;stroke-width:1.31012666;stroke-linecap:round;stroke-linejoin:round;stroke-miterlimit:4;stroke-dasharray:none;stroke-dashoffset:0;stroke-opacity:1"
       id="rect4212"
       width="93.370102"
       height="125.29153"
       x="21.943405"
       y="244.69693"
       ry="0"
       inkscape:export-filename="/home/ziltoid/git/menhyr/png/clothes1.png"
       inkscape:export-xdpi="47.295361"
       inkscape:export-ydpi="47.295361" />
    <rect
       ry="0"
       y="244.69693"
       x="150.03616"
       height="125.29153"
       width="93.370102"
       id="rect4233"
       style="opacity:1;fill:none;fill-opacity:0.49411765;stroke:#000000;stroke-width:1.31012666;stroke-linecap:round;stroke-linejoin:round;stroke-miterlimit:4;stroke-dasharray:none;stroke-dashoffset:0;stroke-opacity:1"
       inkscape:export-filename="/home/ziltoid/git/menhyr/png/clothes2.png"
       inkscape:export-xdpi="47.117401"
       inkscape:export-ydpi="47.117401" />
    <rect
       style="opacity:1;fill:none;fill-opacity:0.49411765;stroke:#000000;stroke-width:1.31012666;stroke-linecap:round;stroke-linejoin:round;stroke-miterlimit:4;stroke-dasharray:none;stroke-dashoffset:0;stroke-opacity:1"
       id="rect4235"
       width="93.370102"
       height="125.29153"
       x="267.70276"
       y="244.69693"
       ry="0"
       inkscape:export-filename="/home/ziltoid/git/menhyr/png/clothes3.png"
       inkscape:export-xdpi="47.117401"
       inkscape:export-ydpi="47.117401" />
  </g>
  <g
     inkscape:label="Calque 1"
     inkscape:groupmode="layer"
     id="layer1"
     style="display:none"
     sodipodi:insensitive="true">
    <g
       id="g4583">
      <path
         inkscape:connector-curvature="0"
         id="path4179"
         d="m 90.32006,349.84614 c 3.287573,5.5441 -2.365136,11.09621 -6.922388,12.55482 -5.714925,2.23668 -11.665169,-0.46234 -17.566622,0.34945 -9.410471,-0.25195 -19.505291,-0.44523 -27.912235,-5.53945 -5.842923,-6.41765 -6.332722,-16.46201 -12.179547,-22.92566 -6.426986,-6.48603 -2.09138,-16.13712 5.399614,-17.66554 6.37356,-0.007 12.21695,4.54707 18.680388,3.26091 11.124727,0.88902 21.852769,6.0801 30.232066,14.14589"
         style="fill:#332c26;fill-opacity:0.21991703;fill-rule:evenodd;stroke:none;stroke-width:0.65506333px;stroke-linecap:butt;stroke-linejoin:miter;stroke-opacity:1" />
      <path
         sodipodi:nodetypes="cccccssccccc"
         inkscape:connector-curvature="0"
         id="rect4136"
         d="m 70.904165,251.435 c -6.764442,6.3e-4 -12.247698,4.4306 -12.247232,13.00755 0.005,4.44278 1.509535,8.67035 4.134354,11.61348 -10.283916,0.18896 -19.997225,9.29253 -18.454923,20.31295 l 6.181145,44.16852 c 1.558543,11.13652 2.194533,20.33088 12.597793,20.33088 h 14.246215 c 10.403243,0 11.894385,-9.16804 13.283008,-20.33088 l 5.494146,-44.16852 c 1.317537,-10.59123 -7.404918,-19.37252 -17.187162,-20.2456 2.663689,-2.943 4.195335,-7.20109 4.201638,-11.68083 4.67e-4,-8.5778 -5.483857,-13.00815 -12.248982,-13.00755 z"
         style="opacity:1;fill:#eccdb7;fill-opacity:1;stroke:none;stroke-width:1.31012666;stroke-linecap:round;stroke-linejoin:round;stroke-miterlimit:4;stroke-dasharray:none;stroke-dashoffset:0;stroke-opacity:0.24152545" />
      <path
         id="path4563"
         transform="scale(0.9375)"
         d="m 75.587891,268.19922 c -0.449728,10e-4 -0.894094,0.0207 -1.332032,0.0586 -1.751751,0.15156 -3.40088,0.5975 -4.876953,1.33008 -0.738036,0.36629 -1.433167,0.80464 -2.076172,1.31445 -0.321502,0.25491 -0.629347,0.52779 -0.923828,0.81836 -0.293829,0.28993 -0.573127,0.59659 -0.83789,0.92188 -0.17399,0.21376 -0.331524,0.4468 -0.492188,0.67578 -0.08196,0.11687 -0.171626,0.22488 -0.25,0.3457 -0.232074,0.35778 -0.44926,0.73265 -0.648437,1.125 -0.002,0.004 -0.0039,0.008 -0.0059,0.0117 -0.118384,0.23381 -0.218102,0.4864 -0.324219,0.73242 -0.07571,0.17553 -0.161197,0.3417 -0.230468,0.52344 -0.0112,0.0294 -0.01827,0.0623 -0.0293,0.0918 -0.149974,0.40175 -0.288781,0.81443 -0.40625,1.24609 -8.87e-4,0.003 -0.0011,0.007 -0.002,0.01 -0.126731,0.46671 -0.23366,0.94966 -0.320313,1.45117 -0.08651,0.50065 -0.152858,1.01756 -0.197265,1.55273 -1.1e-4,0.001 1.09e-4,0.003 0,0.004 -0.0033,0.0397 -0.0028,0.0831 -0.0059,0.12305 -0.0381,0.49862 -0.06058,1.00894 -0.06055,1.53711 0.0013,1.18474 0.101925,2.35396 0.296875,3.49218 1.09e-4,6.4e-4 -1.08e-4,0.001 0,0.002 0.09742,0.56846 0.217979,1.12949 0.361328,1.67968 1.6e-4,6.2e-4 -1.59e-4,10e-4 0,0.002 0.143401,0.55017 0.310292,1.08973 0.498047,1.61718 2.07e-4,5.9e-4 -2.07e-4,0.001 0,0.002 0.375817,1.05544 0.838848,2.06028 1.382813,2.99804 2.87e-4,5e-4 -2.88e-4,0.001 0,0.002 0.271894,0.46862 0.565427,0.92095 0.876953,1.35351 3.17e-4,4.4e-4 -3.17e-4,0.002 0,0.002 0.311581,0.43255 0.642548,0.84428 0.992187,1.23632 3.37e-4,3.8e-4 -3.36e-4,0.002 0,0.002 -1.028391,0.0189 -2.050303,0.12092 -3.058593,0.30078 -0.672193,0.11991 -1.337837,0.27404 -1.994141,0.46094 -0.513522,0.14623 -1.014867,0.33231 -1.515625,0.51757 -1.099218,0.40667 -2.172257,0.88553 -3.189453,1.4668 -0.592235,0.33843 -1.167739,0.70499 -1.724609,1.09766 -0.556893,0.39272 -1.093411,0.81058 -1.609375,1.2539 -2.838689,2.43818 -5.015589,5.61341 -6.06836,9.22461 -1.73e-4,6e-4 1.74e-4,10e-4 0,0.002 -0.191122,0.65584 -0.344821,1.32705 -0.458984,2.00976 -0.114269,0.68334 -0.189097,1.37933 -0.220703,2.08594 -0.0158,0.35331 -0.02153,0.70796 -0.01563,1.06641 1e-5,6.5e-4 -1.1e-5,0.001 0,0.002 0.01188,0.71626 0.06915,1.4437 0.171875,2.17773 l 6.591797,47.11328 c 0.546051,3.9018 0.992682,7.56935 1.730468,10.75 0.166147,0.71606 0.351867,1.40179 0.552735,2.06446 0.04958,0.16352 0.09834,0.32826 0.15039,0.48828 0.07622,0.23444 0.152496,0.46861 0.234375,0.69531 0.13553,0.37495 0.279015,0.73917 0.431641,1.0918 0.0088,0.0203 0.01654,0.0422 0.02539,0.0625 0.07371,0.1687 0.154417,0.32691 0.232422,0.49023 0.12455,0.2605 0.254401,0.51543 0.390624,0.76172 0.112877,0.20432 0.224251,0.41129 0.345704,0.60547 0.0095,0.0152 0.01976,0.0298 0.0293,0.0449 0.361818,0.57282 0.762751,1.10047 1.208985,1.57813 0.204313,0.2187 0.420509,0.42371 0.644531,0.62109 0.0443,0.039 0.08772,0.0791 0.132813,0.11719 0.226608,0.19182 0.461427,0.37516 0.708984,0.54492 0.0066,0.005 0.01293,0.009 0.01953,0.0137 0.265106,0.18073 0.545418,0.34548 0.835938,0.5 0.03438,0.0183 0.07073,0.0349 0.105468,0.0527 0.249735,0.12871 0.510038,0.24649 0.779297,0.35546 0.06053,0.0245 0.120094,0.0508 0.181641,0.0742 0.309723,0.11817 0.628596,0.22651 0.964844,0.31836 0.33438,0.0913 0.684934,0.16606 1.046875,0.23047 0.09376,0.0167 0.191451,0.0281 0.287109,0.043 0.2716,0.0421 0.552529,0.0784 0.839844,0.10547 0.114688,0.0108 0.228455,0.0229 0.345703,0.0313 0.39154,0.0279 0.791962,0.0449 1.212891,0.0449 h 2.384765 c -0.725953,-2.1867 -1.533572,-4.76687 -1.443359,-5.55469 -0.537457,-2.52773 -1.492495,-4.44108 -2.384766,-6.57812 -1.163108,-1.85971 -2.348276,-3.83496 -2.976562,-6.58008 -0.543161,-3.1722 -1.170195,-6.26251 -1.191406,-9.95898 -0.216893,-3.77774 0.730354,-6.38628 1.787109,-8.88477 1.395559,-3.81706 1.035993,-7.33283 0,-11.66406 -0.921569,-3.58844 -1.128082,-7.20489 -2.083985,-10.46875 -0.242039,-4.47213 -2.399677,-6.84602 -2.679687,-11.0625 -0.932958,-1.95055 0.16325,-4.68173 0,-6.87891 0.569523,-1.73216 1.671208,-3.32859 3.275391,-4.1875 1.050801,-0.82694 1.917006,-1.8962 2.976562,-2.99414 0.77878,-1.32563 1.842947,-2.22769 2.681641,-3.28711 0.744328,-1.34597 1.813488,-2.36566 2.976562,-3.29101 1.256306,-0.94042 -1.882031,-2.49275 -1.488281,-4.48438 0.116393,-3.17309 -0.469781,-7.05111 0.892578,-8.97266 0.401822,-2.09247 1.67034,-3.20681 2.679688,-4.48828 1.321805,-1.80747 2.40985,-3.27053 2.679687,-5.68164 0.06237,-0.57222 0.132797,-1.15207 0.179688,-1.70898 z"
         style="fill:#6b3d1c;fill-opacity:0.20746891;stroke:none;stroke-width:1px;stroke-linecap:butt;stroke-linejoin:miter;stroke-opacity:1"
         inkscape:connector-curvature="0" />
    </g>
    <g
       id="g4599">
      <path
         sodipodi:nodetypes="ccccczcc"
         inkscape:connector-curvature="0"
         id="path4183"
         d="m 216.36322,354.54715 c 0.7827,7.07227 -6.31401,8.57812 -10.85063,8.05977 -6.0193,-0.7325 -11.75228,2.29569 -17.76701,1.26666 -7.14103,-0.74392 -13.97294,-3.68582 -20.35552,-7.38688 -4.69326,-8.63694 -13.62769,-12.96062 -17.72766,-22.08332 -3.06811,-4.90842 2.07464,-9.78966 11.03412,-8.30368 8.95946,1.48597 34.77981,14.83596 49.81805,23.1522 1.93139,1.34277 4.00255,2.75556 4.80162,5.29525"
         style="fill:#332c26;fill-opacity:0.21991703;fill-rule:evenodd;stroke:none;stroke-width:0.65506333px;stroke-linecap:butt;stroke-linejoin:miter;stroke-opacity:1" />
      <path
         sodipodi:nodetypes="sccssssssccs"
         style="opacity:1;fill:#eccdb7;fill-opacity:1;stroke:none;stroke-width:1.31012666;stroke-linecap:round;stroke-linejoin:round;stroke-miterlimit:4;stroke-dasharray:none;stroke-dashoffset:0;stroke-opacity:0.24152545"
         d="m 199.36928,260.10634 c -6.76441,5.7e-4 -12.24767,6.26895 -12.2472,14.00084 0.005,4.00504 1.50952,7.8161 4.13434,10.46926 -10.28392,0.17035 -14.37205,8.57123 -11.87243,18.31159 3.30062,12.8614 5.80857,25.00447 3.22022,39.81677 -2.49948,14.30392 -1.42704,18.32779 8.97622,18.32779 h 15.8254 c 10.40325,0 8.15849,-8.21284 7.2271,-18.32779 -1.36853,-14.86236 1.42592,-26.87132 3.91499,-39.81677 1.82001,-9.46581 -1.34904,-17.46381 -11.13128,-18.25088 2.66369,-2.65304 4.19533,-6.4916 4.20164,-10.52997 4.6e-4,-7.73267 -5.48388,-14.00137 -12.249,-14.00084 z"
         id="path4148"
         inkscape:connector-curvature="0" />
      <path
         id="path4580"
         transform="scale(0.9375)"
         d="m 212.66016,277.44727 c -1.35289,1.1e-4 -2.65754,0.23552 -3.88477,0.67187 -2.04537,0.72726 -3.87604,2.01421 -5.35351,3.70313 -1.18204,1.35128 -2.13784,2.95946 -2.79883,4.74609 -0.49572,1.33989 -0.82528,2.77914 -0.95899,4.28516 -0.0446,0.50201 -0.0664,1.01188 -0.0664,1.52734 0.001,1.06801 0.10192,2.12236 0.29687,3.14844 0.48733,2.56536 1.55995,4.95053 3.11914,6.90234 0.31184,0.39034 0.64417,0.76343 0.99414,1.11719 -6.6e-4,10e-6 -0.001,-1e-5 -0.002,0 -0.0425,7e-4 -0.0827,0.005 -0.125,0.006 -0.29366,0.007 -0.58506,0.0159 -0.86914,0.0351 -0.16598,0.0113 -0.32558,0.0295 -0.48828,0.0449 -0.1641,0.0156 -0.33143,0.029 -0.49219,0.0488 -0.30447,0.0375 -0.60401,0.0825 -0.89648,0.13477 -0.21632,0.0387 -0.42502,0.0862 -0.63477,0.13281 -0.0866,0.0192 -0.17621,0.0341 -0.26172,0.0547 -0.19617,0.0472 -0.38591,0.10214 -0.57617,0.15625 -0.0887,0.0252 -0.18021,0.0475 -0.26758,0.0742 -0.22538,0.0688 -0.44529,0.1461 -0.66211,0.22461 -0.0455,0.0165 -0.0935,0.03 -0.13867,0.0469 -0.19651,0.0736 -0.38487,0.15492 -0.57422,0.23633 -0.0666,0.0286 -0.13544,0.0544 -0.20117,0.084 -0.21503,0.0968 -0.42533,0.19978 -0.63086,0.30665 -0.0287,0.0149 -0.0594,0.0278 -0.0879,0.043 -0.22113,0.11722 -0.43457,0.24054 -0.64453,0.36915 -0.0137,0.008 -0.0274,0.017 -0.041,0.0254 -0.20164,0.12464 -0.39663,0.25575 -0.58789,0.39062 -0.0229,0.0162 -0.0475,0.0306 -0.0703,0.0469 -0.17939,0.12847 -0.35332,0.2631 -0.52344,0.40039 -0.0313,0.0253 -0.0647,0.0487 -0.0957,0.0742 -0.19331,0.15941 -0.37948,0.3255 -0.56055,0.49609 -1.06401,1.00247 -1.90805,2.20021 -2.54687,3.54101 -0.0333,0.0697 -0.0733,0.1346 -0.10547,0.20508 -0.21094,0.46396 -0.39778,0.94473 -0.5586,1.44141 -0.16383,0.506 -0.30243,1.0279 -0.41406,1.56445 -0.11163,0.53655 -0.19661,1.08674 -0.25586,1.65039 -0.0593,0.56365 -0.0929,1.14121 -0.0996,1.72852 -0.007,0.58731 0.0125,1.18544 0.0586,1.79297 0.0461,0.60752 0.11976,1.22335 0.21875,1.84765 0.099,0.62431 0.22486,1.2569 0.37695,1.89453 0.0347,0.14532 0.0563,0.2877 0.0937,0.4336 3.23646,12.6114 5.74508,24.58161 3.98633,38.70508 -6.5e-4,0.005 -10e-4,0.0104 -0.002,0.0156 -0.0639,0.51217 -0.13366,1.02694 -0.20898,1.54492 -0.0801,0.56606 -0.17005,1.1366 -0.26562,1.71094 -0.028,0.16643 -0.047,0.32903 -0.0762,0.49609 -0.66652,3.81438 -1.09516,6.94226 -1.18945,9.49024 -0.0471,1.27399 -0.0108,2.40195 0.12109,3.39844 0.0888,0.67058 0.22536,1.27724 0.4043,1.83203 0.0203,0.0629 0.0371,0.12997 0.0586,0.1914 0.0281,0.0803 0.0616,0.15455 0.0918,0.23243 0.0455,0.11732 0.0884,0.2377 0.13867,0.34961 3.4e-4,7.5e-4 0.002,0.001 0.002,0.002 0.1348,0.29984 0.29247,0.57385 0.46289,0.83594 0.0411,0.0631 0.0779,0.13042 0.12109,0.1914 3.2e-4,4.5e-4 -3.1e-4,0.002 0,0.002 0.11112,0.15681 0.23005,0.30622 0.35547,0.44922 0.12241,0.13967 0.25228,0.27351 0.38867,0.40039 0.003,0.003 0.006,0.007 0.01,0.01 6.7e-4,6.3e-4 10e-4,10e-4 0.002,0.002 0.13991,0.12923 0.28651,0.2509 0.44141,0.36719 7.4e-4,5.6e-4 10e-4,0.001 0.002,0.002 0.15499,0.11625 0.31793,0.22638 0.48828,0.33008 0.078,0.0476 0.16285,0.0898 0.24414,0.13477 0.0972,0.0537 0.19107,0.11006 0.29297,0.16015 5.2e-4,2.6e-4 10e-4,-2.5e-4 0.002,0 0.18654,0.0917 0.38129,0.17795 0.58399,0.25782 1.21959,0.48052 2.736,0.75195 4.58789,0.85742 0.6173,0.0351 1.27129,0.0508 1.96484,0.0508 h 1.61914 c -0.69766,-2.51135 -1.24178,-5.06313 -1.28125,-7.73047 -2.09431,-6.38871 0.5429,-12.78682 1.84375,-18.96875 0.71705,-9.60477 1.40877,-19.5927 -1.64843,-28.88086 0.1901,-6.56092 -4.86132,-13.9729 -0.0742,-19.70898 3.1733,-4.38842 6.0846,-8.03088 2.40625,-13.36133 -3.26442,-7.22976 3.07148,-12.00067 5.80859,-17.89844 0.2423,-0.36183 0.40516,-0.70297 0.58203,-1.04687 -0.31434,-0.0258 -0.62717,-0.0566 -0.94726,-0.0566 z"
         style="fill:#6b3d1c;fill-opacity:0.20784314;stroke:none;stroke-width:1px;stroke-linecap:butt;stroke-linejoin:miter;stroke-opacity:1"
         inkscape:connector-curvature="0" />
    </g>
    <g
       id="g4588">
      <path
         inkscape:connector-curvature="0"
         id="path4207"
         d="m 323.71373,356.25892 c 1.03391,4.0299 -2.92939,5.89969 -5.89118,5.91068 -3.54674,0.55644 -7.23855,0.88282 -10.77398,0.21478 -4.10089,-1.61269 -8.09524,-3.56609 -11.61341,-6.44164 -2.48842,-1.94114 -5.03235,-3.65628 -7.61588,-5.41892 -2.58446,-2.18147 -6.39243,-3.95204 -5.85643,-8.3062 -0.59312,-3.33527 -0.28473,-8.22297 3.44667,-9.00654 3.30238,0.0695 6.85839,-1.50442 9.92067,0.63198 3.39617,1.66499 6.90601,2.92125 10.5205,3.84499 3.28519,1.0802 6.55659,2.25632 9.55898,4.09675 2.65897,1.89019 6.13392,2.77065 8.14518,5.51105 1.23057,2.83314 0.96357,6.15201 1.02012,9.20038"
         style="fill:#332c26;fill-opacity:0.21991703;fill-rule:evenodd;stroke:none;stroke-width:0.75750583px;stroke-linecap:butt;stroke-linejoin:miter;stroke-opacity:1" />
      <path
         inkscape:connector-curvature="0"
         id="path4191"
         d="m 315.02626,278.19374 c -6.20242,5.3e-4 -11.23012,5.74813 -11.22967,12.83763 0.003,3.6723 1.38411,7.16672 3.79085,9.59942 -9.4295,0.1561 -7.84964,7.85912 -5.55768,16.79022 2.32108,6.29398 -1.12354,30.41569 4.33239,42.47937 h 14.12829 c 7.62928,-10.49285 5.06786,-37.16158 6.18376,-42.47937 1.6688,-8.67935 4.70033,-16.01287 -4.26917,-16.73453 2.44237,-2.43263 3.84677,-5.95228 3.85254,-9.65511 4.5e-4,-7.09022 -5.02827,-12.83812 -11.23131,-12.83763 z"
         style="opacity:1;fill:#eccdb7;fill-opacity:1;stroke:none;stroke-width:1.51501167;stroke-linecap:round;stroke-linejoin:round;stroke-miterlimit:4;stroke-dasharray:none;stroke-dashoffset:0;stroke-opacity:0.24152545"
         sodipodi:nodetypes="sccccccccs" />
      <path
         id="path4590"
         transform="scale(0.9375)"
         d="m 336.02734,296.74023 c -0.47472,5e-5 -0.94207,0.0401 -1.40234,0.10157 -0.74246,0.0991 -1.46561,0.26665 -2.16016,0.51367 -0.90371,0.32141 -1.75492,0.77489 -2.55273,1.31836 -0.52656,0.35869 -1.03362,0.74955 -1.50391,1.19336 -0.46074,0.43468 -0.88213,0.9182 -1.28125,1.42578 -0.11335,0.14415 -0.23381,0.2801 -0.34179,0.42969 -0.24436,0.33852 -0.47402,0.69 -0.68946,1.05468 -1.29101,2.18541 -2.0451,4.82045 -2.04492,7.65625 8e-4,0.97928 0.093,1.94594 0.27149,2.88672 0.0892,0.47039 0.20053,0.93538 0.33203,1.39063 0.26299,0.9105 0.60996,1.78737 1.0332,2.61523 0.42324,0.82786 0.92229,1.60648 1.49414,2.32227 0.28598,0.35791 0.59121,0.69908 0.91211,1.02344 -6.7e-4,1e-5 -10e-4,-2e-5 -0.002,0 -3.14317,0.052 -5.13762,0.88993 -6.32227,2.30859 -3e-4,3.6e-4 3.1e-4,0.002 0,0.002 -2.60489,3.12137 -1.28406,9.05099 0.39649,15.59961 0.12091,0.32787 0.22105,0.71404 0.31445,1.12891 0.0149,0.0664 0.0326,0.12877 0.0469,0.19726 0.0378,0.18099 0.0642,0.39642 0.0977,0.5918 0.0663,0.38729 0.13067,0.78772 0.18164,1.22852 0.0247,0.21404 0.045,0.44407 0.0664,0.66992 0.045,0.47214 0.0848,0.96407 0.11718,1.48437 0.0124,0.20242 0.0244,0.40797 0.0352,0.61719 0.0233,0.44636 0.04,0.92901 0.0566,1.4043 0.0222,0.65035 0.0343,1.37339 0.0469,2.07226 0.036,1.92789 0.0544,3.97483 0.0625,6.16992 0.0225,6.2329 0.0876,13.22031 0.95312,19.4961 0.32917,2.38611 0.77093,4.66833 1.37305,6.74804 0.11618,0.4013 0.23855,0.79411 0.36719,1.17969 0.0374,0.11128 0.0787,0.21822 0.11718,0.32813 0.0982,0.28251 0.19525,0.56492 0.30078,0.83789 0.15365,0.39542 0.31504,0.78377 0.48438,1.1582 h 6.36328 c -0.005,-4.1389 -3.74249,-7.07481 -3.54883,-11.05273 0.7835,-4.54395 1.98879,-9.12079 1.35352,-13.72657 -1.61314,-3.70405 -1.64544,-7.6469 -1.75781,-11.63281 0.65326,-5.6902 -1.05109,-11.12481 -0.6543,-16.67969 0.72638,-3.84059 1.22302,-8.45506 4.84961,-10.4082 -2.49268,-4.44446 -0.76694,-9.69191 0.23633,-14.2793 0.61748,-3.35368 2.59888,-6.20511 3.88281,-9.25781 -0.18764,-0.0266 -0.3769,-0.0455 -0.56641,-0.0644 -0.30359,-0.0263 -0.60847,-0.0528 -0.91797,-0.0527 z"
         style="fill:#6b3d1c;fill-opacity:0.20784314;stroke:none;stroke-width:1.00000012px;stroke-linecap:butt;stroke-linejoin:miter;stroke-opacity:1"
         inkscape:connector-curvature="0" />
    </g>
  </g>
  <g
     inkscape:groupmode="layer"
     id="layer5"
     inkscape:label="Clothing"
     style="display:inline"
     sodipodi:insensitive="true">
    <g
       id="g4566"
       transform="matrix(1.6675151,0,0,1.6748581,-242.52204,-200.38164)"
       style="stroke-width:0.59837866">
      <path
         style="fill:#eaeaea;fill-opacity:1;fill-rule:evenodd;stroke:none;stroke-width:0.45335963px;stroke-linecap:butt;stroke-linejoin:miter;stroke-opacity:1"
         d="m 172.1529,321.97218 c -2.38054,-19.4491 19.00621,-9.22117 28.29768,-8.24822 2.72858,0.28573 1.77477,4.62734 2.77191,7.9975 0.57613,2.21859 0.12492,7.56499 -2.46119,7.77054 -3.29675,0.34838 -6.63877,-0.39691 -9.89192,0.80319 -3.25249,0.0261 -6.51152,0.0874 -9.76138,-0.0297 -2.33833,-0.98872 -4.85436,-0.83322 -6.92986,-2.91677 -1.99145,-0.57204 -1.00578,-3.43771 -2.02524,-5.37649 z"
         id="path4555"
         inkscape:connector-curvature="0"
         sodipodi:nodetypes="csccccccc" />
      <path
         id="path4558"
         transform="scale(0.9375)"
         d="m 192.83008,330.85352 c -2.81742,0.0425 -5.27553,0.67405 -6.9707,2.33398 -0.0335,0.0328 -0.0609,0.0738 -0.0938,0.10742 -0.20138,0.20572 -0.39806,0.41941 -0.57617,0.65625 -0.0567,0.0755 -0.10195,0.1654 -0.15625,0.24414 -0.14531,0.21074 -0.29089,0.41951 -0.41797,0.6543 -0.0635,0.11735 -0.11308,0.25341 -0.17187,0.37695 -0.10232,0.21503 -0.20933,0.42392 -0.29688,0.65821 -0.0559,0.14961 -0.0949,0.32083 -0.14453,0.47851 -0.0738,0.23432 -0.15322,0.4603 -0.21289,0.71289 -0.0274,0.11601 -0.0421,0.2492 -0.0664,0.36914 -0.0637,0.31449 -0.12785,0.62654 -0.16993,0.96875 -0.0231,0.18777 -0.0285,0.39936 -0.0449,0.59571 -0.025,0.29958 -0.0575,0.59016 -0.0664,0.91015 -2e-5,6.8e-4 2e-5,0.001 0,0.002 -0.0145,0.52585 -0.007,1.07916 0.0234,1.6621 0.0309,0.58814 0.0846,1.20471 0.16407,1.85352 0.13592,0.2585 0.23889,0.53178 0.31836,0.81445 0.0795,0.28269 0.13591,0.57373 0.17968,0.86719 0.19729,1.32104 0.13719,2.68297 0.76758,3.47461 0.07,0.0879 0.14995,0.16918 0.23828,0.24219 0.088,0.0726 0.18423,0.13721 0.29297,0.19336 5.1e-4,2.6e-4 0.001,-2.6e-4 0.002,0 0.10885,0.0561 0.22919,0.10462 0.36133,0.14258 0.25074,0.2517 0.50966,0.46447 0.77149,0.66015 0.0796,0.0595 0.15967,0.11307 0.24023,0.16797 0.19284,0.13162 0.3884,0.25097 0.58594,0.35938 0.0877,0.0481 0.17512,0.0985 0.26367,0.14257 0.21131,0.10532 0.42526,0.19921 0.64063,0.28516 0.0615,0.0246 0.12175,0.0549 0.18359,0.0781 1.53686,0.57752 3.15848,0.7632 4.70703,1.41797 0.7827,0.0282 1.56611,0.0452 2.34961,0.0566 -0.27502,-0.72909 -0.58519,-1.41694 -0.88867,-2.14062 -0.69751,-1.11037 -1.40838,-2.29067 -1.78516,-3.92969 -0.32573,-1.89401 -0.70212,-3.73828 -0.71484,-5.94531 -0.13007,-2.25556 0.43853,-3.81293 1.07226,-5.30469 0.51428,-1.40045 0.62856,-2.7348 0.49805,-4.1543 -0.29645,-0.008 -0.59348,-0.0161 -0.88281,-0.0117 z"
         style="fill:#6b3d1c;fill-opacity:0.20746891;stroke:none;stroke-width:0.59837866px;stroke-linecap:butt;stroke-linejoin:miter;stroke-opacity:1"
         inkscape:connector-curvature="0" />
    </g>
    <g
       id="g4587"
       transform="matrix(1.6675151,0,0,1.6748581,-242.52204,-200.38164)"
       style="stroke-width:0.59837866">
      <path
         style="fill:#eaeaea;fill-opacity:1;stroke:none;stroke-width:0.56098002px;stroke-linecap:butt;stroke-linejoin:miter;stroke-opacity:1"
         d="m 252.3803,300.4299 c 3.34316,-0.98243 6.65149,-2.5855 10.23638,-1.94477 4.15942,0.3002 8.36249,0.40518 12.49854,0.72739 3.75741,1.97373 0.53242,6.74078 0.70215,9.84919 -1.12231,4.78023 0.25728,10.45052 -3.33979,14.36777 -3.33472,2.07866 -5.6556,8.49625 -10.11975,7.07828 -2.69112,-2.55387 -5.0055,-5.60314 -7.29047,-8.60411 -2.7161,-3.55667 -1.63939,-8.31688 -2.53423,-12.44105 -0.43307,-2.99798 0.3811,-6.08406 -0.15283,-9.0327 z"
         id="path4573"
         inkscape:connector-curvature="0" />
      <path
         id="path4575"
         transform="scale(0.9375)"
         d="m 276.95312,318.32227 c -2.43068,0.27958 -4.77613,1.20016 -7.12695,1.93554 -0.20696,0.0647 -0.41394,0.1403 -0.62109,0.20117 0.56952,3.14522 -0.29788,6.43692 0.16406,9.63477 0.65622,3.02439 0.31814,6.36865 0.98438,9.39648 0.12113,0.55052 0.27508,1.09145 0.4746,1.61719 0.19953,0.52574 0.44416,1.03599 0.7461,1.5293 3e-4,4.9e-4 -3e-4,10e-4 0,0.002 0.15074,0.24619 0.3173,0.48793 0.49805,0.72461 0.0668,0.0877 0.13433,0.1759 0.20117,0.26367 1.65633,2.17519 3.33782,4.35829 5.14844,6.38477 -0.0331,-2.83641 0.98936,-5.65755 1.57031,-8.40625 0.43001,-5.73467 0.84511,-11.6985 -0.98828,-17.24414 0.0567,-1.9493 -0.66504,-4.02402 -1.05079,-6.03906 z"
         style="fill:#6b3d1c;fill-opacity:0.20784314;stroke:none;stroke-width:0.59837866px;stroke-linecap:butt;stroke-linejoin:miter;stroke-opacity:1"
         inkscape:connector-curvature="0" />
    </g>
    <g
       id="g4603"
       transform="matrix(1.6675151,0,0,1.6748581,-242.52204,-200.38164)"
       style="stroke-width:0.59837866">
      <path
         style="fill:#eaeaea;fill-opacity:1;fill-rule:evenodd;stroke:none;stroke-width:0.55026299px;stroke-linecap:butt;stroke-linejoin:miter;stroke-opacity:1"
         d="m 342.79641,319.92234 c -2.02921,-1.08646 -4.16231,-2.17644 -6.36637,-1.88079 -1.52521,-0.11069 -3.01572,0.7254 -4.54372,0.4158 -1.81696,-3.2e-4 -3.63392,0.0118 -5.45089,10e-4 -1.09073,1.15979 -1.05981,3.35215 -0.73989,5.04628 0.12368,1.46778 -0.0833,3.23649 0.72036,4.39228 0.69247,0.61772 1.4847,1.02278 2.24876,1.4525 1.06046,0.5321 2.16021,0.88323 3.23498,1.33695 1.35912,0.32175 2.74298,-0.10277 4.10558,0.21167 1.2216,0.1498 2.48497,0.23836 3.66902,-0.30187 0.71634,0.39343 1.60437,-0.14206 1.76384,-1.25889 0.29998,-1.21761 -0.10095,-2.4731 0.0923,-3.70225 0.15452,-1.9892 0.42133,-4.06074 1.26603,-5.71288 z"
         id="path4594"
         inkscape:connector-curvature="0" />
      <path
         id="path4596"
         transform="scale(0.9375)"
         d="m 352.9082,339.6875 c -1.31766,0.002 -2.63545,0.006 -3.95312,0.002 -0.2526,-7.5e-4 -0.50522,10e-4 -0.75781,0 -0.29087,0.30928 -0.50693,0.68599 -0.66211,1.10743 -0.15519,0.42143 -0.24961,0.88656 -0.29688,1.36914 -0.0945,0.96518 -7e-4,2.00271 0.16992,2.90625 0.066,0.78281 0.0445,1.64521 0.11328,2.46679 0.0171,0.20537 0.0391,0.40721 0.0703,0.60547 0.005,0.0348 0.0155,0.067 0.0215,0.10156 0.0847,0.4853 0.23142,0.93618 0.4668,1.33399 0.0341,0.0576 0.0593,0.12067 0.0976,0.17578 0.0291,0.026 0.0604,0.047 0.0899,0.0723 0.18416,0.15788 0.37191,0.30698 0.5664,0.44141 10e-4,8.3e-4 0.003,0.001 0.004,0.002 0.22426,0.15483 0.45372,0.29847 0.68555,0.43555 0.34955,0.20669 0.70348,0.40318 1.05273,0.59961 0.89568,0.44942 1.81432,0.78506 2.72852,1.14258 -0.31619,-0.70467 -0.54857,-1.42719 -0.50977,-2.2207 0.46986,-2.71304 1.19347,-5.44536 0.8125,-8.19532 -0.33501,-0.76586 -0.55014,-1.55053 -0.69922,-2.3457 z"
         style="fill:#6b3d1c;fill-opacity:0.20784314;stroke:none;stroke-width:0.59837866px;stroke-linecap:butt;stroke-linejoin:miter;stroke-opacity:1"
         inkscape:connector-curvature="0" />
    </g>
  </g>
</svg>
