<?xml version="1.0" encoding="UTF-8" standalone="no"?>
<!-- Created with Inkscape (http://www.inkscape.org/) -->

<svg
   xmlns:dc="http://purl.org/dc/elements/1.1/"
   xmlns:cc="http://creativecommons.org/ns#"
   xmlns:rdf="http://www.w3.org/1999/02/22-rdf-syntax-ns#"
   xmlns:svg="http://www.w3.org/2000/svg"
   xmlns="http://www.w3.org/2000/svg"
   xmlns:sodipodi="http://sodipodi.sourceforge.net/DTD/sodipodi-0.dtd"
   xmlns:inkscape="http://www.inkscape.org/namespaces/inkscape"
   width="210mm"
   height="297mm"
   viewBox="0 0 744.09448819 1052.3622047"
   id="svg2"
   version="1.1"
   inkscape:version="0.92.1 r15371"
   sodipodi:docname="people.svg">
  <defs
     id="defs4">
    <filter
       height="1.0280505"
       y="-0.014025245"
       width="1.0209717"
       x="-0.010485844"
       id="filter4664"
       style="color-interpolation-filters:sRGB"
       inkscape:collect="always">
      <feGaussianBlur
         id="feGaussianBlur4666"
         stdDeviation="1.8901471"
         inkscape:collect="always" />
    </filter>
    <filter
       height="2.0822738"
       y="-0.5411369"
       width="1.2206249"
       x="-0.11031244"
       id="filter4755"
       style="color-interpolation-filters:sRGB"
       inkscape:collect="always">
      <feGaussianBlur
         id="feGaussianBlur4757"
         stdDeviation="3.1681996"
         inkscape:collect="always" />
    </filter>
    <filter
       height="1.1531235"
       y="-0.076561726"
       width="1.0470652"
       x="-0.023532624"
       id="filter4809"
       style="color-interpolation-filters:sRGB"
       inkscape:collect="always">
      <feGaussianBlur
         id="feGaussianBlur4811"
         stdDeviation="1.2331252"
         inkscape:collect="always" />
    </filter>
    <filter
       height="1.9277154"
       y="-0.46385769"
       width="1.2593875"
       x="-0.12969377"
       id="filter6866"
       style="color-interpolation-filters:sRGB"
       inkscape:collect="always">
      <feGaussianBlur
         id="feGaussianBlur6868"
         stdDeviation="4.7091193"
         inkscape:collect="always" />
    </filter>
    <filter
       height="1.8402795"
       y="-0.42013973"
       width="1.1340525"
       x="-0.067026273"
       id="filter6870"
       style="color-interpolation-filters:sRGB"
       inkscape:collect="always">
      <feGaussianBlur
         id="feGaussianBlur6872"
         stdDeviation="4.7091193"
         inkscape:collect="always" />
    </filter>
    <filter
       height="1.2823348"
       y="-0.1411674"
       width="1.5503528"
       x="-0.27517642"
       id="filter6874"
       style="color-interpolation-filters:sRGB"
       inkscape:collect="always">
      <feGaussianBlur
         id="feGaussianBlur6876"
         stdDeviation="4.7091193"
         inkscape:collect="always" />
    </filter>
    <filter
       height="1.3570858"
       y="-0.17854292"
       width="1.1248335"
       x="-0.062416731"
       id="filter6878"
       style="color-interpolation-filters:sRGB"
       inkscape:collect="always">
      <feGaussianBlur
         id="feGaussianBlur6880"
         stdDeviation="4.7091193"
         inkscape:collect="always" />
    </filter>
  </defs>
  <sodipodi:namedview
     id="base"
     pagecolor="#ffffff"
     bordercolor="#666666"
     borderopacity="1.0"
     inkscape:pageopacity="0.0"
     inkscape:pageshadow="2"
     inkscape:zoom="2.8"
     inkscape:cx="170.93132"
     inkscape:cy="789.35812"
     inkscape:document-units="px"
     inkscape:current-layer="layer2"
     showgrid="false"
     inkscape:window-width="2560"
     inkscape:window-height="1016"
     inkscape:window-x="0"
     inkscape:window-y="27"
     inkscape:window-maximized="1" />
  <metadata
     id="metadata7">
    <rdf:RDF>
      <cc:Work
         rdf:about="">
        <dc:format>image/svg+xml</dc:format>
        <dc:type
           rdf:resource="http://purl.org/dc/dcmitype/StillImage" />
        <dc:title />
      </cc:Work>
    </rdf:RDF>
  </metadata>
  <g
     inkscape:groupmode="layer"
     id="layer2"
     inkscape:label="Repères"
     style="display:inline">
    <g
       id="g4792"
       transform="translate(-13.94761,194.38097)">
      <g
         transform="translate(4.1592743,-198.92088)"
         style="display:none"
         inkscape:label="Repère"
         id="layer2-3">
        <path
           transform="rotate(30.000002,185.1914,381.7103)"
           d="m 238.99108,475.56103 -144.631833,-1e-5 -72.315912,-125.25484 72.315924,-125.25484 144.631831,0 72.31592,125.25485 z"
           inkscape:randomized="0"
           inkscape:rounded="0"
           inkscape:flatsided="true"
           sodipodi:arg2="1.5707964"
           sodipodi:arg1="1.0471976"
           sodipodi:r2="125.25484"
           sodipodi:r1="144.63184"
           sodipodi:cy="350.30618"
           sodipodi:cx="166.67517"
           sodipodi:sides="6"
           id="path4136"
           style="opacity:1;fill:#003880;fill-opacity:0.11440681;stroke:none;stroke-width:1;stroke-linecap:round;stroke-linejoin:round;stroke-miterlimit:4;stroke-dasharray:none;stroke-dashoffset:0;stroke-opacity:1"
           sodipodi:type="star" />
      </g>
      <g
         transform="translate(4.1592743,-198.92088)"
         id="layer1-5"
         inkscape:label="Calque 1">
        <path
           inkscape:connector-curvature="0"
           id="path4140"
           d="m 307.95058,273.46261 -2.6e-4,71.2778 61.27868,-35.37998 9e-5,71.19907 61.72825,-35.63913 -61.66034,-35.59961 0.38157,-0.21948 z m -0.25032,0.42156 -61.36659,35.43069 -0.39918,-0.23047 -2.7e-4,71.2778 61.36661,-35.4307 0.32644,0.18848 -0.77405,0.44619 61.72967,35.63965 -0.001,-71.27878 -60.88156,35.14917 3.5e-4,-71.19203 z m -125.35417,-70.16537 -7.8e-4,68.23965 -60.25981,-34.79102 -7.6e-4,71.2279 -0.0989,0.0579 -2.6e-4,-71.05032 -61.728252,35.63912 61.531782,35.52539 -0.12509,0.0721 60.92963,35.17774 -6e-4,2.47369 1.91075,-1.10249 61.3305,35.40918 2.6e-4,-71.27779 -1.91075,1.10248 -0.002,-10e-4 5.7e-4,-70.86038 -60.53253,34.94699 7.8e-4,-0.11456 60.68482,-35.03498 -61.72968,-35.63965 z m -121.996094,-2.29812 -2.58e-4,71.27779 61.728252,-35.63912 z m 248.841254,215.79901 -61.72825,35.63913 61.72799,35.63867 z m -63.59621,-36.09032 1.2e-4,0.1444 -61.53347,-35.52637 -2.7e-4,71.27781 61.53321,-35.52396 2.1e-4,0.11283 -61.68646,35.61363 61.72967,35.63965 2.3e-4,-0.48475 61.68478,-35.61461 -61.72799,-35.63868 z m -61.81433,-34.03992 -61.3666,35.43069 -0.39918,-0.23046 -7.7e-4,71.22789 -0.0988,0.058 7e-4,-71.05201 -61.728248,35.63912 61.533478,35.52637 -0.12774,0.0729 0.92691,0.53515 4.9e-4,70.56556 61.72826,-35.63912 -0.92693,-0.53516 -0.002,-70.51663 0.0607,-0.0348 0.39918,0.23046 2.5e-4,-71.27779 z m -123.863917,-0.93406 -3.5e-4,2.3092 -61.5759672,35.55115 61.7279902,35.63867 3.5e-4,-2.3092 61.575974,-35.55114 z"
           style="opacity:1;fill:#9bad59;fill-opacity:1;stroke:#9eb05e;stroke-width:5;stroke-linecap:round;stroke-linejoin:round;stroke-miterlimit:4;stroke-dasharray:none;stroke-dashoffset:0;stroke-opacity:1;filter:url(#filter4664)" />
      </g>
      <g
         inkscape:label="Décor"
         id="layer4">
        <path
           inkscape:connector-curvature="0"
           id="path4677"
           d="m 138.21429,308.79871 c 0.47619,0.11905 0.94725,0.26088 1.42857,0.35715 0.11673,0.0233 0.23809,0 0.35714,0 0.2381,0 0.47619,0 0.71429,0 0.35714,0 0.71428,0 1.07142,0 0.11905,0 0.24165,0.0289 0.35715,0 1.21936,-0.30485 2.02804,-0.83545 3.21428,-1.42858 3.33217,-1.66608 0.96397,-0.4135 3.92857,-2.14285 0.82905,-0.48362 1.67096,-0.94496 2.5,-1.42857 0.59961,-0.34977 1.2669,-0.61026 1.78572,-1.07143 0.56973,-0.50643 0.88956,-1.24671 1.42857,-1.78572 0.53901,-0.53901 1.2467,-0.88956 1.78571,-1.42857 0.53902,-0.53901 0.88956,-1.2467 1.42858,-1.78571 0.53901,-0.53901 1.27928,-0.85884 1.78571,-1.42857 0.46118,-0.51883 0.64526,-1.23778 1.07143,-1.78572 0.41345,-0.53158 0.95238,-0.95238 1.42857,-1.42857 0.71429,-0.71429 1.50319,-1.36104 2.14286,-2.14286 0.96321,-1.17726 0.88984,-1.81196 1.78571,-2.85714 0.43827,-0.51131 0.95238,-0.95238 1.42857,-1.42857 0.35715,-0.35714 0.71429,-0.71429 1.07143,-1.07143 0.35714,-0.35714 0.76838,-0.66737 1.07143,-1.07143 0.4165,-0.55533 0.61025,-1.26689 1.07143,-1.78571 0.50643,-0.56974 1.27928,-0.85884 1.78571,-1.42858 1.61314,-1.81477 0.6986,-1.38934 1.42857,-3.21428 0.71964,-1.7991 1.23618,-2.29655 2.14286,-3.92857 0.25856,-0.4654 0.54593,-0.9235 0.71429,-1.42857 0.19196,-0.57588 0.29011,-1.1824 0.35714,-1.78572 0.0526,-0.47328 0,-0.95238 0,-1.42857 0,-0.23809 0,-0.47619 0,-0.71429 0,-1.90476 0,-3.80952 0,-5.71428 0,-5.59524 0,-11.19048 0,-16.78572 0,-3.21428 0,-6.42857 0,-9.64285 0,-0.83334 0,-1.66667 0,-2.5 0,-0.2381 0,-0.47619 0,-0.71429 0,-0.11905 -0.066,-0.25809 0,-0.35714 0.96682,-1.45024 0.71429,0.13517 0.71429,-1.78572 0,-0.35714 -0.11294,-0.73261 0,-1.07142 0.0376,-0.11294 0.23809,0 0.35714,0 0,-0.11905 0,-0.2381 0,-0.35715 0,-0.23809 0,-0.47619 0,-0.71428 0,-0.11905 -0.10648,-0.30391 0,-0.35715 0.21296,-0.10647 0.47619,0 0.71428,0"
           style="fill:none;fill-rule:evenodd;stroke:#9e7e00;stroke-width:3.00000024;stroke-linecap:butt;stroke-linejoin:miter;stroke-miterlimit:4;stroke-dasharray:none;stroke-opacity:0.24152545;filter:url(#filter6874)" />
        <path
           inkscape:connector-curvature="0"
           id="path4679"
           d="m 96.785714,211.29871 c 0.476191,0 0.952381,0 1.428572,0 0.836171,0 1.24393,0.0577 2.142854,-0.35714 1.11286,-0.51363 2.18525,-1.11987 3.21429,-1.78572 1.82421,-1.18037 3.71511,-2.86261 5.35714,-4.28571 0.95632,-0.82881 1.90823,-1.66272 2.85714,-2.5 1.07491,-0.94845 2.06022,-2.00678 3.21429,-2.85714 0.72745,-0.53602 7.44959,-4.37116 7.85714,-4.64286 1.48581,-0.99054 2.81752,-2.19784 4.28572,-3.21429 5.9373,-4.11044 3.92395,-2.08809 9.28571,-6.42857 13.14287,-10.63946 -7.0968,5.31836 6.42857,-6.07143 1.11154,-0.93603 2.45508,-1.5697 3.57143,-2.5 3.8944,-3.24533 1.71593,-2.60629 6.07143,-5.35714 1.12534,-0.71074 2.41955,-1.11884 3.57143,-1.78571 1.11441,-0.64519 2.08863,-1.5175 3.21428,-2.14286 1.02494,-0.56941 2.20889,-0.82533 3.21429,-1.42857 0.79729,-0.47837 1.39902,-1.22784 2.14286,-1.78572 1.38419,-1.03814 2.69891,-1.81994 4.28571,-2.5 3.64594,-1.56254 1.89848,-0.63282 5.35714,-1.78571 1.58363,-0.52787 3.53436,-1.26347 5,-2.14286 0.51042,-0.30624 0.91442,-0.7715 1.42858,-1.07143 0.91974,-0.53651 1.90476,-0.95238 2.85714,-1.42857 0.71428,-0.35714 1.41776,-0.73677 2.14286,-1.07143 0.82319,-0.37993 1.70002,-0.64477 2.5,-1.07142 0.99096,-0.52852 1.86617,-1.2572 2.85714,-1.78572 5.02734,-2.68125 -0.13544,0.60344 5.35714,-2.14286 0.5324,-0.26619 0.86388,-0.88319 1.42857,-1.07142 0.5647,-0.18823 1.19048,0 1.78572,0 0.35714,0 0.71428,0 1.07143,0 0.47619,0 0.95238,0 1.42857,0 0.59524,0 1.19411,-0.0657 1.78571,0 0.48785,0.0542 0.94726,0.26088 1.42857,0.35714 1.30515,0.26103 2.64614,0.35805 3.92857,0.71428 0.87357,0.24266 1.62398,0.83783 2.5,1.07143 0.92739,0.24731 1.91866,0.15604 2.85715,0.35715 1.66216,0.35617 3.06535,1.19415 4.64285,1.78571 1.05748,0.39655 2.14929,0.69555 3.21429,1.07143 0.95916,0.33852 1.90124,0.72383 2.85714,1.07143 0.3538,0.12865 0.73471,0.18878 1.07143,0.35714 1.6657,0.83285 0.56314,0.60093 2.14286,1.78571 0.0952,0.0714 0.23809,0 0.35714,0 0.2381,0.11905 0.52606,0.16892 0.71429,0.35715 0.18823,0.18823 0.16891,0.52605 0.35714,0.71428 0.18823,0.18823 0.48602,0.22019 0.71429,0.35715 0.35714,0.23809 0.71428,0.47619 1.07142,0.71428 0.11905,0.11905 0.21706,0.26376 0.35715,0.35714 0.57757,0.38506 1.23038,0.65494 1.78571,1.07143 0.40406,0.30305 0.68342,0.74809 1.07143,1.07143 0.32975,0.27479 0.72804,0.45675 1.07143,0.71429 0.13469,0.10101 0.19742,0.3039 0.35714,0.35714 0.22588,0.0753 0.54593,-0.16836 0.71429,0 0.16836,0.16836 -0.10648,0.50133 0,0.71429 0.0532,0.10648 0.2442,-0.0377 0.35714,0 0.25254,0.0842 0.50642,0.19085 0.71429,0.35714 1.31643,1.05314 0.7009,1.06474 2.14285,1.78571 0.33672,0.16836 0.77026,0.13127 1.07143,0.35715 0.21296,0.15972 0.14419,0.55456 0.35714,0.71428 0.30117,0.22588 0.73472,0.18879 1.07143,0.35714 0.38392,0.19196 0.66423,0.57856 1.07143,0.71429 0.33882,0.11294 0.71429,0 1.07143,0 0.59524,0 1.19048,0 1.78571,0 1.07143,0 2.14286,0 3.21429,0 0.35714,0 0.71915,0.0587 1.07143,0 0.94158,-0.15693 1.63262,-0.71002 2.5,-1.07143 0.9389,-0.39121 1.94738,-0.61655 2.85714,-1.07143 0.5324,-0.2662 0.93331,-0.74125 1.42857,-1.07143 0.57758,-0.38505 1.20814,-0.68637 1.78572,-1.07142 0.94049,-0.627 -0.4964,-0.34957 1.42857,-1.07143 0.56838,-0.21314 1.18337,-0.28185 1.78571,-0.35715 0.35439,-0.0443 0.75199,0.15972 1.07143,0 0.2381,-0.11904 0.11905,-0.59523 0.35714,-0.71428 0.54295,-0.27147 1.24278,-0.0857 1.78572,-0.35714 0.23809,-0.11905 0.14418,-0.55457 0.35714,-0.71429 0.30117,-0.22588 0.71894,-0.22496 1.07143,-0.35714 0.60027,-0.2251 1.16377,-0.5588 1.78571,-0.71429 0.34648,-0.0866 0.71429,0 1.07143,0 0.11905,0 0.24165,0.0289 0.35715,0 0.36522,-0.0913 0.70009,-0.29525 1.07142,-0.35714 0.35229,-0.0587 0.71429,0 1.07143,0 0.2381,0 0.47619,0 0.71429,0 0.71428,0 1.42857,0 2.14286,0 0.11904,0 0.25809,0.066 0.35714,0 0.28016,-0.18678 0.47619,-0.47619 0.71428,-0.71429 0.11905,-0.11904 0.19743,-0.3039 0.35715,-0.35714 0.22587,-0.0753 0.47619,0 0.71428,0"
           style="fill:none;fill-rule:evenodd;stroke:#9e7e00;stroke-width:3.00000024;stroke-linecap:butt;stroke-linejoin:miter;stroke-miterlimit:4;stroke-dasharray:none;stroke-opacity:0.24152545;filter:url(#filter6878)" />
        <path
           inkscape:connector-curvature="0"
           id="path4681"
           d="m 29.285714,177.72728 c 0.474358,-0.79243 1.548536,0.39622 2.142857,0 0.221491,-0.14766 0.152644,-0.54387 0.357143,-0.71428 3.129933,-2.60828 0.573241,-0.12349 2.857143,-1.42857 0.516812,-0.29532 0.933304,-0.74125 1.428572,-1.07143 0.577576,-0.38505 1.208137,-0.68638 1.785714,-1.07143 2.098335,-1.39889 1.086998,-1.05028 3.571428,-2.85714 0.561393,-0.40829 1.237777,-0.64526 1.785715,-1.07143 0.531577,-0.41345 0.876872,-1.04238 1.428571,-1.42857 0.654235,-0.45797 1.441774,-0.68902 2.142857,-1.07143 0.609401,-0.3324 1.208138,-0.68638 1.785715,-1.07143 0.495268,-0.33018 0.896174,-0.80523 1.428571,-1.07143 3.163872,-1.58194 1.066338,-0.35629 3.214286,-0.71429 0.371339,-0.0619 0.697874,-0.31044 1.071428,-0.35714 0.70877,-0.0886 1.428572,0 2.142858,0 0.357142,0 0.719145,-0.0587 1.071428,0 0.37134,0.0619 0.703932,0.27548 1.071429,0.35714 3.863906,0.85865 0.468322,-0.28657 5.357143,1.07143 1.088182,0.30228 2.106832,0.84994 3.214285,1.07143 1.289389,0.25788 2.656229,0.0252 3.928572,0.35714 1.497503,0.39066 2.831272,1.25683 4.285714,1.78572 1.675662,0.60933 5.862512,1.675 7.5,2.14286 1.195072,0.34145 2.343744,0.87758 3.571429,1.07142 1.058317,0.16711 2.14558,-0.0763 3.214285,0 2.952441,0.21089 0.678444,0.52975 3.928572,1.07143 0.704567,0.11743 1.428571,0 2.142857,0 0.119047,0 0.244204,-0.0376 0.357143,0 0.252538,0.0842 0.461747,0.27297 0.714285,0.35715 0.112939,0.0376 0.238096,0 0.357143,0 0.357143,0 0.714286,0 1.071429,0"
           style="fill:none;fill-rule:evenodd;stroke:#806600;stroke-width:3.00000024;stroke-linecap:butt;stroke-linejoin:miter;stroke-miterlimit:4;stroke-dasharray:none;stroke-opacity:0.24152545;filter:url(#filter4755)" />
        <path
           inkscape:connector-curvature="0"
           id="path4683"
           d="m 74.285714,64.870145 c 0.811757,-0.217906 1.68285,0.16343 2.5,0 0.26103,-0.05221 0.476191,-0.238095 0.714286,-0.357142 0.476191,-0.238096 0.963173,-0.455731 1.428572,-0.714286 0.606805,-0.337115 1.151382,-0.789503 1.785714,-1.071429 0.448541,-0.199351 0.980031,-0.157791 1.428571,-0.357143 0.634333,-0.281925 1.153774,-0.784182 1.785715,-1.071428 1.634078,-0.742763 2.047669,-0.614301 3.571428,-1.071429 0.72117,-0.216351 1.412414,-0.531675 2.142857,-0.714285 0.702518,-0.17563 1.434793,-0.205415 2.142857,-0.357143 0.959901,-0.205693 1.882175,-0.599584 2.857143,-0.714286 1.06409,-0.125187 2.142857,0 3.214286,0 1.428571,0 2.857147,0 4.285717,0 1.90476,0 3.80952,0 5.71428,0 0.59524,0 1.19292,-0.05389 1.78572,0 1.27812,0.116193 4.89026,0.953711 5.71428,1.071429 1.30171,0.185958 2.63687,0.111104 3.92857,0.357142 1.89235,0.360447 4.90102,1.619331 6.78572,2.142858 1.05752,0.293756 2.17929,0.348994 3.21428,0.714285 1.0041,0.354385 1.90477,0.952381 2.85715,1.428572 3.1388,1.569403 3.35103,1.831295 6.42857,2.857143 1.17911,0.393037 2.38704,0.694578 3.57143,1.071428 1.43496,0.456578 2.8378,1.014884 4.28571,1.428572 1.05534,0.301524 2.16132,0.404589 3.21429,0.714285 1.91489,0.563203 3.51881,1.407525 5.35714,2.142857 0.94439,0.377758 1.91275,0.693671 2.85714,1.071429 0.8418,0.336717 1.63346,0.804799 2.5,1.071429 0.69212,0.212958 1.46232,0.109673 2.14286,0.357142 0.65237,0.237225 1.15377,0.784183 1.78571,1.071429 0.68544,0.311562 1.48469,0.348634 2.14286,0.714286 0.44152,0.245286 0.65118,0.791262 1.07143,1.071428 0.66447,0.442981 1.43972,0.692815 2.14286,1.071429 0.84507,0.455037 1.63025,1.022689 2.5,1.428571 0.92172,0.430135 1.92224,0.670756 2.85714,1.071429 0.73403,0.314582 1.42857,0.714286 2.14286,1.071428 0.47619,0.238096 0.91666,0.568025 1.42857,0.714286 2.03107,0 0.23513,-0.159719 1.78571,0.357143 0.11294,0.03765 0.25809,-0.06604 0.35715,0 0.28016,0.186777 0.41311,0.563701 0.71428,0.714286 0.43903,0.219513 0.94073,0.302938 1.42857,0.357143 0.5916,0.06573 1.19048,0 1.78572,0 0.11905,0 0.25809,-0.06604 0.35714,0 0.28017,0.186777 0.40165,0.589232 0.71429,0.714285 0.33159,0.13264 0.71428,0 1.07142,0 0.4762,0 0.95239,0 1.42858,0 1.30952,0 2.61904,0 3.92857,0 0.11905,0 0.23809,0 0.35714,0 0.35714,0 0.72122,0.07004 1.07143,0 0.26103,-0.05221 0.45171,-0.31338 0.71428,-0.357143 0.46972,-0.07828 0.95239,0 1.42858,0 0.23809,0 0.47619,0 0.71428,0 0.35714,0 0.75199,0.15972 1.07143,0 0.2381,-0.119047 0.10461,-0.630106 0.35714,-0.714285 0.5647,-0.188231 1.19858,0.09786 1.78572,0 0.16607,-0.02768 0.19047,-0.333334 0.35714,-0.357143 0.70711,-0.101015 1.42857,0 2.14286,0 0.35714,0 0.71428,0 1.07143,0 0.23809,0 0.47619,0 0.71428,0 0.35714,0 0.75199,0.159719 1.07143,0 0.2381,-0.119048 0.10461,-0.630107 0.35714,-0.714286 0.5647,-0.188231 1.19858,0.09786 1.78572,0 0.16607,-0.02768 0.20656,-0.28185 0.35714,-0.357143 0.57341,-0.286704 1.16376,-0.558798 1.78571,-0.714285 0.69296,-0.17324 1.4499,0.173239 2.14286,0 0.16333,-0.04083 0.20656,-0.281851 0.35714,-0.357143 0.57341,-0.286705 1.17753,-0.511555 1.78572,-0.714286 1.61816,-0.539387 1.53753,-0.1399 3.21428,-1.071429 3.45437,-2.590772 -0.22686,-0.06514 2.5,-1.428571 0.38392,-0.191959 0.66953,-0.563572 1.07143,-0.714286 0.56838,-0.213141 1.24278,-0.08567 1.78572,-0.357143 0.45175,-0.225877 0.68794,-0.742729 1.07143,-1.071428 0.45193,-0.387376 0.9442,-0.725454 1.42857,-1.071429 0.34928,-0.249486 0.76791,-0.410772 1.07143,-0.714285 0.30351,-0.303514 0.35714,-0.833334 0.71428,-1.071429 0.40841,-0.272272 1.0024,-0.113615 1.42857,-0.357143 0.43853,-0.250588 0.71429,-0.714286 1.07143,-1.071428 0.35714,-0.357143 0.71429,-0.714286 1.07143,-1.071429 0.35714,-0.357143 0.76838,-0.667368 1.07143,-1.071429 0.4165,-0.555328 0.70352,-1.197067 1.07143,-1.785714 0.22749,-0.363988 0.52232,-0.687511 0.71428,-1.071428 0.16836,-0.336718 0.13127,-0.77026 0.35715,-1.071429 0.15972,-0.212959 0.52605,-0.168912 0.71428,-0.357143 0.18823,-0.188231 0.16891,-0.526055 0.35714,-0.714286 0.18824,-0.18823 0.48603,-0.220184 0.71429,-0.357142 0.36806,-0.220839 0.74168,-0.439498 1.07143,-0.714286 0.38801,-0.323342 0.71428,-0.714286 1.07143,-1.071429 0.11905,-0.119047 0.22245,-0.256127 0.35714,-0.357143 0.34339,-0.257539 0.68751,-0.522327 1.07143,-0.714285 0.33672,-0.168359 0.73471,-0.188784 1.07143,-0.357143 0.38391,-0.191959 0.67289,-0.554873 1.07143,-0.714286 0.22106,-0.08843 0.4884,0.07529 0.71428,0 0.15972,-0.05324 0.19743,-0.303903 0.35714,-0.357143 0.22588,-0.07529 0.4762,0 0.71429,0 0.11905,0 0.3039,0.10648 0.35714,0 0.10648,-0.212959 0,-0.47619 0,-0.714285"
           style="fill:none;fill-rule:evenodd;stroke:#9e7e00;stroke-width:3.00000024;stroke-linecap:butt;stroke-linejoin:miter;stroke-miterlimit:4;stroke-dasharray:none;stroke-opacity:0.24152545;filter:url(#filter6870)" />
        <path
           inkscape:connector-curvature="0"
           id="path4685"
           d="m 325,131.29871 c 1.09863,-0.9764 2.39964,-1.62115 3.57143,-2.5 0.74383,-0.55787 1.33557,-1.32441 2.14286,-1.78571 3.30055,-1.23771 2.40361,-0.72789 5.35714,-2.5 7.7366,-4.64196 -1.13547,0.44657 5,-2.85715 2.38969,-1.28675 2.18881,-1.52934 4.64286,-2.14285 0.70251,-0.17563 1.42122,-0.29701 2.14285,-0.35715 0.71182,-0.0593 1.42857,0 2.14286,0 0.59524,0 1.19048,0 1.78571,0 0.71429,0 1.42858,0 2.14286,0 0.11905,0 0.2381,0 0.35714,0 0.2381,0 0.47943,-0.0391 0.71429,0 0.48417,0.0807 0.97044,0.18094 1.42857,0.35715 1.09433,0.42089 2.14508,0.94742 3.21429,1.42857 1.31176,0.59029 2.58435,1.27363 3.92857,1.78571 1.6798,1.38147 3.85166,0.8077 5.71428,1.42857 1.70532,0.56844 2.37808,1.36761 3.92858,2.14286 3.11464,1.55732 1.79423,0.51507 4.64285,2.14286 5.57012,3.18292 0.25909,0.46918 5.35715,3.21428 0.70314,0.37862 1.46565,0.64818 2.14285,1.07143 0.28554,0.17846 0.42556,0.54105 0.71429,0.71429 0.32281,0.19369 0.74457,0.17036 1.07143,0.35714 2.46221,1.40698 0.47346,0.62295 2.5,2.14286 0.55533,0.4165 1.17631,0.73903 1.78571,1.07143 4.47642,2.44168 -0.3198,-0.33848 4.64286,2.14285 0.62088,0.31044 1.12717,0.85192 1.78571,1.07143 0.45176,0.15059 0.95238,0 1.42857,0 0.35715,0 0.73262,-0.11294 1.07143,0 0.40721,0.13574 0.66953,0.56358 1.07143,0.71429 0.56838,0.21314 1.20984,0.16518 1.78572,0.35714 2.94343,1.47172 0.0943,0.31333 2.5,0.71429 4.59351,0.76558 -2.79332,-0.16262 2.14285,1.07143 0.57747,0.14436 1.19858,-0.0979 1.78572,0 0.16607,0.0277 0.19381,0.31631 0.35714,0.35714 0.34648,0.0866 0.71429,0 1.07143,0 0.23809,0 0.47619,0 0.71428,0 0.11905,0 0.35715,-0.11905 0.35715,0 0,0.11905 -0.2381,0 -0.35715,0"
           style="fill:none;fill-rule:evenodd;stroke:#9e7e00;stroke-width:3.00000024;stroke-linecap:butt;stroke-linejoin:miter;stroke-miterlimit:4;stroke-dasharray:none;stroke-opacity:0.24152545;filter:url(#filter6866)" />
        <g
           transform="matrix(0.72987206,0,0,0.72987206,23.472933,49.657717)"
           id="g4668">
          <path
             style="fill:#859a2d;fill-opacity:1;fill-rule:evenodd;stroke:none;stroke-width:1px;stroke-linecap:butt;stroke-linejoin:miter;stroke-opacity:1"
             d="m 76.771608,199.7482 c -2.34294,-1.03498 -2.35824,-3.81914 -2.92576,-5.89797 -1.05654,-4.44839 -3.51293,-8.39997 -5.4112,-12.53496 -0.55633,-2.3712 2.58525,-1.21417 3.31722,-0.053 1.94217,1.30498 4.26754,1.92946 6.24478,3.17585 2.58863,-0.32746 1.5033,-3.58498 2.84333,-5.04063 1.34335,-2.97677 2.63522,-6.14448 5.20452,-8.35938 2.628342,-0.42513 0.751076,3.35252 0.709939,4.77405 -0.652129,2.55993 -1.105049,5.1817 -0.996549,7.82276 -0.13539,2.78851 -0.004,5.79259 -1.66882,8.22557 -0.66724,1.32431 -2.74493,3.4825 -1.88581,4.54817 1.60998,-1.37989 3.06312,-2.95456 4.555057,-4.46176 1.493784,-1.67925 2.402963,-3.77781 4.258174,-5.15279 1.730953,-1.60926 3.852807,-2.8328 6.197542,-3.3703 3.532769,-1.41532 6.768329,-3.46918 10.409969,-4.6401 2.23782,1.36401 -0.75261,3.41868 -1.36865,4.90142 -1.81798,2.83149 -4.19724,5.28429 -6.00559,8.12143 -2.712736,3.18796 -7.645183,2.86334 -10.62778,5.69191 -0.974151,0.10242 -2.591574,1.18857 -0.623662,0.71985 1.621461,-0.61383 5.131286,-0.82666 4.468375,1.76004 -0.630377,2.54438 -3.913846,3.17242 -6.014061,1.938 -3.840344,-1.18289 -7.518424,-3.21849 -11.610984,-3.38851 -0.20848,0.0456 -0.41128,0.12431 -0.58532,0.24568"
             id="path4458"
             inkscape:connector-curvature="0" />
          <path
             style="fill:#859a2d;fill-opacity:1;fill-rule:evenodd;stroke:none;stroke-width:1px;stroke-linecap:butt;stroke-linejoin:miter;stroke-opacity:1"
             d="m 78.034298,195.84937 c 0.0842,-0.32491 0.218,-0.64146 0.25254,-0.97471 0.0503,-0.48493 0,-0.9747 0,-1.46206 0,-0.24368 0,-0.48736 0,-0.73103 0,-0.24368 -0.0415,-0.49068 0,-0.73104 0.0438,-0.25336 0.22844,-0.47522 0.25254,-0.73102 0.061,-0.64714 0,-1.29961 0,-1.94943 0,-0.24367 0,-0.48735 0,-0.73102 0,-1.46207 0,-2.92413 0,-4.3862 0,-0.81225 0,-1.62451 0,-2.43677 0,-0.24368 0.0415,-0.49066 0,-0.73103 -0.0438,-0.25336 -0.21952,-0.47616 -0.25254,-0.73103 -0.0522,-0.403 0,-0.81226 0,-1.21839 0,-0.24368 0.0357,-0.4898 0,-0.73102 -0.0491,-0.33155 -0.22372,-0.64098 -0.25254,-0.97472 -0.0559,-0.64756 0.12047,-1.31009 0,-1.94941 -0.0543,-0.28815 -0.41786,-0.45052 -0.50507,-0.73104 -1.43768,-4.62411 0.69247,0.93556 -0.25254,-3.1678 -0.0658,-0.28589 -0.43147,-0.44692 -0.50508,-0.73104 -0.10208,-0.394 0,-0.81225 0,-1.21838 0,-0.0813 0,-0.16245 0,-0.24368 0,-0.24367 0.0495,-0.49209 0,-0.73103 -0.0369,-0.1781 -0.16836,-0.3249 -0.25254,-0.48736 -0.16836,-0.32489 -0.3969,-0.62676 -0.50507,-0.9747 -0.14714,-0.47324 -0.20618,-0.97002 -0.25254,-1.46207 0,-0.40612 0,-0.81225 0,-1.21838 -0.16836,-0.0813 -0.4209,-0.0813 -0.50508,-0.24368 -0.11294,-0.21795 0,-0.48735 0,-0.73103 0,-0.24368 0.0495,-0.49208 0,-0.73104 -0.0369,-0.17809 -0.16836,-0.32489 -0.25254,-0.48734 -0.16835,-0.32491 -0.40165,-0.62544 -0.50507,-0.97471 -0.0694,-0.23431 0.0799,-0.49986 0,-0.73104 -0.0266,-0.0771 -0.21489,0.0727 -0.25254,0 -0.0753,-0.14529 0,-0.3249 0,-0.48735 0,-0.0813 0,-0.16245 0,-0.24367 0,-0.16246 0.11905,-0.37249 0,-0.48736 -0.11905,-0.11488 -0.35449,0.0727 -0.50508,0 -0.0753,-0.0364 -0.0595,-0.18624 0,-0.24368 0.0595,-0.0574 0.19302,-0.0574 0.25254,0 0.0595,0.0574 -0.0753,0.20735 0,0.24368 0.15059,0.0727 0.33672,0 0.50508,0 0.0842,0 0.19301,-0.0574 0.25254,0 0.0595,0.0574 -0.0753,0.20735 0,0.24368 1.34687,0.6498 -0.16836,-0.81227 0.50507,0.48735 0.0376,0.0727 0.16836,0 0.25254,0 0.16836,0 0.35449,-0.0727 0.50508,0 0.0753,0.0363 -0.0595,0.18624 0,0.24367 0.0595,0.0574 0.18249,-0.0451 0.25253,0 0.19811,0.12744 0.33672,0.32491 0.50508,0.48736 0.0842,0.0813 0.21489,0.1347 0.25254,0.24368 0.0532,0.15412 0,0.3249 0,0.48735 0,0.0812 -0.0467,0.1761 0,0.24368 0.13207,0.19116 0.42978,0.2694 0.50508,0.48736 0.10647,0.30823 -0.0476,0.65307 0,0.9747 0.0376,0.25428 0.16835,0.48736 0.25253,0.73103 1.5263,4.41823 -0.31323,-1.10822 0.75762,2.68045 0.12492,0.44197 0.69533,1.83583 0.75761,2.43678 0.0503,0.48494 -0.1225,0.98926 0,1.46206 0.0577,0.22288 0.44733,0.26447 0.50508,0.48735 0.1225,0.47281 -0.0558,0.97769 0,1.46207 0.082,0.71195 0.54305,1.01563 0.75761,1.70574 0.14714,0.47324 0.14525,0.97895 0.25254,1.46207 0.14545,0.65493 0.33672,1.29961 0.50508,1.94941 0.0842,0.3249 0.21421,0.64186 0.25254,0.97471 0.0465,0.40365 -0.10209,0.82438 0,1.21838 0.0736,0.28412 0.40909,0.4532 0.50507,0.73104 0.0799,0.23117 0,0.48735 0,0.73102 0,0.24368 0,0.48736 0,0.73104 0,0.24368 0,0.48735 0,0.73103 0,0.0813 -0.0266,0.16662 0,0.24368 0.0595,0.1723 0.21562,0.30925 0.25254,0.48736 0.0495,0.23894 0,0.48734 0,0.73102 0,0.48736 0,0.97471 0,1.46207 0,0.24368 -0.0799,0.49985 0,0.73103 0.096,0.27783 0.42169,0.44943 0.50507,0.73103 0.0925,0.3124 0,0.6498 0,0.97471 0,0.16245 0,0.3249 0,0.48736 0,0.81225 0,1.6245 0,2.43677 0,0.16245 0,0.3249 0,0.48735 0,0.0812 0.0595,0.18624 0,0.24368 -0.0595,0.0574 -0.21489,-0.0727 -0.25253,0 -0.0753,0.1453 0,0.3249 0,0.48735 0,0.0812 0.0753,0.20735 0,0.24368 -0.15059,0.0727 -0.38603,-0.11487 -0.50508,0 -0.11905,0.11487 0,0.3249 0,0.48735 0,0.0813 0,0.16245 0,0.24368 0,0.16245 0.0753,0.34205 0,0.48736 -0.0376,0.0727 -0.16836,0 -0.25254,0 -0.16836,0 -0.35449,-0.0727 -0.50507,0 -0.0753,0.0363 0.0595,0.18624 0,0.24368 -0.0595,0.0574 -0.21489,-0.0727 -0.25254,0 -0.0753,0.14529 0.11905,0.37247 0,0.48735 -0.11905,0.11487 -0.35449,-0.0727 -0.50508,0 -0.0753,0.0363 0.0595,0.18624 0,0.24367 -0.0595,0.0574 -0.21489,-0.0727 -0.25254,0 -0.0753,0.1453 0.11905,0.37249 0,0.48736 -0.11904,0.11487 -0.35449,-0.0727 -0.50507,0 -0.0753,0.0363 0.0595,0.18624 0,0.24367 -0.0595,0.0574 -0.21489,-0.0727 -0.25254,0 -0.33672,0.64981 0.50508,0.48736 -0.50508,0.48736"
             id="path4467"
             inkscape:connector-curvature="0" />
          <path
             style="fill:#ffe680;fill-rule:evenodd;stroke:none;stroke-width:1px;stroke-linecap:butt;stroke-linejoin:miter;stroke-opacity:1"
             d="m 72.225918,154.18057 c -1.84736,-0.29709 -1.00318,-0.24368 -2.52538,-0.24368 -0.16836,0 -0.34535,-0.0513 -0.50507,0 -0.11294,0.0364 -0.15567,0.17691 -0.25254,0.24368 -2.0586,1.41883 -1.17537,0.31882 -2.27284,2.43677 -0.41562,0.80206 -1.12597,2.0006 -1.2627,2.92413 -0.0952,0.64327 -0.061,1.30227 0,1.94941 0.0552,0.58553 0.58098,1.19443 0.75762,1.70574 0.13573,0.39293 -0.051,0.92553 0.25254,1.21839 0.30351,0.29286 0.84627,0.14323 1.26269,0.24368 0.59454,0.14341 1.15966,0.5607 1.76776,0.48736 1.32504,-0.15982 3.06555,-1.35228 3.78808,-2.43679 0.38893,-0.58377 0.45999,-1.31762 0.75761,-1.94941 0.1256,-0.26661 0.36934,-0.46908 0.50508,-0.73103 0.0376,-0.0727 0,-0.16245 0,-0.24367 0,-0.16246 0,-0.32491 0,-0.48736 0,-0.0813 0,0.16245 0,0.24368 0,0.16245 0.0753,0.34205 0,0.48735 -0.18823,0.36326 -0.6013,0.59762 -0.75762,0.97471 -0.32173,0.77611 -0.25254,1.86112 -0.25254,2.68045 0,0.24367 0,0.48735 0,0.73103 0,0.24368 -0.0612,0.49463 0,0.73104 0.0289,0.11143 0.16836,0.16244 0.25254,0.24366 0.25254,0.24368 0.42935,0.59529 0.75762,0.73104 0.30949,0.12799 0.67343,0 1.01015,0 0.25254,0 0.50508,0 0.75761,0 0.16836,0 0.365,0.0901 0.50508,0 0.15662,-0.10074 0.1396,-0.34205 0.25254,-0.48736 0.39448,-0.50751 1.0037,-0.87895 1.26269,-1.46206 0.26734,-0.60191 0.0879,-1.31411 0.25254,-1.94941 0.0913,-0.35241 0.40165,-0.62544 0.50507,-0.97471 0.0694,-0.23431 0,-0.48736 0,-0.73104 0,-0.16245 0.0753,-0.34205 0,-0.48735 -0.0376,-0.0727 -0.19301,0.0574 -0.25253,0 -0.18239,-0.17599 0.44895,-0.70396 -0.50508,-0.24367 -0.0753,0.0363 -0.0595,0.18623 0,0.24367 0.0595,0.0574 0.17268,-0.0257 0.25254,0 0.17857,0.0574 0.3205,0.20806 0.50507,0.24367 0.24764,0.0478 0.50508,0 0.75762,0 0.25254,0 0.51803,0.0771 0.75761,0 0.0799,-0.0257 -0.0376,-0.17102 0,-0.24367 0.0532,-0.10274 0.1993,-0.14093 0.25254,-0.24367 0.20273,-0.39124 0.40674,-0.7914 0.50508,-1.21839 0.12649,-0.54927 0.006,-1.20589 -0.25254,-1.70574 -0.21951,-0.42363 -0.41053,-0.88349 -0.75762,-1.21839 -0.18823,-0.18162 -0.50836,-0.15349 -0.75761,-0.24368 -0.42446,-0.15358 -0.82017,-0.39247 -1.26269,-0.48736 -0.3287,-0.0704 -0.67549,-0.0359 -1.01015,0 -0.42661,0.0457 -0.8593,0.10214 -1.26269,0.24368 -0.99451,0.34895 -1.7322,0.82427 -2.52539,1.46207 -0.1829,0.14708 -0.33671,0.3249 -0.50507,0.48736 -0.0842,0.0812 -0.25254,0.1288 -0.25254,0.24367 0,0.74622 0.8218,0.51832 1.26269,0.73103 0.21296,0.10275 0.33672,0.32491 0.50508,0.48736"
             id="path4469"
             inkscape:connector-curvature="0" />
        </g>
        <path
           sodipodi:nodetypes="ccccccccccccccccccc"
           inkscape:connector-curvature="0"
           id="path4490"
           d="m 175.69108,196.39063 c 4.72671,1.50305 9.91772,0.75013 14.33363,-1.35273 10.06805,-0.31685 1.66491,-2.58813 0.22602,-7.41566 0,0 3.52139,2.56285 5.37251,3.21106 1.81273,1.13528 3.5138,1.91314 4.46952,3.88775 -1.47063,-1.65902 -2.2187,-6.16102 -2.2187,-6.16102 2.84606,3.19272 5.10921,6.45899 4.33039,3.45697 -0.83564,-3.97362 -4.18313,-11.5296 -4.18313,-11.5296 0,0 3.00282,5.38609 4.30242,8.16375 0.39871,1.79955 0.99883,3.99386 2.77801,4.8773 2.20813,0.0356 3.6741,-3.99438 3.6741,-3.99438 1.04497,3.94652 -3.37084,7.13638 0.66755,5.70428 1.23659,-1.35043 3.84383,-3.24349 5.11185,-0.85797 6.68461,0.70533 9.5632,0.0841 15.37079,2.34875 -5.44624,-0.46258 -10.28525,0.72292 -15.36549,0.56421 -4.54117,-0.0155 -9.10844,-0.35454 -13.6238,0.28683 -6.68857,0.27111 -13.42779,0.0528 -20.01727,-1.19867 -1.74179,-0.17956 -3.48954,0.24734 -5.2284,0.009 z"
           style="fill:#859a2d;fill-opacity:1;fill-rule:evenodd;stroke:none;stroke-width:1px;stroke-linecap:butt;stroke-linejoin:miter;stroke-opacity:1" />
        <path
           style="fill:#959a2d;fill-opacity:1;fill-rule:evenodd;stroke:none;stroke-width:1px;stroke-linecap:butt;stroke-linejoin:miter;stroke-opacity:1"
           d="m 309.42098,226.98762 c -4.72671,1.50305 -9.91772,0.75013 -14.33363,-1.35273 -10.06805,-0.31685 -1.66491,-2.58813 -0.22602,-7.41566 0,0 -3.52139,2.56285 -5.37251,3.21106 -1.81273,1.13528 -3.5138,1.91314 -4.46952,3.88775 1.47063,-1.65902 2.2187,-6.16102 2.2187,-6.16102 -2.84606,3.19272 -5.10921,6.45899 -4.33039,3.45697 0.83564,-3.97362 4.18313,-11.5296 4.18313,-11.5296 0,0 -3.00282,5.38609 -4.30242,8.16375 -0.39871,1.79955 -0.99883,3.99386 -2.77801,4.8773 -2.20813,0.0356 -3.6741,-3.99438 -3.6741,-3.99438 -1.04497,3.94652 3.37084,7.13638 -0.66755,5.70428 -1.23659,-1.35043 -3.84383,-3.24349 -5.11185,-0.85797 -6.68461,0.70533 -9.5632,0.0841 -15.37079,2.34875 5.44624,-0.46258 10.28525,0.72292 15.36549,0.56421 4.54117,-0.0155 9.10844,-0.35454 13.6238,0.28683 6.68857,0.27111 13.42779,0.0528 20.01727,-1.19867 1.74179,-0.17956 3.48954,0.24734 5.2284,0.009 z"
           id="path4496"
           inkscape:connector-curvature="0"
           sodipodi:nodetypes="ccccccccccccccccccc" />
        <path
           sodipodi:nodetypes="ccccccccccccccccccc"
           inkscape:connector-curvature="0"
           id="path4498"
           d="m 285.07271,212.56884 c -3.87075,1.50305 -8.12172,0.75013 -11.73795,-1.35273 -8.24481,-0.31685 -1.36341,-2.58813 -0.18509,-7.41566 0,0 -2.8837,2.56285 -4.3996,3.21106 -1.48445,1.13528 -2.87747,1.91314 -3.66012,3.88775 1.20431,-1.65902 1.81691,-6.16102 1.81691,-6.16102 -2.33066,3.19272 -4.18398,6.45899 -3.54619,3.45697 0.68431,-3.97362 3.4256,-11.5296 3.4256,-11.5296 0,0 -2.45904,5.38609 -3.52329,8.16375 -0.32651,1.79955 -0.81795,3.99386 -2.27494,4.8773 -1.80826,0.0356 -3.00876,-3.99438 -3.00876,-3.99438 -0.85573,3.94652 2.76042,7.13638 -0.54666,5.70428 -1.01265,-1.35043 -3.14775,-3.24349 -4.18614,-0.85797 -5.4741,0.70533 -7.83141,0.0841 -12.5873,2.34875 4.45998,-0.46258 8.4227,0.72292 12.58296,0.56421 3.71881,-0.0155 7.45899,-0.35454 11.15666,0.28683 5.47732,0.27111 10.99614,0.0528 16.39232,-1.19867 1.42637,-0.17956 2.85762,0.24734 4.28159,0.009 z"
           style="fill:#47976d;fill-opacity:1;fill-rule:evenodd;stroke:none;stroke-width:1px;stroke-linecap:butt;stroke-linejoin:miter;stroke-opacity:1" />
        <path
           sodipodi:nodetypes="ccccccccccccccccccc"
           inkscape:connector-curvature="0"
           id="path4500"
           d="m 316.13821,105.94825 c -4.72671,1.50305 -9.91772,0.75013 -14.33363,-1.35273 -10.06805,-0.31685 -1.66491,-2.58813 -0.22602,-7.415663 0,0 -3.52139,2.56285 -5.37251,3.211063 -1.81273,1.13528 -3.5138,1.91314 -4.46952,3.88775 1.47063,-1.65902 2.2187,-6.161023 2.2187,-6.161023 -2.84606,3.192723 -5.10921,6.458993 -4.33039,3.456973 0.83564,-3.973623 4.18313,-11.529603 4.18313,-11.529603 0,0 -3.00282,5.38609 -4.30242,8.16375 -0.39871,1.799553 -0.99883,3.993863 -2.77801,4.877303 -2.20813,0.0356 -3.6741,-3.994383 -3.6741,-3.994383 -1.04497,3.946523 3.37084,7.136383 -0.66755,5.704283 -1.23659,-1.35043 -3.84383,-3.24349 -5.11185,-0.85797 -6.68461,0.70533 -9.5632,0.0841 -15.37079,2.34875 5.44624,-0.46258 10.28525,0.72292 15.36549,0.56421 4.54117,-0.0155 9.10844,-0.35454 13.6238,0.28683 6.68857,0.27111 13.42779,0.0528 20.01727,-1.19867 1.74179,-0.17956 3.48954,0.24734 5.2284,0.009 z"
           style="fill:#959a2d;fill-opacity:1;fill-rule:evenodd;stroke:none;stroke-width:1px;stroke-linecap:butt;stroke-linejoin:miter;stroke-opacity:1" />
        <path
           style="fill:#859a2d;fill-opacity:1;fill-rule:evenodd;stroke:none;stroke-width:1px;stroke-linecap:butt;stroke-linejoin:miter;stroke-opacity:1"
           d="m 262.56655,143.21944 c -5.58507,1.50305 -11.71876,0.75013 -16.9366,-1.35273 -11.89639,-0.31685 -1.96725,-2.58813 -0.26706,-7.41566 0,0 -4.16087,2.56285 -6.34815,3.21106 -2.14192,1.13528 -4.1519,1.91314 -5.28118,3.88775 1.7377,-1.65902 2.62161,-6.16102 2.62161,-6.16102 -3.3629,3.19272 -6.03703,6.45899 -5.11678,3.45697 0.98739,-3.97362 4.94278,-11.5296 4.94278,-11.5296 0,0 -3.54813,5.38609 -5.08373,8.16375 -0.47112,1.79955 -1.18022,3.99386 -3.28249,4.8773 -2.60913,0.0356 -4.34131,-3.99438 -4.34131,-3.99438 -1.23474,3.94652 3.98297,7.13638 -0.78878,5.70428 -1.46115,-1.35043 -4.54186,-3.24349 -6.04016,-0.85797 -7.89852,0.70533 -11.29986,0.0841 -18.1621,2.34875 6.43527,-0.46258 12.15304,0.72292 18.15584,0.56421 5.36584,-0.0155 10.76252,-0.35454 16.09786,0.28683 7.90321,0.27111 15.86626,0.0528 23.65238,-1.19867 2.0581,-0.17956 4.12324,0.24734 6.17787,0.009 z"
           id="path4502"
           inkscape:connector-curvature="0"
           sodipodi:nodetypes="ccccccccccccccccccc" />
        <path
           style="fill:#47976d;fill-opacity:1;fill-rule:evenodd;stroke:none;stroke-width:1px;stroke-linecap:butt;stroke-linejoin:miter;stroke-opacity:1"
           d="m 275.49458,124.80248 c 3.87075,1.50305 8.12172,0.75013 11.73795,-1.35273 8.24481,-0.31685 1.36341,-2.58813 0.18509,-7.41566 0,0 2.8837,2.56285 4.3996,3.21106 1.48445,1.13528 2.87747,1.91314 3.66012,3.88775 -1.20431,-1.65902 -1.81691,-6.16102 -1.81691,-6.16102 2.33066,3.19272 4.18398,6.45899 3.54619,3.45697 -0.68431,-3.97362 -3.4256,-11.5296 -3.4256,-11.5296 0,0 2.45904,5.38609 3.52329,8.16375 0.32651,1.79955 0.81795,3.99386 2.27494,4.8773 1.80826,0.0356 3.00876,-3.99438 3.00876,-3.99438 0.85573,3.94652 -2.76042,7.13638 0.54666,5.70428 1.01265,-1.35043 3.14775,-3.24349 4.18614,-0.85797 5.4741,0.70533 7.83141,0.0841 12.5873,2.34875 -4.45998,-0.46258 -8.4227,0.72292 -12.58296,0.56421 -3.71881,-0.0155 -7.45899,-0.35454 -11.15666,0.28683 -5.47732,0.27111 -10.99614,0.0528 -16.39232,-1.19867 -1.42637,-0.17956 -2.85763,0.24734 -4.28159,0.009 z"
           id="path4504"
           inkscape:connector-curvature="0"
           sodipodi:nodetypes="ccccccccccccccccccc" />
        <path
           inkscape:connector-curvature="0"
           id="path4506"
           d="m 196.10569,175.23937 c -1.6602,-0.89954 -3.40931,-1.62096 -5.15832,-2.27354 -0.95838,-0.47868 -3.30137,-1.7115 -4.68731,-2.69115 -1.40827,-0.50204 -1.11466,-1.4889 0.24413,-1.03153 2.31068,0.28449 4.69352,0.0444 6.9478,0.70876 0.97719,0.61473 1.35055,1.07637 0.43672,-0.22775 -1.17893,-1.75453 -2.60423,-3.33769 -3.92178,-4.91468 -0.78065,-0.64098 -1.04009,-1.44009 -0.01,-0.29285 1.77683,1.24793 3.26922,2.87789 4.92361,4.29911 1.43588,0.62993 -0.36139,-2.37126 -0.42592,-3.38222 -0.53729,-1.86036 -1.33435,-3.6472 -1.46225,-5.60919 -0.17556,-0.9537 -1.48603,-4.52768 -0.28267,-2.16994 0.58459,2.092 1.31477,3.50979 1.86574,5.46227 0.90219,1.38602 1.92039,4.64313 2.59845,4.92429 0.67268,-2.58601 -0.16504,-5.27956 0.10135,-7.91961 -0.29952,-0.86721 0.49645,-4.4816 0.59334,-1.93479 0.17545,0.95009 -0.23856,2.96751 0.11268,2.5338 0.15425,1.92266 0.18064,3.89189 0.60573,5.76843 1.68985,0.9953 2.83608,-2.565 3.78562,-3.92729 1.55723,-1.29301 -0.35224,1.97797 -0.73492,2.52409 -1.09692,1.60809 -2.68591,3.39083 -2.68769,5.44136 2.15575,0.41985 3.74606,-1.59161 5.61685,-2.36114 0.96561,-0.38101 2.4276,-0.98581 0.7767,0.0683 -1.86057,1.47573 -4.2504,1.43757 -6.25476,2.57618 1.93882,-0.13359 3.8157,0.77599 5.76794,0.44374 0.89954,-0.0404 2.84699,-0.11711 0.95632,0.4179 -2.52599,0.95172 -5.11619,1.77018 -7.79058,1.98861 -0.312,0.17261 -2.28731,0.59371 -1.84458,0.44059"
           style="fill:#c87137;fill-rule:evenodd;stroke:#c87137;stroke-width:0.20000002;stroke-linecap:butt;stroke-linejoin:miter;stroke-miterlimit:4;stroke-dasharray:none;stroke-opacity:1" />
        <path
           inkscape:connector-curvature="0"
           id="path4508"
           d="m 200.72269,173.89837 c -3.04763,-1.49844 -5.43083,-4.14957 -7.98082,-6.45002 -1.08001,-1.41967 -2.71271,-2.17472 -3.54214,-3.87141 -0.87917,-0.6864 -1.79837,-2.19365 -0.16274,-1.0099 1.37088,1.2958 2.46607,2.94436 4.14075,3.82191 1.97775,1.46255 3.98551,2.87986 5.75496,4.64916 2.24878,1.94138 0.40872,-1.71974 -0.17493,-2.65433 -1.4927,-2.77399 -3.86948,-5.29199 -3.75056,-8.76993 -0.42693,-1.71146 -0.35902,-1.40065 0.38929,-0.14909 2.16738,3.72001 4.62731,7.22427 6.5432,11.11871 0.5018,0.76468 1.80127,3.7514 1.23642,1.11618 -0.80198,-4.68655 -2.48212,-9.09494 -3.84304,-13.60159 0.63589,-0.97992 0.5785,2.23423 1.1089,2.92122 0.65776,2.13122 0.84582,4.40115 1.7189,6.45762 0.10043,2.20947 1.31581,1.10869 1.47895,-0.41747 0.7894,-2.5609 1.08461,-5.25024 1.45915,-7.90348 0.33044,-1.27877 -0.83563,1.41039 -0.60156,2.0286 0.003,0.48515 -0.55935,1.18573 -0.17215,0.46057 -0.0539,2.43858 -1.01085,4.64808 -1.8594,6.84474 -1.22949,2.07427 0.94227,2.68694 2.17615,1.43601 1.86304,-1.49492 3.98539,-2.48708 5.68841,-4.20991 1.44131,-0.74473 1.21563,-1.96528 -0.32597,-1.24445 -1.96127,0.6249 -4.06645,1.3708 -5.31283,3.30155 -0.82155,0.87275 -2.17601,2.66768 -2.08975,3.47149 1.80365,0.25891 3.7444,0.25739 5.44475,-0.49888 0.83692,-0.34788 3.31865,-0.994 3.01043,-1.46117 -1.97945,0.32966 -3.89685,0.98662 -5.87402,1.24976 -1.21264,0.41145 -3.33883,0.35844 -3.79276,1.83901"
           style="fill:#c87137;fill-rule:evenodd;stroke:#c87137;stroke-width:0.20000002;stroke-linecap:butt;stroke-linejoin:miter;stroke-miterlimit:4;stroke-dasharray:none;stroke-opacity:1" />
        <path
           style="fill:#c87137;fill-rule:evenodd;stroke:#c87137;stroke-width:0.20000002;stroke-linecap:butt;stroke-linejoin:miter;stroke-miterlimit:4;stroke-dasharray:none;stroke-opacity:1"
           d="m 236.68533,94.339273 c -1.6602,-0.89954 -3.40931,-1.62096 -5.15832,-2.27354 -0.95838,-0.47868 -3.30137,-1.7115 -4.68731,-2.69115 -1.40828,-0.502044 -1.11467,-1.488904 0.24413,-1.031534 2.31068,0.28449 4.69352,0.0444 6.9478,0.70876 0.97719,0.614734 1.35055,1.076374 0.43672,-0.22775 -1.17893,-1.75453 -2.60423,-3.33769 -3.92178,-4.91468 -0.78065,-0.64098 -1.04009,-1.44009 -0.01,-0.29285 1.77683,1.24793 3.26922,2.87789 4.92361,4.29911 1.43588,0.62993 -0.36139,-2.37126 -0.42592,-3.38222 -0.53729,-1.86036 -1.33435,-3.647201 -1.46225,-5.609191 -0.17556,-0.9537 -1.48603,-4.52768 -0.28267,-2.16994 0.58459,2.092 1.31477,3.50979 1.86574,5.462271 0.90219,1.38602 1.92039,4.64313 2.59845,4.92429 0.67268,-2.58601 -0.16504,-5.27956 0.10135,-7.919611 -0.29952,-0.86721 0.49645,-4.4816 0.59334,-1.93479 0.17545,0.95009 -0.23856,2.96751 0.11268,2.5338 0.15425,1.922661 0.18064,3.891891 0.60573,5.768431 1.68985,0.9953 2.83608,-2.565 3.78562,-3.92729 1.55723,-1.293011 -0.35224,1.97797 -0.73492,2.52409 -1.09692,1.60809 -2.68591,3.39083 -2.68769,5.441364 2.15575,0.41985 3.74606,-1.591614 5.61685,-2.361144 0.96561,-0.38101 2.4276,-0.98581 0.7767,0.0683 -1.86057,1.47573 -4.2504,1.43757 -6.25476,2.576184 1.93882,-0.13359 3.8157,0.77599 5.76794,0.44374 0.89954,-0.0404 2.84699,-0.11711 0.95632,0.4179 -2.52599,0.95172 -5.11619,1.77018 -7.79058,1.98861 -0.312,0.17261 -2.28731,0.59371 -1.84458,0.44059"
           id="path4516"
           inkscape:connector-curvature="0" />
        <path
           inkscape:connector-curvature="0"
           id="path4528"
           d="m 144.00419,71.836185 c 1.6602,-0.89954 3.40931,-1.62096 5.15832,-2.27354 0.95838,-0.47868 3.30137,-1.7115 4.68731,-2.69115 1.40828,-0.50204 1.11467,-1.4889 -0.24413,-1.03153 -2.31068,0.28449 -4.69352,0.0444 -6.9478,0.70876 -0.97719,0.61473 -1.35055,1.07637 -0.43672,-0.22775 1.17893,-1.75453 2.60423,-3.33769 3.92178,-4.91468 0.78065,-0.64098 1.04009,-1.44009 0.01,-0.29285 -1.77683,1.24793 -3.26922,2.87789 -4.92361,4.29911 -1.43588,0.62993 0.36139,-2.37126 0.42592,-3.38222 0.53729,-1.86036 1.33435,-3.6472 1.46225,-5.60919 0.17556,-0.9537 1.48603,-4.52768 0.28267,-2.16994 -0.58459,2.092 -1.31477,3.50979 -1.86574,5.46227 -0.90219,1.38602 -1.92039,4.64313 -2.59845,4.92429 -0.67268,-2.58601 0.16504,-5.27956 -0.10135,-7.91961 0.29952,-0.86721 -0.49645,-4.4816 -0.59334,-1.93479 -0.17545,0.95009 0.23856,2.96751 -0.11268,2.5338 -0.15425,1.92266 -0.18064,3.89189 -0.60573,5.76843 -1.68985,0.9953 -2.83608,-2.565 -3.78562,-3.92729 -1.55723,-1.29301 0.35224,1.97797 0.73492,2.52409 1.09692,1.60809 2.68591,3.39083 2.68769,5.44136 -2.15575,0.41985 -3.74606,-1.59161 -5.61685,-2.36114 -0.96561,-0.38101 -2.4276,-0.98581 -0.7767,0.0683 1.86057,1.47573 4.2504,1.43757 6.25476,2.57618 -1.93882,-0.13359 -3.8157,0.77599 -5.76794,0.44374 -0.89954,-0.0404 -2.84699,-0.11711 -0.95632,0.4179 2.52599,0.95172 5.11619,1.77018 7.79058,1.98861 0.312,0.17261 2.28731,0.59371 1.84458,0.44059"
           style="fill:#c89337;fill-opacity:1;fill-rule:evenodd;stroke:#c89337;stroke-width:0.20000002;stroke-linecap:butt;stroke-linejoin:miter;stroke-miterlimit:4;stroke-dasharray:none;stroke-opacity:1" />
        <path
           inkscape:connector-curvature="0"
           id="path4530"
           d="m 146.76054,70.852325 c -3.04763,-1.49844 -5.43083,-4.14957 -7.98082,-6.45002 -1.08001,-1.41967 -2.71272,-2.17472 -3.54215,-3.87141 -0.87917,-0.6864 -1.79837,-2.19365 -0.16274,-1.0099 1.37088,1.2958 2.46608,2.94436 4.14076,3.82191 1.97775,1.46255 3.98551,2.87986 5.75496,4.64916 2.24878,1.94138 0.40872,-1.71974 -0.17493,-2.65433 -1.4927,-2.77399 -3.86948,-5.29199 -3.75056,-8.76993 -0.42693,-1.71146 -0.35902,-1.40065 0.38929,-0.14909 2.16738,3.72001 4.62731,7.22427 6.5432,11.11871 0.5018,0.76468 1.80127,3.7514 1.23642,1.11618 -0.80198,-4.68655 -2.48212,-9.09494 -3.84304,-13.60159 0.63589,-0.97992 0.5785,2.23423 1.1089,2.92122 0.65776,2.13122 0.84582,4.40115 1.7189,6.45762 0.10043,2.20947 1.31581,1.10869 1.47895,-0.41747 0.7894,-2.5609 1.08461,-5.25024 1.45915,-7.90348 0.33044,-1.27877 -0.83563,1.41039 -0.60156,2.0286 0.003,0.48515 -0.55935,1.18573 -0.17215,0.46057 -0.0539,2.43858 -1.01085,4.64808 -1.8594,6.84474 -1.22949,2.07427 0.94227,2.68694 2.17615,1.43601 1.86304,-1.49492 3.98539,-2.48708 5.68841,-4.20991 1.44131,-0.74473 1.21563,-1.96528 -0.32597,-1.24445 -1.96127,0.6249 -4.06645,1.3708 -5.31283,3.30155 -0.82155,0.87275 -2.17601,2.66768 -2.08975,3.47149 1.80365,0.25891 3.7444,0.25739 5.44475,-0.49888 0.83692,-0.34788 3.31865,-0.994 3.01043,-1.46117 -1.97945,0.32966 -3.89685,0.98662 -5.87402,1.24976 -1.21264,0.41145 -3.33883,0.35844 -3.79276,1.83901"
           style="fill:#c89337;fill-opacity:1;fill-rule:evenodd;stroke:#c89337;stroke-width:0.20000002;stroke-linecap:butt;stroke-linejoin:miter;stroke-miterlimit:4;stroke-dasharray:none;stroke-opacity:1" />
        <path
           style="fill:#959a2d;fill-opacity:1;fill-rule:evenodd;stroke:none;stroke-width:1px;stroke-linecap:butt;stroke-linejoin:miter;stroke-opacity:1"
           d="m 123.68896,83.448244 c 4.72671,1.50305 9.91772,0.75013 14.33363,-1.35273 10.06805,-0.31685 1.66491,-2.58813 0.22602,-7.41566 0,0 3.52139,2.56285 5.37251,3.21106 1.81273,1.13528 3.5138,1.91314 4.46952,3.88775 -1.47063,-1.65902 -2.2187,-6.16102 -2.2187,-6.16102 2.84606,3.19272 5.10921,6.45899 4.33039,3.45697 -0.83564,-3.97362 -4.18313,-11.5296 -4.18313,-11.5296 0,0 3.00282,5.38609 4.30242,8.16375 0.39871,1.79955 0.99883,3.99386 2.77801,4.8773 2.20813,0.0356 3.6741,-3.99438 3.6741,-3.99438 1.04497,3.94652 -3.37084,7.13638 0.66755,5.70428 1.23659,-1.35043 3.84383,-3.24349 5.11185,-0.85797 6.68461,0.70533 9.5632,0.0841 15.37079,2.34875 -5.44624,-0.46258 -10.28525,0.72292 -15.36549,0.56421 -4.54117,-0.0155 -9.10844,-0.35454 -13.6238,0.28683 -6.68857,0.27111 -13.42779,0.0528 -20.01727,-1.19867 -1.74179,-0.17956 -3.48954,0.24734 -5.2284,0.009 z"
           id="path4532"
           inkscape:connector-curvature="0"
           sodipodi:nodetypes="ccccccccccccccccccc" />
        <path
           style="fill:#c89337;fill-opacity:1;fill-rule:evenodd;stroke:#c89337;stroke-width:0.20000002;stroke-linecap:butt;stroke-linejoin:miter;stroke-miterlimit:4;stroke-dasharray:none;stroke-opacity:1"
           d="m 216.50419,186.8362 c 1.6602,-0.89954 3.40931,-1.62096 5.15832,-2.27354 0.95838,-0.47868 3.30137,-1.7115 4.68731,-2.69115 1.40828,-0.50204 1.11467,-1.4889 -0.24413,-1.03153 -2.31068,0.28449 -4.69352,0.0444 -6.9478,0.70876 -0.97719,0.61473 -1.35055,1.07637 -0.43672,-0.22775 1.17893,-1.75453 2.60423,-3.33769 3.92178,-4.91468 0.78065,-0.64098 1.04009,-1.44009 0.01,-0.29285 -1.77683,1.24793 -3.26922,2.87789 -4.92361,4.29911 -1.43588,0.62993 0.36139,-2.37126 0.42592,-3.38222 0.53729,-1.86036 1.33435,-3.6472 1.46225,-5.60919 0.17556,-0.9537 1.48603,-4.52768 0.28267,-2.16994 -0.58459,2.092 -1.31477,3.50979 -1.86574,5.46227 -0.90219,1.38602 -1.92039,4.64313 -2.59845,4.92429 -0.67268,-2.58601 0.16504,-5.27956 -0.10135,-7.91961 0.29952,-0.86721 -0.49645,-4.4816 -0.59334,-1.93479 -0.17545,0.95009 0.23856,2.96751 -0.11268,2.5338 -0.15425,1.92266 -0.18064,3.89189 -0.60573,5.76843 -1.68985,0.9953 -2.83608,-2.565 -3.78562,-3.92729 -1.55723,-1.29301 0.35224,1.97797 0.73492,2.52409 1.09692,1.60809 2.68591,3.39083 2.68769,5.44136 -2.15575,0.41985 -3.74606,-1.59161 -5.61685,-2.36114 -0.96561,-0.38101 -2.4276,-0.98581 -0.7767,0.0683 1.86057,1.47573 4.2504,1.43757 6.25476,2.57618 -1.93882,-0.13359 -3.8157,0.77599 -5.76794,0.44374 -0.89954,-0.0404 -2.84699,-0.11711 -0.95632,0.4179 2.52599,0.95172 5.11619,1.77018 7.79058,1.98861 0.312,0.17261 2.28731,0.59371 1.84458,0.44059"
           id="path4673"
           inkscape:connector-curvature="0" />
        <path
           style="fill:#c89337;fill-opacity:1;fill-rule:evenodd;stroke:#c89337;stroke-width:0.20000002;stroke-linecap:butt;stroke-linejoin:miter;stroke-miterlimit:4;stroke-dasharray:none;stroke-opacity:1"
           d="m 217.24433,185.85234 c 3.04763,-1.49844 5.43083,-4.14957 7.98082,-6.45002 1.08001,-1.41967 2.71272,-2.17472 3.54215,-3.87141 0.87917,-0.6864 1.79837,-2.19365 0.16274,-1.0099 -1.37088,1.2958 -2.46608,2.94436 -4.14076,3.82191 -1.97775,1.46255 -3.98551,2.87986 -5.75496,4.64916 -2.24878,1.94138 -0.40872,-1.71974 0.17493,-2.65433 1.4927,-2.77399 3.86948,-5.29199 3.75056,-8.76993 0.42693,-1.71146 0.35902,-1.40065 -0.38929,-0.14909 -2.16738,3.72001 -4.62731,7.22427 -6.5432,11.11871 -0.5018,0.76468 -1.80127,3.7514 -1.23642,1.11618 0.80198,-4.68655 2.48212,-9.09494 3.84304,-13.60159 -0.63589,-0.97992 -0.5785,2.23423 -1.1089,2.92122 -0.65776,2.13122 -0.84582,4.40115 -1.7189,6.45762 -0.10043,2.20947 -1.31581,1.10869 -1.47895,-0.41747 -0.7894,-2.5609 -1.08461,-5.25024 -1.45915,-7.90348 -0.33044,-1.27877 0.83563,1.41039 0.60156,2.0286 -0.003,0.48515 0.55935,1.18573 0.17215,0.46057 0.0539,2.43858 1.01085,4.64808 1.8594,6.84474 1.22949,2.07427 -0.94227,2.68694 -2.17615,1.43601 -1.86304,-1.49492 -3.98539,-2.48708 -5.68841,-4.20991 -1.44131,-0.74473 -1.21563,-1.96528 0.32597,-1.24445 1.96127,0.6249 4.06645,1.3708 5.31283,3.30155 0.82155,0.87275 2.17601,2.66768 2.08975,3.47149 -1.80365,0.25891 -3.7444,0.25739 -5.44475,-0.49888 -0.83692,-0.34788 -3.31865,-0.994 -3.01043,-1.46117 1.97945,0.32966 3.89685,0.98662 5.87402,1.24976 1.21264,0.41145 3.33883,0.35844 3.79276,1.83901"
           id="path4675"
           inkscape:connector-curvature="0" />
        <path
           inkscape:connector-curvature="0"
           id="path4767"
           d="m 154.64286,232.72728 c 1.07143,0 2.14285,0 3.21428,0 0.35715,0 0.73262,0.11294 1.07143,0 0.40721,-0.13573 0.6603,-0.59094 1.07143,-0.71428 7.11261,-2.13378 -2.5625,1.75701 5.35714,-1.07143 0.75207,-0.2686 1.42857,-0.71429 2.14286,-1.07143 0.71429,-0.35714 1.45807,-0.66055 2.14286,-1.07143 0.51041,-0.30625 0.8759,-0.85036 1.42857,-1.07143 0.67234,-0.26893 1.48113,-0.063 2.14286,-0.35714 0.46154,-0.20513 0.69393,-0.73587 1.07142,-1.07143 0.69494,-0.61772 1.44793,-1.16799 2.14286,-1.78571 0.3775,-0.33556 0.69132,-0.73884 1.07143,-1.07143 0.57367,-0.50196 1.2467,-0.88956 1.78571,-1.42857 0.53902,-0.53901 0.79432,-1.36288 1.42858,-1.78572 0.50507,-0.33671 1.231,-0.1106 1.78571,-0.35714 0.54394,-0.24175 0.90824,-0.78235 1.42857,-1.07143 0.56042,-0.31134 1.24207,-0.37451 1.78572,-0.71428 0.4283,-0.26769 0.65118,-0.79127 1.07142,-1.07143 0.31324,-0.20883 0.73472,-0.18879 1.07143,-0.35715 0.38392,-0.19195 0.68751,-0.52232 1.07143,-0.71428 0.33672,-0.16836 0.72742,-0.20425 1.07143,-0.35714 0.72977,-0.32434 1.42857,-0.71429 2.14286,-1.07143 0.47619,-0.2381 0.96317,-0.45573 1.42857,-0.71429 0.6068,-0.33711 1.20814,-0.68638 1.78571,-1.07143 0.49527,-0.33018 0.88464,-0.82968 1.42857,-1.07143 0.55471,-0.24653 1.28064,-0.0204 1.78572,-0.35714 0.63425,-0.42283 0.83333,-1.30952 1.42857,-1.78571 0.6236,-0.49888 1.42857,-0.71429 2.14286,-1.07143 0.71428,-0.47619 1.47844,-0.88496 2.14285,-1.42857 0.65152,-0.53306 1.22646,-1.15655 1.78572,-1.78572 1.35126,-1.52016 0.67023,-1.27281 2.14286,-2.5 0.32974,-0.27478 0.74168,-0.43949 1.07142,-0.71428 0.38801,-0.32334 0.65118,-0.79126 1.07143,-1.07143 0.31324,-0.20882 0.77026,-0.13127 1.07143,-0.35714 0.21296,-0.15972 0.16891,-0.52606 0.35714,-0.71429 0.99701,-0.99701 0.49735,0.28704 1.78572,-0.35714 1.90476,-0.95238 -1.30952,-0.59524 1.07143,-1.07143 0.3502,-0.07 0.71428,0 1.07143,0 0.35714,0 0.75199,0.15972 1.07142,0 0.2381,-0.11905 0.11905,-0.59524 0.35715,-0.71429 0.31944,-0.15972 0.71428,0 1.07143,0 0.23809,0 0.47619,0 0.71428,0 1.19048,0 2.38095,0 3.57143,0 0.35714,0 0.71429,0 1.07143,0 0.35714,0 0.71914,0.0587 1.07143,0 0.48639,-0.0811 2.75389,-1.03271 2.85714,-1.07143 0.35249,-0.13218 0.72541,-0.20884 1.07143,-0.35714 0.48935,-0.20972 0.91863,-0.5613 1.42857,-0.71428 0.6936,-0.20808 1.44423,-0.16661 2.14286,-0.35715 1.70504,-0.46501 1.57446,-0.88922 3.21428,-1.07143 0.5916,-0.0657 1.19048,0 1.78572,0 1.19047,0 2.38095,0 3.57143,0 0.71428,0 1.42857,0 2.14285,0 0.35715,0 0.71429,0 1.07143,0 0.2381,0 0.48841,-0.0753 0.71429,0 0.15972,0.0532 0.19107,0.32947 0.35714,0.35715 0.58714,0.0978 1.19507,-0.0738 1.78571,0 1.12629,0.14078 1.37143,0.73285 2.5,1.07143 0.6936,0.20808 1.42315,0.27717 2.14286,0.35714 0.35496,0.0394 0.73261,-0.11294 1.07143,0 0.40721,0.13573 0.68751,0.52233 1.07143,0.71428 0.33672,0.16836 0.72741,0.20425 1.07143,0.35715 3.51755,1.56335 0.80293,0.74383 5,2.14285 0.8222,0.27407 1.65919,0.50409 2.5,0.71429 0.5889,0.14723 1.21734,0.144 1.78571,0.35714 0.4019,0.15072 0.66422,0.57855 1.07143,0.71429 0.0984,0.0328 2.01366,-0.0323 2.14286,0 0.16333,0.0408 0.19381,0.31631 0.35714,0.35714 0.34648,0.0866 0.73983,-0.13264 1.07143,0 0.31263,0.12506 0.39901,0.59606 0.71428,0.71429 0.67804,0.25426 1.45588,0.12815 2.14286,0.35714 0.40721,0.13574 0.66422,0.57855 1.07143,0.71429 0.33882,0.11293 0.71429,0 1.07143,0 0.11905,0 0.27296,-0.0842 0.35714,0 0.0842,0.0842 -0.10648,0.3039 0,0.35714 0.21296,0.10648 0.51618,-0.13207 0.71429,0 0.22149,0.14766 0.23809,0.47619 0.35714,0.71428 0.35714,0.11905 0.71894,0.22496 1.07143,0.35715 0.60027,0.2251 1.2123,0.42758 1.78571,0.71428 0.15059,0.0753 0.19743,0.30391 0.35715,0.35715 0.22587,0.0753 0.54592,-0.16836 0.71428,0 0.16836,0.16836 -0.10648,0.50132 0,0.71428 0.0532,0.10648 0.24421,-0.0376 0.35714,0 0.25254,0.0842 0.46175,0.27297 0.71429,0.35714 0.11294,0.0377 0.3039,-0.10647 0.35714,0 0.10648,0.21296 0,0.4762 0,0.71429"
           style="fill:none;fill-rule:evenodd;stroke:#6c6753;stroke-width:2.00000024;stroke-linecap:butt;stroke-linejoin:miter;stroke-miterlimit:4;stroke-dasharray:none;stroke-opacity:0.1440678;filter:url(#filter4809)" />
      </g>
      <g
         style="display:none"
         inkscape:label="Grille"
         id="layer3">
        <path
           inkscape:transform-center-y="-3.8301796e-05"
           inkscape:transform-center-x="-9.7481031"
           d="m 126.21809,325.06713 0,-67.53684 58.48862,33.76842 z"
           inkscape:randomized="0"
           inkscape:rounded="0"
           inkscape:flatsided="true"
           sodipodi:arg2="3.1415927"
           sodipodi:arg1="2.0943951"
           sodipodi:r2="19.496206"
           sodipodi:r1="38.992413"
           sodipodi:cy="291.29871"
           sodipodi:cx="145.71429"
           sodipodi:sides="3"
           id="path4434"
           style="opacity:1;fill:#000000;fill-opacity:0;stroke:#4b5062;stroke-width:5;stroke-linecap:round;stroke-linejoin:round;stroke-miterlimit:4;stroke-dasharray:none;stroke-dashoffset:0;stroke-opacity:0.30508477"
           sodipodi:type="star" />
        <path
           sodipodi:type="star"
           style="opacity:1;fill:#000000;fill-opacity:0;stroke:#4b5062;stroke-width:5;stroke-linecap:round;stroke-linejoin:round;stroke-miterlimit:4;stroke-dasharray:none;stroke-dashoffset:0;stroke-opacity:0.30508477"
           id="path4436"
           sodipodi:sides="3"
           sodipodi:cx="144.28572"
           sodipodi:cy="219.87013"
           sodipodi:r1="38.992413"
           sodipodi:r2="19.496206"
           sodipodi:arg1="2.0943951"
           sodipodi:arg2="3.1415927"
           inkscape:flatsided="true"
           inkscape:rounded="0"
           inkscape:randomized="0"
           d="m 124.78951,253.63855 0,-67.53684 58.48862,33.76842 z"
           inkscape:transform-center-x="-9.7481031"
           inkscape:transform-center-y="-3.8301796e-05" />
        <path
           inkscape:transform-center-y="-3.8301796e-05"
           inkscape:transform-center-x="-9.7481031"
           d="m 65.860941,216.85283 0,-67.53684 58.488619,33.76842 z"
           inkscape:randomized="0"
           inkscape:rounded="0"
           inkscape:flatsided="true"
           sodipodi:arg2="3.1415927"
           sodipodi:arg1="2.0943951"
           sodipodi:r2="19.496206"
           sodipodi:r1="38.992413"
           sodipodi:cy="183.08441"
           sodipodi:cx="85.357147"
           sodipodi:sides="3"
           id="path4438"
           style="opacity:1;fill:#000000;fill-opacity:0;stroke:#4b5062;stroke-width:5;stroke-linecap:round;stroke-linejoin:round;stroke-miterlimit:4;stroke-dasharray:none;stroke-dashoffset:0;stroke-opacity:0.30508477"
           sodipodi:type="star" />
        <path
           sodipodi:type="star"
           style="opacity:1;fill:#000000;fill-opacity:0;stroke:#4b5062;stroke-width:5;stroke-linecap:round;stroke-linejoin:round;stroke-miterlimit:4;stroke-dasharray:none;stroke-dashoffset:0;stroke-opacity:0.30508477"
           id="path4440"
           sodipodi:sides="3"
           sodipodi:cx="209.28574"
           sodipodi:cy="183.08441"
           sodipodi:r1="38.992413"
           sodipodi:r2="19.496206"
           sodipodi:arg1="2.0943951"
           sodipodi:arg2="3.1415927"
           inkscape:flatsided="true"
           inkscape:rounded="0"
           inkscape:randomized="0"
           d="m 189.78953,216.85283 0,-67.53684 58.48862,33.76842 z"
           inkscape:transform-center-x="-9.7481031"
           inkscape:transform-center-y="-3.8301796e-05" />
        <path
           inkscape:transform-center-y="-3.8301796e-05"
           inkscape:transform-center-x="-9.7481031"
           d="m 252.28953,252.56713 0,-67.53684 58.48862,33.76842 z"
           inkscape:randomized="0"
           inkscape:rounded="0"
           inkscape:flatsided="true"
           sodipodi:arg2="3.1415927"
           sodipodi:arg1="2.0943951"
           sodipodi:r2="19.496206"
           sodipodi:r1="38.992413"
           sodipodi:cy="218.79871"
           sodipodi:cx="271.78574"
           sodipodi:sides="3"
           id="path4442"
           style="opacity:1;fill:#000000;fill-opacity:0;stroke:#4b5062;stroke-width:5;stroke-linecap:round;stroke-linejoin:round;stroke-miterlimit:4;stroke-dasharray:none;stroke-dashoffset:0;stroke-opacity:0.30508477"
           sodipodi:type="star" />
        <path
           sodipodi:type="star"
           style="opacity:1;fill:#000000;fill-opacity:0;stroke:#4b5062;stroke-width:5;stroke-linecap:round;stroke-linejoin:round;stroke-miterlimit:4;stroke-dasharray:none;stroke-dashoffset:0;stroke-opacity:0.30508477"
           id="path4444"
           sodipodi:sides="3"
           sodipodi:cx="269.64288"
           sodipodi:cy="146.29871"
           sodipodi:r1="38.992413"
           sodipodi:r2="19.496206"
           sodipodi:arg1="2.0943951"
           sodipodi:arg2="3.1415927"
           inkscape:flatsided="true"
           inkscape:rounded="0"
           inkscape:randomized="0"
           d="m 250.14668,180.06713 0,-67.53684 58.48862,33.76842 z"
           inkscape:transform-center-x="-9.7481031"
           inkscape:transform-center-y="-3.8301796e-05" />
        <path
           inkscape:transform-center-y="-3.8301796e-05"
           inkscape:transform-center-x="-9.7481031"
           d="m 314.07527,144.35284 0,-67.536841 58.48861,33.768421 z"
           inkscape:randomized="0"
           inkscape:rounded="0"
           inkscape:flatsided="true"
           sodipodi:arg2="3.1415927"
           sodipodi:arg1="2.0943951"
           sodipodi:r2="19.496206"
           sodipodi:r1="38.992413"
           sodipodi:cy="110.58442"
           sodipodi:cx="333.57147"
           sodipodi:sides="3"
           id="path4446"
           style="opacity:1;fill:#000000;fill-opacity:0;stroke:#4b5062;stroke-width:5;stroke-linecap:round;stroke-linejoin:round;stroke-miterlimit:4;stroke-dasharray:none;stroke-dashoffset:0;stroke-opacity:0.30508477"
           sodipodi:type="star" />
        <path
           sodipodi:type="star"
           style="opacity:1;fill:#000000;fill-opacity:0;stroke:#4b5062;stroke-width:5;stroke-linecap:round;stroke-linejoin:round;stroke-miterlimit:4;stroke-dasharray:none;stroke-dashoffset:0;stroke-opacity:0.30508477"
           id="path4448"
           sodipodi:sides="3"
           sodipodi:cx="391.07147"
           sodipodi:cy="145.94157"
           sodipodi:r1="38.992413"
           sodipodi:r2="19.496206"
           sodipodi:arg1="2.0943951"
           sodipodi:arg2="3.1415927"
           inkscape:flatsided="true"
           inkscape:rounded="0"
           inkscape:randomized="0"
           d="m 371.57527,179.70999 0,-67.53684 58.48861,33.76842 z"
           inkscape:transform-center-x="-9.7481031"
           inkscape:transform-center-y="-3.8301796e-05" />
        <path
           inkscape:transform-center-y="-3.8301796e-05"
           inkscape:transform-center-x="-9.7481031"
           d="m 188.71812,142.20999 0,-67.536843 58.48862,33.768423 z"
           inkscape:randomized="0"
           inkscape:rounded="0"
           inkscape:flatsided="true"
           sodipodi:arg2="3.1415927"
           sodipodi:arg1="2.0943951"
           sodipodi:r2="19.496206"
           sodipodi:r1="38.992413"
           sodipodi:cy="108.44157"
           sodipodi:cx="208.21432"
           sodipodi:sides="3"
           id="path4450"
           style="opacity:1;fill:#000000;fill-opacity:0;stroke:#4b5062;stroke-width:5;stroke-linecap:round;stroke-linejoin:round;stroke-miterlimit:4;stroke-dasharray:none;stroke-dashoffset:0;stroke-opacity:0.30508477"
           sodipodi:type="star" />
        <path
           sodipodi:type="star"
           style="opacity:1;fill:#000000;fill-opacity:0;stroke:#4b5062;stroke-width:5;stroke-linecap:round;stroke-linejoin:round;stroke-miterlimit:4;stroke-dasharray:none;stroke-dashoffset:0;stroke-opacity:0.30508477"
           id="path4452"
           sodipodi:sides="3"
           sodipodi:cx="207.50005"
           sodipodi:cy="40.227272"
           sodipodi:r1="38.992413"
           sodipodi:r2="19.496206"
           sodipodi:arg1="2.0943951"
           sodipodi:arg2="3.1415927"
           inkscape:flatsided="true"
           inkscape:rounded="0"
           inkscape:randomized="0"
           d="m 188.00384,73.995692 0,-67.5368398 58.48862,33.7684198 z"
           inkscape:transform-center-x="-9.7481031"
           inkscape:transform-center-y="-3.8301796e-05" />
        <path
           inkscape:transform-center-y="-3.8301796e-05"
           inkscape:transform-center-x="-9.7481031"
           d="m 128.36097,108.63855 0,-67.536837 58.48862,33.768419 z"
           inkscape:randomized="0"
           inkscape:rounded="0"
           inkscape:flatsided="true"
           sodipodi:arg2="3.1415927"
           sodipodi:arg1="2.0943951"
           sodipodi:r2="19.496206"
           sodipodi:r1="38.992413"
           sodipodi:cy="74.870132"
           sodipodi:cx="147.85718"
           sodipodi:sides="3"
           id="path4454"
           style="opacity:1;fill:#000000;fill-opacity:0;stroke:#4b5062;stroke-width:5;stroke-linecap:round;stroke-linejoin:round;stroke-miterlimit:4;stroke-dasharray:none;stroke-dashoffset:0;stroke-opacity:0.30508477"
           sodipodi:type="star" />
        <path
           sodipodi:type="star"
           style="opacity:1;fill:#000000;fill-opacity:0;stroke:#4b5062;stroke-width:5;stroke-linecap:round;stroke-linejoin:round;stroke-miterlimit:4;stroke-dasharray:none;stroke-dashoffset:0;stroke-opacity:0.30508477"
           id="path4456"
           sodipodi:sides="3"
           sodipodi:cx="85.000031"
           sodipodi:cy="39.155842"
           sodipodi:r1="38.992413"
           sodipodi:r2="19.496206"
           sodipodi:arg1="2.0943951"
           sodipodi:arg2="3.1415927"
           inkscape:flatsided="true"
           inkscape:rounded="0"
           inkscape:randomized="0"
           d="m 65.503824,72.924262 0,-67.53684 58.488616,33.76842 z"
           inkscape:transform-center-x="-9.7481031"
           inkscape:transform-center-y="-3.8301796e-05" />
      </g>
    </g>
    <rect
       style="opacity:1;fill:none;fill-opacity:0.49411765;stroke:#000000;stroke-width:1.31012666;stroke-linecap:round;stroke-linejoin:round;stroke-miterlimit:4;stroke-dasharray:none;stroke-dashoffset:0;stroke-opacity:1"
       id="rect4212"
       width="55.993561"
       height="74.807259"
       x="158.59854"
       y="265.74106"
       ry="0"
       inkscape:export-filename="/home/ziltoid/git/menhyr/png/clothes1.png"
       inkscape:export-xdpi="47.295361"
       inkscape:export-ydpi="47.295361" />
    <rect
       ry="0"
       y="265.74106"
       x="235.41508"
       height="74.807259"
       width="55.993561"
       id="rect4233"
       style="opacity:1;fill:none;fill-opacity:0.49411765;stroke:#000000;stroke-width:1.31012666;stroke-linecap:round;stroke-linejoin:round;stroke-miterlimit:4;stroke-dasharray:none;stroke-dashoffset:0;stroke-opacity:1"
       inkscape:export-filename="/home/ziltoid/git/menhyr/png/clothes2.png"
       inkscape:export-xdpi="47.117401"
       inkscape:export-ydpi="47.117401" />
    <rect
       style="opacity:1;fill:none;fill-opacity:0.49411765;stroke:#000000;stroke-width:1.31012666;stroke-linecap:round;stroke-linejoin:round;stroke-miterlimit:4;stroke-dasharray:none;stroke-dashoffset:0;stroke-opacity:1"
       id="rect4235"
       width="55.993561"
       height="74.807259"
       x="305.97913"
       y="265.74106"
       ry="0"
       inkscape:export-filename="/home/ziltoid/git/menhyr/png/clothes3.png"
       inkscape:export-xdpi="47.117401"
       inkscape:export-ydpi="47.117401" />
  </g>
  <g
     inkscape:label="Calque 1"
     inkscape:groupmode="layer"
     id="layer1"
     style="display:inline">
    <path
       style="fill:#c6ab5e;fill-opacity:1;fill-rule:evenodd;stroke:none;stroke-width:0.75764668px;stroke-linecap:butt;stroke-linejoin:miter;stroke-opacity:1"
       d="m 172.1529,321.97218 c -2.38054,-19.4491 19.00621,-9.22117 28.29768,-8.24822 2.72858,0.28573 1.77477,4.62734 2.77191,7.9975 0.57613,2.21859 0.12492,7.56499 -2.46119,7.77054 -3.29675,0.34838 -6.63877,-0.39691 -9.89192,0.80319 -3.25249,0.0261 -6.51152,0.0874 -9.76138,-0.0297 -2.33833,-0.98872 -4.85436,-0.83322 -6.92986,-2.91677 -1.99145,-0.57204 -1.00578,-3.43771 -2.02524,-5.37649 z"
       id="path4142"
       inkscape:connector-curvature="0"
       sodipodi:nodetypes="csccccccc" />
    <path
       style="fill:#c6ab5e;fill-opacity:1;fill-rule:evenodd;stroke:none;stroke-width:0.91958982px;stroke-linecap:butt;stroke-linejoin:miter;stroke-opacity:1"
       d="m 342.79641,319.92234 c -2.02921,-1.08646 -4.16231,-2.17644 -6.36637,-1.88079 -1.52521,-0.11069 -3.01572,0.7254 -4.54372,0.4158 -1.81696,-3.2e-4 -3.63392,0.0118 -5.45089,10e-4 -1.09073,1.15979 -1.05981,3.35215 -0.73989,5.04628 0.12368,1.46778 -0.0833,3.23649 0.72036,4.39228 0.69247,0.61772 1.4847,1.02278 2.24876,1.4525 1.06046,0.5321 2.16021,0.88323 3.23498,1.33695 1.35912,0.32175 2.74298,-0.10277 4.10558,0.21167 1.2216,0.1498 2.48497,0.23836 3.66902,-0.30187 0.71634,0.39343 1.60437,-0.14206 1.76384,-1.25889 0.29998,-1.21761 -0.10095,-2.4731 0.0923,-3.70225 0.15452,-1.9892 0.42133,-4.06074 1.26603,-5.71288 z"
       id="path4193"
       inkscape:connector-curvature="0" />
    <path
       style="fill:#c6ab5e;fill-opacity:1;stroke:none;stroke-width:0.9375px;stroke-linecap:butt;stroke-linejoin:miter;stroke-opacity:1"
       d="m 252.3803,300.4299 c 3.34316,-0.98243 6.65149,-2.5855 10.23638,-1.94477 4.15942,0.3002 8.36249,0.40518 12.49854,0.72739 3.75741,1.97373 0.53242,6.74078 0.70215,9.84919 -1.12231,4.78023 0.25728,10.45052 -3.33979,14.36777 -3.33472,2.07866 -5.6556,8.49625 -10.11975,7.07828 -2.69112,-2.55387 -5.0055,-5.60314 -7.29047,-8.60411 -2.7161,-3.55667 -1.63939,-8.31688 -2.53423,-12.44105 -0.43307,-2.99798 0.3811,-6.08406 -0.15283,-9.0327 z"
       id="path4557"
       inkscape:connector-curvature="0" />
    <g
       id="g4571">
      <path
         inkscape:connector-curvature="0"
         id="path4179"
         d="m 199.60365,328.52203 c 1.97154,3.31019 -1.41836,6.62516 -4.15132,7.49605 -3.42721,1.33544 -6.99554,-0.27605 -10.53461,0.20864 -5.64341,-0.15043 -11.69722,-0.26583 -16.73882,-3.30741 -3.50397,-3.83176 -3.7977,-9.8289 -7.30401,-13.68812 -3.85423,-3.87259 -1.25419,-9.63492 3.23812,-10.54749 3.82219,-0.004 7.32644,2.7149 11.20253,1.94698 6.67144,0.5308 13.10499,3.63022 18.13001,8.44602"
         style="fill:#332c26;fill-opacity:0.21991703;fill-rule:evenodd;stroke:none;stroke-width:0.65506333px;stroke-linecap:butt;stroke-linejoin:miter;stroke-opacity:1" />
      <path
         sodipodi:nodetypes="cccccssccccc"
         inkscape:connector-curvature="0"
         id="rect4136"
         d="m 187.96004,269.76413 c -4.0566,3.8e-4 -7.34488,2.64536 -7.3446,7.76636 0.003,2.65263 0.90526,5.17677 2.47935,6.93401 -6.16721,0.11282 -11.99223,5.54825 -11.06732,12.12816 l 3.7068,26.3715 c 0.93465,6.64923 1.31605,12.13887 7.55483,12.13887 h 8.54338 c 6.23877,0 7.133,-5.47392 7.96575,-12.13887 l 3.29481,-26.3715 c 0.79012,-6.32366 -4.44069,-11.56666 -10.30705,-12.08795 1.5974,-1.75716 2.51592,-4.29952 2.5197,-6.97422 2.8e-4,-5.12151 -3.28864,-7.76672 -7.34565,-7.76636 z"
         style="opacity:1;fill:#eccdb7;fill-opacity:1;stroke:none;stroke-width:1.31012666;stroke-linecap:round;stroke-linejoin:round;stroke-miterlimit:4;stroke-dasharray:none;stroke-dashoffset:0;stroke-opacity:0.24152545" />
      <path
         id="path4563"
         transform="scale(0.9375)"
         d="m 200.46484,287.75 c -4.31519,0.0116 -7.80889,2.83164 -7.80859,8.2832 0.003,2.82948 0.9655,5.5221 2.64453,7.39649 -6.57836,0.12034 -12.79126,5.91697 -11.80469,12.93554 l 2.36329,16.82227 c -1.9213,1.88136 -2.86282,5.0837 -2.23047,10.25 1.08742,2.06803 0.0359,5.1242 2.16015,5.73438 0.83938,0.84261 1.74702,1.34068 2.68555,1.69335 0.9021,3.90948 2.54547,6.57813 7.0332,6.57813 h 1.42969 c -0.43535,-1.3056 -0.91933,-2.84603 -0.86523,-3.31641 -0.32231,-1.50922 -0.8946,-2.65177 -1.42969,-3.92773 -0.69751,-1.11037 -1.40838,-2.29067 -1.78516,-3.92969 -0.32573,-1.89401 -0.70212,-3.73828 -0.71484,-5.94531 -0.13007,-2.25556 0.43853,-3.81293 1.07226,-5.30469 0.83691,-2.27903 0.62128,-4.37881 0,-6.96484 -0.55266,-2.14253 -0.67675,-4.30126 -1.25,-6.25 -0.14515,-2.67015 -1.4395,-4.08796 -1.60742,-6.60547 -0.55949,-1.16461 0.0979,-2.79556 0,-4.10742 0.34154,-1.03421 1.00283,-1.98717 1.96485,-2.5 0.63016,-0.49374 1.14974,-1.13157 1.78515,-1.78711 0.46703,-0.79149 1.10446,-1.33035 1.60742,-1.96289 0.44637,-0.80363 1.08767,-1.41235 1.78516,-1.96485 0.7534,-0.56149 -1.12871,-1.4886 -0.89258,-2.67773 0.0698,-1.89454 -0.28184,-4.21013 0.53516,-5.35742 0.24097,-1.24935 1.00212,-1.91457 1.60742,-2.67969 0.79268,-1.07918 1.4456,-1.95299 1.60742,-3.39258 0.0374,-0.34165 0.0793,-0.68702 0.10742,-1.01953 z"
         style="fill:#6b3d1c;fill-opacity:0.20746891;stroke:none;stroke-width:1px;stroke-linecap:butt;stroke-linejoin:miter;stroke-opacity:1"
         inkscape:connector-curvature="0" />
    </g>
    <g
       id="g4592">
      <path
         sodipodi:nodetypes="ccccczcc"
         inkscape:connector-curvature="0"
         id="path4183"
         d="m 275.19107,331.32884 c 0.46938,4.22261 -3.78648,5.1217 -6.50707,4.81221 -3.60974,-0.43735 -7.04778,1.37068 -10.65478,0.75628 -4.28244,-0.44417 -8.3795,-2.20068 -12.2071,-4.41045 -2.81452,-5.15682 -8.17245,-7.73834 -10.63118,-13.18519 -1.83993,-2.93065 1.24415,-5.84507 6.6171,-4.95784 5.37294,0.88722 20.85727,8.85804 29.87562,13.82338 1.15825,0.80172 2.40031,1.64525 2.87951,3.16161"
         style="fill:#332c26;fill-opacity:0.21991703;fill-rule:evenodd;stroke:none;stroke-width:0.65506333px;stroke-linecap:butt;stroke-linejoin:miter;stroke-opacity:1" />
      <path
         sodipodi:nodetypes="sccssssssccs"
         style="opacity:1;fill:#eccdb7;fill-opacity:1;stroke:none;stroke-width:1.31012666;stroke-linecap:round;stroke-linejoin:round;stroke-miterlimit:4;stroke-dasharray:none;stroke-dashoffset:0;stroke-opacity:0.24152545"
         d="m 264.99989,274.94149 c -4.05658,3.4e-4 -7.34486,3.74297 -7.34458,8.35942 0.003,2.39127 0.90525,4.66672 2.47934,6.25083 -6.16721,0.10171 -8.61884,5.11759 -7.11983,10.93322 1.97936,7.6791 3.48337,14.92931 1.93115,23.77322 -1.49893,8.54038 -0.85579,10.94289 5.38299,10.94289 h 9.49041 c 6.23877,0 4.8926,-4.9036 4.33405,-10.94289 -0.8207,-8.8738 0.85512,-16.04394 2.3478,-23.77322 1.09145,-5.65171 -0.80901,-10.42704 -6.67537,-10.89697 1.5974,-1.58404 2.51592,-3.87591 2.5197,-6.28708 2.8e-4,-4.61691 -3.28865,-8.35974 -7.34566,-8.35942 z"
         id="path4148"
         inkscape:connector-curvature="0" />
      <path
         id="path4580"
         transform="scale(0.9375)"
         d="m 282.66602,293.27148 c -4.32702,3.7e-4 -7.83429,3.99181 -7.83399,8.91602 0.003,2.55069 0.9655,4.97825 2.64453,6.66797 -6.48565,0.10696 -9.10975,5.31099 -7.65039,11.40234 -0.20696,0.0647 -0.41394,0.1403 -0.62109,0.20117 0.56952,3.14522 -0.29788,6.43692 0.16406,9.63477 0.9545,4.39911 -0.19405,9.47575 2.70313,13.26953 0.0668,0.0877 0.13433,0.1759 0.20117,0.26367 -0.0926,0.74067 -0.19835,1.48636 -0.33203,2.24805 -1.59886,9.10974 -0.91251,11.67188 5.74218,11.67188 h 0.97071 c -0.41838,-1.49944 -0.74391,-3.02266 -0.76758,-4.61524 -1.25595,-3.81448 0.32536,-7.63515 1.10547,-11.32617 0.43001,-5.73467 0.84511,-11.6985 -0.98828,-17.24414 0.114,-3.9173 -2.9157,-8.34276 -0.0449,-11.76758 1.90301,-2.62017 3.64925,-4.79393 1.44336,-7.97656 -1.95765,-4.31664 1.841,-7.16615 3.48243,-10.6875 0.14531,-0.21604 0.24354,-0.41967 0.34961,-0.625 -0.18851,-0.0154 -0.3764,-0.0332 -0.56836,-0.0332 z"
         style="fill:#6b3d1c;fill-opacity:0.20784314;stroke:none;stroke-width:1px;stroke-linecap:butt;stroke-linejoin:miter;stroke-opacity:1"
         inkscape:connector-curvature="0" />
    </g>
    <g
       id="g4608">
      <path
         inkscape:connector-curvature="0"
         id="path4207"
         d="m 339.5686,332.35088 c 0.62003,2.40611 -1.75674,3.5225 -3.53291,3.52906 -2.12696,0.33223 -4.34092,0.5271 -6.4611,0.12824 -2.45928,-0.96288 -4.85467,-2.12919 -6.9645,-3.84608 -1.49229,-1.15899 -3.01787,-2.18304 -4.5672,-3.23545 -1.54989,-1.30248 -3.83351,-2.35963 -3.51207,-4.95935 -0.35569,-1.99137 -0.17075,-4.90965 2.06695,-5.37749 1.98042,0.0415 4.11294,-0.89824 5.94937,0.37733 2.03667,0.99411 4.1415,1.74418 6.30909,2.29571 1.97011,0.64495 3.93195,1.34717 5.73247,2.44603 1.59457,1.12857 3.67848,1.65426 4.88462,3.29046 0.73797,1.69157 0.57785,3.67315 0.61176,5.49323"
         style="fill:#332c26;fill-opacity:0.21991703;fill-rule:evenodd;stroke:none;stroke-width:0.75750577px;stroke-linecap:butt;stroke-linejoin:miter;stroke-opacity:1" />
      <path
         inkscape:connector-curvature="0"
         id="path4191"
         d="m 334.35877,285.74085 c -3.71956,3.2e-4 -6.73464,3.43201 -6.73437,7.66491 0.002,2.1926 0.83004,4.279 2.27335,5.73148 -5.65482,0.0932 -4.70739,4.69241 -3.33291,10.02486 1.39194,3.75792 -0.67378,18.16016 2.59811,25.36297 h 8.47266 c 4.57524,-6.26492 3.03917,-22.1879 3.70837,-25.36297 1.00077,-5.18214 2.81876,-9.56073 -2.5602,-9.99161 1.46468,-1.45244 2.30689,-3.5539 2.31035,-5.76473 2.7e-4,-4.23333 -3.01543,-7.6652 -6.73536,-7.66491 z"
         style="opacity:1;fill:#eccdb7;fill-opacity:1;stroke:none;stroke-width:1.51501155;stroke-linecap:round;stroke-linejoin:round;stroke-miterlimit:4;stroke-dasharray:none;stroke-dashoffset:0;stroke-opacity:0.24152545"
         sodipodi:nodetypes="sccccccccs" />
      <path
         inkscape:connector-curvature="0"
         id="path4590"
         d="m 334.35791,285.74105 c -3.71956,3.2e-4 -6.73306,3.4319 -6.73279,7.6648 0.002,2.1926 0.82904,4.27872 2.27234,5.7312 -5.65481,0.0932 -4.70699,4.69258 -3.33252,10.02502 0.59518,1.60684 0.56203,5.19219 0.58045,9.29627 -0.23682,-7e-4 -0.47365,10e-4 -0.71045,0 -1.09073,1.15979 -1.05967,3.35226 -0.73975,5.04638 0.12368,1.46778 -0.0822,3.23692 0.72143,4.39271 0.39573,0.353 0.8246,0.63149 1.2616,0.88989 0.2961,2.137 0.75159,4.12401 1.48499,5.73852 h 3.57788 c -0.003,-2.31675 -2.10473,-3.96049 -1.99585,-6.18713 0.44049,-2.54347 1.11888,-5.10502 0.76172,-7.6831 -0.90693,-2.07334 -0.9256,-4.28012 -0.98878,-6.51123 0.36728,-3.18508 -0.59111,-6.22722 -0.36803,-9.33656 0.40838,-2.14977 0.68752,-4.73314 2.72644,-5.82641 -1.40142,-2.48778 -0.43038,-5.42477 0.13367,-7.99255 0.34716,-1.87722 1.46077,-3.47315 2.18261,-5.18189 -0.27429,-0.0387 -0.55149,-0.0659 -0.83496,-0.0659 z"
         style="fill:#6b3d1c;fill-opacity:0.20784314;stroke:none;stroke-width:0.9375px;stroke-linecap:butt;stroke-linejoin:miter;stroke-opacity:1" />
    </g>
  </g>
  <g
     inkscape:groupmode="layer"
     id="layer5"
     inkscape:label="Clothing"
     style="display:inline">
    <g
       id="g4566">
      <path
         style="fill:#eaeaea;fill-opacity:1;fill-rule:evenodd;stroke:none;stroke-width:0.75764668px;stroke-linecap:butt;stroke-linejoin:miter;stroke-opacity:1"
         d="m 172.1529,321.97218 c -2.38054,-19.4491 19.00621,-9.22117 28.29768,-8.24822 2.72858,0.28573 1.77477,4.62734 2.77191,7.9975 0.57613,2.21859 0.12492,7.56499 -2.46119,7.77054 -3.29675,0.34838 -6.63877,-0.39691 -9.89192,0.80319 -3.25249,0.0261 -6.51152,0.0874 -9.76138,-0.0297 -2.33833,-0.98872 -4.85436,-0.83322 -6.92986,-2.91677 -1.99145,-0.57204 -1.00578,-3.43771 -2.02524,-5.37649 z"
         id="path4555"
         inkscape:connector-curvature="0"
         sodipodi:nodetypes="csccccccc" />
      <path
         id="path4558"
         transform="scale(0.9375)"
         d="m 192.83008,330.85352 c -2.81742,0.0425 -5.27553,0.67405 -6.9707,2.33398 -0.0335,0.0328 -0.0609,0.0738 -0.0938,0.10742 -0.20138,0.20572 -0.39806,0.41941 -0.57617,0.65625 -0.0567,0.0755 -0.10195,0.1654 -0.15625,0.24414 -0.14531,0.21074 -0.29089,0.41951 -0.41797,0.6543 -0.0635,0.11735 -0.11308,0.25341 -0.17187,0.37695 -0.10232,0.21503 -0.20933,0.42392 -0.29688,0.65821 -0.0559,0.14961 -0.0949,0.32083 -0.14453,0.47851 -0.0738,0.23432 -0.15322,0.4603 -0.21289,0.71289 -0.0274,0.11601 -0.0421,0.2492 -0.0664,0.36914 -0.0637,0.31449 -0.12785,0.62654 -0.16993,0.96875 -0.0231,0.18777 -0.0285,0.39936 -0.0449,0.59571 -0.025,0.29958 -0.0575,0.59016 -0.0664,0.91015 -2e-5,6.8e-4 2e-5,0.001 0,0.002 -0.0145,0.52585 -0.007,1.07916 0.0234,1.6621 0.0309,0.58814 0.0846,1.20471 0.16407,1.85352 0.13592,0.2585 0.23889,0.53178 0.31836,0.81445 0.0795,0.28269 0.13591,0.57373 0.17968,0.86719 0.19729,1.32104 0.13719,2.68297 0.76758,3.47461 0.07,0.0879 0.14995,0.16918 0.23828,0.24219 0.088,0.0726 0.18423,0.13721 0.29297,0.19336 5.1e-4,2.6e-4 0.001,-2.6e-4 0.002,0 0.10885,0.0561 0.22919,0.10462 0.36133,0.14258 0.25074,0.2517 0.50966,0.46447 0.77149,0.66015 0.0796,0.0595 0.15967,0.11307 0.24023,0.16797 0.19284,0.13162 0.3884,0.25097 0.58594,0.35938 0.0877,0.0481 0.17512,0.0985 0.26367,0.14257 0.21131,0.10532 0.42526,0.19921 0.64063,0.28516 0.0615,0.0246 0.12175,0.0549 0.18359,0.0781 1.53686,0.57752 3.15848,0.7632 4.70703,1.41797 0.7827,0.0282 1.56611,0.0452 2.34961,0.0566 -0.27502,-0.72909 -0.58519,-1.41694 -0.88867,-2.14062 -0.69751,-1.11037 -1.40838,-2.29067 -1.78516,-3.92969 -0.32573,-1.89401 -0.70212,-3.73828 -0.71484,-5.94531 -0.13007,-2.25556 0.43853,-3.81293 1.07226,-5.30469 0.51428,-1.40045 0.62856,-2.7348 0.49805,-4.1543 -0.29645,-0.008 -0.59348,-0.0161 -0.88281,-0.0117 z"
         style="fill:#6b3d1c;fill-opacity:0.20746891;stroke:none;stroke-width:1px;stroke-linecap:butt;stroke-linejoin:miter;stroke-opacity:1"
         inkscape:connector-curvature="0" />
    </g>
    <g
       id="g4587">
      <path
         style="fill:#eaeaea;fill-opacity:1;stroke:none;stroke-width:0.9375px;stroke-linecap:butt;stroke-linejoin:miter;stroke-opacity:1"
         d="m 252.3803,300.4299 c 3.34316,-0.98243 6.65149,-2.5855 10.23638,-1.94477 4.15942,0.3002 8.36249,0.40518 12.49854,0.72739 3.75741,1.97373 0.53242,6.74078 0.70215,9.84919 -1.12231,4.78023 0.25728,10.45052 -3.33979,14.36777 -3.33472,2.07866 -5.6556,8.49625 -10.11975,7.07828 -2.69112,-2.55387 -5.0055,-5.60314 -7.29047,-8.60411 -2.7161,-3.55667 -1.63939,-8.31688 -2.53423,-12.44105 -0.43307,-2.99798 0.3811,-6.08406 -0.15283,-9.0327 z"
         id="path4573"
         inkscape:connector-curvature="0" />
      <path
         id="path4575"
         transform="scale(0.9375)"
         d="m 276.95312,318.32227 c -2.43068,0.27958 -4.77613,1.20016 -7.12695,1.93554 -0.20696,0.0647 -0.41394,0.1403 -0.62109,0.20117 0.56952,3.14522 -0.29788,6.43692 0.16406,9.63477 0.65622,3.02439 0.31814,6.36865 0.98438,9.39648 0.12113,0.55052 0.27508,1.09145 0.4746,1.61719 0.19953,0.52574 0.44416,1.03599 0.7461,1.5293 3e-4,4.9e-4 -3e-4,10e-4 0,0.002 0.15074,0.24619 0.3173,0.48793 0.49805,0.72461 0.0668,0.0877 0.13433,0.1759 0.20117,0.26367 1.65633,2.17519 3.33782,4.35829 5.14844,6.38477 -0.0331,-2.83641 0.98936,-5.65755 1.57031,-8.40625 0.43001,-5.73467 0.84511,-11.6985 -0.98828,-17.24414 0.0567,-1.9493 -0.66504,-4.02402 -1.05079,-6.03906 z"
         style="fill:#6b3d1c;fill-opacity:0.20784314;stroke:none;stroke-width:1px;stroke-linecap:butt;stroke-linejoin:miter;stroke-opacity:1"
         inkscape:connector-curvature="0" />
    </g>
    <g
       id="g4603">
      <path
         style="fill:#eaeaea;fill-opacity:1;fill-rule:evenodd;stroke:none;stroke-width:0.91958982px;stroke-linecap:butt;stroke-linejoin:miter;stroke-opacity:1"
         d="m 342.79641,319.92234 c -2.02921,-1.08646 -4.16231,-2.17644 -6.36637,-1.88079 -1.52521,-0.11069 -3.01572,0.7254 -4.54372,0.4158 -1.81696,-3.2e-4 -3.63392,0.0118 -5.45089,10e-4 -1.09073,1.15979 -1.05981,3.35215 -0.73989,5.04628 0.12368,1.46778 -0.0833,3.23649 0.72036,4.39228 0.69247,0.61772 1.4847,1.02278 2.24876,1.4525 1.06046,0.5321 2.16021,0.88323 3.23498,1.33695 1.35912,0.32175 2.74298,-0.10277 4.10558,0.21167 1.2216,0.1498 2.48497,0.23836 3.66902,-0.30187 0.71634,0.39343 1.60437,-0.14206 1.76384,-1.25889 0.29998,-1.21761 -0.10095,-2.4731 0.0923,-3.70225 0.15452,-1.9892 0.42133,-4.06074 1.26603,-5.71288 z"
         id="path4594"
         inkscape:connector-curvature="0" />
      <path
         id="path4596"
         transform="scale(0.9375)"
         d="m 352.9082,339.6875 c -1.31766,0.002 -2.63545,0.006 -3.95312,0.002 -0.2526,-7.5e-4 -0.50522,10e-4 -0.75781,0 -0.29087,0.30928 -0.50693,0.68599 -0.66211,1.10743 -0.15519,0.42143 -0.24961,0.88656 -0.29688,1.36914 -0.0945,0.96518 -7e-4,2.00271 0.16992,2.90625 0.066,0.78281 0.0445,1.64521 0.11328,2.46679 0.0171,0.20537 0.0391,0.40721 0.0703,0.60547 0.005,0.0348 0.0155,0.067 0.0215,0.10156 0.0847,0.4853 0.23142,0.93618 0.4668,1.33399 0.0341,0.0576 0.0593,0.12067 0.0976,0.17578 0.0291,0.026 0.0604,0.047 0.0899,0.0723 0.18416,0.15788 0.37191,0.30698 0.5664,0.44141 10e-4,8.3e-4 0.003,0.001 0.004,0.002 0.22426,0.15483 0.45372,0.29847 0.68555,0.43555 0.34955,0.20669 0.70348,0.40318 1.05273,0.59961 0.89568,0.44942 1.81432,0.78506 2.72852,1.14258 -0.31619,-0.70467 -0.54857,-1.42719 -0.50977,-2.2207 0.46986,-2.71304 1.19347,-5.44536 0.8125,-8.19532 -0.33501,-0.76586 -0.55014,-1.55053 -0.69922,-2.3457 z"
         style="fill:#6b3d1c;fill-opacity:0.20784314;stroke:none;stroke-width:1px;stroke-linecap:butt;stroke-linejoin:miter;stroke-opacity:1"
         inkscape:connector-curvature="0" />
    </g>
  </g>
</svg>
